<svg xmlns="http://www.w3.org/2000/svg" xmlns:xlink="http://www.w3.org/1999/xlink" viewBox="0 0 122.96 70.85"><defs><style>.cls-1{fill:url(#Degradado_sin_nombre_3);}.cls-2{fill:url(#Degradado_sin_nombre_2);}.cls-3,.cls-5{opacity:0.4;}.cls-12,.cls-3,.cls-5{isolation:isolate;}.cls-3{fill:url(#Degradado_sin_nombre_4);}.cls-4{fill:#fff;}.cls-5{fill:url(#Degradado_sin_nombre_4-2);}.cls-6{fill:#565f64;}.cls-7{fill:url(#Degradado_sin_nombre_5);}.cls-8{fill:#a4aaae;fill-opacity:0.6;}.cls-9{fill:#333e46;}.cls-10{fill:url(#Degradado_sin_nombre_6);}.cls-11{fill-opacity:0.8;fill:url(#Degradado_sin_nombre_7);}.cls-12{opacity:0.8;fill:url(#Degradado_sin_nombre_8);}.cls-13{fill:url(#Degradado_sin_nombre_9);}.cls-14{fill:url(#Degradado_sin_nombre_10);}.cls-15{fill:url(#Degradado_sin_nombre_11);}.cls-16{fill:url(#Degradado_sin_nombre_12);}.cls-17{fill:url(#Degradado_sin_nombre_14);}.cls-18{fill:url(#Degradado_sin_nombre_14-2);}.cls-19{fill:url(#Degradado_sin_nombre_15);}.cls-20{fill:#fbfbfb;}.cls-21{fill:#333f47;}</style><linearGradient id="Degradado_sin_nombre_3" x1="44.55" y1="785.45" x2="78.62" y2="756.92" gradientTransform="matrix(1, 0, 0, -1, 0, 793.9)" gradientUnits="userSpaceOnUse"><stop offset="0" stop-color="#fff"/><stop offset="0.1" stop-color="#e7e8e6"/><stop offset="0.1" stop-color="#cdd0d0"/><stop offset="0.2" stop-color="#b5bbbd"/><stop offset="0.2" stop-color="#a5acaf"/><stop offset="0.3" stop-color="#9ba3a7"/><stop offset="0.3" stop-color="#98a0a4"/><stop offset="0.4" stop-color="#828a8f"/><stop offset="0.5" stop-color="#667075"/><stop offset="0.6" stop-color="#535c63"/><stop offset="0.7" stop-color="#475158"/><stop offset="0.8" stop-color="#434d54"/><stop offset="1" stop-color="#475157"/></linearGradient><linearGradient id="Degradado_sin_nombre_2" x1="45.6" y1="784.63" x2="77.54" y2="757.8" gradientTransform="matrix(1, 0, 0, -1, 0, 793.9)" gradientUnits="userSpaceOnUse"><stop offset="0" stop-color="#0b1f2a"/><stop offset="0.2" stop-color="#333f47"/><stop offset="0.5" stop-color="#777f84"/><stop offset="0.5" stop-color="#81898d"/><stop offset="0.7" stop-color="#b3b8b8"/><stop offset="0.8" stop-color="#d2d5d3"/><stop offset="0.8" stop-color="#dee0dd"/><stop offset="1" stop-color="#fbfbfb"/></linearGradient><linearGradient id="Degradado_sin_nombre_4" x1="1091.84" y1="289.04" x2="1107.38" y2="246.32" gradientTransform="matrix(-1, 0, 0, 1, 1161.19, -244.99)" gradientUnits="userSpaceOnUse"><stop offset="0" stop-color="#e1e3e1"/><stop offset="0.1" stop-color="#c1c5c4"/><stop offset="0.3" stop-color="#9ba1a2"/><stop offset="0.5" stop-color="#7d8487"/><stop offset="0.7" stop-color="#687074" stop-opacity="0"/><stop offset="0.8" stop-color="#5b6469" stop-opacity="0"/><stop offset="1" stop-color="#576065" stop-opacity="0"/></linearGradient><linearGradient id="Degradado_sin_nombre_4-2" x1="51.79" y1="788.15" x2="71.38" y2="754.22" gradientTransform="matrix(1, 0, 0, -1, 0, 793.9)" xlink:href="#Degradado_sin_nombre_4"/><linearGradient id="Degradado_sin_nombre_5" x1="70.45" y1="765.94" x2="69.24" y2="763.95" gradientTransform="matrix(1, 0, 0, -1, 0, 793.9)" gradientUnits="userSpaceOnUse"><stop offset="0" stop-color="#27343c"/><stop offset="1" stop-color="#00111e" stop-opacity="0"/></linearGradient><linearGradient id="Degradado_sin_nombre_6" x1="66.97" y1="773.24" x2="64.98" y2="776.43" gradientTransform="matrix(1, 0, 0, -1, 0, 793.9)" gradientUnits="userSpaceOnUse"><stop offset="0.1" stop-color="#02131f"/><stop offset="0.9" stop-color="#02131f" stop-opacity="0"/></linearGradient><linearGradient id="Degradado_sin_nombre_7" x1="61.57" y1="768.11" x2="58.59" y2="767.26" gradientTransform="matrix(1, 0, 0, -1, 0, 793.9)" gradientUnits="userSpaceOnUse"><stop offset="0.2" stop-color="#02131f"/><stop offset="0.9" stop-color="#02131f" stop-opacity="0"/></linearGradient><linearGradient id="Degradado_sin_nombre_8" x1="53.63" y1="764.16" x2="53.21" y2="765.22" gradientTransform="matrix(1, 0, 0, -1, 0, 793.9)" gradientUnits="userSpaceOnUse"><stop offset="0" stop-color="#02131f"/><stop offset="0.1" stop-color="#02131f"/><stop offset="1" stop-color="#02131f" stop-opacity="0"/></linearGradient><linearGradient id="Degradado_sin_nombre_9" x1="64.14" y1="781.68" x2="61.73" y2="781.4" gradientTransform="matrix(1, 0, 0, -1, 0, 793.9)" gradientUnits="userSpaceOnUse"><stop offset="0.3" stop-color="#02131f"/><stop offset="0.8" stop-color="#02131f" stop-opacity="0"/></linearGradient><linearGradient id="Degradado_sin_nombre_10" x1="64.22" y1="781.72" x2="62.59" y2="781.51" gradientTransform="matrix(1, 0, 0, -1, 0, 793.9)" gradientUnits="userSpaceOnUse"><stop offset="0.4" stop-color="#27343c"/><stop offset="1" stop-color="#3b474e" stop-opacity="0"/></linearGradient><linearGradient id="Degradado_sin_nombre_11" x1="38.62" y1="770.6" x2="58.42" y2="759.17" gradientTransform="matrix(1, 0, 0, -1, 0, 793.9)" gradientUnits="userSpaceOnUse"><stop offset="0" stop-color="#24303a" stop-opacity="0"/><stop offset="0" stop-color="#25323b" stop-opacity="0"/><stop offset="0.1" stop-color="#27343c"/></linearGradient><linearGradient id="Degradado_sin_nombre_12" x1="61.55" y1="767.35" x2="61.55" y2="770.76" gradientTransform="matrix(1, 0, 0, -1, 0, 793.9)" gradientUnits="userSpaceOnUse"><stop offset="0.3" stop-color="#a5abaf"/><stop offset="1" stop-color="#a5abaf" stop-opacity="0"/></linearGradient><linearGradient id="Degradado_sin_nombre_14" x1="72.69" y1="792.27" x2="72.69" y2="748.97" gradientTransform="matrix(1, 0, 0, -1, 0, 793.9)" gradientUnits="userSpaceOnUse"><stop offset="0" stop-color="#dee0dd"/><stop offset="0" stop-color="#c5c9c7"/><stop offset="0" stop-color="#9ea4a5"/><stop offset="0" stop-color="#82898c"/><stop offset="0" stop-color="#71797d"/><stop offset="0" stop-color="#6b7378"/><stop offset="0.2" stop-color="#333f47"/><stop offset="0.5" stop-color="#27343c"/><stop offset="0.8" stop-color="#333f47"/><stop offset="1" stop-color="#434d54"/></linearGradient><linearGradient id="Degradado_sin_nombre_14-2" x1="61.59" y1="793.4" x2="61.8" y2="793.4" xlink:href="#Degradado_sin_nombre_14"/><linearGradient id="Degradado_sin_nombre_15" x1="79.53" y1="788.15" x2="69.95" y2="774.1" gradientTransform="matrix(1, 0, 0, -1, 0, 793.9)" gradientUnits="userSpaceOnUse"><stop offset="0.7" stop-color="#27343c"/><stop offset="0.7" stop-color="#2b373f"/><stop offset="0.7" stop-color="#36424a"/><stop offset="0.7" stop-color="#49545b"/><stop offset="0.8" stop-color="#646d73" stop-opacity="0"/><stop offset="0.8" stop-color="#868d92" stop-opacity="0"/><stop offset="0.8" stop-color="#b0b5b8" stop-opacity="0"/><stop offset="0.8" stop-color="#e1e3e4" stop-opacity="0"/><stop offset="0.8" stop-color="#fff" stop-opacity="0"/></linearGradient></defs><title>Recurso 1</title><g id="Capa_2" data-name="Capa 2"><g id="Capa_1-2" data-name="Capa 1"><path id="outer" class="cls-1" d="M83.8,22.71A22.22,22.22,0,1,1,61.59.5,22.21,22.21,0,0,1,83.8,22.71ZM61.59,1.85A20.87,20.87,0,1,0,82.45,22.71,20.81,20.81,0,0,0,61.59,1.85Z"/><path class="cls-2" d="M61.59,1.85A20.87,20.87,0,1,0,82.45,22.71,20.81,20.81,0,0,0,61.59,1.85Zm0,40.38A19.52,19.52,0,1,1,81.1,22.71,19.51,19.51,0,0,1,61.59,42.23Z"/><path class="cls-3" d="M61.59,44.93A22.22,22.22,0,1,0,39.37,22.71,22.21,22.21,0,0,0,61.59,44.93ZM61.59,0A22.71,22.71,0,1,1,38.88,22.71,22.78,22.78,0,0,1,61.59,0Z"/><path class="cls-4" d="M40.44,22.78A21.22,21.22,0,0,1,61.59,1.56h0A21.17,21.17,0,0,1,82.74,22.78h0A21.1,21.1,0,0,1,61.59,43.86h0A21.1,21.1,0,0,1,40.44,22.78ZM47,8.16a20.67,20.67,0,0,0-6.11,14.62h0a20.61,20.61,0,0,0,6,14.55h0a20.89,20.89,0,0,0,14.62,6h0a20.33,20.33,0,0,0,14.55-6h0a20.31,20.31,0,0,0,6-14.55h0a20.89,20.89,0,0,0-6-14.62h0a20.39,20.39,0,0,0-14.55-6.1h0A20.37,20.37,0,0,0,47,8.16Z"/><path class="cls-5" d="M61.59,42.3A19.57,19.57,0,0,1,47.75,8.87,19.57,19.57,0,1,1,75.43,36.55,19.44,19.44,0,0,1,61.59,42.3Zm0-.57A19,19,0,0,0,75,9.37,18.78,18.78,0,0,0,61.59,3.83,19,19,0,0,0,48.17,9.37a18.44,18.44,0,0,0-5.6,13.34,19,19,0,0,0,19,19Z"/><path class="cls-4" d="M78.83,31.94c-.35-.29-14-11.15-14-11.15L61.59,2.56a1.18,1.18,0,0,0-.64.56L58.68,20.87,44.55,31.72s-.28.36-.42.57a1.42,1.42,0,0,0-.07.57h0l17.46-7.17L79,32.86h0A1,1,0,0,0,78.83,31.94Z"/><path class="cls-6" d="M61.73,23.28l-.14,3.26,16,6.46a1.28,1.28,0,0,0,1.42-.14L61.94,23.21A.13.13,0,0,0,61.73,23.28Z"/><path class="cls-7" d="M61.73,23.28a16.86,16.86,0,0,0,2,2.77,16.35,16.35,0,0,0,3.47,2.76L77.63,33a1.28,1.28,0,0,0,1.42-.14L61.94,23.21A.13.13,0,0,0,61.73,23.28Z"/><path class="cls-8" d="M79,32.22c0-.07-.07-.14-.14-.28L64.21,21.22l-2,1.28s.14.07.21,0a1.79,1.79,0,0,1,1.06,0c.36.14,15.47,9.79,15.47,9.79Z"/><path class="cls-9" d="M78.48,31.58,64.85,20.79h0l-.64.43L78.83,32A1.89,1.89,0,0,0,78.48,31.58Z"/><path class="cls-6" d="M61.94,22.21l-.07.08s0,.14.14.07,2.13-1.14,2.84-1.57l-2.48-17a1.23,1.23,0,0,0-.85-1.13l.28,19.73Z"/><path class="cls-8" d="M60.73,3.76v.92L59.17,20.37a.65.65,0,0,0,.29.57l.92.71L61,4.33,61.09,3C60.88,3.12,60.81,3.41,60.73,3.76Z"/><path class="cls-8" d="M59.88,21.93,59,21.22,44.62,31.65s-.42.29-.49.57h0l.49-.28h0l15.12-9.51C60,22.29,60.1,22.14,59.88,21.93Z"/><path class="cls-6" d="M61.37,23.28c0-.07-.07-.14-.14-.07L44.06,32.93a1.39,1.39,0,0,0,1.42.14l16-6.46Z"/><path class="cls-10" d="M61.87,22.29l.07-.08-.07.08h0a.07.07,0,0,0,.07.07H62c.07-.07,2.13-1.14,2.84-1.57l-.28-2.05h0l-2.2-15a.84.84,0,0,0-.22-.64S63.22,17.46,63.22,19A4.64,4.64,0,0,1,61.87,22.29Z"/><path class="cls-11" d="M61.37,23.28c0-.07-.07-.14-.14-.07L44.06,32.93a1.39,1.39,0,0,0,1.42.14l16-6.46Z"/><path class="cls-12" d="M45.48,33l16-6.46-.15-3.12a4,4,0,0,1-2.13,2.48h0c-1,.57-10.5,5.26-13.91,6.89a4.42,4.42,0,0,1-.63.28A.76.76,0,0,0,45.48,33Z"/><path class="cls-13" d="M61.94,22.21l-.07.08s0,.14.14.07,2.13-1.14,2.84-1.57l-2.48-17a1.23,1.23,0,0,0-.85-1.13l.28,19.73Z"/><path class="cls-14" d="M61.94,22.21l-.07.08s0,.14.14.07,2.13-1.14,2.84-1.57l-2.48-17a1.23,1.23,0,0,0-.85-1.13l.28,19.73Z"/><path class="cls-15" d="M42.5,31.51c-.5-1.13-3.34-6.67-.22-17.32h-1.2a34.52,34.52,0,0,0-1.42,5.33A14.37,14.37,0,0,0,39.44,21a16.27,16.27,0,0,0-.07,1.7,18.47,18.47,0,0,0,1.07,6.74,20.64,20.64,0,0,0,5.82,9.16A20.35,20.35,0,0,0,55.2,42.8C54.7,42.73,46.19,39.11,42.5,31.51Z"/><path class="cls-16" d="M61.87,23.14h-.64c.07,0,.14,0,.14.07l.15,3.26h.07l.14-3.26c0-.07.07-.14.14-.07Z"/><path class="cls-17" d="M68.68,1.63c7.46,2.84,14.48,10.65,14.48,20.51A21.53,21.53,0,0,1,61.59,43.79v1.14a22.23,22.23,0,0,0,7.09-43.3Z"/><path class="cls-18" d="M61.8.5h0Z"/><path class="cls-19" d="M80.61,14.34A20.2,20.2,0,0,0,63.79,2.2h-.07c8.58,1.56,14,7.17,16,13.06v.07A22,22,0,0,1,81,22.64a19.37,19.37,0,0,1-1.56,7.81c-.07.35-.14.78-.21.78h1.13C83.8,24.84,82.31,18.38,80.61,14.34Z"/><path class="cls-20" d="M40.44,22.78A21.22,21.22,0,0,1,61.59,1.56h0A21.17,21.17,0,0,1,82.74,22.78h0A21.1,21.1,0,0,1,61.59,43.86h0A21.1,21.1,0,0,1,40.44,22.78ZM47,8.16a20.67,20.67,0,0,0-6.11,14.62h0a20.61,20.61,0,0,0,6,14.55h0a20.89,20.89,0,0,0,14.62,6h0a20.33,20.33,0,0,0,14.55-6h0a20.31,20.31,0,0,0,6-14.55h0a20.89,20.89,0,0,0-6-14.62h0a20.39,20.39,0,0,0-14.55-6.1h0A20.37,20.37,0,0,0,47,8.16Z"/><path class="cls-21" d="M44.48,31.8h0L59,21.36a14.54,14.54,0,0,0,2.2,1c.14.07.14-.07.14-.07l-1.77-1.5a.65.65,0,0,1-.29-.56L61,3.12c-.07.07-.07.22-.14.29a.56.56,0,0,0-.08.35L58.25,20.87,44.62,31.58C44.55,31.65,44.48,31.72,44.48,31.8Z"/><g id="Wortmarke_Vektor_RZ" data-name="Wortmarke Vektor RZ"><rect id="rect2" class="cls-4" x="79" y="64.6" width="4.57" height="1.12"/><path id="path4" class="cls-4" d="M2.79,58.13l-.45,10.6V69c0,.9.23,1.12,1.68,1.23v.45a15.41,15.41,0,0,0-2-.11,15.33,15.33,0,0,0-2,.11v-.45c1.45-.11,1.67-.22,1.67-1.34l.45-10v-.11c0-.89-.33-1.12-1.67-1.23V56.9A8.92,8.92,0,0,0,2.12,57,10.11,10.11,0,0,0,4,56.9L7.81,67.28,11.72,56.9a12.48,12.48,0,0,0,2,.12,9,9,0,0,0,1.68-.12v.56c-1.34.11-1.68.34-1.68,1.23v.11l.23,10c0,1.12.22,1.23,1.67,1.34v.45a24.88,24.88,0,0,0-2.57-.11,24.81,24.81,0,0,0-2.56.11v-.45c1.34-.11,1.67-.33,1.67-1.23v-.11l-.22-10.6-3.46,9L8.26,68l-.34.78-.22.78-.22.67H7.14l-.22-.67-.34-.78L6.36,68l-.22-.78ZM20.87,70.18c-1.9,0-2.68-1.45-2.68-4.68h6.13c0-3.13-1.33-4.8-3.79-4.8s-4,2-4,5.13,1.57,5,4.13,5a3.4,3.4,0,0,0,3.57-3.35h-.78c-.22,1.68-1.11,2.68-2.56,2.68m-2.68-5.47c.22-2.34,1-3.57,2.34-3.57s2,1.12,2.12,3.57Zm7.25-3.34V61a14.94,14.94,0,0,0,2.68-.44c.11.78.11,1.11.22,1.67v.22a2.71,2.71,0,0,1,2.34-1.89,1.67,1.67,0,0,1,1.79,1.67.91.91,0,0,1-.89,1c-.45,0-.9-.33-.9-.67V62c0-.34-.22-.45-.67-.45-1.11,0-1.78,1.34-1.78,3.35v4.24c0,.89.22,1,1.45,1.11v.45a18.52,18.52,0,0,0-2.23-.11,20.1,20.1,0,0,0-2.34.11v-.45c1.22-.11,1.45-.22,1.45-1.11V62.37c0-.89-.12-1-1.23-1Zm15-.9v3.35H40c-.34-1.78-1.12-2.68-2.35-2.68-1.56,0-2.45,1.68-2.45,4.58s.78,4.35,2.34,4.35c1.23,0,2-.89,2.23-2.68h.89c-.22,2.23-1.45,3.35-3.23,3.35-2.34,0-4-2-4-5s1.68-5.13,4-5.13a2.64,2.64,0,0,1,2.12.89l.56-1Zm6,9.71c-1.9,0-2.68-1.45-2.68-4.68h6.14c0-3.13-1.34-4.8-3.8-4.8s-4,2-4,5.13,1.56,5,4.12,5a3.4,3.4,0,0,0,3.57-3.35H49c-.22,1.68-1.11,2.68-2.56,2.68m-2.68-5.47c.22-2.34,1-3.57,2.34-3.57s2,1.12,2.12,3.57Zm15.62,3.8V56.68a22.74,22.74,0,0,1-3.12.56v.33c1.33,0,1.45.11,1.45,1.23v3.57c-.79-1.23-1.34-1.56-2.46-1.56-2.23,0-3.68,2.12-3.68,5s1.56,5,3.79,5a2.76,2.76,0,0,0,2.57-1.67,9,9,0,0,0,.33,1.67,13.64,13.64,0,0,1,2.35-.45h.33v-.33c-1.45-.22-1.56-.33-1.56-1.56m-3.91,1.78c-1.45,0-2.23-1.56-2.23-4.46s.67-4.46,2.23-4.46,2.35,1.56,2.35,4.57c-.11,2.79-.9,4.35-2.35,4.35m10.49-.11c-1.89,0-2.68-1.45-2.68-4.68H69.4c0-3.13-1.34-4.8-3.79-4.8s-4,2-4,5.13,1.56,5,4.13,5a3.4,3.4,0,0,0,3.57-3.35h-.78c-.22,1.68-1.12,2.68-2.57,2.68m-2.68-5.47c.23-2.34,1-3.57,2.35-3.57s2,1.12,2.12,3.57Zm7.82,6.14V67.39h.44c.34,1.9,1.23,2.79,2.68,2.79a1.94,1.94,0,0,0,2.12-1.9c0-.66-.34-1.11-1.34-1.67l-.78-.33-1-.34c-1.46-.67-2-1.23-2-2.45,0-1.68,1.22-2.68,3.12-2.68a3.91,3.91,0,0,1,2.12.67l.34-.89h.33v3.12h-.45c-.22-1.67-.89-2.45-2.12-2.45a1.77,1.77,0,0,0-1.89,1.67c0,.78.33,1.11,2.12,1.9l.89.33c1.56.67,2.12,1.34,2.12,2.57,0,1.67-1.34,2.9-3.35,2.9A3.56,3.56,0,0,1,72,69.74l-.45.89h-.44Zm22.09-10.6a3,3,0,0,0-1.23-2.57,4,4,0,0,0-2.79-.78H83.8v.56c1.45.11,1.67.22,1.67,1.34v9.93c0,1.12-.11,1.23-1.67,1.34v.45h5.13a6.4,6.4,0,0,0,3.23-.67,3.91,3.91,0,0,0,1.68-3.24,3.26,3.26,0,0,0-1.23-2.68,3.43,3.43,0,0,0-1.67-.67,3.07,3.07,0,0,0,2.23-3m-6-2.68h1.79c1.67,0,2.45.9,2.45,2.79a3,3,0,0,1-.67,2.12c-.44.56-1,.67-2.12.67H87.14Zm2,6.14a2.66,2.66,0,0,1,2.12.67,3.45,3.45,0,0,1,.78,2.34c0,2-1,3.24-2.9,3.24h-.78c-1.12,0-1.23-.11-1.23-1.12V63.71Zm10.71,6.47c-1.89,0-2.68-1.45-2.68-4.68h6.14c0-3.13-1.34-4.8-3.79-4.8s-4,2-4,5.13,1.56,5,4.13,5a3.4,3.4,0,0,0,3.57-3.35h-.78c-.22,1.68-1.12,2.68-2.57,2.68m-2.68-5.47c.23-2.34,1-3.57,2.35-3.57s2,1.12,2.12,3.57Zm7.15-3.23v-.34a7.64,7.64,0,0,0,2.67-.67c.12.45.12,1,.23,1.79A3.07,3.07,0,0,1,110,60.7a2.75,2.75,0,0,1,2.67,1.67,4.37,4.37,0,0,1,.34,1.9v4.91c0,.89.22,1,1.45,1.11v.45a22.66,22.66,0,0,0-4.46,0v-.45c1.11,0,1.34-.22,1.34-1.11v-5c0-1.79-.56-2.46-1.9-2.46s-2.12.89-2.12,2.57v4.91c0,.78.22,1,1.34,1.11v.45a17.62,17.62,0,0,0-2.23-.11,18.67,18.67,0,0,0-2.24.11v-.45c1.23-.11,1.45-.22,1.45-1.11v-6.7c0-.89-.11-1-1.11-1h-.22m10.93,9.15,5.58-9.15h-2.57c-1.34,0-1.67.33-2.34,2.12h-.45l.45-2.68h7l-5.58,9.15h2.34c1.34,0,2-.56,2.57-2.45h.45l-.56,2.9h-6.92Z"/></g></g></g></svg>