<?xml version="1.0" encoding="utf-8"?>
<!-- Generator: Adobe Illustrator 25.0.0, SVG Export Plug-In . SVG Version: 6.00 Build 0)  -->
<svg version="1.1" id="Capa_1" xmlns="http://www.w3.org/2000/svg" xmlns:xlink="http://www.w3.org/1999/xlink" x="0px" y="0px"
	 viewBox="0 0 1057.9 240.9" style="enable-background:new 0 0 1057.9 240.9;" xml:space="preserve">
<style type="text/css">
	.st0{fill:#FFFFFF;}
	.st1{fill:#FFC900;}
</style>
<g id="Capa_2_1_">
	<g id="Capa_1-2">
		
			<ellipse transform="matrix(0.6293 -0.7771 0.7771 0.6293 -106.5317 202.7575)" class="st0" cx="159.3" cy="213.1" rx="19.3" ry="16.6"/>
		
			<ellipse transform="matrix(0.6293 -0.7771 0.7771 0.6293 -135.1279 142.7979)" class="st0" cx="82.1" cy="213" rx="19.3" ry="16.4"/>
		<path class="st0" d="M166.2,177.3c30.6,0,55.5-24.9,55.4-55.5c0-28.7-21.9-52.6-50.4-55.2c12.3-21.2,5.1-48.3-16.1-60.6
			c-6.8-3.9-14.4-6-22.2-6H77.3c-6,0-10.8,4.9-10.8,10.8c0,0,0,0,0,0l0,0c0,6.2,5,11.2,11.2,11.2c0,0,0,0,0,0h55.2
			c12.3,0,22.2,9.9,22.2,22.2c0,12.2-9.9,22.2-22.2,22.2H99.8c-6.1,0-11,4.9-11,11v0.3c0,5.9,4.8,10.7,10.7,10.7c0,0,0,0,0,0
			l66.7,0.3l0,0c19.5,0,33.2,13.7,33.2,33.2s-13.7,33-33.2,33c0-0.1,0-0.2,0-0.4v0.4H83.7L56.2,35.2c-0.1-0.5-0.2-0.9-0.3-1.4
			l-0.1-0.6l0,0C50.8,13.7,33.2,0,13,0c-0.6,0-1.3,0-1.8,0C5,0,0,5,0,11.1c0,0,0,0,0,0l0,0c0,6,4.9,10.9,10.9,10.9l0,0h0.3
			c0.6,0,1.2,0,1.8,0c8.9,0,17,5.5,20.3,13.8l2,8.8L66.4,177L166.2,177.3z"/>
		<path class="st0" d="M381,81.1c5.8,5.8,8.7,14.6,8.8,26.3v45.3h-22.9v-41.8c0-6.3-1.3-10.9-3.9-14c-2.6-3.1-6.3-4.6-11.1-4.6
			c-5.4,0-9.7,1.7-12.8,5.2c-3.1,3.5-4.7,8.6-4.7,15.5v39.7h-22.9v-41.8c0-12.5-5-18.7-15-18.7c-5.3,0-9.5,1.7-12.6,5.2
			c-3.1,3.5-4.7,8.7-4.7,15.5v39.7h-22.9V73.5H278v9.1c3-3.4,6.7-6,10.8-7.7c4.5-1.8,9.2-2.7,14-2.7c5.2-0.1,10.4,1.1,15.1,3.3
			c4.4,2.1,8.2,5.5,10.9,9.6c3.3-4.1,7.5-7.4,12.3-9.6c5.1-2.3,10.7-3.4,16.2-3.4C367.3,72.4,375.2,75.3,381,81.1z"/>
		<path class="st0" d="M412.8,71.1c-5-4.7-5.3-12.6-0.6-17.6c0.2-0.2,0.4-0.4,0.6-0.6c2.8-2.5,6.5-3.8,10.3-3.7
			c3.8-0.2,7.4,1.1,10.3,3.5c2.6,2.2,4.1,5.4,4,8.8c0.1,3.6-1.4,7-4,9.5c-2.8,2.6-6.5,3.9-10.3,3.8
			C419.3,74.9,415.6,73.6,412.8,71.1z M411.6,87h22.9v65.7h-22.9V87z"/>
		<path class="st1" d="M548.2,108.5c3.3,4.4,5,9.7,5,16.1c0,9-3.5,16-10.5,20.8s-17.2,7.3-30.6,7.3h-53.3v-103H509
			c12.6,0,22.2,2.4,28.9,7.2c6.5,4.4,10.3,11.8,10.1,19.6c0.2,9.6-5.1,18.4-13.7,22.7C539.8,100.7,544.6,104,548.2,108.5z
			 M482.4,67.7v24.3h23.7c5.9,0,10.4-1,13.4-3.1c3-2,4.7-5.5,4.5-9.1c0-4-1.5-7-4.6-9c-3-2-7.5-3-13.4-3L482.4,67.7z M524.4,131.7
			c3.2-2,4.8-5.2,4.8-9.6c0-8.5-6.3-12.8-19-12.8h-27.8v25.4h27.8C516.5,134.7,521.2,133.7,524.4,131.7L524.4,131.7z"/>
		<path class="st1" d="M648.1,73.5v79.1h-21.8v-9.4c-3,3.4-6.7,6.1-10.9,7.9c-4.3,1.8-9,2.8-13.7,2.7c-10.4,0-18.6-3-24.7-9
			c-6.1-6-9.1-14.9-9.1-26.6V73.5h22.9v41.3c0,12.7,5.3,19.1,16,19.1c5.5,0,9.9-1.8,13.2-5.4s5-8.9,5-16V73.5H648.1z"/>
		<path class="st1" d="M668.2,43.5h22.9v109.1h-22.9V43.5z"/>
		<path class="st1" d="M789.5,119.6h-59.9c1,4.7,3.7,8.9,7.7,11.6c4,2.9,9,4.3,15,4.3c3.7,0.1,7.5-0.6,11-1.8
			c3.3-1.3,6.4-3.3,8.9-5.8l12.2,13.2c-7.5,8.5-18.3,12.8-32.7,12.8c-8.2,0.2-16.3-1.6-23.7-5.2c-6.6-3.2-12.1-8.2-15.9-14.5
			c-3.8-6.3-5.7-13.6-5.6-21c-0.1-7.4,1.8-14.6,5.5-21c3.6-6.2,8.9-11.2,15.2-14.6c13.3-6.9,29.2-7,42.6-0.2
			c6.2,3.3,11.3,8.2,14.8,14.3c3.7,6.6,5.5,14.1,5.4,21.7C790,113.7,789.8,115.8,789.5,119.6z M735.9,94.1
			c-3.6,3.1-5.9,7.4-6.5,12.1h39c-0.6-4.7-2.9-8.9-6.5-12c-3.6-3-8.2-4.6-12.9-4.5C744.2,89.6,739.6,91.1,735.9,94.1z"/>
		<path class="st1" d="M887.2,73.5l-33.4,79.1h-23.7L797,73.5h23.7l21.9,53.8l22.7-53.8H887.2z"/>
		<path class="st1" d="M959.1,81.1c6.6,5.8,9.9,14.6,9.9,26.4v45.2h-21.5v-9.9c-4.3,7.3-12.4,11-24.1,11c-5.4,0.1-10.8-0.9-15.8-3.1
			c-4.2-1.8-7.7-4.8-10.2-8.5c-2.4-3.7-3.6-8-3.5-12.4c0-7.3,2.8-13.1,8.3-17.4c5.5-4.2,14.1-6.3,25.7-6.3H946c0-5-1.5-8.8-4.6-11.5
			c-3-2.7-7.6-4-13.7-4c-4.2,0-8.4,0.7-12.4,2c-3.7,1.2-7.2,3-10.3,5.4l-8.2-16c4.7-3.2,10-5.6,15.5-7.1c6.1-1.7,12.3-2.5,18.6-2.5
			C943.1,72.4,952.5,75.3,959.1,81.1z M939.5,135.7c3-1.8,5.3-4.6,6.5-8v-8.1h-15.7c-9.4,0-14.1,3.1-14.1,9.3
			c-0.1,2.8,1.2,5.4,3.5,7c2.3,1.7,5.5,2.6,9.5,2.6C932.7,138.5,936.3,137.5,939.5,135.7z"/>
		<path class="st1" d="M1025.1,75.3c5.1-2,10.6-3,16.1-2.9v21.2c-2.6-0.2-4.3-0.3-5.1-0.3c-6.6,0-11.7,1.8-15.5,5.5
			c-3.7,3.7-5.6,9.2-5.6,16.6v37.4h-22.9V73.5h21.9V84C1016.8,80.1,1020.7,77.1,1025.1,75.3z"/>
		<g>
			<path class="st0" d="M279.5,213c1.3-1.8,2-4,2-6.6c0-3.6-1.2-6.4-3.6-8.4c-2.4-2-5.8-3.1-10-3.1h-12.5v33.5h3.5v-10.6h9
				c0.9,0,1.8,0,2.7-0.1l7.7,10.8h3.9l-8.2-11.5C276.3,216.1,278.2,214.8,279.5,213z M267.8,214.7h-8.9V198h8.9
				c3.3,0,5.8,0.7,7.6,2.2c1.8,1.5,2.6,3.5,2.6,6.2c0,2.6-0.9,4.7-2.6,6.2C273.6,214,271.1,214.7,267.8,214.7z"/>
			<path class="st0" d="M306.2,204.7c-1.8-1.1-3.9-1.6-6.3-1.6s-4.4,0.5-6.3,1.6c-1.9,1.1-3.3,2.6-4.4,4.5c-1.1,1.9-1.6,4.1-1.6,6.6
				s0.6,4.7,1.7,6.6c1.1,1.9,2.7,3.5,4.7,4.6c2,1.1,4.3,1.7,6.9,1.7c2,0,3.8-0.4,5.5-1.1c1.7-0.7,3.1-1.7,4.2-3.1l-1.9-2.2
				c-1,1.1-2.1,1.9-3.4,2.5c-1.3,0.6-2.7,0.8-4.3,0.8c-2.8,0-5.1-0.8-6.9-2.4c-1.8-1.6-2.8-3.7-3-6.3h21l0-1.1
				c0-2.5-0.5-4.7-1.6-6.6C309.5,207.2,308,205.7,306.2,204.7z M291,214.3c0.2-2.5,1.2-4.5,2.8-6c1.6-1.5,3.7-2.3,6.1-2.3
				c2.5,0,4.5,0.8,6.1,2.3c1.6,1.5,2.6,3.6,2.8,6H291z"/>
			<path class="st0" d="M339.5,208c-1.1-1.6-2.4-2.9-4-3.7c-1.6-0.8-3.5-1.3-5.5-1.3c-2.4,0-4.5,0.5-6.4,1.6
				c-1.9,1.1-3.4,2.6-4.5,4.5c-1.1,1.9-1.6,4.2-1.6,6.6c0,2.5,0.5,4.7,1.6,6.6c1.1,1.9,2.6,3.5,4.5,4.5c1.9,1.1,4,1.6,6.4,1.6
				c2.1,0,4-0.4,5.7-1.3c1.7-0.9,3-2.2,4-3.9v5h3.3v-35.5h-3.4V208z M338.4,220.9c-0.8,1.5-1.9,2.7-3.3,3.5c-1.4,0.8-3,1.2-4.8,1.2
				c-1.8,0-3.4-0.4-4.8-1.2c-1.4-0.8-2.5-2-3.3-3.5c-0.8-1.5-1.2-3.2-1.2-5.1c0-1.9,0.4-3.6,1.2-5.1c0.8-1.5,1.9-2.7,3.3-3.5
				c1.4-0.8,3-1.2,4.8-1.2c1.8,0,3.3,0.4,4.8,1.2c1.4,0.8,2.5,2,3.3,3.5c0.8,1.5,1.2,3.2,1.2,5.1
				C339.6,217.7,339.2,219.4,338.4,220.9z"/>
			<path class="st0" d="M386.4,208c-1.1-1.6-2.4-2.9-4-3.7c-1.6-0.8-3.5-1.3-5.5-1.3c-2.4,0-4.5,0.5-6.4,1.6
				c-1.9,1.1-3.4,2.6-4.5,4.5c-1.1,1.9-1.6,4.2-1.6,6.6c0,2.5,0.5,4.7,1.6,6.6c1.1,1.9,2.6,3.5,4.5,4.5c1.9,1.1,4,1.6,6.4,1.6
				c2.1,0,4-0.4,5.7-1.3c1.7-0.9,3-2.2,4-3.9v5h3.3v-35.5h-3.4V208z M385.2,220.9c-0.8,1.5-1.9,2.7-3.3,3.5c-1.4,0.8-3,1.2-4.8,1.2
				c-1.8,0-3.4-0.4-4.8-1.2c-1.4-0.8-2.5-2-3.3-3.5c-0.8-1.5-1.2-3.2-1.2-5.1c0-1.9,0.4-3.6,1.2-5.1c0.8-1.5,1.9-2.7,3.3-3.5
				c1.4-0.8,3-1.2,4.8-1.2c1.8,0,3.3,0.4,4.8,1.2c1.4,0.8,2.5,2,3.3,3.5c0.8,1.5,1.2,3.2,1.2,5.1C386.4,217.7,386,219.4,385.2,220.9
				z"/>
			<path class="st0" d="M416.2,204.7c-1.8-1.1-3.9-1.6-6.3-1.6s-4.4,0.5-6.3,1.6c-1.9,1.1-3.3,2.6-4.4,4.5c-1.1,1.9-1.6,4.1-1.6,6.6
				s0.6,4.7,1.7,6.6c1.1,1.9,2.7,3.5,4.7,4.6c2,1.1,4.3,1.7,6.9,1.7c2,0,3.8-0.4,5.5-1.1c1.7-0.7,3.1-1.7,4.2-3.1l-1.9-2.2
				c-1,1.1-2.1,1.9-3.4,2.5c-1.3,0.6-2.7,0.8-4.3,0.8c-2.8,0-5.1-0.8-6.9-2.4c-1.8-1.6-2.8-3.7-3-6.3h21l0-1.1
				c0-2.5-0.5-4.7-1.6-6.6C419.5,207.2,418.1,205.7,416.2,204.7z M401.1,214.3c0.2-2.5,1.2-4.5,2.8-6c1.6-1.5,3.7-2.3,6.1-2.3
				c2.5,0,4.5,0.8,6.1,2.3c1.6,1.5,2.6,3.6,2.8,6H401.1z"/>
			<path class="st0" d="M453.9,225.4c-0.7,0.2-1.3,0.3-2,0.3c-1.4,0-2.5-0.4-3.2-1.2c-0.7-0.8-1.1-1.9-1.1-3.4v-15h7.7v-2.9h-7.7
				v-5.5h-3.4v5.5h-4.5v2.9h4.5v15.2c0,2.3,0.6,4.1,1.9,5.4c1.3,1.3,3.1,1.9,5.5,1.9c1,0,2-0.2,2.9-0.5c0.9-0.3,1.7-0.7,2.4-1.3
				l-1.2-2.4C455.1,224.8,454.5,225.1,453.9,225.4z"/>
			<path class="st0" d="M465.6,192.9c-0.7,0-1.3,0.2-1.8,0.7c-0.5,0.5-0.7,1-0.7,1.7c0,0.7,0.2,1.2,0.7,1.7c0.5,0.5,1.1,0.7,1.8,0.7
				c0.7,0,1.3-0.2,1.8-0.7c0.5-0.5,0.7-1.1,0.7-1.8c0-0.6-0.2-1.2-0.7-1.6C466.9,193.1,466.3,192.9,465.6,192.9z"/>
			<rect x="463.9" y="203.2" class="st0" width="3.4" height="25.2"/>
			<path class="st0" d="M493.7,204.7c-1.8-1.1-3.9-1.6-6.3-1.6s-4.4,0.5-6.3,1.6c-1.9,1.1-3.3,2.6-4.4,4.5c-1.1,1.9-1.6,4.1-1.6,6.6
				s0.6,4.7,1.7,6.6c1.1,1.9,2.7,3.5,4.7,4.6c2,1.1,4.3,1.7,6.9,1.7c2,0,3.8-0.4,5.5-1.1c1.7-0.7,3.1-1.7,4.2-3.1l-1.9-2.2
				c-1,1.1-2.1,1.9-3.4,2.5c-1.3,0.6-2.7,0.8-4.3,0.8c-2.8,0-5.1-0.8-6.9-2.4c-1.8-1.6-2.8-3.7-3-6.3h21l0-1.1
				c0-2.5-0.5-4.7-1.6-6.6C497,207.2,495.6,205.7,493.7,204.7z M478.6,214.3c0.2-2.5,1.2-4.5,2.8-6c1.6-1.5,3.7-2.3,6.1-2.3
				c2.5,0,4.5,0.8,6.1,2.3c1.6,1.5,2.6,3.6,2.8,6H478.6z"/>
			<path class="st0" d="M522.8,203c-2.2,0-4.1,0.4-5.7,1.3c-1.6,0.8-2.9,2-3.8,3.6v-4.6H510v25.2h3.4v-13.2c0-2.8,0.8-5.1,2.4-6.7
				c1.6-1.6,3.7-2.4,6.4-2.4c2.4,0,4.3,0.7,5.6,2.1c1.3,1.4,2,3.4,2,6v14.2h3.4v-14.6c0-3.5-0.9-6.2-2.8-8
				C528.4,203.9,525.9,203,522.8,203z"/>
			<path class="st0" d="M563.2,208c-1.1-1.6-2.4-2.9-4-3.7c-1.6-0.8-3.5-1.3-5.5-1.3c-2.4,0-4.5,0.5-6.4,1.6
				c-1.9,1.1-3.4,2.6-4.5,4.5c-1.1,1.9-1.6,4.2-1.6,6.6c0,2.5,0.5,4.7,1.6,6.6c1.1,1.9,2.6,3.5,4.5,4.5c1.9,1.1,4,1.6,6.4,1.6
				c2.1,0,4-0.4,5.7-1.3s3-2.2,4-3.9v5h3.3v-35.5h-3.4V208z M562,220.9c-0.8,1.5-1.9,2.7-3.3,3.5c-1.4,0.8-3,1.2-4.8,1.2
				c-1.8,0-3.4-0.4-4.8-1.2c-1.4-0.8-2.5-2-3.3-3.5c-0.8-1.5-1.2-3.2-1.2-5.1c0-1.9,0.4-3.6,1.2-5.1c0.8-1.5,1.9-2.7,3.3-3.5
				c1.4-0.8,3-1.2,4.8-1.2c1.8,0,3.3,0.4,4.8,1.2c1.4,0.8,2.5,2,3.3,3.5c0.8,1.5,1.2,3.2,1.2,5.1C563.2,217.7,562.8,219.4,562,220.9
				z"/>
			<path class="st0" d="M585.8,203c-2,0-3.9,0.3-5.6,0.9c-1.8,0.6-3.3,1.4-4.6,2.5l1.5,2.5c1.1-0.9,2.3-1.6,3.8-2.2
				c1.5-0.5,3-0.8,4.6-0.8c2.3,0,4.1,0.6,5.3,1.7c1.2,1.1,1.8,2.8,1.8,5v1.5h-8c-3.4,0-5.8,0.7-7.4,2c-1.5,1.3-2.3,3-2.3,5.2
				c0,2.2,0.8,4,2.5,5.3c1.7,1.3,3.9,2,6.7,2c2,0,3.8-0.4,5.3-1.1s2.6-1.8,3.4-3.1v3.9h3.3v-15.6c0-3.2-0.9-5.7-2.6-7.3
				C591.6,203.8,589.1,203,585.8,203z M592.6,220.8c-0.7,1.7-1.7,2.9-3.1,3.8c-1.4,0.9-3,1.3-4.9,1.3c-2,0-3.6-0.4-4.7-1.3
				c-1.1-0.8-1.7-2-1.7-3.5c0-3,2.2-4.5,6.5-4.5h7.9V220.8z"/>
			<path class="st0" d="M618.9,215.7c-1.2-0.4-2.8-0.8-4.8-1.1c-1.6-0.3-2.9-0.6-3.8-0.8c-0.9-0.3-1.7-0.7-2.3-1.3
				c-0.6-0.6-0.9-1.3-0.9-2.3c0-1.2,0.5-2.2,1.6-3c1.1-0.8,2.7-1.1,4.9-1.1c2.9,0,5.3,0.7,7.4,2.2l1.5-2.7c-1.1-0.7-2.4-1.3-4-1.7
				s-3.3-0.6-4.9-0.6c-3.1,0-5.6,0.7-7.3,2c-1.8,1.3-2.6,3.1-2.6,5.2c0,1.7,0.4,3,1.3,4c0.9,1,1.9,1.6,3.2,2s2.9,0.8,4.9,1.2
				c1.5,0.3,2.8,0.5,3.7,0.8c0.9,0.3,1.7,0.7,2.3,1.2c0.6,0.5,0.9,1.3,0.9,2.2c0,1.3-0.5,2.3-1.7,3c-1.1,0.7-2.8,1.1-5.1,1.1
				c-1.7,0-3.4-0.3-5-0.8c-1.6-0.5-2.9-1.2-4-2l-1.5,2.7c1.1,0.9,2.5,1.6,4.4,2.2s3.8,0.9,5.9,0.9c3.3,0,5.8-0.6,7.6-1.9
				c1.8-1.3,2.7-3,2.7-5.2c0-1.6-0.4-2.9-1.3-3.8C621.1,216.7,620.1,216,618.9,215.7z"/>
			<path class="st0" d="M663.6,208c-1.1-1.6-2.4-2.9-4-3.7c-1.6-0.8-3.5-1.3-5.5-1.3c-2.4,0-4.5,0.5-6.4,1.6s-3.4,2.6-4.5,4.5
				c-1.1,1.9-1.6,4.2-1.6,6.6c0,2.5,0.5,4.7,1.6,6.6c1.1,1.9,2.6,3.5,4.5,4.5c1.9,1.1,4,1.6,6.4,1.6c2.1,0,4-0.4,5.7-1.3
				c1.7-0.9,3-2.2,4-3.9v5h3.3v-35.5h-3.4V208z M662.4,220.9c-0.8,1.5-1.9,2.7-3.3,3.5c-1.4,0.8-3,1.2-4.8,1.2
				c-1.8,0-3.4-0.4-4.8-1.2c-1.4-0.8-2.5-2-3.3-3.5c-0.8-1.5-1.2-3.2-1.2-5.1c0-1.9,0.4-3.6,1.2-5.1c0.8-1.5,1.9-2.7,3.3-3.5
				c1.4-0.8,3-1.2,4.8-1.2c1.8,0,3.3,0.4,4.8,1.2c1.4,0.8,2.5,2,3.3,3.5c0.8,1.5,1.2,3.2,1.2,5.1
				C663.6,217.7,663.2,219.4,662.4,220.9z"/>
			<path class="st0" d="M693.4,204.7c-1.8-1.1-3.9-1.6-6.3-1.6s-4.4,0.5-6.3,1.6c-1.9,1.1-3.3,2.6-4.4,4.5c-1.1,1.9-1.6,4.1-1.6,6.6
				s0.6,4.7,1.7,6.6c1.1,1.9,2.7,3.5,4.7,4.6c2,1.1,4.3,1.7,6.9,1.7c2,0,3.8-0.4,5.5-1.1s3.1-1.7,4.2-3.1l-1.9-2.2
				c-1,1.1-2.1,1.9-3.4,2.5s-2.7,0.8-4.3,0.8c-2.8,0-5.1-0.8-6.9-2.4c-1.8-1.6-2.8-3.7-3-6.3h21l0-1.1c0-2.5-0.5-4.7-1.6-6.6
				C696.7,207.2,695.2,205.7,693.4,204.7z M678.2,214.3c0.2-2.5,1.2-4.5,2.8-6c1.6-1.5,3.7-2.3,6.1-2.3c2.5,0,4.5,0.8,6.1,2.3
				c1.6,1.5,2.6,3.6,2.8,6H678.2z"/>
			<polygon class="st0" points="717.8,198 729.6,198 729.6,228.4 733.1,228.4 733.1,198 744.9,198 744.9,194.9 717.8,194.9 			"/>
			<path class="st0" d="M753.6,208.1v-4.9h-3.3v25.2h3.4v-12.8c0-2.9,0.7-5.2,2.2-6.8c1.5-1.6,3.6-2.4,6.2-2.4l0.8,0V203
				c-2.3,0-4.3,0.4-5.9,1.3C755.6,205.2,754.4,206.5,753.6,208.1z"/>
			<path class="st0" d="M779.1,203c-2,0-3.9,0.3-5.6,0.9c-1.8,0.6-3.3,1.4-4.6,2.5l1.5,2.5c1.1-0.9,2.3-1.6,3.8-2.2
				c1.5-0.5,3-0.8,4.6-0.8c2.3,0,4.1,0.6,5.3,1.7c1.2,1.1,1.8,2.8,1.8,5v1.5h-8c-3.4,0-5.8,0.7-7.4,2c-1.5,1.3-2.3,3-2.3,5.2
				c0,2.2,0.8,4,2.5,5.3c1.7,1.3,3.9,2,6.7,2c2,0,3.8-0.4,5.3-1.1s2.6-1.8,3.4-3.1v3.9h3.3v-15.6c0-3.2-0.9-5.7-2.6-7.3
				C784.9,203.8,782.4,203,779.1,203z M785.9,220.8c-0.7,1.7-1.7,2.9-3.1,3.8c-1.4,0.9-3,1.3-4.9,1.3c-2,0-3.6-0.4-4.7-1.3
				c-1.1-0.8-1.7-2-1.7-3.5c0-3,2.2-4.5,6.5-4.5h7.9V220.8z"/>
			<path class="st0" d="M812.3,203c-2.2,0-4.1,0.4-5.7,1.3c-1.6,0.8-2.9,2-3.8,3.6v-4.6h-3.3v25.2h3.4v-13.2c0-2.8,0.8-5.1,2.4-6.7
				c1.6-1.6,3.7-2.4,6.4-2.4c2.4,0,4.3,0.7,5.6,2.1c1.3,1.4,2,3.4,2,6v14.2h3.4v-14.6c0-3.5-0.9-6.2-2.8-8S815.4,203,812.3,203z"/>
			<path class="st0" d="M845.5,215.7c-1.2-0.4-2.8-0.8-4.8-1.1c-1.6-0.3-2.9-0.6-3.8-0.8c-0.9-0.3-1.7-0.7-2.3-1.3
				c-0.6-0.6-0.9-1.3-0.9-2.3c0-1.2,0.5-2.2,1.6-3c1.1-0.8,2.7-1.1,4.9-1.1c2.9,0,5.3,0.7,7.4,2.2l1.5-2.7c-1.1-0.7-2.4-1.3-4-1.7
				s-3.3-0.6-4.9-0.6c-3.1,0-5.6,0.7-7.3,2c-1.8,1.3-2.6,3.1-2.6,5.2c0,1.7,0.4,3,1.3,4c0.9,1,1.9,1.6,3.2,2s2.9,0.8,4.9,1.2
				c1.5,0.3,2.8,0.5,3.7,0.8c0.9,0.3,1.7,0.7,2.3,1.2c0.6,0.5,0.9,1.3,0.9,2.2c0,1.3-0.5,2.3-1.7,3c-1.1,0.7-2.8,1.1-5.1,1.1
				c-1.7,0-3.4-0.3-5-0.8c-1.6-0.5-2.9-1.2-4-2l-1.5,2.7c1.1,0.9,2.5,1.6,4.4,2.2s3.8,0.9,5.9,0.9c3.3,0,5.8-0.6,7.6-1.9
				c1.8-1.3,2.7-3,2.7-5.2c0-1.6-0.4-2.9-1.3-3.8C847.8,216.7,846.7,216,845.5,215.7z"/>
			<path class="st0" d="M866,192.6c-2.4,0-4.3,0.7-5.6,2s-2,3.2-2,5.5v3.1h-4.5v2.9h4.5v22.3h3.4v-22.3h7.7v-2.9h-7.7v-3
				c0-1.6,0.4-2.7,1.1-3.5c0.7-0.8,1.9-1.2,3.3-1.2c1.5,0,2.7,0.4,3.7,1.2l1.1-2.5c-0.6-0.5-1.4-0.9-2.2-1.2
				C867.9,192.8,867,192.6,866,192.6z"/>
			<path class="st0" d="M890.8,204.7c-1.8-1.1-3.9-1.6-6.3-1.6s-4.4,0.5-6.3,1.6c-1.9,1.1-3.3,2.6-4.4,4.5c-1.1,1.9-1.6,4.1-1.6,6.6
				s0.6,4.7,1.7,6.6c1.1,1.9,2.7,3.5,4.7,4.6c2,1.1,4.3,1.7,6.9,1.7c2,0,3.8-0.4,5.5-1.1s3.1-1.7,4.2-3.1l-1.9-2.2
				c-1,1.1-2.1,1.9-3.4,2.5s-2.7,0.8-4.3,0.8c-2.8,0-5.1-0.8-6.9-2.4c-1.8-1.6-2.8-3.7-3-6.3h21l0-1.1c0-2.5-0.5-4.7-1.6-6.6
				C894.1,207.2,892.7,205.7,890.8,204.7z M875.7,214.3c0.2-2.5,1.2-4.5,2.8-6c1.6-1.5,3.7-2.3,6.1-2.3c2.5,0,4.5,0.8,6.1,2.3
				c1.6,1.5,2.6,3.6,2.8,6H875.7z"/>
			<path class="st0" d="M908.1,208.1v-4.9h-3.3v25.2h3.4v-12.8c0-2.9,0.7-5.2,2.2-6.8c1.5-1.6,3.6-2.4,6.2-2.4l0.8,0V203
				c-2.3,0-4.3,0.4-5.9,1.3C910.1,205.2,908.9,206.5,908.1,208.1z"/>
			<path class="st0" d="M956.3,203c-2.2,0-4.2,0.5-6,1.4c-1.7,0.9-3.1,2.2-4,3.9c-0.8-1.8-1.9-3.1-3.5-4c-1.5-0.9-3.4-1.3-5.5-1.3
				c-2.1,0-3.9,0.4-5.5,1.2c-1.6,0.8-2.8,2-3.7,3.5v-4.6h-3.3v25.2h3.4v-13.2c0-2.8,0.8-5.1,2.3-6.7c1.5-1.6,3.6-2.4,6.1-2.4
				c2.3,0,4.1,0.7,5.4,2.1s1.9,3.4,1.9,6v14.2h3.4v-13.2c0-2.8,0.7-5.1,2.2-6.7c1.5-1.6,3.6-2.4,6.2-2.4c2.3,0,4.1,0.7,5.3,2.1
				c1.3,1.4,1.9,3.4,1.9,6v14.2h3.4v-14.6c0-3.5-0.9-6.2-2.7-8C961.9,203.9,959.4,203,956.3,203z"/>
			<path class="st0" d="M993.7,204.7c-1.9-1.1-4.1-1.6-6.6-1.6s-4.6,0.5-6.6,1.6c-1.9,1.1-3.5,2.6-4.6,4.5c-1.1,1.9-1.7,4.1-1.7,6.6
				s0.6,4.7,1.7,6.6c1.1,1.9,2.6,3.5,4.6,4.6c1.9,1.1,4.1,1.7,6.6,1.7s4.6-0.5,6.6-1.7c1.9-1.1,3.5-2.6,4.6-4.6
				c1.1-1.9,1.6-4.1,1.6-6.6s-0.5-4.7-1.6-6.6C997.2,207.3,995.7,205.7,993.7,204.7z M995.3,220.9c-0.8,1.5-1.9,2.7-3.3,3.5
				c-1.4,0.8-3,1.2-4.8,1.2c-1.8,0-3.4-0.4-4.8-1.2c-1.4-0.8-2.5-2-3.3-3.5c-0.8-1.5-1.2-3.2-1.2-5.1c0-1.9,0.4-3.6,1.2-5.1
				c0.8-1.5,1.9-2.7,3.3-3.5c1.4-0.8,3-1.2,4.8-1.2c1.8,0,3.4,0.4,4.8,1.2c1.4,0.8,2.5,2,3.3,3.5c0.8,1.5,1.2,3.2,1.2,5.1
				C996.5,217.7,996.1,219.4,995.3,220.9z"/>
			<polygon class="st0" points="1015.6,224.6 1006.2,203.2 1002.7,203.2 1013.8,228.4 1017.3,228.4 1028.5,203.2 1025.2,203.2 			
				"/>
			<path class="st0" d="M1036.4,192.9c-0.7,0-1.3,0.2-1.8,0.7c-0.5,0.5-0.7,1-0.7,1.7c0,0.7,0.2,1.2,0.7,1.7
				c0.5,0.5,1.1,0.7,1.8,0.7c0.7,0,1.3-0.2,1.8-0.7c0.5-0.5,0.7-1.1,0.7-1.8c0-0.6-0.2-1.2-0.7-1.6
				C1037.7,193.1,1037.1,192.9,1036.4,192.9z"/>
			<rect x="1034.7" y="203.2" class="st0" width="3.4" height="25.2"/>
			<rect x="1049" y="192.9" class="st0" width="3.4" height="35.5"/>
		</g>
	</g>
</g>
</svg>
