<svg id="Capa_1" data-name="Capa 1" xmlns="http://www.w3.org/2000/svg" viewBox="91.33 94.33 1051.95 231.38"><defs><style>.cls-1{fill:#fff;}.cls-2{fill:#ffc900;}</style></defs><ellipse class="cls-1" cx="250.62" cy="307.4" rx="19.34" ry="16.61" transform="translate(-145.99 308.71) rotate(-51)"/><ellipse class="cls-1" cx="173.46" cy="307.4" rx="19.34" ry="16.42" transform="translate(-174.59 248.75) rotate(-51)"/><path class="cls-1" d="M257.51,271.63a55.48,55.48,0,0,0,5-110.74,44.28,44.28,0,0,0-38.25-66.54H168.62a10.85,10.85,0,0,0-10.84,10.85h0A11.21,11.21,0,0,0,169,116.41h55.23a22.19,22.19,0,0,1,0,44.37H191.15a11,11,0,0,0-11.05,11v.32a10.7,10.7,0,0,0,10.7,10.69l66.64.26h0c19.49,0,33.22,13.73,33.22,33.22s-13.73,33-33.22,33v0H175L147.59,129.53c-.1-.47-.21-.93-.32-1.4l-.13-.56h0a44.32,44.32,0,0,0-42.82-33.23c-.56,0-1.25,0-1.81,0a11.17,11.17,0,0,0-11.17,11.16h0a10.91,10.91,0,0,0,10.91,10.9h.26c.55,0,1.24,0,1.81,0a22.11,22.11,0,0,1,20.33,13.75l2,8.84,31.15,132.37Zm-.06-88.51"/><path class="cls-1" d="M472.38,175.47q8.76,8.75,8.75,26.25V247H458.19V205.25q0-9.41-3.9-14.05t-11.1-4.63q-8.08,0-12.8,5.22t-4.7,15.52V247H402.74V205.25q0-18.67-15-18.68-7.94,0-12.65,5.22t-4.7,15.52V247H347.44V167.89h21.92V177a29,29,0,0,1,10.81-7.65,36.46,36.46,0,0,1,14-2.64,34.1,34.1,0,0,1,15.15,3.3,26.89,26.89,0,0,1,10.89,9.64,32.38,32.38,0,0,1,12.28-9.56,38.66,38.66,0,0,1,16.25-3.38Q463.63,166.72,472.38,175.47Z"/><path class="cls-1" d="M504.13,165.44a12.46,12.46,0,0,1,0-18.24,14.54,14.54,0,0,1,10.29-3.67,14.9,14.9,0,0,1,10.3,3.53,11.33,11.33,0,0,1,4,8.82,12.51,12.51,0,0,1-4,9.49,14.39,14.39,0,0,1-10.3,3.75A14.54,14.54,0,0,1,504.13,165.44ZM503,181.38h22.94V247H503Z"/><path class="cls-2" d="M639.48,202.82q5,6.56,5,16.11,0,13.53-10.51,20.81T603.3,247H550.06v-103h50.3q18.82,0,28.9,7.2a22.82,22.82,0,0,1,10.08,19.56,24.75,24.75,0,0,1-13.68,22.65A27.2,27.2,0,0,1,639.48,202.82ZM573.74,162v24.27h23.68q8.82,0,13.38-3.09a10.31,10.31,0,0,0,4.56-9.12q0-6-4.56-9t-13.38-3Zm42,64q4.78-3.09,4.78-9.56,0-12.8-19-12.8h-27.8v25.45h27.8Q610.94,229.08,615.73,226Z"/><path class="cls-2" d="M739.44,167.89V247H717.68v-9.41a30.38,30.38,0,0,1-10.89,7.86,34.09,34.09,0,0,1-13.67,2.73q-15.6,0-24.71-9t-9.12-26.62V167.89h22.94v41.33q0,19.13,16,19.12,8.24,0,13.24-5.37t5-16V167.89Z"/><path class="cls-2" d="M759.54,137.89h23V247h-23Z"/><path class="cls-2" d="M880.88,213.93H821a18.68,18.68,0,0,0,7.65,11.62q6,4.26,15,4.26a30.3,30.3,0,0,0,11-1.84,26.4,26.4,0,0,0,8.89-5.81l12.21,13.24q-11.18,12.79-32.65,12.8A51.54,51.54,0,0,1,819.4,243a38.28,38.28,0,0,1-15.88-14.48,39.89,39.89,0,0,1-5.59-21,40.5,40.5,0,0,1,5.51-21,38.64,38.64,0,0,1,15.15-14.56,46.91,46.91,0,0,1,42.58-.22A36.49,36.49,0,0,1,876,186.06a42.71,42.71,0,0,1,5.37,21.69Q881.32,208.19,880.88,213.93ZM827.2,188.48a18.78,18.78,0,0,0-6.47,12.06h39a19,19,0,0,0-6.47-12,19.36,19.36,0,0,0-12.94-4.49A19.76,19.76,0,0,0,827.2,188.48Z"/><path class="cls-2" d="M978.58,167.89,945.2,247H921.52l-33.24-79.13H912l21.91,53.83,22.65-53.83Z"/><path class="cls-2" d="M1050.41,175.47q9.85,8.75,9.85,26.4V247h-21.47v-9.86q-6.48,11-24.12,11a37.41,37.41,0,0,1-15.81-3.09,23.56,23.56,0,0,1-10.22-8.53,22.17,22.17,0,0,1-3.53-12.36q0-11,8.31-17.35t25.66-6.33h18.24q0-7.5-4.56-11.54T1019.08,185a40.05,40.05,0,0,0-12.43,2,32.77,32.77,0,0,0-10.37,5.37l-8.23-16a49.45,49.45,0,0,1,15.51-7.06,69.38,69.38,0,0,1,18.61-2.5Q1040.55,166.72,1050.41,175.47ZM1030.85,230a14.92,14.92,0,0,0,6.47-8v-8.09h-15.74q-14.12,0-14.12,9.26a8.25,8.25,0,0,0,3.46,7q3.45,2.56,9.48,2.57A20,20,0,0,0,1030.85,230Z"/><path class="cls-2" d="M1116.47,169.66a41.18,41.18,0,0,1,16.1-2.94v21.17c-2.55-.19-4.26-.29-5.15-.29q-9.86,0-15.44,5.52t-5.59,16.54V247h-22.94V167.89h21.91v10.44A25.55,25.55,0,0,1,1116.47,169.66Z"/><path class="cls-1" d="M370.88,299.81a10.9,10.9,0,0,0,2-6.63,10.41,10.41,0,0,0-3.63-8.41q-3.63-3.06-10-3.06H346.66v33.47h3.54V304.57h9a23.29,23.29,0,0,0,2.68-.15l7.65,10.76h3.87l-8.18-11.47A11,11,0,0,0,370.88,299.81Zm-11.79,1.74H350.2V284.77h8.89c3.32,0,5.85.72,7.61,2.17a7.67,7.67,0,0,1,2.63,6.24,7.6,7.6,0,0,1-2.63,6.17C364.94,300.82,362.41,301.55,359.09,301.55Z"/><path class="cls-1" d="M397.73,291.46a13,13,0,0,0-12.55,0,11.6,11.6,0,0,0-4.4,4.55,13.43,13.43,0,0,0-1.6,6.6,12.94,12.94,0,0,0,1.67,6.59,11.91,11.91,0,0,0,4.66,4.57,14,14,0,0,0,6.86,1.65,14.23,14.23,0,0,0,5.53-1.05,10.72,10.72,0,0,0,4.18-3.06l-1.91-2.2a9.49,9.49,0,0,1-3.4,2.46,10.78,10.78,0,0,1-4.3.84,10,10,0,0,1-6.89-2.42,9,9,0,0,1-3-6.33h21l.05-1.05a13.65,13.65,0,0,0-1.58-6.63A11.54,11.54,0,0,0,397.73,291.46Zm-15.16,9.66a9.13,9.13,0,0,1,2.8-6.05,9.23,9.23,0,0,1,12.24,0,9.13,9.13,0,0,1,2.8,6.05Z"/><path class="cls-1" d="M431.35,294.81a10.55,10.55,0,0,0-4-3.71,12,12,0,0,0-5.53-1.26,12.86,12.86,0,0,0-6.4,1.6,11.38,11.38,0,0,0-4.5,4.52,14.36,14.36,0,0,0,0,13.29,11.49,11.49,0,0,0,4.5,4.54,12.67,12.67,0,0,0,6.4,1.63,11.87,11.87,0,0,0,5.67-1.34,10.35,10.35,0,0,0,4-3.87v5h3.25V279.7h-3.39Zm-1.17,12.91a8.68,8.68,0,0,1-3.35,3.47,10,10,0,0,1-9.57,0,8.66,8.66,0,0,1-3.34-3.47,11.33,11.33,0,0,1,0-10.23,8.66,8.66,0,0,1,3.34-3.47,10,10,0,0,1,9.57,0,8.68,8.68,0,0,1,3.35,3.47,11.33,11.33,0,0,1,0,10.23Z"/><path class="cls-1" d="M478.69,294.81a10.48,10.48,0,0,0-4-3.71,12,12,0,0,0-5.53-1.26,12.86,12.86,0,0,0-6.4,1.6,11.38,11.38,0,0,0-4.5,4.52,14.44,14.44,0,0,0,0,13.29,11.49,11.49,0,0,0,4.5,4.54,12.67,12.67,0,0,0,6.4,1.63,11.87,11.87,0,0,0,5.67-1.34,10.35,10.35,0,0,0,4-3.87v5h3.25V279.7h-3.39Zm-1.17,12.91a8.68,8.68,0,0,1-3.35,3.47,10,10,0,0,1-9.56,0,8.62,8.62,0,0,1-3.35-3.47,11.33,11.33,0,0,1,0-10.23,8.62,8.62,0,0,1,3.35-3.47,10,10,0,0,1,9.56,0,8.68,8.68,0,0,1,3.35,3.47,11.33,11.33,0,0,1,0,10.23Z"/><path class="cls-1" d="M508.77,291.46a12.2,12.2,0,0,0-6.27-1.62,12.33,12.33,0,0,0-6.29,1.62,11.67,11.67,0,0,0-4.4,4.55,13.54,13.54,0,0,0-1.6,6.6,13,13,0,0,0,1.68,6.59,11.84,11.84,0,0,0,4.66,4.57,14,14,0,0,0,6.86,1.65,14.14,14.14,0,0,0,5.52-1.05,10.75,10.75,0,0,0,4.19-3.06l-1.91-2.2a9.49,9.49,0,0,1-3.4,2.46,10.81,10.81,0,0,1-4.3.84,10,10,0,0,1-6.89-2.42,9,9,0,0,1-3-6.33h21l.05-1.05a13.65,13.65,0,0,0-1.58-6.63A11.54,11.54,0,0,0,508.77,291.46Zm-15.16,9.66a9.08,9.08,0,0,1,2.8-6.05,8.56,8.56,0,0,1,6.09-2.32,8.66,8.66,0,0,1,6.15,2.32,9.12,9.12,0,0,1,2.79,6.05Z"/><path class="cls-1" d="M546.9,312.17a6.3,6.3,0,0,1-2,.33,4.28,4.28,0,0,1-3.23-1.17,4.75,4.75,0,0,1-1.12-3.42v-15h7.65V290h-7.65v-5.5h-3.4V290h-4.49v2.87h4.49v15.2a6.67,6.67,0,0,0,7.37,7.32,9.61,9.61,0,0,0,2.94-.45,6.36,6.36,0,0,0,2.36-1.32l-1.19-2.44A4.88,4.88,0,0,1,546.9,312.17Z"/><rect class="cls-1" x="557.16" y="290.03" width="3.4" height="25.15"/><path class="cls-1" d="M558.88,279.7a2.41,2.41,0,0,0-1.77.72,2.26,2.26,0,0,0-.72,1.67,2.34,2.34,0,0,0,.72,1.72,2.49,2.49,0,0,0,4.26-1.77,2.24,2.24,0,0,0-.72-1.65A2.46,2.46,0,0,0,558.88,279.7Z"/><path class="cls-1" d="M587.24,291.46a12.2,12.2,0,0,0-6.27-1.62,12.36,12.36,0,0,0-6.29,1.62,11.58,11.58,0,0,0-4.39,4.55,13.44,13.44,0,0,0-1.61,6.6,13,13,0,0,0,1.68,6.59,11.84,11.84,0,0,0,4.66,4.57,14,14,0,0,0,6.86,1.65,14.14,14.14,0,0,0,5.52-1.05,10.75,10.75,0,0,0,4.19-3.06l-1.91-2.2a9.49,9.49,0,0,1-3.4,2.46,10.81,10.81,0,0,1-4.3.84,10,10,0,0,1-6.89-2.42,9,9,0,0,1-3-6.33h21l0-1.05a13.65,13.65,0,0,0-1.58-6.63A11.54,11.54,0,0,0,587.24,291.46Zm-15.16,9.66a9.08,9.08,0,0,1,2.8-6.05,9.23,9.23,0,0,1,12.24,0,9.18,9.18,0,0,1,2.8,6.05Z"/><path class="cls-1" d="M614.11,289.84a12.35,12.35,0,0,0-5.71,1.26,9.42,9.42,0,0,0-3.85,3.57V290H601.3v25.15h3.39V302a9.12,9.12,0,0,1,2.37-6.67,8.59,8.59,0,0,1,6.43-2.41,7.35,7.35,0,0,1,5.59,2.05,8.36,8.36,0,0,1,2,6v14.25h3.39V300.6q0-5.27-2.8-8A10.23,10.23,0,0,0,614.11,289.84Z"/><path class="cls-1" d="M654.52,294.81a10.48,10.48,0,0,0-4-3.71,12,12,0,0,0-5.53-1.26,12.86,12.86,0,0,0-6.4,1.6,11.44,11.44,0,0,0-4.5,4.52,14.44,14.44,0,0,0,0,13.29,11.56,11.56,0,0,0,4.5,4.54,12.67,12.67,0,0,0,6.4,1.63,11.87,11.87,0,0,0,5.67-1.34,10.35,10.35,0,0,0,4-3.87v5h3.25V279.7h-3.39Zm-1.17,12.91a8.68,8.68,0,0,1-3.35,3.47,10,10,0,0,1-9.56,0,8.62,8.62,0,0,1-3.35-3.47,11.33,11.33,0,0,1,0-10.23,8.62,8.62,0,0,1,3.35-3.47,10,10,0,0,1,9.56,0,8.68,8.68,0,0,1,3.35,3.47,11.33,11.33,0,0,1,0,10.23Z"/><path class="cls-1" d="M677.38,289.84a17.91,17.91,0,0,0-5.65.88,13.73,13.73,0,0,0-4.59,2.51l1.53,2.54a11.5,11.5,0,0,1,3.78-2.18,13.67,13.67,0,0,1,4.59-.79,7.51,7.51,0,0,1,5.31,1.7,6.45,6.45,0,0,1,1.82,4.95V301h-8q-5.07,0-7.39,2a6.9,6.9,0,0,0,.17,10.47,10.34,10.34,0,0,0,6.69,2,11.86,11.86,0,0,0,5.29-1.1,7.78,7.78,0,0,0,3.37-3.06v3.92h3.25V299.59q0-4.83-2.63-7.29T677.38,289.84Zm6.79,17.79a7.91,7.91,0,0,1-3.06,3.8,9,9,0,0,1-4.93,1.31,7.67,7.67,0,0,1-4.69-1.26,4.13,4.13,0,0,1-1.67-3.47q0-4.5,6.46-4.5h7.89Z"/><path class="cls-1" d="M710.71,302.46a47.47,47.47,0,0,0-4.83-1.15,36.36,36.36,0,0,1-3.83-.83,5.8,5.8,0,0,1-2.32-1.27,3,3,0,0,1-.93-2.3,3.52,3.52,0,0,1,1.65-3,8.63,8.63,0,0,1,4.9-1.15,12.65,12.65,0,0,1,7.41,2.16l1.48-2.73a13.44,13.44,0,0,0-4-1.7,19,19,0,0,0-4.88-.64,11.84,11.84,0,0,0-7.32,2A6.21,6.21,0,0,0,695.4,297a5.65,5.65,0,0,0,1.32,4,7.25,7.25,0,0,0,3.18,2,41.17,41.17,0,0,0,4.92,1.17,34.61,34.61,0,0,1,3.69.79,5.94,5.94,0,0,1,2.29,1.2,2.7,2.7,0,0,1,.91,2.17,3.43,3.43,0,0,1-1.65,3,9.47,9.47,0,0,1-5.09,1.08,16,16,0,0,1-5-.79,12.92,12.92,0,0,1-4-2l-1.53,2.68a12.48,12.48,0,0,0,4.37,2.23,19.34,19.34,0,0,0,5.86.88c3.25,0,5.79-.64,7.63-1.94a6.08,6.08,0,0,0,2.75-5.23,5.37,5.37,0,0,0-1.3-3.83A7.09,7.09,0,0,0,710.71,302.46Z"/><path class="cls-1" d="M755.85,294.81a10.48,10.48,0,0,0-4-3.71,12,12,0,0,0-5.53-1.26,12.86,12.86,0,0,0-6.4,1.6,11.38,11.38,0,0,0-4.5,4.52,14.36,14.36,0,0,0,0,13.29,11.49,11.49,0,0,0,4.5,4.54,12.67,12.67,0,0,0,6.4,1.63,11.87,11.87,0,0,0,5.67-1.34,10.35,10.35,0,0,0,4-3.87v5h3.25V279.7h-3.39Zm-1.17,12.91a8.68,8.68,0,0,1-3.35,3.47,10,10,0,0,1-9.57,0,8.66,8.66,0,0,1-3.34-3.47,11.33,11.33,0,0,1,0-10.23,8.66,8.66,0,0,1,3.34-3.47,10,10,0,0,1,9.57,0,8.68,8.68,0,0,1,3.35,3.47,11.33,11.33,0,0,1,0,10.23Z"/><path class="cls-1" d="M785.93,291.46a12.2,12.2,0,0,0-6.27-1.62,12.33,12.33,0,0,0-6.29,1.62A11.67,11.67,0,0,0,769,296a13.54,13.54,0,0,0-1.6,6.6,13,13,0,0,0,1.68,6.59,11.77,11.77,0,0,0,4.66,4.57,14,14,0,0,0,6.86,1.65,14.14,14.14,0,0,0,5.52-1.05,10.75,10.75,0,0,0,4.19-3.06l-1.92-2.2a9.37,9.37,0,0,1-3.39,2.46,10.81,10.81,0,0,1-4.3.84,10,10,0,0,1-6.89-2.42,9,9,0,0,1-3-6.33h21l.05-1.05a13.65,13.65,0,0,0-1.58-6.63A11.61,11.61,0,0,0,785.93,291.46Zm-15.16,9.66a9.12,9.12,0,0,1,2.79-6.05,9.25,9.25,0,0,1,12.25,0,9.12,9.12,0,0,1,2.79,6.05Z"/><polygon class="cls-1" points="809.17 284.77 820.93 284.77 820.93 315.18 824.47 315.18 824.47 284.77 836.23 284.77 836.23 281.71 809.17 281.71 809.17 284.77"/><path class="cls-1" d="M844.93,295V290h-3.25v25.15h3.4V302.37a9.69,9.69,0,0,1,2.25-6.84,8,8,0,0,1,6.21-2.44l.81.05v-3.3a12.08,12.08,0,0,0-5.85,1.29A8.23,8.23,0,0,0,844.93,295Z"/><path class="cls-1" d="M870.42,289.84a17.85,17.85,0,0,0-5.64.88,13.54,13.54,0,0,0-4.59,2.51l1.53,2.54a11.5,11.5,0,0,1,3.78-2.18,13.58,13.58,0,0,1,4.59-.79,7.54,7.54,0,0,1,5.31,1.7,6.44,6.44,0,0,1,1.81,4.95V301h-8c-3.38,0-5.85.65-7.39,2a6.9,6.9,0,0,0,.17,10.47,10.32,10.32,0,0,0,6.69,2,11.82,11.82,0,0,0,5.28-1.1,7.76,7.76,0,0,0,3.38-3.06v3.92h3.25V299.59q0-4.83-2.63-7.29C876.22,290.66,873.71,289.84,870.42,289.84Zm6.79,17.79a7.91,7.91,0,0,1-3.06,3.8,9,9,0,0,1-4.92,1.31,7.67,7.67,0,0,1-4.69-1.26,4.11,4.11,0,0,1-1.67-3.47q0-4.5,6.45-4.5h7.89Z"/><path class="cls-1" d="M903.85,289.84a12.42,12.42,0,0,0-5.72,1.26,9.55,9.55,0,0,0-3.85,3.57V290H891v25.15h3.4V302a9.16,9.16,0,0,1,2.36-6.67,8.61,8.61,0,0,1,6.44-2.41,7.36,7.36,0,0,1,5.59,2.05,8.35,8.35,0,0,1,2,6v14.25h3.4V300.6c0-3.51-.94-6.18-2.8-8A10.26,10.26,0,0,0,903.85,289.84Z"/><path class="cls-1" d="M937.32,302.46a46.19,46.19,0,0,0-4.83-1.15,36.08,36.08,0,0,1-3.82-.83,5.73,5.73,0,0,1-2.32-1.27,3,3,0,0,1-.94-2.3,3.52,3.52,0,0,1,1.65-3,8.66,8.66,0,0,1,4.91-1.15,12.69,12.69,0,0,1,7.41,2.16l1.48-2.73a13.4,13.4,0,0,0-4-1.7,18.94,18.94,0,0,0-4.87-.64q-4.69,0-7.32,2A6.21,6.21,0,0,0,922,297a5.69,5.69,0,0,0,1.31,4,7.25,7.25,0,0,0,3.18,2,41.89,41.89,0,0,0,4.93,1.17,33.81,33.81,0,0,1,3.68.79,6,6,0,0,1,2.3,1.2,2.74,2.74,0,0,1,.91,2.17,3.43,3.43,0,0,1-1.65,3,9.49,9.49,0,0,1-5.1,1.08,15.91,15.91,0,0,1-5-.79,12.87,12.87,0,0,1-4-2l-1.53,2.68a12.44,12.44,0,0,0,4.38,2.23,19.23,19.23,0,0,0,5.85.88c3.26,0,5.8-.64,7.63-1.94a6.08,6.08,0,0,0,2.75-5.23,5.41,5.41,0,0,0-1.29-3.83A7.12,7.12,0,0,0,937.32,302.46Z"/><path class="cls-1" d="M957.36,279.46a7.53,7.53,0,0,0-5.62,2,7.42,7.42,0,0,0-2,5.45V290h-4.49v2.87h4.49v22.28h3.4V292.9h7.65V290h-7.75v-3a5,5,0,0,1,1.13-3.53,4.32,4.32,0,0,1,3.32-1.2,5.6,5.6,0,0,1,3.73,1.24l1.15-2.53a6.32,6.32,0,0,0-2.25-1.17A9.53,9.53,0,0,0,957.36,279.46Z"/><path class="cls-1" d="M982.18,291.46a12.2,12.2,0,0,0-6.27-1.62,12.33,12.33,0,0,0-6.29,1.62,11.67,11.67,0,0,0-4.4,4.55,13.54,13.54,0,0,0-1.6,6.6,13,13,0,0,0,1.68,6.59,11.84,11.84,0,0,0,4.66,4.57,14,14,0,0,0,6.86,1.65,14.14,14.14,0,0,0,5.52-1.05,10.75,10.75,0,0,0,4.19-3.06l-1.92-2.2a9.37,9.37,0,0,1-3.39,2.46,10.81,10.81,0,0,1-4.3.84A10,10,0,0,1,970,310a9,9,0,0,1-3-6.33h21l.05-1.05a13.65,13.65,0,0,0-1.58-6.63A11.61,11.61,0,0,0,982.18,291.46ZM967,301.12a9.12,9.12,0,0,1,2.79-6.05,9.25,9.25,0,0,1,12.25,0,9.12,9.12,0,0,1,2.79,6.05Z"/><path class="cls-1" d="M999.49,295V290h-3.26v25.15h3.4V302.37a9.69,9.69,0,0,1,2.25-6.84,8,8,0,0,1,6.21-2.44l.82.05v-3.3a12.12,12.12,0,0,0-5.86,1.29A8.16,8.16,0,0,0,999.49,295Z"/><path class="cls-1" d="M1047.59,289.84a12.31,12.31,0,0,0-5.95,1.41,9.74,9.74,0,0,0-4,3.9,8.2,8.2,0,0,0-3.47-4,10.7,10.7,0,0,0-5.48-1.34,11.76,11.76,0,0,0-5.5,1.24,9.15,9.15,0,0,0-3.73,3.54V290h-3.25v25.15h3.4V302a9.38,9.38,0,0,1,2.27-6.67,8,8,0,0,1,6.14-2.41,6.94,6.94,0,0,1,5.38,2.05,8.56,8.56,0,0,1,1.89,6v14.25h3.4V302a9.41,9.41,0,0,1,2.25-6.67,8,8,0,0,1,6.16-2.41,6.89,6.89,0,0,1,5.34,2.05,8.56,8.56,0,0,1,1.89,6v14.25h3.39V300.6q0-5.31-2.7-8A10,10,0,0,0,1047.59,289.84Z"/><polygon class="cls-1" points="1086.47 280.18 1081.93 280.18 1075.38 286.11 1078.72 286.11 1086.47 280.18"/><path class="cls-1" d="M1085.08,291.46a14.05,14.05,0,0,0-13.1,0,11.81,11.81,0,0,0-4.59,4.55,13.86,13.86,0,0,0,0,13.19,11.93,11.93,0,0,0,4.59,4.57,13.83,13.83,0,0,0,13.1,0,11.81,11.81,0,0,0,4.57-4.57,14,14,0,0,0,0-13.19A11.69,11.69,0,0,0,1085.08,291.46Zm1.58,16.26a8.55,8.55,0,0,1-3.32,3.47,10.07,10.07,0,0,1-9.61,0,8.62,8.62,0,0,1-3.35-3.47,11.33,11.33,0,0,1,0-10.23,8.62,8.62,0,0,1,3.35-3.47,10.07,10.07,0,0,1,9.61,0,8.55,8.55,0,0,1,3.32,3.47,11.5,11.5,0,0,1,0,10.23Z"/><polygon class="cls-1" points="1106.98 311.45 1097.56 290.03 1094.03 290.03 1105.17 315.18 1108.66 315.18 1119.85 290.03 1116.5 290.03 1106.98 311.45"/><rect class="cls-1" x="1125.82" y="290.03" width="3.4" height="25.15"/><path class="cls-1" d="M1127.55,279.7a2.37,2.37,0,0,0-1.77.72,2.26,2.26,0,0,0-.72,1.67,2.34,2.34,0,0,0,.72,1.72,2.37,2.37,0,0,0,1.77.72,2.41,2.41,0,0,0,1.77-.72A2.44,2.44,0,0,0,1130,282a2.27,2.27,0,0,0-.71-1.65A2.46,2.46,0,0,0,1127.55,279.7Z"/><rect class="cls-1" x="1139.88" y="279.7" width="3.4" height="35.48"/></svg>