<?xml version="1.0" encoding="UTF-8"?>
<svg id="Capa_1" data-name="Capa 1" xmlns="http://www.w3.org/2000/svg" xmlns:xlink="http://www.w3.org/1999/xlink" viewBox="0 0 595.28 507.19">
  <defs>
    <style>
      .cls-1 {
        fill: #fff;
      }

      .cls-2 {
        clip-path: url(#clippath-2);
      }

      .cls-3 {
        clip-path: url(#clippath-1);
      }

      .cls-4 {
        clip-path: url(#clippath);
      }

      .cls-5 {
        fill: none;
      }
    </style>
    <clipPath id="clippath">
      <path class="cls-5" d="M328.98,178.42V54.71h-73.59v122.57c10.81-5.23,22.9-8.17,35.67-8.17,13.67,0,26.55,3.37,37.91,9.31Z"/>
    </clipPath>
    <clipPath id="clippath-1">
      <path class="cls-5" d="M328.98,178.42V54.71h-73.59v122.57c10.81-5.23,22.9-8.17,35.67-8.17,13.67,0,26.55,3.37,37.91,9.31Z"/>
    </clipPath>
    <clipPath id="clippath-2">
      <path class="cls-5" d="M328.98,178.42V54.71h-73.59v122.57c10.81-5.23,22.9-8.17,35.67-8.17,13.67,0,26.55,3.37,37.91,9.31Z"/>
    </clipPath>
  </defs>
  <g>
    <path class="cls-1" d="M61.72,446.73v.82c0,1,.28,1.71,.81,2.14,.54,.43,1.42,.64,2.65,.64h6.21c1.96,0,3.25-.15,3.88-.45,.64-.3,.96-1.01,.96-2.13,0-.94-.26-1.56-.79-1.87-.53-.31-1.49-.46-2.87-.46h-8.1c-1.84,0-3.13-.34-3.88-1.02-.75-.68-1.12-1.7-1.12-3.05v-.99c0-1.4,.56-2.4,1.69-3.01,1.13-.62,3.13-.93,6-.93h4.52c2.48,0,4.18,.32,5.12,.96,.94,.63,1.41,1.62,1.41,2.98v.85h-2.47c0-1-.24-1.69-.73-2.07-.49-.39-1.4-.58-2.73-.58h-5.93c-1.73,0-2.87,.15-3.43,.45-.55,.29-.82,.85-.82,1.69v.67c0,.7,.22,1.19,.67,1.48,.46,.28,1.33,.42,2.61,.42h7.53c2.18,0,3.71,.36,4.61,1.08,.9,.71,1.35,1.89,1.35,3.55s-.54,2.81-1.63,3.52c-1.08,.7-2.86,1.05-5.35,1.05h-6.32c-2.38,0-4.02-.38-4.94-1.14-.92-.77-1.38-2.01-1.38-3.71v-.9h2.47Z"/>
    <path class="cls-1" d="M83.3,436.66h2.64v9.78c0,1.79,.51,2.89,1.53,3.29,1.03,.4,2.4,.6,4.1,.6h1.11c2.82,0,4.76-.32,5.81-.97,1.06-.65,1.59-1.89,1.59-3.73v-8.97h2.64v15.57h-2.47v-2.87c-.57,1.28-1.36,2.12-2.38,2.52-1.01,.4-2.36,.6-4.04,.6h-3.91c-2.3,0-3.97-.42-5.03-1.27-1.05-.86-1.57-2.21-1.57-4.04v-10.5Z"/>
    <path class="cls-1" d="M107.56,436.66h2.47v1.92c.8-1.44,2.48-2.16,5.03-2.16h4.33c2.53,0,4.19,.96,4.99,2.87,.86-1.92,2.79-2.87,5.81-2.87h3.38c2.16,0,3.83,.47,5.02,1.42,1.2,.94,1.8,2.28,1.8,4.01v10.38h-2.64v-9.99c0-1.48-.53-2.49-1.6-3.02-.84-.44-2.22-.66-4.13-.66h-1.42c-2.04,0-3.45,.4-4.25,1.2-.7,.7-1.05,1.81-1.05,3.34v9.13h-2.64v-9.45c0-1.41-.24-2.4-.72-2.96-.72-.84-2.13-1.26-4.24-1.26h-2.68c-3.21,0-4.82,1.3-4.82,3.89v9.78h-2.64v-15.57Z"/>
    <rect class="cls-1" x="145.8" y="436.66" width="2.64" height="15.57"/>
    <path class="cls-1" d="M153.77,452.24v-15.57h2.47v2.87c.53-1.14,1.22-1.93,2.08-2.38,.87-.46,2.31-.7,4.31-.73h3.92c4.41,0,6.62,1.77,6.62,5.32v10.5h-2.64v-9.78c0-1.58-.44-2.62-1.33-3.13-.89-.51-2.34-.76-4.36-.76h-1.05c-2.84,0-4.78,.32-5.82,.97-1.05,.65-1.57,1.89-1.57,3.73v8.97h-2.64Z"/>
    <rect class="cls-1" x="178.4" y="436.66" width="2.64" height="15.57"/>
    <path class="cls-1" d="M188.25,446.73v.82c0,1,.28,1.71,.81,2.14,.54,.43,1.42,.64,2.65,.64h6.21c1.96,0,3.25-.15,3.88-.45,.64-.3,.96-1.01,.96-2.13,0-.94-.26-1.56-.79-1.87-.53-.31-1.49-.46-2.87-.46h-8.1c-1.84,0-3.13-.34-3.88-1.02-.75-.68-1.12-1.7-1.12-3.05v-.99c0-1.4,.56-2.4,1.69-3.01,1.13-.62,3.13-.93,6-.93h4.52c2.48,0,4.18,.32,5.12,.96,.94,.63,1.41,1.62,1.41,2.98v.85h-2.47c0-1-.24-1.69-.73-2.07-.49-.39-1.4-.58-2.73-.58h-5.93c-1.73,0-2.87,.15-3.43,.45-.55,.29-.82,.85-.82,1.69v.67c0,.7,.22,1.19,.67,1.48,.46,.28,1.33,.42,2.61,.42h7.53c2.18,0,3.71,.36,4.61,1.08,.9,.71,1.35,1.89,1.35,3.55s-.54,2.81-1.63,3.52c-1.08,.7-2.86,1.05-5.35,1.05h-6.32c-2.38,0-4.02-.38-4.94-1.14-.92-.77-1.38-2.01-1.38-3.71v-.9h2.47Z"/>
    <path class="cls-1" d="M207.85,436.66h3.43v-3.59h2.64v3.59h10.54v2.14h-10.54v7.7c0,1.52,.31,2.54,.94,3.05,.63,.52,1.63,.78,3.01,.78h.91c1.38,0,2.39-.18,3.04-.55,.65-.38,.97-1.56,.97-3.53v-1.2h2.14v2.16c0,2.09-.49,3.49-1.48,4.21-.98,.71-2.48,1.06-4.51,1.06h-1.38c-2.17,0-3.76-.41-4.78-1.23-1.01-.83-1.51-2.11-1.51-3.85v-8.59h-3.43v-2.14Z"/>
    <path class="cls-1" d="M228.22,436.66h2.47v2.44c.71-1.79,2.35-2.68,4.91-2.68h2.47c2.39,0,4.05,.42,5,1.26,.96,.84,1.44,2.21,1.44,4.12v1.93h-2.47v-.79c0-1.82-.31-3-.94-3.55-.63-.55-2.08-.82-4.34-.82h-1.66c-1.42,0-2.48,.34-3.19,1.03-.7,.68-1.05,1.62-1.05,2.82v9.82h-2.64v-15.57Z"/>
    <path class="cls-1" d="M247.21,446.08v-3.23c.03-2.32,.7-3.96,2.02-4.94,1.32-.99,3.46-1.48,6.42-1.48h4.07c2.93,0,5.1,.5,6.48,1.5,1.39,1,2.08,2.61,2.08,4.84v3.35c0,2.33-.72,3.97-2.16,4.93-1.44,.96-3.56,1.44-6.36,1.44h-4c-2.9,0-5.06-.49-6.47-1.48-1.4-.99-2.1-2.63-2.1-4.91Zm2.64-3.05v2.55c0,1.76,.37,2.99,1.11,3.7,.74,.71,2,1.06,3.79,1.06h5.66c1.79,0,3.11-.32,3.97-.97,.86-.65,1.29-1.81,1.29-3.49v-2.87c0-1.54-.38-2.66-1.14-3.37-.76-.71-2.1-1.06-4.03-1.06h-5.39c-1.94,0-3.3,.34-4.09,1.03-.78,.68-1.17,1.82-1.17,3.43Z"/>
    <path class="cls-1" d="M274.58,446.73v.82c0,1,.28,1.71,.81,2.14,.54,.43,1.42,.64,2.65,.64h6.21c1.96,0,3.25-.15,3.88-.45,.64-.3,.96-1.01,.96-2.13,0-.94-.26-1.56-.79-1.87-.53-.31-1.49-.46-2.87-.46h-8.1c-1.84,0-3.13-.34-3.88-1.02-.75-.68-1.12-1.7-1.12-3.05v-.99c0-1.4,.56-2.4,1.69-3.01,1.13-.62,3.13-.93,6-.93h4.52c2.48,0,4.18,.32,5.12,.96,.94,.63,1.41,1.62,1.41,2.98v.85h-2.47c0-1-.24-1.69-.73-2.07-.49-.39-1.4-.58-2.73-.58h-5.93c-1.73,0-2.87,.15-3.43,.45-.55,.29-.82,.85-.82,1.69v.67c0,.7,.22,1.19,.67,1.48,.46,.28,1.33,.42,2.61,.42h7.53c2.18,0,3.71,.36,4.61,1.08,.9,.71,1.35,1.89,1.35,3.55s-.54,2.81-1.63,3.52c-1.08,.7-2.86,1.05-5.35,1.05h-6.32c-2.38,0-4.02-.38-4.94-1.14-.92-.77-1.38-2.01-1.38-3.71v-.9h2.47Z"/>
    <rect class="cls-1" x="311.31" y="436.66" width="2.64" height="15.57"/>
    <path class="cls-1" d="M319.28,452.24v-15.57h2.47v2.87c.53-1.14,1.22-1.93,2.08-2.38,.87-.46,2.31-.7,4.31-.73h3.92c4.41,0,6.62,1.77,6.62,5.32v10.5h-2.64v-9.78c0-1.58-.44-2.62-1.33-3.13-.89-.51-2.34-.76-4.36-.76h-1.05c-2.84,0-4.78,.32-5.82,.97-1.05,.65-1.57,1.89-1.57,3.73v8.97h-2.64Z"/>
    <path class="cls-1" d="M360.08,438.82v-8.86h2.64v22.28h-2.47v-2.64c-.7,1.92-2.63,2.87-5.78,2.87h-3.68c-2.91-.03-4.97-.55-6.17-1.57-1.19-1.03-1.78-2.74-1.78-5.14v-2.59c.02-2.63,.63-4.41,1.84-5.35,1.22-.94,3.43-1.41,6.65-1.41h3.76c1.51,0,2.65,.19,3.41,.57,.78,.37,1.31,.98,1.59,1.83Zm-14.61,4.16v2.9c0,1.71,.39,2.87,1.18,3.5,.79,.63,2.01,.94,3.67,.94h4.49c1.99,0,3.36-.36,4.12-1.08,.77-.73,1.15-1.95,1.15-3.65v-2.52c0-1.75-.43-2.93-1.29-3.56-.85-.64-2.3-.96-4.36-.96h-3.86c-1.92,0-3.25,.32-4,.96-.74,.64-1.11,1.79-1.11,3.46Z"/>
    <path class="cls-1" d="M367.79,436.66h2.64v9.78c0,1.79,.51,2.89,1.53,3.29,1.03,.4,2.4,.6,4.1,.6h1.11c2.82,0,4.76-.32,5.81-.97,1.06-.65,1.59-1.89,1.59-3.73v-8.97h2.64v15.57h-2.47v-2.87c-.57,1.28-1.36,2.12-2.38,2.52-1.01,.4-2.36,.6-4.04,.6h-3.91c-2.3,0-3.97-.42-5.03-1.27-1.05-.86-1.57-2.21-1.57-4.04v-10.5Z"/>
    <path class="cls-1" d="M393.94,446.73v.82c0,1,.28,1.71,.81,2.14,.54,.43,1.42,.64,2.65,.64h6.21c1.96,0,3.25-.15,3.88-.45,.64-.3,.96-1.01,.96-2.13,0-.94-.26-1.56-.79-1.87-.53-.31-1.49-.46-2.87-.46h-8.1c-1.84,0-3.13-.34-3.88-1.02-.75-.68-1.12-1.7-1.12-3.05v-.99c0-1.4,.56-2.4,1.69-3.01,1.13-.62,3.13-.93,6-.93h4.52c2.48,0,4.18,.32,5.12,.96,.94,.63,1.41,1.62,1.41,2.98v.85h-2.47c0-1-.24-1.69-.73-2.07-.49-.39-1.4-.58-2.73-.58h-5.93c-1.73,0-2.87,.15-3.43,.45-.55,.29-.82,.85-.82,1.69v.67c0,.7,.22,1.19,.67,1.48,.46,.28,1.33,.42,2.61,.42h7.53c2.18,0,3.71,.36,4.61,1.08,.9,.71,1.35,1.89,1.35,3.55s-.54,2.81-1.63,3.52c-1.08,.7-2.86,1.05-5.35,1.05h-6.32c-2.38,0-4.02-.38-4.94-1.14-.92-.77-1.38-2.01-1.38-3.71v-.9h2.47Z"/>
    <path class="cls-1" d="M413.54,436.66h3.43v-3.59h2.64v3.59h10.54v2.14h-10.54v7.7c0,1.52,.31,2.54,.94,3.05,.63,.52,1.63,.78,3.01,.78h.91c1.38,0,2.39-.18,3.04-.55,.65-.38,.97-1.56,.97-3.53v-1.2h2.14v2.16c0,2.09-.49,3.49-1.48,4.21-.98,.71-2.48,1.06-4.51,1.06h-1.38c-2.17,0-3.76-.41-4.78-1.23-1.01-.83-1.51-2.11-1.51-3.85v-8.59h-3.43v-2.14Z"/>
    <path class="cls-1" d="M433.9,436.66h2.47v2.44c.71-1.79,2.35-2.68,4.91-2.68h2.47c2.39,0,4.05,.42,5,1.26,.96,.84,1.44,2.21,1.44,4.12v1.93h-2.47v-.79c0-1.82-.31-3-.94-3.55-.63-.55-2.08-.82-4.34-.82h-1.66c-1.42,0-2.48,.34-3.19,1.03-.7,.68-1.05,1.62-1.05,2.82v9.82h-2.64v-15.57Z"/>
    <rect class="cls-1" x="453.76" y="436.66" width="2.64" height="15.57"/>
    <path class="cls-1" d="M477.91,444.97v-3.23c0-1.22-.37-2.05-1.11-2.5-.74-.45-2.17-.67-4.28-.67h-4.33c-1.62,0-2.68,.17-3.19,.51-.51,.34-.76,.92-.76,1.75v.39h-2.64v-.79c0-1.33,.47-2.33,1.42-2.99,.95-.67,2.63-1,5.03-1h4.42c3.02,0,5.13,.42,6.3,1.26,1.18,.83,1.77,2.31,1.77,4.43v10.12h-2.64v-1.68c-.44,.86-1.03,1.39-1.77,1.6-.74,.21-1.88,.31-3.41,.31h-6.93c-1.73,0-2.97-.38-3.74-1.14-.77-.77-1.15-1.94-1.15-3.52v-.93c0-1.47,.44-2.51,1.32-3.13,.88-.63,2.79-.94,5.75-.94h4.63c3.04,0,4.82,.72,5.32,2.16Zm-14.37,2.43v.55c0,.89,.29,1.51,.88,1.86,.59,.35,1.55,.52,2.87,.52h4.48c2.38,0,3.99-.16,4.85-.49,.86-.33,1.29-.93,1.29-1.81v-.66c0-.92-.39-1.55-1.18-1.89-.79-.35-2.25-.52-4.39-.52h-4.31c-1.82,0-3.02,.17-3.61,.51-.59,.34-.88,.98-.88,1.93Z"/>
    <path class="cls-1" d="M485.56,452.24v-22.28h2.64v22.28h-2.64Z"/>
    <path class="cls-1" d="M495.46,444.93v1.03c0,1.61,.45,2.74,1.35,3.4,.9,.65,2.54,.97,4.91,.97h4.36c1.55,0,2.63-.22,3.23-.67,.62-.46,.95-1.2,1-2.22h2.64v.34c0,3.12-2.59,4.69-7.77,4.69h-4.97c-2.6,0-4.48-.5-5.65-1.5-1.16-1-1.74-2.63-1.74-4.9v-3.23c0-2.14,.56-3.74,1.68-4.81,1.12-1.08,2.94-1.62,5.48-1.62h5c2.74,0,4.75,.53,6.03,1.6,1.29,1.06,1.93,2.79,1.93,5.18v1.72h-17.49Zm0-2.14h14.85v-.93c0-2.2-1.72-3.29-5.17-3.29h-4.63c-2.29,0-3.7,.41-4.25,1.24-.54,.83-.81,1.82-.81,2.98Z"/>
    <path class="cls-1" d="M518.88,446.73v.82c0,1,.28,1.71,.81,2.14,.54,.43,1.42,.64,2.65,.64h6.21c1.96,0,3.25-.15,3.88-.45,.64-.3,.96-1.01,.96-2.13,0-.94-.26-1.56-.79-1.87-.53-.31-1.49-.46-2.87-.46h-8.1c-1.84,0-3.13-.34-3.88-1.02-.75-.68-1.12-1.7-1.12-3.05v-.99c0-1.4,.56-2.4,1.69-3.01,1.13-.62,3.13-.93,6-.93h4.52c2.48,0,4.18,.32,5.12,.96,.94,.63,1.41,1.62,1.41,2.98v.85h-2.47c0-1-.24-1.69-.73-2.07-.49-.39-1.4-.58-2.73-.58h-5.93c-1.73,0-2.87,.15-3.43,.45-.55,.29-.82,.85-.82,1.69v.67c0,.7,.22,1.19,.67,1.48,.46,.28,1.33,.42,2.61,.42h7.53c2.18,0,3.71,.36,4.61,1.08,.9,.71,1.35,1.89,1.35,3.55s-.54,2.81-1.63,3.52c-1.08,.7-2.86,1.05-5.35,1.05h-6.32c-2.38,0-4.02-.38-4.94-1.14-.92-.77-1.38-2.01-1.38-3.71v-.9h2.47Z"/>
  </g>
  <path class="cls-1" d="M236.62,416.3v-44.49h37.73c3.93,0,6.88,.8,8.85,2.39,1.97,1.59,2.96,4.13,2.96,7.59v3.65c0,4.33-2.5,6.76-7.5,7.29,3.25,.24,5.59,1.09,7.03,2.54,1.43,1.44,2.15,3.63,2.15,6.58v4.87c0,3.11-1.2,5.48-3.59,7.12-2.39,1.63-5.4,2.45-9.03,2.45h-38.6Zm6.01-25.29h30.76c4.5,0,6.76-1.78,6.76-5.35v-3.83c0-1.79-.54-3.09-1.61-3.89-1.08-.82-2.64-1.23-4.69-1.23h-31.21v14.29Zm0,20.39h31.54c2.85,0,4.83-.52,5.95-1.55,1.14-1.04,1.7-2.53,1.7-4.48v-2.99c0-2.43-.61-4.12-1.82-5.05-1.2-.94-3.5-1.41-6.91-1.41h-30.46v15.49Z"/>
  <path class="cls-1" d="M339.89,401.92h5.62v3.29c0,4.39-1.13,7.48-3.38,9.3-2.23,1.81-6.04,2.72-11.42,2.72h-22.6c-5.74,0-9.84-1.26-12.29-3.77-2.45-2.53-3.68-6.66-3.68-12.38v-13.15c0-5.72,1.24-9.84,3.71-12.35,2.47-2.53,6.56-3.8,12.26-3.8h22.63c9.21,0,13.81,3.65,13.81,10.94v3.89h-5.26v-1.97c0-2.97-.72-5.03-2.15-6.19-1.43-1.18-3.94-1.76-7.5-1.76h-21.05c-3.77,0-6.45,.77-8.04,2.3-1.59,1.51-2.39,3.95-2.39,7.29v16.38c0,3.19,.77,5.6,2.3,7.23,1.53,1.61,4.25,2.42,8.13,2.42h21.02c3.91,0,6.6-.55,8.07-1.64,1.48-1.1,2.21-3.04,2.21-5.83v-2.93Z"/>
  <g>
    <ellipse class="cls-5" cx="291.07" cy="253.3" rx="82.96" ry="84.19"/>
    <g class="cls-4">
      <path class="cls-1" d="M301.83,90.87c1.8,92.8,3.61,185.6,5.42,278.4,1.89-97.29,3.79-194.59,5.68-291.88l-11.09,13.48Z"/>
    </g>
    <g class="cls-3">
      <path class="cls-1" d="M285.55,110.65c1.67,86.21,3.34,172.42,5.01,258.63,1.75-90.37,3.5-180.73,5.25-271.1l-10.26,12.47Z"/>
    </g>
    <g class="cls-2">
      <path class="cls-1" d="M269.31,130.38c1.52,79.63,3.05,159.27,4.57,238.9,1.6-83.42,3.19-166.85,4.79-250.27l-9.36,11.37Z"/>
    </g>
    <path class="cls-1" d="M348.04,192.14c-1.23,41.89-2.47,83.79-3.7,125.68,18.14-15.44,29.69-38.61,29.69-64.52,0-24.1-9.99-45.81-25.99-61.16Z"/>
    <path class="cls-1" d="M327.32,329.01c5.59-2.76,10.84-6.13,15.64-10.05-1.32-44.79-2.64-89.57-3.96-134.36-2.39-1.72-4.87-3.3-7.43-4.76-1.42,49.72-2.84,99.44-4.25,149.16Z"/>
    <path class="cls-1" d="M307.9,335.73c6.54-1.38,12.81-3.53,18.69-6.37-1.46-51.37-2.93-102.73-4.39-154.1-3.58-1.48-7.29-2.71-11.11-3.67-1.06,54.71-2.13,109.42-3.19,164.14Z"/>
    <path class="cls-1" d="M291.18,337.48c5.27,0,10.42-.52,15.42-1.49-1.08-55.32-2.15-110.64-3.23-165.95-2.93-.44-5.91-.73-8.93-.85-1.09,56.1-2.17,112.2-3.26,168.29Z"/>
    <g>
      <path class="cls-1" d="M273.24,335.51c-1.04-54.56-2.09-109.12-3.13-163.67-35.67,9.43-62,42.31-62,81.46,0,25.09,10.83,47.59,27.99,63.01-.77-19.03-1.54-38.06-2.31-57.09,3.27-3.09,6.54-6.19,9.81-9.28-.95,23.42-1.89,46.84-2.84,70.26,3.93,3.05,8.13,5.75,12.57,8.06-1.1-28.13-2.2-56.27-3.3-84.4l10.72-10.13c-1.26,32.1-2.51,64.21-3.77,96.31,5.16,2.36,10.6,4.21,16.26,5.47Z"/>
      <path class="cls-1" d="M274.52,335.79c4.99,1.03,10.15,1.61,15.43,1.68-1.09-56.08-2.17-112.16-3.26-168.24-3.05,.16-6.05,.51-9,.99-1.06,55.19-2.11,110.38-3.17,165.57Z"/>
    </g>
  </g>
</svg>