<?xml version="1.0" encoding="utf-8"?>
<!-- Generator: Adobe Illustrator 25.0.0, SVG Export Plug-In . SVG Version: 6.00 Build 0)  -->
<svg version="1.1" id="Capa_1" xmlns:xodm="http://www.corel.com/coreldraw/odm/2003"
	 xmlns="http://www.w3.org/2000/svg" xmlns:xlink="http://www.w3.org/1999/xlink" x="0px" y="0px" viewBox="0 0 416 417"
	 style="enable-background:new 0 0 416 417;" xml:space="preserve">
<style type="text/css">
	.st0{fill:#FFFFFF;}
</style>
<g id="Capa_x0020_1">
	<path class="st0" d="M75,353.3c-1.4-1.3-4.5-4.1-6.1-5.4c0.3-0.2,0.7-0.4,1-0.8c0.4-0.4,0.7-0.8,0.8-1.1c0.7,0.8,1.3,1.5,2,2.1
		c1.2,1.2,2.5,2.4,3.8,3.6l7-7.4c-0.8-0.7-4.3-3.9-6.8-5.9c0.3-0.1,0.6-0.4,1-0.8c0.4-0.4,0.6-0.7,0.8-1.1c1.6,1.7,3.2,3.3,4.9,4.9
		c1.6,1.6,3.4,3.1,5.3,4.7c-1.1,1.1-2.2,2.2-3.3,3.3c-1.5,1.6-4.7,4.9-5.9,6.1c-1.1,1.1-6,6.5-8.3,9.4c-1.3-1.3-3.3-3.4-4.9-4.8
		c-1.2-1.2-3.2-2.8-5.2-4.6c0.4-0.2,0.6-0.4,0.9-0.8c0.4-0.4,0.7-0.8,0.8-1.1l2.4,2.5c1,1,1.3,1.3,3.8,3.6L75,353.3L75,353.3z"/>
	<path class="st0" d="M53.4,344c2.4-5.1,3.3-7.2,6-14l1.6-3.9l-2.8,0.5c-7.1,1.1-10.5,1.8-18.9,3.6c-0.1-0.2-0.3-0.5-0.5-0.7
		c-0.1-0.2-0.3-0.4-0.6-0.5l2.3-2.2c3.2-3.1,6.1-6.1,9.3-9.4c1.6-1.6,5.3-5.7,6.5-7.2c0.5,0.8,1.2,1.8,1.6,2.3
		c0.4,0.5,0.9,1,1.7,1.8l-1,0.9c-0.6,0.5-3.1,2.8-3.5,3.3c-1.2,1.2-6.6,6.7-7.7,7.8c4.9-0.7,13.5-2.2,18.9-3.7
		c0.1,0.2,0.3,0.5,0.4,0.7c0.1,0.2,0.3,0.3,0.5,0.5c-1.3,2.9-2,4.6-4.5,10.2c-0.5,1.1-2.5,6.2-3,7.2c4.6-2.8,9.5-5.9,14-9.2
		c0.3,0.6,0.6,1.1,0.9,1.5c0.4,0.5,0.8,0.8,1.2,1.1l-1,0.6c-4.2,2.2-17.8,10.2-21.5,12.6c-0.1-0.3-0.3-0.5-0.5-0.8
		c-0.1-0.2-0.4-0.4-0.6-0.6L53.4,344L53.4,344z"/>
	<path class="st0" d="M46.4,304.5c3-1.7,4-2.4,5-3.2c0.3,0.8,0.7,1.5,1.1,2.4c0.5,0.8,0.9,1.5,1.5,2.2c-2.7,1.3-4,2-4.9,2.4l-8,4.6
		c-1.4,0.8-4.2,2.4-5.5,3.3l-4,2.5c-0.4-0.8-0.8-1.7-1.7-3.3c-0.4-0.8-2.3-3.7-2.7-4.3c-0.9-1.6-1.8-3.3-1.6-5.5
		c0.2-1.7,0.9-3.5,3.3-4.9c3.1-1.8,7.8-1.9,11.4,4.4c0.6,0.9,0.8,1.5,1.2,2.3L46.4,304.5L46.4,304.5z M40,308.2
		c-0.3-0.6-0.5-1.2-0.8-1.8c-2.1-3.6-5.7-2.7-7.5-1.7c-2.6,1.5-3.7,3.8-2.1,6.5c0.5,0.8,0.9,1.5,1.4,2.2L40,308.2z"/>
	<path class="st0" d="M28.4,280c0.5-0.8,1.3-2.1,1.8-2.9c2.7-4.3,3.5-5.8,5.3-9.1c0.3,1,0.6,1.9,1.1,3.2c0.6,1.4,0.8,1.7,1.4,2.7
		c-0.6,0.8-1.6,2.2-2.1,3c-2,2.9-4.1,6.4-6,9.4l0.3,0.8l4.9-2.1c1-0.4,5.4-2.4,6.3-2.8c0.2,0.8,0.4,1.6,0.8,2.4
		c0.3,0.8,0.8,1.6,1.2,2.3c-6.9,2.6-7.7,2.9-14.4,5.7c-4.5,1.9-5,2.1-9.4,4.2c-0.2-0.8-0.5-1.8-1.3-3.6c-0.4-0.9-2.3-4.9-2.6-5.7
		c-0.9-2.2-1.4-4.1-0.6-6.1c0.6-1.5,1.7-2.6,3.2-3.3c3.9-1.6,7,0.4,9,3.3L28.4,280L28.4,280z M28.6,287.7c-0.2-0.7-0.5-1.6-0.9-2.4
		c-1.5-3.5-4.6-3.7-6.8-2.7c-1.4,0.6-2.6,1.4-3,3c-0.3,1.2,0,2.4,0.5,3.6c0.3,0.7,1,1.9,1.2,2.4L28.6,287.7L28.6,287.7z"/>
	<path class="st0" d="M19.3,263.9c-0.5-1.8-1.7-5.9-2.4-7.8c0.4,0,0.8,0,1.3-0.2c0.5-0.1,1-0.3,1.2-0.5c0.2,1,0.4,1.9,0.6,2.8
		c0.5,1.7,0.9,3.4,1.4,5l9.8-2.8c-0.2-0.9-1.7-5.6-2.7-8.6c0.3,0,0.7,0,1.2-0.2c0.5-0.1,0.9-0.3,1.2-0.5c0.5,2.2,1,4.4,1.7,6.7
		c0.7,2.2,1.4,4.4,2.2,6.7c-1.6,0.4-3,0.8-4.6,1.1c-2.1,0.5-6.5,1.7-8.2,2.2c-1.6,0.4-8.5,2.5-12,3.8c-0.4-1.8-1.1-4.6-1.7-6.6
		c-0.5-1.6-1.3-4-2.1-6.6c0.5,0,0.8,0,1.2-0.1c0.5-0.1,1-0.4,1.3-0.6l0.8,3.4c0.3,1.4,0.4,1.7,1.4,5L19.3,263.9L19.3,263.9z"/>
	<path class="st0" d="M24.3,247.2c3.4-2.4,3.6-4.3,3.3-6.5c-0.5-2.9-2.8-4.5-5.5-4.1c-2.9,0.5-3.5,3-3.7,3.8c-0.3,1.1-0.6,3-0.9,4.1
		c-1,3.9-2.7,5.3-5.7,5.8c-3.3,0.6-7.8-0.7-8.9-7.3c-0.5-2.7,0-4.5,0.5-6.4C5.2,237,5.5,237,7,237l0.1,0.5c-2,0.9-2.8,3.1-2.4,5.4
		c0.5,2.9,2.5,4.1,4.8,3.7c2.7-0.5,3.1-2.5,3.8-6c0.6-3.1,0.8-4.2,1.8-5.5c1.4-1.8,3.5-2.5,4.6-2.6c3.8-0.7,8.6,1.2,9.8,8
		c0.5,3.2-0.3,5.8-0.7,7.3c-2-0.3-2.5-0.2-4.3-0.1L24.3,247.2L24.3,247.2z"/>
	<path class="st0" d="M21.8,212.2l-3.9,1.8c0,1.6,0,3.2,0,4.8c0.1,1.5,0.2,3,0.4,4.5c3,1.1,6.1,2.1,8.3,2.6c0,0.5-0.1,1.2-0.1,1.8
		c0,0.6,0.2,1.1,0.3,1.6l-9.9-3.9c-8.7-3.4-13.7-5.3-16.8-6.1c0.1-0.4,0.2-0.8,0.1-1.2c0-0.4-0.1-0.8-0.2-1.2c5-2,10.2-4.5,13.3-6
		c3.2-1.6,8.8-4.3,12.3-6.2c0,0.6-0.1,1.9-0.1,3c0,1,0.3,2.1,0.4,2.7L21.8,212.2L21.8,212.2z M6.5,219.1l9.4,3.4c0-1.3,0-2.6,0-3.9
		c0-1.1-0.2-2.3-0.3-3.4C15.6,215.1,6.5,219.1,6.5,219.1z"/>
	<path class="st0" d="M27.2,172.4c1.3,2.9,1.3,5.4,0.8,8.4c-0.3,2.3-0.9,4.6-1.3,6.8c-0.2,1.1-0.2,2.4-0.4,3.5l-6.7-1.3
		c-1.6-0.3-2.4-0.4-6.9-1.1c-2.4-0.3-4.6-0.8-7-1c-1.6-0.2-3.3-0.4-4.9-0.6c0.2-1,0.5-2,0.7-3c0.3-2,0.5-4.2,0.8-6.5
		c0.5-3.2,1.3-7.1,4.2-9.8c2.7-2.5,6.2-3.4,10.1-2.8C22,165.9,25.6,168.6,27.2,172.4z M19.9,185.2c1.7,0.2,3.5,0.4,5.2,0.6
		c0.1-0.8,0.8-4.1,0.9-5c0.4-2.4-0.4-9-10-10.6c-4.8-0.8-10.5,0.7-11.7,8.4c-0.2,1.3-0.3,2.6-0.4,3.9c1.5,0.3,3,0.7,4.5,0.9
		L19.9,185.2L19.9,185.2z"/>
	<path class="st0" d="M19.2,153.3c0.6-1.8,1.7-5.9,2.1-7.9c0.4,0.2,0.7,0.4,1.2,0.6c0.5,0.1,1,0.2,1.3,0.2c-0.3,0.9-0.7,1.8-1,2.7
		c-0.5,1.6-1.1,3.3-1.6,5l9.8,2.9c0.3-0.9,1.6-5.6,2.3-8.7c0.3,0.2,0.7,0.4,1.2,0.5c0.5,0.2,0.9,0.2,1.3,0.2
		c-0.8,2.1-1.5,4.2-2.2,6.5c-0.7,2.2-1.3,4.5-1.8,6.8c-1.5-0.5-3-1-4.5-1.5c-2.1-0.7-6.5-2.1-8.1-2.6c-1.5-0.4-8.5-2.4-12.2-3.3
		c0.6-1.7,1.6-4.5,2.1-6.5c0.5-1.6,1.1-4.1,1.8-6.7c0.4,0.2,0.7,0.4,1.1,0.5c0.6,0.2,1.1,0.2,1.4,0.2l-1.2,3.3
		c-0.5,1.3-0.6,1.6-1.6,5L19.2,153.3L19.2,153.3z"/>
	<path class="st0" d="M40.9,123.9c2.5,1.3,3.7,1.6,4.8,2c-0.6,0.9-1.2,2-1.4,2.4c-0.3,0.6-0.5,1.1-0.9,2.4c-2.5-1.4-5-2.9-7.6-4.1
		l-9.4-4.6c-1.3-0.6-2.4-1.2-3.8-1.7l-0.8,1.6c-0.1,0.3-1.7,3.6-2.4,5.4c-0.4-0.3-0.8-0.6-1.2-0.8c-0.4-0.2-0.8-0.3-1.3-0.4
		c1.5-2.6,3.3-6.3,4.6-9c1.4-2.8,2.8-5.8,4.2-9.1c0.5,0.4,0.9,0.7,1.2,0.8c0.4,0.2,0.7,0.3,1.3,0.5c-1.2,1.9-2.4,4.3-3.5,6.6
		c1.2,0.6,2.4,1.3,3.7,1.9L40.9,123.9z"/>
	<path class="st0" d="M41.3,104c1-1.6,3.3-5.2,4.1-7c0.3,0.3,0.6,0.6,1,0.8c0.5,0.3,0.9,0.5,1.2,0.6c-0.6,0.8-1.2,1.6-1.7,2.4
		c-0.9,1.4-1.9,2.9-2.9,4.4l8.6,5.5c0.5-0.8,3-4.9,4.6-7.8c0.2,0.3,0.5,0.6,1,0.8s0.8,0.5,1.2,0.6c-1.3,1.8-2.6,3.7-3.9,5.7
		c-1.2,1.9-2.4,4-3.6,6.1c-1.3-0.9-2.5-1.8-3.9-2.7c-1.8-1.2-5.7-3.8-7.1-4.7c-1.3-0.8-7.5-4.7-10.8-6.5c1.1-1.5,2.7-3.9,3.8-5.6
		c0.9-1.5,2.2-3.7,3.5-6c0.3,0.3,0.5,0.6,0.9,0.8c0.5,0.3,0.9,0.5,1.3,0.6l-2.1,2.9c-0.8,1.1-1,1.5-2.9,4.4L41.3,104L41.3,104z"/>
	<path class="st0" d="M49.6,90.1c-1.3-1-1.6-1.3-4.3-3.3c-0.7-0.5-3.3-2.5-3.9-2.9c0.7-0.6,1.2-1.2,1.8-1.9c0.6-0.8,1-1.4,1.5-2.2
		c4.3,3.7,7.9,6.8,12.5,10.4c2,1.6,4,3.1,5.7,4.4l0.4-0.5c0.7-0.8,4.1-5.1,5.2-7.1c0.2,0.3,0.4,0.5,1,1.1c0.5,0.3,0.7,0.5,1.1,0.7
		c-1.3,1.5-3.4,3.9-4.7,5.5c-1.5,1.9-2.7,3.5-4.3,5.8c-0.5-0.4-7.2-6-7.9-6.6C53.7,93.4,49.6,90.1,49.6,90.1z"/>
	<path class="st0" d="M66.8,71.6c1.3-1.4,4.2-4.4,5.5-6c0.2,0.4,0.4,0.7,0.8,1.1c0.4,0.4,0.8,0.7,1,0.8c-0.7,0.7-1.5,1.3-2.2,2
		c-1.2,1.2-2.5,2.4-3.7,3.7l7.3,7.1c0.7-0.7,4-4.2,6.1-6.6c0.1,0.3,0.4,0.6,0.8,1c0.4,0.4,0.7,0.7,1.1,0.8c-1.7,1.5-3.3,3.1-5,4.8
		c-1.6,1.6-3.2,3.4-4.8,5.2c-1.1-1.1-2.1-2.3-3.3-3.4c-1.5-1.6-4.7-4.9-6-6.1c-1.1-1.1-6.4-6.1-9.2-8.6c1.4-1.3,3.5-3.3,4.9-4.7
		c1.2-1.2,2.8-3.1,4.7-5.1c0.2,0.4,0.4,0.7,0.8,1c0.4,0.4,0.8,0.7,1.1,0.8l-2.6,2.4c-1,0.9-1.3,1.2-3.7,3.7
		C60.4,65.3,66.8,71.6,66.8,71.6z"/>
	<path class="st0" d="M90.9,42.6l-0.3,0.2c-0.9-0.4-3.6-1.6-7.8,1.7c-4.9,3.9-5,9.2-0.6,14.8c0.8,1,3,3.8,6.7,4.8
		c2.2,0.5,4.8,0.6,7.4-1.6c3.6-2.9,4.1-6.1,4.1-8.8l0.5,0l2,3.2c-1.3,3-3.3,5.7-6,7.8c-5.7,4.6-13.4,4.8-18.6-1.8
		c-4.7-5.9-4.9-13.5,3-19.8c2.4-1.9,4.9-3.2,8.1-4L90.9,42.6L90.9,42.6z"/>
	<path class="st0" d="M124,31.4c4.1,7.3,1.8,14.8-5.4,18.9c-6.8,3.9-14.5,2.9-18.5-4.2c-4.7-8.3-1.1-15.2,5.5-19
		C111.7,23.7,119.6,23.6,124,31.4z M117.7,48.7c5.6-3.2,4.8-9.6,2.1-14.3c-3-5.3-7.6-8.8-13.3-5.5c-5.7,3.2-4.7,9.8-2.1,14.3
		C107.1,48,112.1,51.8,117.7,48.7z"/>
	<path class="st0" d="M131.8,17.2c4.1,4,5.7,5.5,11.2,10.4l3.1,2.7l0.5-2.8c1.3-7,1.8-10.5,2.9-19c0.3,0,0.6-0.1,0.8-0.1
		c0.2-0.1,0.5-0.2,0.7-0.4l1.3,2.8c1.8,4.1,3.7,7.8,5.7,11.9c1,2,3.6,6.9,4.6,8.6c-0.9,0.2-2.1,0.5-2.6,0.7c-0.7,0.2-1.3,0.5-2.3,1
		l-0.6-1.3c-0.3-0.7-1.6-3.8-1.9-4.4c-0.7-1.6-4.1-8.4-4.7-9.9c-1,4.9-2.4,13.5-2.8,19.1c-0.2,0-0.5,0.1-0.7,0.2
		c-0.2,0.1-0.5,0.2-0.7,0.3c-2.3-2.3-3.7-3.4-8.2-7.6c-0.9-0.8-4.9-4.5-5.8-5.2c1.1,5.2,2.4,10.8,4.1,16.3c-0.7,0.1-1.3,0.2-1.7,0.4
		c-0.6,0.2-1,0.5-1.4,0.8l-0.1-1.2c-0.7-4.7-3.7-20.2-4.8-24.5c0.3,0,0.6-0.1,0.8-0.2c0.3,0,0.5-0.2,0.8-0.3L131.8,17.2L131.8,17.2z
		"/>
	<path class="st0" d="M168.1,7.1c0.4,2.8,1,6.4,1.5,9.6c1,5.9,1.3,7.3,2.6,8.5c1.3,1.3,3.4,1.7,6,1.3c3-0.5,5.1-2.4,5.6-4.9
		c0.2-0.8,0.1-2.1-0.3-5.1c-0.8-4.9-1.7-9.7-2.8-14.5c0.6,0,1.1,0,1.7,0c0.6-0.1,1.1-0.4,1.7-0.5l0.2,1.8c0.3,3.2,1.5,10.9,2.1,14.7
		c0.7,4.4-0.2,6.6-2.4,8.6c-1.6,1.4-4,2.3-5.9,2.6c-4.5,0.8-10,0.3-11.8-5.4c-0.2-0.5-0.4-1.6-0.4-1.9L164,11.8
		c-0.3-1.9-0.9-4.8-1.3-6.7c0.9,0,1.8,0,2.6-0.2c0.8-0.1,1.6-0.4,2.4-0.6L168.1,7.1L168.1,7.1z"/>
	<path class="st0" d="M194.2,11.2c0-3.5-0.1-7.1-0.2-10.6c0.3,0,0.6,0.1,0.9,0.1c0.3,0,0.6,0,0.8-0.1c3.6,3.9,7.1,7.3,11.7,11.7
		l4.5,4.3c0.8,0.7,1.1,0.9,1.9,1.6l-0.1-8.3c0-3.2-0.3-6.5-0.6-9.5c0.5,0.1,0.9,0.2,1.6,0.2c0.7,0,1.1-0.1,1.6-0.2
		C216,4.9,216,7.5,216.1,13c0,2.2,0.1,7.6,0.2,9.6c0,0.8,0,2.8,0.1,3.7c-0.3,0-0.6-0.1-0.8,0c-0.3,0-0.5,0-0.8,0
		c-4.9-5.1-14.3-14.2-18.3-17.8c0,5.1,0.1,7.9,0.3,11.9c0,2.2,0.1,2.5,0.4,6c-0.4,0-1.2-0.2-1.7-0.2c-0.6,0-1,0.1-1.5,0.2l0.2-5.2
		c0-1,0-3.8,0-4.9C194.3,16.3,194.2,11.2,194.2,11.2z"/>
	<path class="st0" d="M225.6,1.2c0.7,0.1,2.1,0.4,2.6,0.5c0.8,0,1.7,0,2.6,0c-0.7,2.7-1.3,9.2-1.6,13c-0.5,5.6-0.8,9.6-0.8,12.7
		c-0.8-0.1-1.7-0.4-2.6-0.5c-0.8-0.1-1.9,0-2.7,0c0.8-4.4,1.4-10.6,2-17C225.4,7.5,225.6,4.8,225.6,1.2L225.6,1.2z"/>
	<path class="st0" d="M259.9,12.1l-0.4-0.1c-0.2-0.9-1-3.8-6.3-4.9c-6.2-1.3-10.3,2.1-11.7,9.1c-0.3,1.3-1,4.7,0.7,8.1
		c1,2,2.6,4.1,6,4.7c4.5,0.9,7.3-0.8,9.4-2.4l0.3,0.3l-1.1,3.6c-3.1,1-6.5,1.1-9.8,0.4c-7.2-1.5-12.2-7.2-10.6-15.5
		c1.5-7.4,7.3-12.4,17.1-10.4c3,0.7,5.6,1.7,8.2,3.6L259.9,12.1z"/>
	<path class="st0" d="M275.3,34.5l-0.2-4.3c-1.5-0.6-2.9-1.2-4.5-1.8c-1.4-0.5-2.8-0.9-4.3-1.4c-2.1,2.4-4.3,4.9-5.6,6.7
		c-0.5-0.2-1.1-0.6-1.6-0.8c-0.6-0.2-1.1-0.2-1.6-0.4l7.3-7.7c6.4-6.7,10.1-10.6,12-13.2c0.3,0.2,0.7,0.4,1.1,0.6
		c0.4,0.1,0.8,0.2,1.2,0.2c0,5.5,0.3,11.2,0.5,14.6c0.3,3.6,0.7,9.8,1.1,13.8c-0.5-0.2-1.7-0.8-2.7-1.2c-1-0.4-2.1-0.5-2.7-0.8
		C275.4,38.9,275.3,34.5,275.3,34.5z M274.7,17.7l-6.7,7.4c1.2,0.5,2.4,1,3.6,1.5c1.1,0.4,2.2,0.7,3.3,1L274.7,17.7L274.7,17.7z"/>
	<path class="st0" d="M310.5,33l-0.3-0.1c0-1,0-4-4.8-6.5c-5.6-2.9-10.5-0.7-13.7,5.6c-0.6,1.2-2.2,4.3-1.6,8.1
		c0.4,2.2,1.5,4.6,4.5,6.2c4.1,2.1,7.3,1.1,9.7,0.1l0.2,0.4l-2.1,3.1c-3.3,0.1-6.5-0.7-9.6-2.2c-6.5-3.3-9.8-10.2-6-17.7
		c3.4-6.7,10.4-10,19.3-5.4c2.8,1.4,4.9,3.1,7,5.7C313.2,30.3,310.5,33,310.5,33z"/>
	<path class="st0" d="M320.1,33.1c0.5,0.5,1.6,1.4,2.1,1.6c0.7,0.5,1.6,0.9,2.4,1.3c-1.8,2.1-5.4,7.5-7.5,10.7
		c-3.1,4.7-5.2,8.1-6.7,10.8c-0.7-0.5-1.3-1.1-2.1-1.6c-0.7-0.5-1.6-0.9-2.4-1.3c2.8-3.5,6.2-8.7,9.8-14.1
		C317,38.6,318.4,36.4,320.1,33.1z"/>
	<path class="st0" d="M345.2,68.4c-5.4,6.4-13.2,6.8-19.6,1.5c-6-5.1-7.7-12.6-2.4-18.9c6.2-7.3,13.9-6.3,19.7-1.4
		C348.2,54.1,351,61.5,345.2,68.4z M326.8,68.4c4.9,4.1,10.6,1.1,14.1-3c4-4.7,5.7-10.2,0.6-14.4c-4.9-4.2-10.8-1-14.1,2.9
		C323.8,58.2,321.8,64.2,326.8,68.4z"/>
	<path class="st0" d="M351.7,72.5c2.7-2.3,5.4-4.6,8.1-6.9c0.1,0.2,0.3,0.5,0.5,0.8c0.2,0.2,0.4,0.4,0.6,0.6
		c-0.7,5.3-1.2,10.1-1.6,16.4l-0.5,6.2c0,1,0,1.4,0,2.5l6.4-5.4c2.4-2.1,4.8-4.3,7-6.5c0.2,0.4,0.4,0.9,0.9,1.4
		c0.4,0.5,0.8,0.8,1.2,1c-3.7,2.7-5.8,4.4-10,7.9c-1.6,1.4-5.7,4.9-7.3,6.2c-0.6,0.5-2.1,1.8-2.8,2.4c-0.1-0.2-0.3-0.4-0.4-0.6
		c-0.2-0.2-0.4-0.4-0.6-0.5c0.8-7,1.9-20,2.1-25.4c-3.9,3.3-6,5.1-9,7.8c-1.6,1.4-1.9,1.7-4.4,4.1c-0.2-0.4-0.6-1-0.9-1.5
		c-0.3-0.4-0.8-0.7-1.1-1l4.2-3.2c0.8-0.6,3-2.4,3.8-3.1C347.9,75.9,351.7,72.5,351.7,72.5z"/>
	<path class="st0" d="M373,101c1,1.6,3.3,5.1,4.6,6.7c-0.4,0.1-0.8,0.3-1.2,0.6c-0.5,0.3-0.8,0.6-1,0.8c-0.5-0.8-0.9-1.7-1.4-2.5
		c-0.9-1.5-1.8-3-2.8-4.4l-8.6,5.5c0.5,0.8,3.3,4.8,5.1,7.4c-0.4,0-0.7,0.2-1.1,0.5c-0.5,0.3-0.8,0.5-1,0.9c-1.1-2-2.3-4-3.6-6
		c-1.2-1.9-2.5-3.8-4-5.8c1.4-0.8,2.7-1.6,4.1-2.4c1.9-1.1,5.8-3.6,7.3-4.5c1.3-0.8,7.4-4.8,10.4-7.1c0.9,1.6,2.4,4.1,3.5,5.8
		c0.9,1.5,2.4,3.4,3.9,5.7c-0.4,0.1-0.7,0.2-1.1,0.5c-0.5,0.3-0.8,0.7-1,0.9l-1.8-3.1c-0.7-1.2-0.8-1.5-2.7-4.4L373,101L373,101z"/>
	<path class="st0" d="M373.1,118.4c-2.6,3.2-2.3,5.1-1.3,7.1c1.3,2.7,4,3.5,6.4,2.3c2.7-1.3,2.5-3.9,2.5-4.7c0-1.1-0.2-3-0.3-4.2
		c-0.1-4,1.1-5.8,3.9-7.2c3-1.5,7.6-1.6,10.6,4.5c1.2,2.5,1.3,4.3,1.4,6.3c-2,0.1-2.3,0.2-3.7,0.5l-0.2-0.5c1.6-1.5,1.8-3.7,0.7-5.8
		c-1.3-2.7-3.6-3.2-5.6-2.2c-2.4,1.2-2.3,3.3-1.9,6.8c0.3,3.1,0.4,4.3-0.2,5.8c-0.8,2.2-2.7,3.4-3.6,3.9c-3.4,1.7-8.5,1.3-11.6-4.9
		c-1.4-2.9-1.4-5.6-1.4-7.2c2-0.3,2.5-0.5,4.2-1.1L373.1,118.4L373.1,118.4z"/>
	<path class="st0" d="M387.7,166.3c-2.4-2.1-3.4-4.3-4.2-7.3c-0.6-2.2-1-4.5-1.6-6.7c-0.3-1.1-0.8-2.3-1.1-3.3l6.7-1.6
		c1.6-0.4,2.4-0.7,6.7-1.8c2.3-0.6,4.6-1.2,6.8-1.9c1.6-0.5,3.1-1,4.7-1.5c0.2,1,0.3,2,0.6,3c0.5,1.9,1.3,4.1,1.9,6.2
		c0.8,3.1,1.8,7,0.2,10.6c-1.4,3.4-4.3,5.7-8.1,6.7C395.2,170.1,390.8,169.1,387.7,166.3L387.7,166.3z M389.1,151.6
		c-1.6,0.5-3.3,1-5,1.6c0.2,0.8,0.9,4.1,1.2,5c0.7,2.4,4.1,8.1,13.5,5.5c4.7-1.3,9.3-4.9,7.3-12.5c-0.3-1.2-0.8-2.5-1.2-3.7
		c-1.5,0.3-3,0.6-4.4,1L389.1,151.6z"/>
	<path class="st0" d="M403,180.4c0.2,1.9,0.8,6.1,1.3,8c-0.4,0-0.8-0.1-1.4,0c-0.5,0-1,0.2-1.2,0.3c0-0.9-0.1-1.9-0.2-2.9
		c-0.2-1.7-0.4-3.5-0.7-5.2l-10.1,1.4c0.1,0.9,0.9,5.7,1.5,8.9c-0.4-0.1-0.8-0.1-1.3,0c-0.6,0-0.9,0.1-1.3,0.4
		c-0.1-2.3-0.4-4.5-0.7-6.9c-0.3-2.2-0.7-4.6-1.2-6.9c1.6-0.1,3.2-0.3,4.7-0.5c2.2-0.2,6.7-0.8,8.4-1c1.6-0.2,8.8-1.2,12.5-2
		c0.1,1.9,0.4,4.8,0.7,6.8c0.2,1.7,0.7,4.2,1.2,6.8c-0.5,0-0.8,0-1.2,0c-0.6,0-1.1,0.2-1.4,0.4l-0.3-3.5c-0.1-1.4-0.1-1.8-0.6-5.2
		L403,180.4L403,180.4z"/>
	<path class="st0" d="M410.1,228.8l0-0.4c0.9-0.4,3.6-1.6,3.9-7c0.3-6.3-3.7-9.8-10.8-10.1c-1.3,0-4.8-0.2-7.9,1.9
		c-1.8,1.3-3.6,3.3-3.8,6.6c-0.2,4.6,2,7.1,3.9,8.9l-0.3,0.4l-3.7-0.6c-1.4-2.9-2.1-6.2-1.9-9.6c0.4-7.3,5.2-13.2,13.6-12.8
		c7.6,0.3,13.4,5.2,13,15.3c-0.1,3.1-0.8,5.7-2.3,8.7L410.1,228.8L410.1,228.8z"/>
	<path class="st0" d="M410.5,242.3c-2.8-0.7-6.3-1.4-9.5-2c-5.8-1.2-7.2-1.4-8.9-0.6c-1.6,0.8-2.8,2.6-3.3,5.2
		c-0.6,3,0.5,5.7,2.6,6.9c0.8,0.5,1.9,0.9,4.9,1.5c4.8,0.9,9.7,1.9,14.5,2.5c-0.2,0.5-0.4,1-0.6,1.6c-0.1,0.6-0.1,1.2-0.1,1.7
		l-1.8-0.4c-3.1-0.8-10.7-2.4-14.4-3.3c-4.3-0.9-6.1-2.5-7.2-5.3c-0.8-2-0.8-4.5-0.4-6.5c0.8-4.4,3.3-9.5,9.2-9.1
		c0.5,0,1.6,0.2,2,0.3l10,2c1.9,0.4,4.8,0.8,6.7,1.1c-0.3,0.8-0.6,1.7-0.7,2.5c-0.2,0.8-0.2,1.7-0.3,2.4L410.5,242.3L410.5,242.3z"
		/>
	<path class="st0" d="M380.2,274.9c-0.6-1.3-1.2-3.3,0.2-7.2c0.5-1.5,1.2-3,1.7-4.4c0.4-1.1,0.6-2.4,1-3.5c4.1,1.6,8.7,3.3,12.6,4.6
		c3.9,1.4,7.9,2.7,11.9,3.8c-0.4,0.8-0.7,1.4-1.2,3c-0.3,0.8-1.3,4.3-1.6,5c-1.3,3.9-3.6,7-8.2,5.5c-3.3-1.1-4.1-4.9-3.5-7.9
		c-1.7,3.8-4.1,6.5-8.8,4.9C381.5,277.7,380.6,275.7,380.2,274.9L380.2,274.9z M386.5,266.1c-0.6-0.2-2-0.7-3-0.9
		c-0.4,0.7-0.7,1.1-0.9,1.8c-1.1,3.3-0.1,5.8,3.3,7c4.1,1.4,6.1-0.5,7.3-4.1c0.1-0.4,0.2-0.8,0.3-1.3L386.5,266.1z M395.4,269.2
		c-0.2,0.5-0.4,1-0.6,1.4c-1,3.1,0,5.4,3.1,6.5c2.4,0.8,4.5,0,5.3-2.4c0.3-0.8,0.5-1.6,0.8-2.5c-0.9-0.4-1.9-0.7-2.9-1L395.4,269.2
		L395.4,269.2z"/>
	<path class="st0" d="M373.1,295.2l4.3,0.3c0.8-1.4,1.6-2.8,2.3-4.2c0.7-1.4,1.3-2.7,1.9-4.1c-2.1-2.4-4.4-4.8-6-6.3
		c0.3-0.4,0.8-1,1-1.5c0.3-0.6,0.4-1.1,0.5-1.6l6.8,8.2c5.9,7.2,9.4,11.3,11.7,13.4c-0.3,0.3-0.5,0.7-0.7,1
		c-0.2,0.4-0.3,0.8-0.4,1.2c-5.4-0.7-11.1-0.9-14.6-1.1c-3.6-0.2-9.8-0.5-13.8-0.6c0.3-0.5,1-1.6,1.5-2.5s0.8-2,1-2.6L373.1,295.2
		L373.1,295.2z M389.8,296.5l-6.6-7.5c-0.6,1.2-1.3,2.3-1.9,3.4c-0.5,1-0.9,2.1-1.4,3.2L389.8,296.5L389.8,296.5z"/>
	<path class="st0" d="M363.1,314.7c-4.1-0.9-5.6,0.3-6.9,2.1c-1.8,2.4-1.4,5.1,0.8,6.8c2.4,1.7,4.7,0.5,5.3,0.1
		c1-0.6,2.6-1.6,3.6-2.2c3.5-2,5.7-1.7,8.1,0.1c2.7,2,4.9,6.1,0.8,11.5c-1.6,2.2-3.2,3.1-4.9,4.1c-1-1.7-1.3-2-2.2-3.1l0.3-0.4
		c2.1,0.8,4.1-0.1,5.6-2c1.8-2.4,1.2-4.7-0.6-6c-2.2-1.6-4-0.6-7,1.4c-2.6,1.6-3.6,2.3-5.2,2.4c-2.3,0.3-4.2-0.8-5.1-1.5
		c-3.1-2.3-5-7.1-0.9-12.6c1.9-2.6,4.4-3.8,5.7-4.5c1.2,1.7,1.6,2,2.9,3.3L363.1,314.7L363.1,314.7z"/>
	<path class="st0" d="M348.7,332.3c-0.9,1-2.7,1.2-3.8,0.2c-1-0.9-1.2-2.7-0.2-3.8c1-1.1,2.7-1.2,3.8-0.2
		C349.5,329.5,349.7,331.2,348.7,332.3z"/>
	<path class="st0" d="M331.8,347.8l3.9,1.8c1.2-1,2.4-2.1,3.6-3.2c1.1-1,2.2-2.1,3.2-3.2c-1.1-2.9-2.4-6-3.4-8
		c0.4-0.3,1-0.7,1.5-1.1c0.5-0.4,0.8-0.9,1.1-1.3l3.4,10.1c3.1,8.8,4.8,13.8,6.3,16.7c-0.4,0.2-0.7,0.4-1,0.7
		c-0.3,0.3-0.5,0.6-0.8,1c-4.9-2.5-10.1-4.9-13.2-6.2c-3.3-1.4-9-3.9-12.7-5.4c0.5-0.4,1.6-1.1,2.3-1.9c0.8-0.7,1.4-1.6,1.9-2
		L331.8,347.8L331.8,347.8z M346.9,355l-3.5-9.4c-1,0.8-2,1.6-3,2.5c-0.8,0.8-1.6,1.6-2.4,2.5L346.9,355z"/>
	<path class="st0" d="M322.5,356.8c-1.1,0.8-2.9,0.7-3.8-0.5c-0.8-1.1-0.6-2.9,0.5-3.8c1.2-0.9,2.9-0.6,3.7,0.5
		C323.9,354.2,323.7,355.9,322.5,356.8z"/>
	<path class="st0" d="M283.1,368.1l-3,1.2c-0.1,0-0.2,0.2-0.3,0.3l-6.7,38.2c0,0.4,0.3,0.7,0.6,0.5l3.5-1.4c0.1,0,0.3-0.2,0.3-0.4
		l1.2-10.7c0-0.2,0.1-0.3,0.3-0.4l10.2-4.1c0.2-0.1,0.4,0,0.6,0.2l4.8,8.1c0.1,0.2,0.3,0.3,0.5,0.2l7.2-2.8c0.3-0.1,0.4-0.4,0.2-0.7
		l-18.9-28C283.6,368.1,283.3,368.1,283.1,368.1z M279.6,391.3l1.8-11.4c0-0.4,0.6-0.5,0.8-0.2l5.4,8.6c0.2,0.2,0,0.6-0.2,0.7
		l-7.3,2.9C279.9,392,279.6,391.7,279.6,391.3z"/>
	<path class="st0" d="M264.8,376.3c0-0.2-0.1-0.3-0.2-0.4c-0.9-0.5-2-0.8-3.2-0.9c-1.4-0.1-2.9,0-4.7,0.4c-1.5,0.3-2.9,0.9-4.2,1.6
		c-1.3,0.8-2.4,1.7-3.4,2.9c-1,1.1-1.7,2.4-2.3,3.9c-0.6,1.5-0.8,3.1-0.8,4.8c0,1.4,0.3,2.6,0.8,3.5c0.5,0.9,1,1.7,1.7,2.3
		c0.8,0.6,1.6,1.1,2.4,1.5c0.9,0.3,1.8,0.7,2.7,0.9c0.9,0.2,1.8,0.5,2.7,0.8c0.9,0.2,1.7,0.6,2.4,0.9c0.7,0.4,1.3,0.8,1.7,1.5
		c0.4,0.6,0.7,1.3,0.8,2.3c0,0.9-0.2,1.8-0.6,2.7c-0.4,0.8-1,1.6-1.8,2.3c-0.8,0.7-1.9,1.1-3.2,1.4c-1.3,0.3-2.4,0.3-3.4,0
		c-2.5-0.7-4.1-1.9-4.9-2.8c-0.3-0.3-0.8-0.1-0.8,0.3l0.2,5.3c0,0.2,0.1,0.3,0.2,0.4c0.4,0.2,0.9,0.3,1.6,0.5
		c0.8,0.1,1.7,0.2,2.7,0.1c1,0,2.1-0.2,3.3-0.4c2-0.5,3.7-1.1,5.3-2c1.6-0.9,2.9-2,4-3.3c1.1-1.3,1.9-2.6,2.5-4.2
		c0.6-1.5,0.8-3.1,0.8-4.8c0-1.4-0.3-2.6-0.8-3.5c-0.5-0.9-1.1-1.7-1.8-2.3c-0.8-0.6-1.6-1.1-2.5-1.5c-0.9-0.4-1.8-0.7-2.8-0.9
		c-0.9-0.2-1.9-0.5-2.8-0.8c-0.9-0.2-1.7-0.5-2.4-0.9c-0.8-0.3-1.3-0.8-1.7-1.4c-0.5-0.6-0.7-1.3-0.8-2.3c0-0.8,0.2-1.6,0.6-2.4
		c0.4-0.8,1-1.4,1.7-2c0.8-0.6,1.6-1,2.6-1.2c1.4-0.3,4.5-0.4,7.6,2.7c0.3,0.3,0.8,0.1,0.8-0.3L264.8,376.3L264.8,376.3z"/>
	<path class="st0" d="M235.8,409.9c-1,0.8-2,1.4-3.2,1.9c-1.1,0.5-2.2,0.9-3.3,1.1c-1.1,0.2-2.3,0.3-3.4,0.1
		c-1.1-0.1-2.2-0.4-3.2-0.9c-1-0.6-1.9-1.3-2.7-2.3c-0.8-1-1.4-2.3-1.8-3.7c-0.5-1.5-0.7-3.3-0.7-5.3c0-2.1,0.2-4.1,0.7-5.8
		c0.4-1.7,1-3.3,1.7-4.7c0.8-1.4,1.6-2.5,2.6-3.5c0.9-0.9,2-1.7,3-2.3c1.1-0.6,2.2-1,3.2-1.2c1.2-0.2,2.2-0.3,3.2-0.1
		c1.1,0.1,3.3,0.2,6.3,2.7c0.3,0.2,0.8,0,0.8-0.4l0.1-4.5c0-0.2-0.1-0.4-0.3-0.4c-0.4-0.1-1.2-0.4-1.7-0.5c-0.8-0.2-1.6-0.3-2.6-0.3
		c-0.9,0-1.8,0-2.7,0c-0.9,0-1.8,0.1-2.7,0.3c-2.1,0.4-4.1,1-6,1.8c-1.9,0.8-3.7,1.9-5.3,3.1c-1.6,1.3-3.1,2.8-4.3,4.5
		c-1.2,1.7-2.2,3.7-2.9,5.9c-0.7,2.3-1,4.8-1,7.5c0,2.4,0.5,4.5,1.3,6.4c0.8,1.8,2,3.4,3.6,4.6c1.6,1.2,3.5,2,5.7,2.4
		c2.3,0.4,4.8,0.4,7.7-0.1c2-0.4,3.9-1,5.6-1.6c1.6-0.7,4.1-2.1,5.5-3.1c0.1,0,0.2-0.2,0.2-0.3c0-0.7,0-2.3,0-3.5
		c0-0.4-0.6-0.6-0.8-0.3C237.7,408.1,236.9,409,235.8,409.9L235.8,409.9z"/>
	<path class="st0" d="M153.6,408.6l7.4,1.4c0.1,0,0.3,0,0.4-0.2l11-27.6c0-0.1,0.2-0.2,0.4-0.2l7.7,1.5c0.1,0,0.3,0,0.4-0.2l1.3-3.4
		c0.1-0.2,0-0.4-0.2-0.5l-24.7-4.7c-0.2,0-0.3,0.1-0.4,0.2l-1.4,3.4c0,0.2,0,0.4,0.3,0.5l8.1,1.6c0.2,0,0.4,0.3,0.3,0.5l-10.9,27.3
		C153.3,408.4,153.4,408.6,153.6,408.6L153.6,408.6z"/>
	<path class="st0" d="M115.9,395.4l17.5,6.7c0.2,0,0.3,0,0.4-0.1l2-3.2c0.1-0.1,0-0.4-0.2-0.5l-9.9-3.9c-0.2,0-0.3-0.3-0.2-0.5
		l5.8-9.2c0.1-0.1,0.2-0.2,0.4-0.1l10.1,3.9c0.1,0,0.3,0,0.4-0.1l1.9-3.1c0.1-0.2,0-0.4-0.2-0.5l-9.8-3.8c-0.2,0-0.3-0.3-0.2-0.5
		l4.9-7.8c0.1-0.1,0.3-0.2,0.4-0.1l10.3,4c0.1,0,0.3,0,0.4-0.1l1.9-3.1c0.1-0.2,0-0.4-0.2-0.5l-17.5-6.7c-0.1,0-0.3,0-0.4,0.1
		l-18,28.7C115.6,395.1,115.7,395.3,115.9,395.4L115.9,395.4z"/>
	<path class="st0" d="M180.1,413.9l18.7,1.4c0.2,0,0.3-0.1,0.4-0.2l0.9-3.6c0-0.2-0.1-0.4-0.3-0.4l-10.6-0.8c-0.2,0-0.4-0.2-0.3-0.4
		l2.9-10.5c0-0.1,0.2-0.3,0.3-0.2l10.7,0.8c0.2,0,0.3-0.1,0.4-0.2l0.9-3.5c0-0.2-0.1-0.4-0.3-0.4l-10.5-0.8c-0.2,0-0.4-0.2-0.3-0.4
		l2.4-8.9c0-0.1,0.2-0.2,0.3-0.2l11,0.8c0.2,0,0.3-0.1,0.4-0.2l0.9-3.5c0-0.2-0.1-0.4-0.3-0.5l-18.7-1.4c-0.1,0-0.3,0.1-0.3,0.3
		l-8.9,32.7C179.8,413.7,179.9,413.9,180.1,413.9L180.1,413.9z"/>
	<path class="st0" d="M344.7,262.8c-20.6,51.2-83.6,106-169.6,87.2c-4.4-0.9-6-6.3-2.9-9.4l79-79c4.2-4.2,9.8-6.5,15.8-6.5h72.5
		C343.5,255,346.2,259,344.7,262.8L344.7,262.8z"/>
	<path class="st0" d="M290.3,181.3c5,0,7.5,6,4,9.5L153,332.1c-4.8,4.8-12.2,5.7-18,2.4c-18-10.2-33.6-24.2-45.8-40.7
		c-4.4-5.9-3.7-14.2,1.5-19.4l86.5-86.5c4.2-4.2,9.8-6.5,15.8-6.5L290.3,181.3L290.3,181.3z"/>
	<path class="st0" d="M262.7,77.2L79.3,260.6c-2.9,2.9-7.8,1.9-9.2-1.9C56,220.7,49.8,153.3,108.5,97.1
		C149.6,57.7,215,49.7,260.7,67.9C264.5,69.4,265.6,74.2,262.7,77.2L262.7,77.2z"/>
</g>
</svg>
