<svg xmlns="http://www.w3.org/2000/svg" xmlns:xlink="http://www.w3.org/1999/xlink" width="708" height="419" viewBox="0 0 708 419">
  <defs>
    <clipPath id="clip-path">
      <rect id="Rectángulo_778" data-name="Rectángulo 778" width="708" height="419" transform="translate(339 276)" fill="#fff" stroke="#707070" stroke-width="1"/>
    </clipPath>
    <clipPath id="clip-path-2">
      <rect width="722.967" height="454.615" fill="none"/>
    </clipPath>
    <clipPath id="clip-path-3">
      <rect id="Rectángulo_62" data-name="Rectángulo 62" width="162.869" height="58.985" fill="none"/>
    </clipPath>
  </defs>
  <g id="Enmascarar_grupo_456" data-name="Enmascarar grupo 456" transform="translate(-339 -276)" clip-path="url(#clip-path)">
    <g id="Grupo_1640" data-name="Grupo 1640">
      <g id="Cuadrícula_de_repetición_3" data-name="Cuadrícula de repetición 3" transform="translate(324 260.385)" clip-path="url(#clip-path-2)">
        <g id="Grupo_863" data-name="Grupo 863" transform="translate(-1014.755 -257.081)">
          <g id="Grupo_859" data-name="Grupo 859" transform="translate(1014.755 257.081)" opacity="0.08">
            <g id="Grupo_858" data-name="Grupo 858" transform="translate(0 0)">
              <g id="Grupo_857" data-name="Grupo 857" clip-path="url(#clip-path-3)">
                <path id="Trazado_202" data-name="Trazado 202" d="M1005.367,232.825c-9.382,0-16.381-4.7-23.153-9.238-6.207-4.162-12.068-8.1-19.818-8.6-6.229-.4-14.2,2.758-17.042,6.779l-7.974-6.518c5.573-7.872,17.364-11.533,25.626-11.009,10.289.671,17.846,5.744,24.515,10.216,6.081,4.078,11.336,7.606,17.846,7.606,5.861,0,10.167-2.17,14.037-4.784a39.253,39.253,0,0,0,5.622-4.617l6.932,7.777s-2.561,2.515-3.479,3.282c-5.262,4.382-12.383,9.105-23.112,9.105" transform="translate(-903.237 -177.634)" fill="#00e5ff"/>
              </g>
            </g>
          </g>
          <g id="Grupo_864" data-name="Grupo 864" transform="translate(1123.702 355.725)" opacity="0.08">
            <g id="Grupo_858-2" data-name="Grupo 858" transform="translate(0 -23)">
              <g id="Grupo_857-2" data-name="Grupo 857" clip-path="url(#clip-path-3)">
                <path id="Trazado_202-2" data-name="Trazado 202" d="M1005.367,232.825c-9.382,0-16.381-4.7-23.153-9.238-6.207-4.162-12.068-8.1-19.818-8.6-6.229-.4-14.2,2.758-17.042,6.779l-7.974-6.518c5.573-7.872,17.364-11.533,25.626-11.009,10.289.671,17.846,5.744,24.515,10.216,6.081,4.078,11.336,7.606,17.846,7.606,5.861,0,10.167-2.17,14.037-4.784a39.253,39.253,0,0,0,5.622-4.617l6.932,7.777s-2.561,2.515-3.479,3.282c-5.262,4.382-12.383,9.105-23.112,9.105" transform="translate(-903.237 -177.634)" fill="#00e5ff"/>
              </g>
            </g>
          </g>
        </g>
        <g id="Grupo_863-2" data-name="Grupo 863" transform="translate(-780.755 -257.081)">
          <g id="Grupo_859-2" data-name="Grupo 859" transform="translate(1014.755 257.081)" opacity="0.08">
            <g id="Grupo_858-3" data-name="Grupo 858" transform="translate(0 0)">
              <g id="Grupo_857-3" data-name="Grupo 857" clip-path="url(#clip-path-3)">
                <path id="Trazado_202-3" data-name="Trazado 202" d="M1005.367,232.825c-9.382,0-16.381-4.7-23.153-9.238-6.207-4.162-12.068-8.1-19.818-8.6-6.229-.4-14.2,2.758-17.042,6.779l-7.974-6.518c5.573-7.872,17.364-11.533,25.626-11.009,10.289.671,17.846,5.744,24.515,10.216,6.081,4.078,11.336,7.606,17.846,7.606,5.861,0,10.167-2.17,14.037-4.784a39.253,39.253,0,0,0,5.622-4.617l6.932,7.777s-2.561,2.515-3.479,3.282c-5.262,4.382-12.383,9.105-23.112,9.105" transform="translate(-903.237 -177.634)" fill="#00e5ff"/>
              </g>
            </g>
          </g>
          <g id="Grupo_864-2" data-name="Grupo 864" transform="translate(1123.702 355.725)" opacity="0.08">
            <g id="Grupo_858-4" data-name="Grupo 858" transform="translate(0 -23)">
              <g id="Grupo_857-4" data-name="Grupo 857" clip-path="url(#clip-path-3)">
                <path id="Trazado_202-4" data-name="Trazado 202" d="M1005.367,232.825c-9.382,0-16.381-4.7-23.153-9.238-6.207-4.162-12.068-8.1-19.818-8.6-6.229-.4-14.2,2.758-17.042,6.779l-7.974-6.518c5.573-7.872,17.364-11.533,25.626-11.009,10.289.671,17.846,5.744,24.515,10.216,6.081,4.078,11.336,7.606,17.846,7.606,5.861,0,10.167-2.17,14.037-4.784a39.253,39.253,0,0,0,5.622-4.617l6.932,7.777s-2.561,2.515-3.479,3.282c-5.262,4.382-12.383,9.105-23.112,9.105" transform="translate(-903.237 -177.634)" fill="#00e5ff"/>
              </g>
            </g>
          </g>
        </g>
        <g id="Grupo_863-3" data-name="Grupo 863" transform="translate(-546.755 -257.081)">
          <g id="Grupo_859-3" data-name="Grupo 859" transform="translate(1014.755 257.081)" opacity="0.08">
            <g id="Grupo_858-5" data-name="Grupo 858" transform="translate(0 0)">
              <g id="Grupo_857-5" data-name="Grupo 857" clip-path="url(#clip-path-3)">
                <path id="Trazado_202-5" data-name="Trazado 202" d="M1005.367,232.825c-9.382,0-16.381-4.7-23.153-9.238-6.207-4.162-12.068-8.1-19.818-8.6-6.229-.4-14.2,2.758-17.042,6.779l-7.974-6.518c5.573-7.872,17.364-11.533,25.626-11.009,10.289.671,17.846,5.744,24.515,10.216,6.081,4.078,11.336,7.606,17.846,7.606,5.861,0,10.167-2.17,14.037-4.784a39.253,39.253,0,0,0,5.622-4.617l6.932,7.777s-2.561,2.515-3.479,3.282c-5.262,4.382-12.383,9.105-23.112,9.105" transform="translate(-903.237 -177.634)" fill="#00e5ff"/>
              </g>
            </g>
          </g>
          <g id="Grupo_864-3" data-name="Grupo 864" transform="translate(1123.702 355.725)" opacity="0.08">
            <g id="Grupo_858-6" data-name="Grupo 858" transform="translate(0 -23)">
              <g id="Grupo_857-6" data-name="Grupo 857" clip-path="url(#clip-path-3)">
                <path id="Trazado_202-6" data-name="Trazado 202" d="M1005.367,232.825c-9.382,0-16.381-4.7-23.153-9.238-6.207-4.162-12.068-8.1-19.818-8.6-6.229-.4-14.2,2.758-17.042,6.779l-7.974-6.518c5.573-7.872,17.364-11.533,25.626-11.009,10.289.671,17.846,5.744,24.515,10.216,6.081,4.078,11.336,7.606,17.846,7.606,5.861,0,10.167-2.17,14.037-4.784a39.253,39.253,0,0,0,5.622-4.617l6.932,7.777s-2.561,2.515-3.479,3.282c-5.262,4.382-12.383,9.105-23.112,9.105" transform="translate(-903.237 -177.634)" fill="#00e5ff"/>
              </g>
            </g>
          </g>
        </g>
        <g id="Grupo_863-4" data-name="Grupo 863" transform="translate(-312.755 -257.081)">
          <g id="Grupo_859-4" data-name="Grupo 859" transform="translate(1014.755 257.081)" opacity="0.08">
            <g id="Grupo_858-7" data-name="Grupo 858" transform="translate(0 0)">
              <g id="Grupo_857-7" data-name="Grupo 857" clip-path="url(#clip-path-3)">
                <path id="Trazado_202-7" data-name="Trazado 202" d="M1005.367,232.825c-9.382,0-16.381-4.7-23.153-9.238-6.207-4.162-12.068-8.1-19.818-8.6-6.229-.4-14.2,2.758-17.042,6.779l-7.974-6.518c5.573-7.872,17.364-11.533,25.626-11.009,10.289.671,17.846,5.744,24.515,10.216,6.081,4.078,11.336,7.606,17.846,7.606,5.861,0,10.167-2.17,14.037-4.784a39.253,39.253,0,0,0,5.622-4.617l6.932,7.777s-2.561,2.515-3.479,3.282c-5.262,4.382-12.383,9.105-23.112,9.105" transform="translate(-903.237 -177.634)" fill="#00e5ff"/>
              </g>
            </g>
          </g>
          <g id="Grupo_864-4" data-name="Grupo 864" transform="translate(1123.702 355.725)" opacity="0.08">
            <g id="Grupo_858-8" data-name="Grupo 858" transform="translate(0 -23)">
              <g id="Grupo_857-8" data-name="Grupo 857" clip-path="url(#clip-path-3)">
                <path id="Trazado_202-8" data-name="Trazado 202" d="M1005.367,232.825c-9.382,0-16.381-4.7-23.153-9.238-6.207-4.162-12.068-8.1-19.818-8.6-6.229-.4-14.2,2.758-17.042,6.779l-7.974-6.518c5.573-7.872,17.364-11.533,25.626-11.009,10.289.671,17.846,5.744,24.515,10.216,6.081,4.078,11.336,7.606,17.846,7.606,5.861,0,10.167-2.17,14.037-4.784a39.253,39.253,0,0,0,5.622-4.617l6.932,7.777s-2.561,2.515-3.479,3.282c-5.262,4.382-12.383,9.105-23.112,9.105" transform="translate(-903.237 -177.634)" fill="#00e5ff"/>
              </g>
            </g>
          </g>
        </g>
        <g id="Grupo_863-5" data-name="Grupo 863" transform="translate(-1014.755 -107.081)">
          <g id="Grupo_859-5" data-name="Grupo 859" transform="translate(1014.755 257.081)" opacity="0.08">
            <g id="Grupo_858-9" data-name="Grupo 858" transform="translate(0 0)">
              <g id="Grupo_857-9" data-name="Grupo 857" clip-path="url(#clip-path-3)">
                <path id="Trazado_202-9" data-name="Trazado 202" d="M1005.367,232.825c-9.382,0-16.381-4.7-23.153-9.238-6.207-4.162-12.068-8.1-19.818-8.6-6.229-.4-14.2,2.758-17.042,6.779l-7.974-6.518c5.573-7.872,17.364-11.533,25.626-11.009,10.289.671,17.846,5.744,24.515,10.216,6.081,4.078,11.336,7.606,17.846,7.606,5.861,0,10.167-2.17,14.037-4.784a39.253,39.253,0,0,0,5.622-4.617l6.932,7.777s-2.561,2.515-3.479,3.282c-5.262,4.382-12.383,9.105-23.112,9.105" transform="translate(-903.237 -177.634)" fill="#00e5ff"/>
              </g>
            </g>
          </g>
          <g id="Grupo_864-5" data-name="Grupo 864" transform="translate(1123.702 355.725)" opacity="0.08">
            <g id="Grupo_858-10" data-name="Grupo 858" transform="translate(0 -23)">
              <g id="Grupo_857-10" data-name="Grupo 857" clip-path="url(#clip-path-3)">
                <path id="Trazado_202-10" data-name="Trazado 202" d="M1005.367,232.825c-9.382,0-16.381-4.7-23.153-9.238-6.207-4.162-12.068-8.1-19.818-8.6-6.229-.4-14.2,2.758-17.042,6.779l-7.974-6.518c5.573-7.872,17.364-11.533,25.626-11.009,10.289.671,17.846,5.744,24.515,10.216,6.081,4.078,11.336,7.606,17.846,7.606,5.861,0,10.167-2.17,14.037-4.784a39.253,39.253,0,0,0,5.622-4.617l6.932,7.777s-2.561,2.515-3.479,3.282c-5.262,4.382-12.383,9.105-23.112,9.105" transform="translate(-903.237 -177.634)" fill="#00e5ff"/>
              </g>
            </g>
          </g>
        </g>
        <g id="Grupo_863-6" data-name="Grupo 863" transform="translate(-780.755 -107.081)">
          <g id="Grupo_859-6" data-name="Grupo 859" transform="translate(1014.755 257.081)" opacity="0.08">
            <g id="Grupo_858-11" data-name="Grupo 858" transform="translate(0 0)">
              <g id="Grupo_857-11" data-name="Grupo 857" clip-path="url(#clip-path-3)">
                <path id="Trazado_202-11" data-name="Trazado 202" d="M1005.367,232.825c-9.382,0-16.381-4.7-23.153-9.238-6.207-4.162-12.068-8.1-19.818-8.6-6.229-.4-14.2,2.758-17.042,6.779l-7.974-6.518c5.573-7.872,17.364-11.533,25.626-11.009,10.289.671,17.846,5.744,24.515,10.216,6.081,4.078,11.336,7.606,17.846,7.606,5.861,0,10.167-2.17,14.037-4.784a39.253,39.253,0,0,0,5.622-4.617l6.932,7.777s-2.561,2.515-3.479,3.282c-5.262,4.382-12.383,9.105-23.112,9.105" transform="translate(-903.237 -177.634)" fill="#00e5ff"/>
              </g>
            </g>
          </g>
          <g id="Grupo_864-6" data-name="Grupo 864" transform="translate(1123.702 355.725)" opacity="0.08">
            <g id="Grupo_858-12" data-name="Grupo 858" transform="translate(0 -23)">
              <g id="Grupo_857-12" data-name="Grupo 857" clip-path="url(#clip-path-3)">
                <path id="Trazado_202-12" data-name="Trazado 202" d="M1005.367,232.825c-9.382,0-16.381-4.7-23.153-9.238-6.207-4.162-12.068-8.1-19.818-8.6-6.229-.4-14.2,2.758-17.042,6.779l-7.974-6.518c5.573-7.872,17.364-11.533,25.626-11.009,10.289.671,17.846,5.744,24.515,10.216,6.081,4.078,11.336,7.606,17.846,7.606,5.861,0,10.167-2.17,14.037-4.784a39.253,39.253,0,0,0,5.622-4.617l6.932,7.777s-2.561,2.515-3.479,3.282c-5.262,4.382-12.383,9.105-23.112,9.105" transform="translate(-903.237 -177.634)" fill="#00e5ff"/>
              </g>
            </g>
          </g>
        </g>
        <g id="Grupo_863-7" data-name="Grupo 863" transform="translate(-546.755 -107.081)">
          <g id="Grupo_859-7" data-name="Grupo 859" transform="translate(1014.755 257.081)" opacity="0.08">
            <g id="Grupo_858-13" data-name="Grupo 858" transform="translate(0 0)">
              <g id="Grupo_857-13" data-name="Grupo 857" clip-path="url(#clip-path-3)">
                <path id="Trazado_202-13" data-name="Trazado 202" d="M1005.367,232.825c-9.382,0-16.381-4.7-23.153-9.238-6.207-4.162-12.068-8.1-19.818-8.6-6.229-.4-14.2,2.758-17.042,6.779l-7.974-6.518c5.573-7.872,17.364-11.533,25.626-11.009,10.289.671,17.846,5.744,24.515,10.216,6.081,4.078,11.336,7.606,17.846,7.606,5.861,0,10.167-2.17,14.037-4.784a39.253,39.253,0,0,0,5.622-4.617l6.932,7.777s-2.561,2.515-3.479,3.282c-5.262,4.382-12.383,9.105-23.112,9.105" transform="translate(-903.237 -177.634)" fill="#00e5ff"/>
              </g>
            </g>
          </g>
          <g id="Grupo_864-7" data-name="Grupo 864" transform="translate(1123.702 355.725)" opacity="0.08">
            <g id="Grupo_858-14" data-name="Grupo 858" transform="translate(0 -23)">
              <g id="Grupo_857-14" data-name="Grupo 857" clip-path="url(#clip-path-3)">
                <path id="Trazado_202-14" data-name="Trazado 202" d="M1005.367,232.825c-9.382,0-16.381-4.7-23.153-9.238-6.207-4.162-12.068-8.1-19.818-8.6-6.229-.4-14.2,2.758-17.042,6.779l-7.974-6.518c5.573-7.872,17.364-11.533,25.626-11.009,10.289.671,17.846,5.744,24.515,10.216,6.081,4.078,11.336,7.606,17.846,7.606,5.861,0,10.167-2.17,14.037-4.784a39.253,39.253,0,0,0,5.622-4.617l6.932,7.777s-2.561,2.515-3.479,3.282c-5.262,4.382-12.383,9.105-23.112,9.105" transform="translate(-903.237 -177.634)" fill="#00e5ff"/>
              </g>
            </g>
          </g>
        </g>
        <g id="Grupo_863-8" data-name="Grupo 863" transform="translate(-312.755 -107.081)">
          <g id="Grupo_859-8" data-name="Grupo 859" transform="translate(1014.755 257.081)" opacity="0.08">
            <g id="Grupo_858-15" data-name="Grupo 858" transform="translate(0 0)">
              <g id="Grupo_857-15" data-name="Grupo 857" clip-path="url(#clip-path-3)">
                <path id="Trazado_202-15" data-name="Trazado 202" d="M1005.367,232.825c-9.382,0-16.381-4.7-23.153-9.238-6.207-4.162-12.068-8.1-19.818-8.6-6.229-.4-14.2,2.758-17.042,6.779l-7.974-6.518c5.573-7.872,17.364-11.533,25.626-11.009,10.289.671,17.846,5.744,24.515,10.216,6.081,4.078,11.336,7.606,17.846,7.606,5.861,0,10.167-2.17,14.037-4.784a39.253,39.253,0,0,0,5.622-4.617l6.932,7.777s-2.561,2.515-3.479,3.282c-5.262,4.382-12.383,9.105-23.112,9.105" transform="translate(-903.237 -177.634)" fill="#00e5ff"/>
              </g>
            </g>
          </g>
          <g id="Grupo_864-8" data-name="Grupo 864" transform="translate(1123.702 355.725)" opacity="0.08">
            <g id="Grupo_858-16" data-name="Grupo 858" transform="translate(0 -23)">
              <g id="Grupo_857-16" data-name="Grupo 857" clip-path="url(#clip-path-3)">
                <path id="Trazado_202-16" data-name="Trazado 202" d="M1005.367,232.825c-9.382,0-16.381-4.7-23.153-9.238-6.207-4.162-12.068-8.1-19.818-8.6-6.229-.4-14.2,2.758-17.042,6.779l-7.974-6.518c5.573-7.872,17.364-11.533,25.626-11.009,10.289.671,17.846,5.744,24.515,10.216,6.081,4.078,11.336,7.606,17.846,7.606,5.861,0,10.167-2.17,14.037-4.784a39.253,39.253,0,0,0,5.622-4.617l6.932,7.777s-2.561,2.515-3.479,3.282c-5.262,4.382-12.383,9.105-23.112,9.105" transform="translate(-903.237 -177.634)" fill="#00e5ff"/>
              </g>
            </g>
          </g>
        </g>
        <g id="Grupo_863-9" data-name="Grupo 863" transform="translate(-1014.755 42.919)">
          <g id="Grupo_859-9" data-name="Grupo 859" transform="translate(1014.755 257.081)" opacity="0.08">
            <g id="Grupo_858-17" data-name="Grupo 858" transform="translate(0 0)">
              <g id="Grupo_857-17" data-name="Grupo 857" clip-path="url(#clip-path-3)">
                <path id="Trazado_202-17" data-name="Trazado 202" d="M1005.367,232.825c-9.382,0-16.381-4.7-23.153-9.238-6.207-4.162-12.068-8.1-19.818-8.6-6.229-.4-14.2,2.758-17.042,6.779l-7.974-6.518c5.573-7.872,17.364-11.533,25.626-11.009,10.289.671,17.846,5.744,24.515,10.216,6.081,4.078,11.336,7.606,17.846,7.606,5.861,0,10.167-2.17,14.037-4.784a39.253,39.253,0,0,0,5.622-4.617l6.932,7.777s-2.561,2.515-3.479,3.282c-5.262,4.382-12.383,9.105-23.112,9.105" transform="translate(-903.237 -177.634)" fill="#00e5ff"/>
              </g>
            </g>
          </g>
          <g id="Grupo_864-9" data-name="Grupo 864" transform="translate(1123.702 355.725)" opacity="0.08">
            <g id="Grupo_858-18" data-name="Grupo 858" transform="translate(0 -23)">
              <g id="Grupo_857-18" data-name="Grupo 857" clip-path="url(#clip-path-3)">
                <path id="Trazado_202-18" data-name="Trazado 202" d="M1005.367,232.825c-9.382,0-16.381-4.7-23.153-9.238-6.207-4.162-12.068-8.1-19.818-8.6-6.229-.4-14.2,2.758-17.042,6.779l-7.974-6.518c5.573-7.872,17.364-11.533,25.626-11.009,10.289.671,17.846,5.744,24.515,10.216,6.081,4.078,11.336,7.606,17.846,7.606,5.861,0,10.167-2.17,14.037-4.784a39.253,39.253,0,0,0,5.622-4.617l6.932,7.777s-2.561,2.515-3.479,3.282c-5.262,4.382-12.383,9.105-23.112,9.105" transform="translate(-903.237 -177.634)" fill="#00e5ff"/>
              </g>
            </g>
          </g>
        </g>
        <g id="Grupo_863-10" data-name="Grupo 863" transform="translate(-780.755 42.919)">
          <g id="Grupo_859-10" data-name="Grupo 859" transform="translate(1014.755 257.081)" opacity="0.08">
            <g id="Grupo_858-19" data-name="Grupo 858" transform="translate(0 0)">
              <g id="Grupo_857-19" data-name="Grupo 857" clip-path="url(#clip-path-3)">
                <path id="Trazado_202-19" data-name="Trazado 202" d="M1005.367,232.825c-9.382,0-16.381-4.7-23.153-9.238-6.207-4.162-12.068-8.1-19.818-8.6-6.229-.4-14.2,2.758-17.042,6.779l-7.974-6.518c5.573-7.872,17.364-11.533,25.626-11.009,10.289.671,17.846,5.744,24.515,10.216,6.081,4.078,11.336,7.606,17.846,7.606,5.861,0,10.167-2.17,14.037-4.784a39.253,39.253,0,0,0,5.622-4.617l6.932,7.777s-2.561,2.515-3.479,3.282c-5.262,4.382-12.383,9.105-23.112,9.105" transform="translate(-903.237 -177.634)" fill="#00e5ff"/>
              </g>
            </g>
          </g>
          <g id="Grupo_864-10" data-name="Grupo 864" transform="translate(1123.702 355.725)" opacity="0.08">
            <g id="Grupo_858-20" data-name="Grupo 858" transform="translate(0 -23)">
              <g id="Grupo_857-20" data-name="Grupo 857" clip-path="url(#clip-path-3)">
                <path id="Trazado_202-20" data-name="Trazado 202" d="M1005.367,232.825c-9.382,0-16.381-4.7-23.153-9.238-6.207-4.162-12.068-8.1-19.818-8.6-6.229-.4-14.2,2.758-17.042,6.779l-7.974-6.518c5.573-7.872,17.364-11.533,25.626-11.009,10.289.671,17.846,5.744,24.515,10.216,6.081,4.078,11.336,7.606,17.846,7.606,5.861,0,10.167-2.17,14.037-4.784a39.253,39.253,0,0,0,5.622-4.617l6.932,7.777s-2.561,2.515-3.479,3.282c-5.262,4.382-12.383,9.105-23.112,9.105" transform="translate(-903.237 -177.634)" fill="#00e5ff"/>
              </g>
            </g>
          </g>
        </g>
        <g id="Grupo_863-11" data-name="Grupo 863" transform="translate(-546.755 42.919)">
          <g id="Grupo_859-11" data-name="Grupo 859" transform="translate(1014.755 257.081)" opacity="0.08">
            <g id="Grupo_858-21" data-name="Grupo 858" transform="translate(0 0)">
              <g id="Grupo_857-21" data-name="Grupo 857" clip-path="url(#clip-path-3)">
                <path id="Trazado_202-21" data-name="Trazado 202" d="M1005.367,232.825c-9.382,0-16.381-4.7-23.153-9.238-6.207-4.162-12.068-8.1-19.818-8.6-6.229-.4-14.2,2.758-17.042,6.779l-7.974-6.518c5.573-7.872,17.364-11.533,25.626-11.009,10.289.671,17.846,5.744,24.515,10.216,6.081,4.078,11.336,7.606,17.846,7.606,5.861,0,10.167-2.17,14.037-4.784a39.253,39.253,0,0,0,5.622-4.617l6.932,7.777s-2.561,2.515-3.479,3.282c-5.262,4.382-12.383,9.105-23.112,9.105" transform="translate(-903.237 -177.634)" fill="#00e5ff"/>
              </g>
            </g>
          </g>
          <g id="Grupo_864-11" data-name="Grupo 864" transform="translate(1123.702 355.725)" opacity="0.08">
            <g id="Grupo_858-22" data-name="Grupo 858" transform="translate(0 -23)">
              <g id="Grupo_857-22" data-name="Grupo 857" clip-path="url(#clip-path-3)">
                <path id="Trazado_202-22" data-name="Trazado 202" d="M1005.367,232.825c-9.382,0-16.381-4.7-23.153-9.238-6.207-4.162-12.068-8.1-19.818-8.6-6.229-.4-14.2,2.758-17.042,6.779l-7.974-6.518c5.573-7.872,17.364-11.533,25.626-11.009,10.289.671,17.846,5.744,24.515,10.216,6.081,4.078,11.336,7.606,17.846,7.606,5.861,0,10.167-2.17,14.037-4.784a39.253,39.253,0,0,0,5.622-4.617l6.932,7.777s-2.561,2.515-3.479,3.282c-5.262,4.382-12.383,9.105-23.112,9.105" transform="translate(-903.237 -177.634)" fill="#00e5ff"/>
              </g>
            </g>
          </g>
        </g>
        <g id="Grupo_863-12" data-name="Grupo 863" transform="translate(-312.755 42.919)">
          <g id="Grupo_859-12" data-name="Grupo 859" transform="translate(1014.755 257.081)" opacity="0.08">
            <g id="Grupo_858-23" data-name="Grupo 858" transform="translate(0 0)">
              <g id="Grupo_857-23" data-name="Grupo 857" clip-path="url(#clip-path-3)">
                <path id="Trazado_202-23" data-name="Trazado 202" d="M1005.367,232.825c-9.382,0-16.381-4.7-23.153-9.238-6.207-4.162-12.068-8.1-19.818-8.6-6.229-.4-14.2,2.758-17.042,6.779l-7.974-6.518c5.573-7.872,17.364-11.533,25.626-11.009,10.289.671,17.846,5.744,24.515,10.216,6.081,4.078,11.336,7.606,17.846,7.606,5.861,0,10.167-2.17,14.037-4.784a39.253,39.253,0,0,0,5.622-4.617l6.932,7.777s-2.561,2.515-3.479,3.282c-5.262,4.382-12.383,9.105-23.112,9.105" transform="translate(-903.237 -177.634)" fill="#00e5ff"/>
              </g>
            </g>
          </g>
          <g id="Grupo_864-12" data-name="Grupo 864" transform="translate(1123.702 355.725)" opacity="0.08">
            <g id="Grupo_858-24" data-name="Grupo 858" transform="translate(0 -23)">
              <g id="Grupo_857-24" data-name="Grupo 857" clip-path="url(#clip-path-3)">
                <path id="Trazado_202-24" data-name="Trazado 202" d="M1005.367,232.825c-9.382,0-16.381-4.7-23.153-9.238-6.207-4.162-12.068-8.1-19.818-8.6-6.229-.4-14.2,2.758-17.042,6.779l-7.974-6.518c5.573-7.872,17.364-11.533,25.626-11.009,10.289.671,17.846,5.744,24.515,10.216,6.081,4.078,11.336,7.606,17.846,7.606,5.861,0,10.167-2.17,14.037-4.784a39.253,39.253,0,0,0,5.622-4.617l6.932,7.777s-2.561,2.515-3.479,3.282c-5.262,4.382-12.383,9.105-23.112,9.105" transform="translate(-903.237 -177.634)" fill="#00e5ff"/>
              </g>
            </g>
          </g>
        </g>
        <g id="Grupo_863-13" data-name="Grupo 863" transform="translate(-1014.755 192.919)">
          <g id="Grupo_859-13" data-name="Grupo 859" transform="translate(1014.755 257.081)" opacity="0.08">
            <g id="Grupo_858-25" data-name="Grupo 858" transform="translate(0 0)">
              <g id="Grupo_857-25" data-name="Grupo 857" clip-path="url(#clip-path-3)">
                <path id="Trazado_202-25" data-name="Trazado 202" d="M1005.367,232.825c-9.382,0-16.381-4.7-23.153-9.238-6.207-4.162-12.068-8.1-19.818-8.6-6.229-.4-14.2,2.758-17.042,6.779l-7.974-6.518c5.573-7.872,17.364-11.533,25.626-11.009,10.289.671,17.846,5.744,24.515,10.216,6.081,4.078,11.336,7.606,17.846,7.606,5.861,0,10.167-2.17,14.037-4.784a39.253,39.253,0,0,0,5.622-4.617l6.932,7.777s-2.561,2.515-3.479,3.282c-5.262,4.382-12.383,9.105-23.112,9.105" transform="translate(-903.237 -177.634)" fill="#00e5ff"/>
              </g>
            </g>
          </g>
          <g id="Grupo_864-13" data-name="Grupo 864" transform="translate(1123.702 355.725)" opacity="0.08">
            <g id="Grupo_858-26" data-name="Grupo 858" transform="translate(0 -23)">
              <g id="Grupo_857-26" data-name="Grupo 857" clip-path="url(#clip-path-3)">
                <path id="Trazado_202-26" data-name="Trazado 202" d="M1005.367,232.825c-9.382,0-16.381-4.7-23.153-9.238-6.207-4.162-12.068-8.1-19.818-8.6-6.229-.4-14.2,2.758-17.042,6.779l-7.974-6.518c5.573-7.872,17.364-11.533,25.626-11.009,10.289.671,17.846,5.744,24.515,10.216,6.081,4.078,11.336,7.606,17.846,7.606,5.861,0,10.167-2.17,14.037-4.784a39.253,39.253,0,0,0,5.622-4.617l6.932,7.777s-2.561,2.515-3.479,3.282c-5.262,4.382-12.383,9.105-23.112,9.105" transform="translate(-903.237 -177.634)" fill="#00e5ff"/>
              </g>
            </g>
          </g>
        </g>
        <g id="Grupo_863-14" data-name="Grupo 863" transform="translate(-780.755 192.919)">
          <g id="Grupo_859-14" data-name="Grupo 859" transform="translate(1014.755 257.081)" opacity="0.08">
            <g id="Grupo_858-27" data-name="Grupo 858" transform="translate(0 0)">
              <g id="Grupo_857-27" data-name="Grupo 857" clip-path="url(#clip-path-3)">
                <path id="Trazado_202-27" data-name="Trazado 202" d="M1005.367,232.825c-9.382,0-16.381-4.7-23.153-9.238-6.207-4.162-12.068-8.1-19.818-8.6-6.229-.4-14.2,2.758-17.042,6.779l-7.974-6.518c5.573-7.872,17.364-11.533,25.626-11.009,10.289.671,17.846,5.744,24.515,10.216,6.081,4.078,11.336,7.606,17.846,7.606,5.861,0,10.167-2.17,14.037-4.784a39.253,39.253,0,0,0,5.622-4.617l6.932,7.777s-2.561,2.515-3.479,3.282c-5.262,4.382-12.383,9.105-23.112,9.105" transform="translate(-903.237 -177.634)" fill="#00e5ff"/>
              </g>
            </g>
          </g>
          <g id="Grupo_864-14" data-name="Grupo 864" transform="translate(1123.702 355.725)" opacity="0.08">
            <g id="Grupo_858-28" data-name="Grupo 858" transform="translate(0 -23)">
              <g id="Grupo_857-28" data-name="Grupo 857" clip-path="url(#clip-path-3)">
                <path id="Trazado_202-28" data-name="Trazado 202" d="M1005.367,232.825c-9.382,0-16.381-4.7-23.153-9.238-6.207-4.162-12.068-8.1-19.818-8.6-6.229-.4-14.2,2.758-17.042,6.779l-7.974-6.518c5.573-7.872,17.364-11.533,25.626-11.009,10.289.671,17.846,5.744,24.515,10.216,6.081,4.078,11.336,7.606,17.846,7.606,5.861,0,10.167-2.17,14.037-4.784a39.253,39.253,0,0,0,5.622-4.617l6.932,7.777s-2.561,2.515-3.479,3.282c-5.262,4.382-12.383,9.105-23.112,9.105" transform="translate(-903.237 -177.634)" fill="#00e5ff"/>
              </g>
            </g>
          </g>
        </g>
        <g id="Grupo_863-15" data-name="Grupo 863" transform="translate(-546.755 192.919)">
          <g id="Grupo_859-15" data-name="Grupo 859" transform="translate(1014.755 257.081)" opacity="0.08">
            <g id="Grupo_858-29" data-name="Grupo 858" transform="translate(0 0)">
              <g id="Grupo_857-29" data-name="Grupo 857" clip-path="url(#clip-path-3)">
                <path id="Trazado_202-29" data-name="Trazado 202" d="M1005.367,232.825c-9.382,0-16.381-4.7-23.153-9.238-6.207-4.162-12.068-8.1-19.818-8.6-6.229-.4-14.2,2.758-17.042,6.779l-7.974-6.518c5.573-7.872,17.364-11.533,25.626-11.009,10.289.671,17.846,5.744,24.515,10.216,6.081,4.078,11.336,7.606,17.846,7.606,5.861,0,10.167-2.17,14.037-4.784a39.253,39.253,0,0,0,5.622-4.617l6.932,7.777s-2.561,2.515-3.479,3.282c-5.262,4.382-12.383,9.105-23.112,9.105" transform="translate(-903.237 -177.634)" fill="#00e5ff"/>
              </g>
            </g>
          </g>
          <g id="Grupo_864-15" data-name="Grupo 864" transform="translate(1123.702 355.725)" opacity="0.08">
            <g id="Grupo_858-30" data-name="Grupo 858" transform="translate(0 -23)">
              <g id="Grupo_857-30" data-name="Grupo 857" clip-path="url(#clip-path-3)">
                <path id="Trazado_202-30" data-name="Trazado 202" d="M1005.367,232.825c-9.382,0-16.381-4.7-23.153-9.238-6.207-4.162-12.068-8.1-19.818-8.6-6.229-.4-14.2,2.758-17.042,6.779l-7.974-6.518c5.573-7.872,17.364-11.533,25.626-11.009,10.289.671,17.846,5.744,24.515,10.216,6.081,4.078,11.336,7.606,17.846,7.606,5.861,0,10.167-2.17,14.037-4.784a39.253,39.253,0,0,0,5.622-4.617l6.932,7.777s-2.561,2.515-3.479,3.282c-5.262,4.382-12.383,9.105-23.112,9.105" transform="translate(-903.237 -177.634)" fill="#00e5ff"/>
              </g>
            </g>
          </g>
        </g>
        <g id="Grupo_863-16" data-name="Grupo 863" transform="translate(-312.755 192.919)">
          <g id="Grupo_859-16" data-name="Grupo 859" transform="translate(1014.755 257.081)" opacity="0.08">
            <g id="Grupo_858-31" data-name="Grupo 858" transform="translate(0 0)">
              <g id="Grupo_857-31" data-name="Grupo 857" clip-path="url(#clip-path-3)">
                <path id="Trazado_202-31" data-name="Trazado 202" d="M1005.367,232.825c-9.382,0-16.381-4.7-23.153-9.238-6.207-4.162-12.068-8.1-19.818-8.6-6.229-.4-14.2,2.758-17.042,6.779l-7.974-6.518c5.573-7.872,17.364-11.533,25.626-11.009,10.289.671,17.846,5.744,24.515,10.216,6.081,4.078,11.336,7.606,17.846,7.606,5.861,0,10.167-2.17,14.037-4.784a39.253,39.253,0,0,0,5.622-4.617l6.932,7.777s-2.561,2.515-3.479,3.282c-5.262,4.382-12.383,9.105-23.112,9.105" transform="translate(-903.237 -177.634)" fill="#00e5ff"/>
              </g>
            </g>
          </g>
          <g id="Grupo_864-16" data-name="Grupo 864" transform="translate(1123.702 355.725)" opacity="0.08">
            <g id="Grupo_858-32" data-name="Grupo 858" transform="translate(0 -23)">
              <g id="Grupo_857-32" data-name="Grupo 857" clip-path="url(#clip-path-3)">
                <path id="Trazado_202-32" data-name="Trazado 202" d="M1005.367,232.825c-9.382,0-16.381-4.7-23.153-9.238-6.207-4.162-12.068-8.1-19.818-8.6-6.229-.4-14.2,2.758-17.042,6.779l-7.974-6.518c5.573-7.872,17.364-11.533,25.626-11.009,10.289.671,17.846,5.744,24.515,10.216,6.081,4.078,11.336,7.606,17.846,7.606,5.861,0,10.167-2.17,14.037-4.784a39.253,39.253,0,0,0,5.622-4.617l6.932,7.777s-2.561,2.515-3.479,3.282c-5.262,4.382-12.383,9.105-23.112,9.105" transform="translate(-903.237 -177.634)" fill="#00e5ff"/>
              </g>
            </g>
          </g>
        </g>
      </g>
      <g id="Grupo_1639" data-name="Grupo 1639" transform="translate(307.08 270.772)">
        <path id="Trazado_182" data-name="Trazado 182" d="M171.733,144.894h-2.78v19.832l-15.922-19.832h-2.677v24.744h2.78V149.349l16.33,20.288h2.269Z" transform="translate(271.787 134.217)" fill="#2694fb"/>
        <path id="Trazado_183" data-name="Trazado 183" d="M157.012,148.943h2.241l4.081-3.822-2.9-1.3Z" transform="translate(310.488 127.976)" fill="#2694fb"/>
        <path id="Trazado_184" data-name="Trazado 184" d="M169.482,144.868H166.8l-11.521,24.914h2.93l2.991-6.54h13.762l2.964,6.54H181Zm-7.153,15.867,5.777-12.617,5.743,12.617Z" transform="translate(300.442 134.068)" fill="#2694fb"/>
        <path id="Trazado_185" data-name="Trazado 185" d="M181.842,144.894h-2.855v14.389c0,2.7-.681,4.749-2.058,6.118a7.533,7.533,0,0,1-5.559,2.044,7.435,7.435,0,0,1-5.689-2.16,8.671,8.671,0,0,1-2.037-6.186v-14.2h-2.855v14.389a13.163,13.163,0,0,0,.756,4.633,9.166,9.166,0,0,0,2.153,3.365,8.982,8.982,0,0,0,3.318,2.057,13.774,13.774,0,0,0,8.6,0,9.079,9.079,0,0,0,3.325-2.064,9.413,9.413,0,0,0,2.146-3.434,13.768,13.768,0,0,0,.756-4.769Z" transform="translate(332.453 134.219)" fill="#2694fb"/>
        <path id="Trazado_186" data-name="Trazado 186" d="M185.493,144.894H165.668v2.582h8.482v22.162h2.861V147.476h8.482Z" transform="translate(360.799 134.217)" fill="#2694fb"/>
        <rect id="Rectángulo_60" data-name="Rectángulo 60" width="2.855" height="24.744" transform="translate(559.144 279.113)" fill="#2694fb"/>
        <path id="Trazado_187" data-name="Trazado 187" d="M185.647,144.831a12.954,12.954,0,0,0-5.13,1.008,12.454,12.454,0,0,0-6.7,6.84,12.892,12.892,0,0,0-.954,4.946v.075a12.964,12.964,0,0,0,.954,4.98,12.218,12.218,0,0,0,2.657,4.047,12.5,12.5,0,0,0,4.006,2.711,12.788,12.788,0,0,0,5.055.981,13.91,13.91,0,0,0,3.141-.32,12.881,12.881,0,0,0,2.637-.879,13.152,13.152,0,0,0,2.3-1.363,17.76,17.76,0,0,0,2.037-1.785l-1.874-1.8a15.79,15.79,0,0,1-3.686,2.63,9.907,9.907,0,0,1-4.476.933,9.425,9.425,0,0,1-3.883-.79,9.715,9.715,0,0,1-3.107-2.173,9.907,9.907,0,0,1-2.057-3.236,10.643,10.643,0,0,1-.743-4.013v-.068a10.568,10.568,0,0,1,.743-3.979,9.947,9.947,0,0,1,2.057-3.229,9.469,9.469,0,0,1,3.107-2.16,9.642,9.642,0,0,1,3.883-.777,9.517,9.517,0,0,1,4.456.96,15.927,15.927,0,0,1,3.488,2.432l1.948-2.051a19.512,19.512,0,0,0-1.948-1.608,11.983,11.983,0,0,0-2.207-1.24,13.867,13.867,0,0,0-2.575-.79,15.669,15.669,0,0,0-3.127-.286" transform="translate(402.642 133.853)" fill="#2694fb"/>
        <path id="Trazado_188" data-name="Trazado 188" d="M191.875,144.868H189.2l-11.513,24.914h2.923l2.991-6.54h13.762l2.964,6.54h3.066Zm-7.153,15.867,5.777-12.617,5.743,12.617Z" transform="translate(430.648 134.068)" fill="#2694fb"/>
        <path id="Trazado_189" data-name="Trazado 189" d="M156.467,144.2a11.126,11.126,0,0,0-3.924.661,9.2,9.2,0,0,0-2.991,1.792,8.2,8.2,0,0,0-1.935,2.677,7.835,7.835,0,0,0-.695,3.256v.1a8.718,8.718,0,0,0,.872,3.89,18.88,18.88,0,0,0,2.739,3.883,16.53,16.53,0,0,0-6.445,4.135,8.748,8.748,0,0,0-2.275,6.063v.1a9.43,9.43,0,0,0,.852,4.04,9.158,9.158,0,0,0,2.378,3.127,10.579,10.579,0,0,0,3.6,2.023,14.072,14.072,0,0,0,4.517.708,14.224,14.224,0,0,0,6.445-1.444,18.943,18.943,0,0,0,5.368-4.067l5.675,5.716,3.093-2.323-6.295-6.309a33.737,33.737,0,0,0,2.759-4.149q1.267-2.218,2.453-4.742l-3.352-1.519c-.654,1.478-1.342,2.882-2.064,4.19s-1.479,2.541-2.269,3.692l-8.257-8.237a16.349,16.349,0,0,0,6.247-3.583,7.512,7.512,0,0,0,2.269-5.6v-.109a7.235,7.235,0,0,0-.675-3.107,8.134,8.134,0,0,0-1.826-2.521,8.708,8.708,0,0,0-2.766-1.717,9.417,9.417,0,0,0-3.5-.634m-2.017,15c-.688-.709-1.26-1.349-1.73-1.921a10.867,10.867,0,0,1-1.1-1.615,5.871,5.871,0,0,1-.593-1.492,6.034,6.034,0,0,1-.184-1.485v-.1a4.887,4.887,0,0,1,1.5-3.638,5.441,5.441,0,0,1,3.972-1.465,5.083,5.083,0,0,1,3.658,1.39,4.65,4.65,0,0,1,1.444,3.509v.1a5.173,5.173,0,0,1-1.751,3.917,14.313,14.313,0,0,1-5.212,2.8m-1.029,18.074a8.924,8.924,0,0,1-3.045-.5,7.125,7.125,0,0,1-2.4-1.417,6.232,6.232,0,0,1-1.546-2.119,6.344,6.344,0,0,1-.545-2.623V170.5a6.576,6.576,0,0,1,1.649-4.258,12.094,12.094,0,0,1,5.266-3.311l9.647,9.749a16.947,16.947,0,0,1-4.2,3.359,9.924,9.924,0,0,1-4.823,1.233" transform="translate(222.138 130.168)" fill="#2694fb"/>
        <path id="Trazado_190" data-name="Trazado 190" d="M130.715,144.955h-2.889l-9.2,13.5-9.211-13.5h-2.889V169.7h2.78V149.69l9.2,13.217h.15l9.2-13.251V169.7h2.855Z" transform="translate(17.004 134.575)" fill="#2694fb"/>
        <path id="Trazado_191" data-name="Trazado 191" d="M126.057,144.93H123.38l-11.514,24.914h2.923l2.991-6.54h13.762l2.964,6.54h3.073ZM118.9,160.8l5.777-12.617,5.743,12.617Z" transform="translate(48.063 134.428)" fill="#2694fb"/>
        <path id="Trazado_192" data-name="Trazado 192" d="M128.3,144.955H117.431V169.7h2.855v-9.62h7.222l7.331,9.62h3.5l-7.767-10.11a10.734,10.734,0,0,0,2.746-.831,7.7,7.7,0,0,0,2.187-1.485,6.467,6.467,0,0,0,1.431-2.119,7.237,7.237,0,0,0,.5-2.773v-.068a7.248,7.248,0,0,0-.5-2.732,6.642,6.642,0,0,0-1.444-2.16,8.438,8.438,0,0,0-3.018-1.812,12.356,12.356,0,0,0-4.176-.654m-8.012,12.617V147.537h7.821a7.761,7.761,0,0,1,4.776,1.288,4.238,4.238,0,0,1,1.7,3.584v.075a4.542,4.542,0,0,1-.491,2.139,4.815,4.815,0,0,1-1.356,1.594,6.337,6.337,0,0,1-2.064,1,8.807,8.807,0,0,1-2.6.354Z" transform="translate(80.411 134.574)" fill="#2694fb"/>
        <rect id="Rectángulo_61" data-name="Rectángulo 61" width="2.855" height="24.744" transform="translate(231.423 279.529)" fill="#2694fb"/>
        <path id="Trazado_193" data-name="Trazado 193" d="M146.3,144.955h-2.78V164.78L127.6,144.955h-2.677V169.7h2.786V149.411L144.028,169.7H146.3Z" transform="translate(123.973 134.575)" fill="#2694fb"/>
        <path id="Trazado_194" data-name="Trazado 194" d="M144.046,144.93h-2.677l-11.514,24.914h2.923l2.991-6.54H149.53l2.964,6.54h3.066ZM136.893,160.8l5.777-12.617,5.743,12.617Z" transform="translate(152.629 134.428)" fill="#2694fb"/>
        <path id="Trazado_195" data-name="Trazado 195" d="M144.461,144.9a10.372,10.372,0,0,0-3.325.518,8.285,8.285,0,0,0-2.637,1.41,6.435,6.435,0,0,0-1.73,2.139,5.952,5.952,0,0,0-.613,2.684v.068a6.477,6.477,0,0,0,.5,2.65,5.352,5.352,0,0,0,1.56,1.982,9.216,9.216,0,0,0,2.657,1.451,27.572,27.572,0,0,0,3.788,1.063,27.065,27.065,0,0,1,3.27.879,7.224,7.224,0,0,1,2.01,1.029,3.1,3.1,0,0,1,1.015,1.254,3.95,3.95,0,0,1,.286,1.54v.068a3.643,3.643,0,0,1-1.533,3.018,6.527,6.527,0,0,1-4.094,1.186,11.7,11.7,0,0,1-4.66-.865,14.927,14.927,0,0,1-4.013-2.63l-1.764,2.051a15.778,15.778,0,0,0,4.783,2.984,15.24,15.24,0,0,0,5.546.967,11.672,11.672,0,0,0,3.461-.491,8.028,8.028,0,0,0,2.718-1.41,6.68,6.68,0,0,0,1.771-2.207,6.423,6.423,0,0,0,.64-2.889v-.068a5.427,5.427,0,0,0-2-4.455,15.089,15.089,0,0,0-6.234-2.541,25.658,25.658,0,0,1-3.427-.906,7.533,7.533,0,0,1-2.091-1.056,3.165,3.165,0,0,1-1.049-1.274,4.053,4.053,0,0,1-.286-1.574v-.068a3.514,3.514,0,0,1,1.438-2.848,6.185,6.185,0,0,1,3.938-1.151,10.956,10.956,0,0,1,3.74.64,12.4,12.4,0,0,1,3.556,2.051l1.662-2.153a15.013,15.013,0,0,0-4.026-2.289,14.371,14.371,0,0,0-4.858-.756" transform="translate(183.594 134.271)" fill="#2694fb"/>
        <path id="Trazado_196" data-name="Trazado 196" d="M172.87,122.172H153.637V238.3a80.867,80.867,0,0,1,10.049-.6c22.326,0,45.121,7.957,57.643,9.02,1.049.1,2.194.136,3.406.136,6.2,0,14.171-1.213,19.7-4.217,5.784-3.141,6.976-5.913,6.976-5.913V155.575l-26.761.007a21.111,21.111,0,0,1,5.443,10.049,28.893,28.893,0,0,1,.8,7.835l.041,10.1V220.3a18.722,18.722,0,0,0,4.8.518,34.915,34.915,0,0,0,8.468-.995l.232.109-.007.014c-3.686,3.475-8.359,6.234-12.9,6.867a52.714,52.714,0,0,1-7.153.518c-1.076,0-2.1-.048-3.045-.123-14.409-1.233-15.955-3.89-36.108-6.4-4.823-.606-12.338-1.124-12.338-1.124Z" transform="translate(290.868 2.141)" fill="#2694fb"/>
        <path id="Trazado_197" data-name="Trazado 197" d="M177.629,121.809A12.889,12.889,0,1,0,190.8,134.7a13.025,13.025,0,0,0-13.169-12.89" transform="translate(353.78 0.031)" fill="#2694fb"/>
        <path id="Trazado_198" data-name="Trazado 198" d="M172.687,121.834,122.838,242.1H143.8s.129-.477.416-1.274c4.176-10.219,10.246-17.175,16.875-21.746l.068-.048c.94-.647,3.011-1.887,3.1-1.935.961-.545,1.921-1.056,2.889-1.512l.109-.054a47.908,47.908,0,0,1,20.234-4.524c1.015,0,1.976.027,2.957.041L202.8,242.1l19.737.02-.014-.02-12.27-29.622c6.022.729,19.859,1.621,25.888,2.432l-.007,27.2h19.233V216.79c3.325.184,6.792.293,10.505.293h1.07a42.942,42.942,0,0,0,7.63-.8,40.488,40.488,0,0,0,12.89-4.054l11.677,29.874s.668.02,1.88.02A158.059,158.059,0,0,0,319.052,241l-16.7-39.242.252-.293a42.006,42.006,0,0,0,10.88-21.433,47.673,47.673,0,0,0,1.07-9.892c0-25.555-21.167-46.279-47.287-46.279h-3.113v-.007H236.134l-.007,63.413c9.906,1.56,22.68,3.577,25.316,3.992l.1-.252c-3.529-3.148-6.009-7.773-6.009-16.01l-.007-32.02,11.977.014a27.642,27.642,0,0,1,27.864,27.537v.17c.3,14.164-12.617,27.428-28.43,27.428-29.24,0-53.024-6.077-79.45-6.077a75.863,75.863,0,0,0-8.618.525c-.933.116-2.48.286-3.386.436-1.587.252-3.147.572-4.694.954l-.007.007a87.006,87.006,0,0,0-8.536,2.909,97.514,97.514,0,0,0-14.273,8.059l-.211-.1A36.551,36.551,0,0,1,161.841,192.6l10.846-26.236,7.91,20.1a100.406,100.406,0,0,1,18.81-1.615c1.315,0,2.637.02,3.958.061l.082-.2c-.129-.068-.245-.129-.375-.2a20.751,20.751,0,0,1-8.475-9.6c-.1-.238-21.91-53.071-21.91-53.071m6.24,70.737-.061.007-.054.007.061-.007.054-.007" transform="translate(111.841 0.177)" fill="#2694fb"/>
        <path id="Trazado_199" data-name="Trazado 199" d="M126.372,121.829,103.6,242.135h19.594l11.125-62.4,31.339,65.716,31.5-65.73,11.125,62.412h19.594L205.1,121.835,165.655,202.73Z" transform="translate(0 0.145)" fill="#2694fb"/>
        <path id="Trazado_200" data-name="Trazado 200" d="M169.987,121.8V242.267h19.26V170.535l59.516,71.732h18.251V124.011H247.782v86.222Z" transform="translate(385.905 0)" fill="#2694fb"/>
      </g>
    </g>
  </g>
</svg>
