<svg xmlns="http://www.w3.org/2000/svg" width="383.998" height="132.279" viewBox="0 0 383.998 132.279">
  <g id="Grupo_6601" data-name="Grupo 6601" transform="translate(-103.598 -121.803)">
    <path id="Trazado_182" data-name="Trazado 182" d="M165.3,144.894h-1.943v13.863l-11.13-13.863h-1.872v17.3H152.3V148.008l11.416,14.183H165.3Z" transform="translate(175.919 86.875)" fill="#fff"/>
    <path id="Trazado_183" data-name="Trazado 183" d="M157.012,147.4h1.567l2.853-2.672-2.024-.91Z" transform="translate(200.969 82.834)" fill="#fff"/>
    <path id="Trazado_184" data-name="Trazado 184" d="M165.209,144.868h-1.872l-8.053,17.416h2.048l2.091-4.572h9.62l2.072,4.572h2.143Zm-5,11.092,4.039-8.82,4.015,8.82Z" transform="translate(194.466 86.778)" fill="#fff"/>
    <path id="Trazado_185" data-name="Trazado 185" d="M175.507,144.894h-2v10.058a5.79,5.79,0,0,1-1.438,4.277,5.266,5.266,0,0,1-3.886,1.429,5.2,5.2,0,0,1-3.977-1.51,6.061,6.061,0,0,1-1.424-4.324v-9.93h-2v10.058a9.2,9.2,0,0,0,.529,3.238,6.408,6.408,0,0,0,1.505,2.353,6.276,6.276,0,0,0,2.319,1.438,9.628,9.628,0,0,0,6.01,0,6.348,6.348,0,0,0,2.324-1.443,6.583,6.583,0,0,0,1.5-2.4,9.629,9.629,0,0,0,.529-3.334Z" transform="translate(215.186 86.876)" fill="#fff"/>
    <path id="Trazado_186" data-name="Trazado 186" d="M179.526,144.894H165.668V146.7H171.6v15.492h2V146.7h5.929Z" transform="translate(233.534 86.875)" fill="#fff"/>
    <rect id="Rect치ngulo_60" data-name="Rect치ngulo 60" width="1.995" height="17.297" transform="translate(422.044 231.77)" fill="#fff"/>
    <path id="Trazado_187" data-name="Trazado 187" d="M181.8,144.831a9.054,9.054,0,0,0-3.586.7,8.706,8.706,0,0,0-4.682,4.781,9.012,9.012,0,0,0-.667,3.457v.053a9.063,9.063,0,0,0,.667,3.481,8.544,8.544,0,0,0,1.857,2.829,8.74,8.74,0,0,0,2.8,1.9,8.94,8.94,0,0,0,3.534.686,9.731,9.731,0,0,0,2.2-.224,9,9,0,0,0,1.843-.615,9.19,9.19,0,0,0,1.6-.952,12.409,12.409,0,0,0,1.424-1.248l-1.31-1.257a11.038,11.038,0,0,1-2.576,1.838,6.925,6.925,0,0,1-3.129.652,6.588,6.588,0,0,1-2.715-.552,6.792,6.792,0,0,1-2.172-1.519,6.924,6.924,0,0,1-1.438-2.262,7.44,7.44,0,0,1-.519-2.805v-.048a7.387,7.387,0,0,1,.519-2.781,6.953,6.953,0,0,1,1.438-2.257,6.621,6.621,0,0,1,2.172-1.51,6.74,6.74,0,0,1,2.715-.543,6.653,6.653,0,0,1,3.115.671,11.13,11.13,0,0,1,2.438,1.7l1.362-1.433a13.631,13.631,0,0,0-1.362-1.124,8.372,8.372,0,0,0-1.543-.867,9.7,9.7,0,0,0-1.8-.552,10.956,10.956,0,0,0-2.186-.2" transform="translate(260.617 86.639)" fill="#fff"/>
    <path id="Trazado_188" data-name="Trazado 188" d="M187.6,144.868h-1.872l-8.048,17.416h2.043l2.091-4.572h9.62l2.072,4.572h2.143Zm-5,11.092,4.038-8.82,4.015,8.82Z" transform="translate(278.744 86.778)" fill="#fff"/>
    <path id="Trazado_189" data-name="Trazado 189" d="M152.057,144.2a7.776,7.776,0,0,0-2.743.462,6.431,6.431,0,0,0-2.091,1.253,5.728,5.728,0,0,0-1.353,1.871,5.478,5.478,0,0,0-.486,2.276v.071a6.1,6.1,0,0,0,.609,2.719,13.194,13.194,0,0,0,1.915,2.715,11.555,11.555,0,0,0-4.505,2.891,6.116,6.116,0,0,0-1.59,4.239v.071a6.593,6.593,0,0,0,.6,2.824,6.4,6.4,0,0,0,1.662,2.186,7.4,7.4,0,0,0,2.519,1.414,9.834,9.834,0,0,0,3.158.5,9.944,9.944,0,0,0,4.505-1.01,13.241,13.241,0,0,0,3.753-2.843l3.967,4,2.162-1.624-4.4-4.41a23.6,23.6,0,0,0,1.929-2.9q.886-1.55,1.715-3.315l-2.343-1.062c-.457,1.034-.938,2.015-1.443,2.929s-1.034,1.776-1.586,2.581l-5.772-5.758a11.428,11.428,0,0,0,4.367-2.505,5.251,5.251,0,0,0,1.586-3.915v-.076a5.058,5.058,0,0,0-.472-2.172,5.685,5.685,0,0,0-1.276-1.762,6.085,6.085,0,0,0-1.934-1.2,6.583,6.583,0,0,0-2.448-.443m-1.41,10.487c-.481-.5-.881-.943-1.21-1.343a7.59,7.59,0,0,1-.772-1.129,4.1,4.1,0,0,1-.414-1.043,4.22,4.22,0,0,1-.129-1.038v-.071a3.416,3.416,0,0,1,1.048-2.543,3.8,3.8,0,0,1,2.777-1.024,3.553,3.553,0,0,1,2.557.972,3.251,3.251,0,0,1,1.01,2.453v.071a3.616,3.616,0,0,1-1.224,2.738,10.006,10.006,0,0,1-3.643,1.957m-.719,12.635a6.24,6.24,0,0,1-2.129-.352,4.98,4.98,0,0,1-1.676-.991,4.355,4.355,0,0,1-1.081-1.481,4.435,4.435,0,0,1-.381-1.833v-.076a4.6,4.6,0,0,1,1.153-2.976,8.456,8.456,0,0,1,3.681-2.315l6.744,6.815a11.85,11.85,0,0,1-2.938,2.348,6.937,6.937,0,0,1-3.372.862" transform="translate(143.783 84.253)" fill="#fff"/>
    <path id="Trazado_190" data-name="Trazado 190" d="M123.434,144.955h-2.019l-6.434,9.434-6.439-9.434h-2.019v17.3h1.943V148.265L114.9,157.5h.1l6.434-9.263v14.011h2Z" transform="translate(11.006 87.106)" fill="#fff"/>
    <path id="Trazado_191" data-name="Trazado 191" d="M121.786,144.93h-1.872l-8.049,17.416h2.043L116,157.774h9.62l2.072,4.572h2.148Zm-5,11.092,4.039-8.82,4.015,8.82Z" transform="translate(31.11 87.011)" fill="#fff"/>
    <path id="Trazado_192" data-name="Trazado 192" d="M125.027,144.955h-7.6v17.3h2v-6.724h5.048l5.124,6.724h2.448l-5.429-7.067a7.5,7.5,0,0,0,1.919-.581,5.384,5.384,0,0,0,1.529-1.038,4.52,4.52,0,0,0,1-1.481,5.057,5.057,0,0,0,.353-1.938V150.1a5.065,5.065,0,0,0-.353-1.91,4.642,4.642,0,0,0-1.01-1.51,5.9,5.9,0,0,0-2.11-1.267,8.64,8.64,0,0,0-2.919-.457m-5.6,8.82V146.76h5.467a5.426,5.426,0,0,1,3.338.9,2.963,2.963,0,0,1,1.191,2.505v.053a3.175,3.175,0,0,1-.343,1.5,3.365,3.365,0,0,1-.948,1.114,4.43,4.43,0,0,1-1.443.7,6.159,6.159,0,0,1-1.819.248Z" transform="translate(52.048 87.105)" fill="#fff"/>
    <rect id="Rect치ngulo_61" data-name="Rect치ngulo 61" width="1.995" height="17.297" transform="translate(192.953 232.06)" fill="#fff"/>
    <path id="Trazado_193" data-name="Trazado 193" d="M139.87,144.955h-1.943v13.859L126.8,144.955h-1.872v17.3h1.948V148.07l11.406,14.182h1.591Z" transform="translate(80.244 87.106)" fill="#fff"/>
    <path id="Trazado_194" data-name="Trazado 194" d="M139.775,144.93H137.9l-8.048,17.416H131.9l2.091-4.572h9.62l2.072,4.572h2.143Zm-5,11.092,4.038-8.82,4.015,8.82Z" transform="translate(98.792 87.011)" fill="#fff"/>
    <path id="Trazado_195" data-name="Trazado 195" d="M141.668,144.9a7.252,7.252,0,0,0-2.324.362,5.792,5.792,0,0,0-1.843.986,4.5,4.5,0,0,0-1.21,1.5,4.16,4.16,0,0,0-.429,1.876v.048a4.528,4.528,0,0,0,.353,1.853,3.742,3.742,0,0,0,1.091,1.386,6.44,6.44,0,0,0,1.857,1.014,19.282,19.282,0,0,0,2.648.743,18.9,18.9,0,0,1,2.286.614,5.047,5.047,0,0,1,1.4.719,2.168,2.168,0,0,1,.71.876,2.762,2.762,0,0,1,.2,1.076V158a2.547,2.547,0,0,1-1.072,2.11,4.562,4.562,0,0,1-2.862.829,8.18,8.18,0,0,1-3.258-.6,10.432,10.432,0,0,1-2.805-1.838l-1.233,1.434a11.031,11.031,0,0,0,3.343,2.086,10.655,10.655,0,0,0,3.876.676,8.161,8.161,0,0,0,2.419-.343,5.612,5.612,0,0,0,1.9-.986,4.668,4.668,0,0,0,1.238-1.543,4.489,4.489,0,0,0,.448-2.019v-.048a3.793,3.793,0,0,0-1.4-3.115,10.547,10.547,0,0,0-4.358-1.776,17.966,17.966,0,0,1-2.4-.633,5.268,5.268,0,0,1-1.462-.738,2.214,2.214,0,0,1-.733-.891,2.831,2.831,0,0,1-.2-1.1v-.048a2.456,2.456,0,0,1,1-1.991,4.324,4.324,0,0,1,2.753-.8,7.661,7.661,0,0,1,2.615.448,8.666,8.666,0,0,1,2.486,1.433l1.162-1.5a10.491,10.491,0,0,0-2.815-1.6,10.044,10.044,0,0,0-3.4-.529" transform="translate(118.834 86.909)" fill="#fff"/>
    <path id="Trazado_196" data-name="Trazado 196" d="M167.081,122.172H153.637v81.18a56.532,56.532,0,0,1,7.025-.419c15.606,0,31.541,5.562,40.295,6.305.733.066,1.534.1,2.381.1,4.334,0,9.906-.848,13.768-2.948,4.043-2.2,4.877-4.134,4.877-4.134v-56.73l-18.707,0a14.758,14.758,0,0,1,3.805,7.024,20.2,20.2,0,0,1,.562,5.477l.029,7.063v25.674a13.091,13.091,0,0,0,3.353.362,24.407,24.407,0,0,0,5.92-.7l.162.076,0,.01a17.474,17.474,0,0,1-9.015,4.8,36.863,36.863,0,0,1-5,.362c-.753,0-1.467-.033-2.129-.086-10.073-.862-11.154-2.719-25.241-4.472-3.372-.424-8.625-.786-8.625-.786Z" transform="translate(188.27 1.386)" fill="#fff"/>
    <path id="Trazado_197" data-name="Trazado 197" d="M173.666,121.809a9.01,9.01,0,1,0,9.206,9.011,9.105,9.105,0,0,0-9.206-9.011" transform="translate(228.99 0.02)" fill="#fff"/>
    <path id="Trazado_198" data-name="Trazado 198" d="M157.685,121.834,122.838,205.9h14.654s.091-.333.291-.891a33.2,33.2,0,0,1,11.8-15.2l.048-.033c.657-.452,2.105-1.319,2.167-1.353.671-.381,1.343-.738,2.019-1.057l.076-.038a33.49,33.49,0,0,1,14.144-3.162c.71,0,1.381.019,2.067.029l8.634,21.707,13.8.014-.01-.014L183.945,185.2c4.21.509,13.882,1.133,18.1,1.7l0,19.012h13.444v-17.7c2.324.129,4.748.2,7.343.2h.748a30.01,30.01,0,0,0,5.334-.557,28.3,28.3,0,0,0,9.01-2.834l8.163,20.883s.467.014,1.314.014A110.474,110.474,0,0,0,260,205.138l-11.673-27.432.176-.2a29.364,29.364,0,0,0,7.606-14.983,33.325,33.325,0,0,0,.748-6.915c0-17.864-14.8-32.351-33.056-32.351h-2.176v0H202.037l0,44.329c6.925,1.091,15.854,2.5,17.7,2.791l.071-.176c-2.467-2.2-4.2-5.434-4.2-11.192l0-22.383,8.372.01a19.323,19.323,0,0,1,19.478,19.25v.119c.21,9.9-8.82,19.173-19.873,19.173-20.44,0-37.066-4.248-55.539-4.248a53.034,53.034,0,0,0-6.025.367c-.653.081-1.734.2-2.367.3-1.11.176-2.2.4-3.281.667l0,0a60.8,60.8,0,0,0-5.967,2.034,68.17,68.17,0,0,0-9.977,5.634l-.148-.071A25.549,25.549,0,0,1,150.1,171.3l7.582-18.34,5.529,14.049a70.183,70.183,0,0,1,13.149-1.129c.919,0,1.843.014,2.767.043l.057-.138c-.091-.048-.171-.09-.262-.143a14.505,14.505,0,0,1-5.924-6.71c-.072-.167-15.316-37.1-15.316-37.1m4.362,49.448-.043,0-.038,0,.043,0,.038,0" transform="translate(72.391 0.114)" fill="#fff"/>
    <path id="Trazado_199" data-name="Trazado 199" d="M119.518,121.829l-15.921,84.1h13.7l7.777-43.619,21.907,45.938L168.995,162.3l7.777,43.628h13.7l-15.916-84.095-27.574,56.549Z" transform="translate(0 0.094)" fill="#fff"/>
    <path id="Trazado_200" data-name="Trazado 200" d="M169.987,121.8v84.209H183.45V155.869l41.6,50.143h12.759V123.347H224.369V183.62Z" transform="translate(249.784 0)" fill="#fff"/>
  </g>
</svg>
