<svg xmlns="http://www.w3.org/2000/svg" width="156.346" height="137.727" viewBox="0 0 156.346 137.727">
  <g id="Capa_2" data-name="Capa 2" transform="translate(-0.016 0)">
    <g id="Capa_2-2" data-name="Capa 2" transform="translate(0.016 0)">
      <path id="Trazado_7724" data-name="Trazado 7724" d="M30.156,29.989a1.183,1.183,0,0,1,.564-1.572L52.2,18.375a.93.93,0,0,0,.479-.524.9.9,0,0,0-.034-.7.913.913,0,0,0-.518-.473.924.924,0,0,0-.7.028L29.975,26.715a1.127,1.127,0,0,1-.907.039,1.178,1.178,0,0,1-.671-.614L18.361,4.67a.924.924,0,0,0-1.691.073.952.952,0,0,0,.034.7l10,21.476a1.178,1.178,0,0,1-.564,1.572L4.65,38.51a.935.935,0,0,0-.445,1.228A1.009,1.009,0,0,0,4.4,40l.051.045a1.251,1.251,0,0,0,.225.135h.073a.84.84,0,0,0,.27.051h.034a1.054,1.054,0,0,0,.378-.085L26.9,30.136a1.223,1.223,0,0,1,.5-.113,1.189,1.189,0,0,1,1.076.688L38.5,52.221a.93.93,0,0,0,.84.53.885.885,0,0,0,.383-.085.93.93,0,0,0,.451-1.228Z" transform="translate(-1.808 -1.813)" fill="#fff"/>
      <path id="Trazado_7725" data-name="Trazado 7725" d="M63.468,47.529a1.189,1.189,0,0,1,.564-1.578l14.917-6.943a.924.924,0,0,0-.389-1.758.873.873,0,0,0-.389.09L61.349,45.173a.9.9,0,0,0-.473.518.924.924,0,0,0,0,.7l7.867,16.8a.93.93,0,1,0,1.691-.778Z" transform="translate(-26.55 -16.259)" fill="#fff"/>
      <path id="Trazado_7726" data-name="Trazado 7726" d="M19.15,27.583,11.317,10.8a.93.93,0,0,0-.524-.479,1,1,0,0,0-.316-.056.958.958,0,0,0-.389.09.913.913,0,0,0-.473.518.924.924,0,0,0,0,.7L16.6,26.456a1.189,1.189,0,0,1-.564,1.578L1.122,34.987a.924.924,0,0,0,.394,1.758.947.947,0,0,0,.389-.085l16.8-7.839a.913.913,0,0,0,.445-1.24Z" transform="translate(-0.269 -4.478)" fill="#fff"/>
      <path id="Trazado_7727" data-name="Trazado 7727" d="M28.818,61.369a.93.93,0,0,0-1.24-.44L10.79,68.757a.93.93,0,1,0,.778,1.691l14.883-6.965a1.178,1.178,0,0,1,1.572.564l6.96,14.917a.941.941,0,0,0,1.223.445.924.924,0,0,0,.445-1.228Z" transform="translate(-4.482 -26.555)" fill="#fff"/>
      <path id="Trazado_7728" data-name="Trazado 7728" d="M45.172,18.7a.9.9,0,0,0,.518.479.924.924,0,0,0,.7,0l16.8-7.867a.911.911,0,0,0-.783-1.645L47.528,16.6a1.189,1.189,0,0,1-1.578-.564L39.007,1.125a.913.913,0,0,0-.524-.479.857.857,0,0,0-.31-.056.924.924,0,0,0-.84,1.313Z" transform="translate(-16.267 -0.258)" fill="#fff"/>
      <path id="Trazado_7729" data-name="Trazado 7729" d="M1.32,33.637l8.56-4a.873.873,0,0,0,.287-.209.981.981,0,0,0,.192-.31.845.845,0,0,0,0-.659V28.4L6.324,19.83a.93.93,0,1,0-1.691.778l3.719,6.8L2.718,25.353a.93.93,0,0,0-1.183.564A.919.919,0,0,0,2.1,27.1l5.635,2.057L.571,31.963a.913.913,0,0,0-.479.524.885.885,0,0,0,.006.727.919.919,0,0,0,1.223.423Z" transform="translate(-0.016 -8.419)" fill="#fff"/>
      <path id="Trazado_7730" data-name="Trazado 7730" d="M85.131,49.689l-8.554,3.99a.913.913,0,0,0-.293.214.829.829,0,0,0-.186.31.845.845,0,0,0,0,.659v.062l4,8.571a.932.932,0,0,0,1.691-.783L78.1,55.91l5.635,2.057a.924.924,0,0,0,.7,0,.941.941,0,0,0,.473-.524.9.9,0,0,0,0-.7.913.913,0,0,0-.518-.473l-5.635-2.057,7.179-2.818a.9.9,0,0,0,.479-.518,1,1,0,0,0,.056-.316.958.958,0,0,0-.09-.389.919.919,0,0,0-1.251-.479Z" transform="translate(-33.195 -21.648)" fill="#fff"/>
      <path id="Trazado_7731" data-name="Trazado 7731" d="M33.637,85.131l-4-8.554a.9.9,0,0,0-.209-.293.874.874,0,0,0-.31-.186.845.845,0,0,0-.659,0H28.4L19.83,80.127a.93.93,0,1,0,.778,1.691l6.8-3.719-2.057,5.635a.9.9,0,0,0,.034.733.913.913,0,0,0,.518.473.924.924,0,0,0,1.183-.564l2.057-5.635,2.818,7.179a.913.913,0,0,0,.524.479,1,1,0,0,0,.31.056.935.935,0,0,0,.389-.09.924.924,0,0,0,.451-1.234Z" transform="translate(-8.428 -33.186)" fill="#fff"/>
      <path id="Trazado_7732" data-name="Trazado 7732" d="M49.693,1.313l3.99,8.56a.89.89,0,0,0,.214.287.924.924,0,0,0,.31.192.845.845,0,0,0,.659,0h.062l8.571-4a.932.932,0,1,0-.783-1.691l-6.8,3.68,2.057-5.635a.924.924,0,0,0-1.257-1.127.941.941,0,0,0-.473.524L54.184,7.743,51.361.564A.895.895,0,0,0,50.138.09a.919.919,0,0,0-.445,1.223Z" transform="translate(-21.661 0)" fill="#fff"/>
      <path id="Trazado_7733" data-name="Trazado 7733" d="M90.891,162.924a15.068,15.068,0,0,1-5.207-.873,7.365,7.365,0,0,1-3.776-3.173,13.066,13.066,0,0,1-1.409-6.689,12.913,12.913,0,0,1,1.409-6.689,7.427,7.427,0,0,1,3.945-3.2,17.346,17.346,0,0,1,5.68-.873,21.513,21.513,0,0,1,2.992.2q1.448.2,2.722.473v-2.688q0-4.04-1.882-5.382a8.758,8.758,0,0,0-5.173-1.341H83.5v-3.381a25.92,25.92,0,0,1,3.8-.941,24.063,24.063,0,0,1,4.266-.4,27.117,27.117,0,0,1,7.63.907,7.844,7.844,0,0,1,4.6,3.381q1.55,2.451,1.55,7.162v22.851H99.632l-1.009-2.017h-.338a10.983,10.983,0,0,1-2.857,1.854,10.708,10.708,0,0,1-4.536.811Zm2.688-4.705a5.455,5.455,0,0,0,2.254-.44,4.723,4.723,0,0,0,1.443-.907V146.136h-3.7a5.5,5.5,0,0,0-2.316.564,4.378,4.378,0,0,0-1.95,1.848,9.073,9.073,0,0,0,0,7.326,4.351,4.351,0,0,0,1.95,1.848,5.506,5.506,0,0,0,2.316.518Z" transform="translate(-35.145 -55.854)" fill="#fff"/>
      <path id="Trazado_7734" data-name="Trazado 7734" d="M140.69,115.771V107.73h8.064v8.042Zm0,37.643V119.829h8.064v33.609Z" transform="translate(-61.417 -47.021)" fill="#fff"/>
      <path id="Trazado_7735" data-name="Trazado 7735" d="M171.88,162.282V128.673h5.7l1.009,2.017h.338a10.706,10.706,0,0,1,2.891-1.848,11.586,11.586,0,0,1,4.835-.84,14.917,14.917,0,0,1,5.246.873,7.326,7.326,0,0,1,3.764,3.19,13.026,13.026,0,0,1,1.409,6.689v23.527h-8.053V138.754c0-2.372-.564-3.979-1.691-4.807a6.086,6.086,0,0,0-3.7-1.24,5.579,5.579,0,0,0-2.22.4,4.728,4.728,0,0,0-1.476.941v28.233Z" transform="translate(-75.03 -55.865)" fill="#fff"/>
      <path id="Trazado_7736" data-name="Trazado 7736" d="M243.218,162.943a14.652,14.652,0,0,1-7.365-1.691,10.707,10.707,0,0,1-4.508-5.551,27.69,27.69,0,0,1-1.544-10.217,28.007,28.007,0,0,1,1.544-10.217,10.8,10.8,0,0,1,4.508-5.545,16.675,16.675,0,0,1,14.725,0,10.661,10.661,0,0,1,4.536,5.545,27.836,27.836,0,0,1,1.544,10.217,27.836,27.836,0,0,1-1.544,10.217,10.707,10.707,0,0,1-4.536,5.551,14.651,14.651,0,0,1-7.36,1.691Zm0-4.373a3.973,3.973,0,0,0,2.756-1.127,8.024,8.024,0,0,0,1.916-3.945,35.5,35.5,0,0,0,.7-8.025,35.388,35.388,0,0,0-.7-8.064,8.092,8.092,0,0,0-1.916-3.945,3.979,3.979,0,0,0-2.756-1.127,4.024,4.024,0,0,0-2.727,1.127,7.81,7.81,0,0,0-1.944,3.945,35.013,35.013,0,0,0-.71,8.064,35.107,35.107,0,0,0,.71,8.036,7.687,7.687,0,0,0,1.944,3.945,4.018,4.018,0,0,0,2.728,1.138Z" transform="translate(-100.311 -55.873)" fill="#fff"/>
      <path id="Trazado_7737" data-name="Trazado 7737" d="M47.676,157.736a14.562,14.562,0,0,1-5.207-.907,7.36,7.36,0,0,1-3.8-3.381q-1.414-2.451-1.414-7.157v-17.1h-3.7v-5.072h3.7V116.08h8.07v8.064H54.4v3.725a31.483,31.483,0,0,1-3.832.907,26.622,26.622,0,0,1-4.9.44h-.338v17.142A10.143,10.143,0,0,0,46,150.489a4.294,4.294,0,0,0,1.691,2.017,4.058,4.058,0,0,0,2.017.564h6.041v3.381a12.771,12.771,0,0,1-2.215.6q-1.414.3-2.959.507A22.312,22.312,0,0,1,47.676,157.736Z" transform="translate(-14.657 -50.666)" fill="#fff"/>
      <path id="Trazado_7738" data-name="Trazado 7738" d="M141.2,226.1v-20.58H136V203.23h13.4v2.288h-5.23V226.1Z" transform="translate(-59.37 -88.705)" fill="#fff"/>
      <path id="Trazado_7739" data-name="Trazado 7739" d="M169.641,226.172a6.819,6.819,0,0,1-3.776-1.026,6.48,6.48,0,0,1-2.418-3.6,31.16,31.16,0,0,1,0-14.274,6.6,6.6,0,0,1,2.418-3.6,7.45,7.45,0,0,1,7.563,0,6.5,6.5,0,0,1,2.406,3.6,31.16,31.16,0,0,1,0,14.274,6.494,6.494,0,0,1-2.406,3.6,6.763,6.763,0,0,1-3.787,1.026Zm0-1.955a2.936,2.936,0,0,0,1.522-.445,3.877,3.877,0,0,0,1.319-1.516,9.856,9.856,0,0,0,.919-2.992,36.179,36.179,0,0,0,0-9.7,9.767,9.767,0,0,0-.919-2.987,3.9,3.9,0,0,0-1.319-1.522,2.851,2.851,0,0,0-3.043,0,3.855,3.855,0,0,0-1.319,1.522,9.766,9.766,0,0,0-.919,2.987,36.177,36.177,0,0,0,0,9.7,9.856,9.856,0,0,0,.919,2.992,3.837,3.837,0,0,0,1.319,1.516A2.936,2.936,0,0,0,169.641,224.216Z" transform="translate(-70.989 -88.452)" fill="#fff"/>
      <path id="Trazado_7740" data-name="Trazado 7740" d="M201.029,226.425a8.019,8.019,0,0,1-3.725-.749,4.57,4.57,0,0,1-2.124-2.53,14.02,14.02,0,0,1-.688-4.886V203.23h2.942v15.029a13.232,13.232,0,0,0,.423,3.793,3.252,3.252,0,0,0,6.34,0,13.232,13.232,0,0,0,.423-3.793V203.23h2.942v15.029a14.021,14.021,0,0,1-.688,4.886,4.57,4.57,0,0,1-2.124,2.53A8.008,8.008,0,0,1,201.029,226.425Z" transform="translate(-84.896 -88.705)" fill="#fff"/>
      <path id="Trazado_7741" data-name="Trazado 7741" d="M225.81,225.839V203.3a15.936,15.936,0,0,1,2.5-.507,24.079,24.079,0,0,1,2.727-.147,10.07,10.07,0,0,1,4.2.738,4.457,4.457,0,0,1,2.288,2.446,12.616,12.616,0,0,1,.7,4.66,14.972,14.972,0,0,1-.372,3.64,5.663,5.663,0,0,1-1.093,2.288,4.553,4.553,0,0,1-1.8,1.257l3.945,8.165H235.61l-3.6-7.512h-3.28v7.512Zm2.925-9.8h2.288a4.029,4.029,0,0,0,3.235-1.189q1.014-1.189,1.014-4.362a10.611,10.611,0,0,0-.445-3.466,3.009,3.009,0,0,0-1.386-1.747,5.072,5.072,0,0,0-2.418-.507h-2.288Z" transform="translate(-98.57 -88.446)" fill="#fff"/>
      <path id="Trazado_7742" data-name="Trazado 7742" d="M258.527,226.172a18.077,18.077,0,0,1-2.818-.208,16.286,16.286,0,0,1-2.091-.445v-1.465h4.249q2.818,0,3.945-1a3.916,3.916,0,0,0,1.127-3.088,3.539,3.539,0,0,0-.671-2.254,5.336,5.336,0,0,0-1.736-1.386c-.7-.372-1.46-.733-2.254-1.082a12.268,12.268,0,0,1-2.254-1.29,5.8,5.8,0,0,1-1.73-2.04,7.27,7.27,0,0,1-.671-3.381,5.871,5.871,0,0,1,1.522-4.412,6.527,6.527,0,0,1,4.689-1.471,19.826,19.826,0,0,1,2.818.2,10.844,10.844,0,0,1,2.074.456v1.471h-4.243a4.041,4.041,0,0,0-2.942.964,3.742,3.742,0,0,0-.98,2.818,3.945,3.945,0,0,0,.671,2.4,5.2,5.2,0,0,0,1.73,1.471c.71.378,1.46.749,2.254,1.127a14.242,14.242,0,0,1,2.254,1.274,5.573,5.573,0,0,1,1.73,1.961,6.643,6.643,0,0,1,.671,3.218,6.081,6.081,0,0,1-1.645,4.689Q262.579,226.211,258.527,226.172Z" transform="translate(-110.707 -88.452)" fill="#fff"/>
    </g>
  </g>
</svg>
