<svg xmlns="http://www.w3.org/2000/svg" width="156.346" height="137.727"><rect id="backgroundrect" width="100%" height="100%" x="0" y="0" fill="none" stroke="none"/>
  
<g class="currentLayer" style=""><title>Layer 1</title><g id="Capa_2" data-name="Capa 2" class="" opacity="1" fill-opacity="1" fill="#757575">
    <g id="Capa_2-2" data-name="Capa 2" opacity="1" fill="#757575">
      <path id="Trazado_7724" data-name="Trazado 7724" d="M28.348001104354864,28.89028588676453 a1.183,1.183 0 0 1 0.5640000000000006,-1.572 L50.39200110435486,17.276285886764526 a0.93,0.93 0 0 0 0.4790000000000003,-0.524 a0.9,0.9 0 0 0 -0.03400000000000005,-0.7000000000000006 a0.913,0.913 0 0 0 -0.518,-0.4730000000000003 a0.924,0.924 0 0 0 -0.7000000000000006,0.02800000000000002 L28.167001104354853,25.61628588676453 a1.127,1.127 0 0 1 -0.907,0.03900000000000004 a1.178,1.178 0 0 1 -0.6710000000000009,-0.6140000000000007 L16.553001104354863,3.5712858867645263 a0.924,0.924 0 0 0 -1.6910000000000007,0.07300000000000002 a0.9520000000000006,0.9520000000000006 0 0 0 0.03400000000000005,0.7000000000000006 l10,21.476 a1.178,1.178 0 0 1 -0.5640000000000006,1.572 L2.842001104354864,37.411285886764524 a0.935,0.935 0 0 0 -0.4450000000000004,1.228 A1.009,1.009 0 0 0 2.592001104354864,38.901285886764526 l0.05100000000000006,0.04500000000000007 a1.251,1.251 0 0 0 0.22500000000000023,0.135 h0.07300000000000002 a0.8400000000000006,0.8400000000000006 0 0 0 0.27,0.05100000000000006 h0.03400000000000005 a1.054,1.054 0 0 0 0.37800000000000034,-0.08500000000000012 L25.092001104354864,29.037285886764522 a1.223,1.223 0 0 1 0.5,-0.11300000000000009 a1.189,1.189 0 0 1 1.076,0.6880000000000009 L36.69200110435486,51.12228588676452 a0.93,0.93 0 0 0 0.8400000000000006,0.53 a0.8850000000000008,0.8850000000000008 0 0 0 0.3830000000000004,-0.08500000000000012 a0.93,0.93 0 0 0 0.451,-1.228 z" fill="#757575" opacity="1"/>
      <path id="Trazado_7725" data-name="Trazado 7725" d="M36.91800183582306,31.984285072326664 a1.189,1.189 0 0 1 0.5640000000000006,-1.578 l14.917,-6.943 a0.924,0.924 0 0 0 -0.3890000000000004,-1.758 a0.8730000000000007,0.8730000000000007 0 0 0 -0.3890000000000004,0.09000000000000014 L34.79900183582305,29.628285072326662 a0.9,0.9 0 0 0 -0.4730000000000003,0.518 a0.924,0.924 0 0 0 0,0.7000000000000006 l7.867,16.8 a0.93,0.93 0 1 0 1.6910000000000007,-0.778 z" fill="#757575" opacity="1"/>
      <path id="Trazado_7726" data-name="Trazado 7726" d="M18.881001079082495,23.81928568649292 L11.048001079082496,7.036285686492921 a0.93,0.93 0 0 0 -0.524,-0.4790000000000003 a1,1 0 0 0 -0.31600000000000034,-0.05600000000000004 a0.9580000000000006,0.9580000000000006 0 0 0 -0.3890000000000004,0.09000000000000014 a0.913,0.913 0 0 0 -0.4730000000000003,0.518 a0.924,0.924 0 0 0 0,0.7000000000000006 L16.331001079082483,22.692285686492923 a1.189,1.189 0 0 1 -0.5640000000000006,1.578 L0.8530010790824889,31.22328568649293 a0.924,0.924 0 0 0 0.39400000000000046,1.758 a0.9470000000000006,0.9470000000000006 0 0 0 0.3890000000000004,-0.08500000000000012 l16.8,-7.839 a0.913,0.913 0 0 0 0.4450000000000004,-1.24 z" fill="#757575" opacity="1"/>
      <path id="Trazado_7727" data-name="Trazado 7727" d="M24.336001198768628,35.52828554534912 a0.93,0.93 0 0 0 -1.24,-0.44000000000000034 L6.308001198768608,42.916285545349126 a0.93,0.93 0 1 0 0.778,1.6910000000000007 l14.883000000000001,-6.965 a1.178,1.178 0 0 1 1.572,0.5640000000000006 l6.96,14.917 a0.9410000000000006,0.9410000000000006 0 0 0 1.223,0.4450000000000004 a0.924,0.924 0 0 0 0.4450000000000004,-1.228 z" fill="#757575" opacity="1"/>
      <path id="Trazado_7728" data-name="Trazado 7728" d="M28.905000874519345,19.156285864114764 a0.9,0.9 0 0 0 0.518,0.4790000000000003 a0.924,0.924 0 0 0 0.7000000000000006,0 l16.8,-7.867 a0.911,0.911 0 0 0 -0.783,-1.645 L31.26100087451934,17.056285864114763 a1.189,1.189 0 0 1 -1.578,-0.5640000000000006 L22.740000874519353,1.5812858641147614 a0.913,0.913 0 0 0 -0.524,-0.4790000000000003 a0.8570000000000007,0.8570000000000007 0 0 0 -0.31000000000000033,-0.05600000000000004 a0.924,0.924 0 0 0 -0.8400000000000006,1.3130000000000002 z" fill="#757575" opacity="1"/>
      <path id="Trazado_7729" data-name="Trazado 7729" d="M1.30400107212364,25.932286178588868 l8.56,-4 a0.8730000000000007,0.8730000000000007 0 0 0 0.2870000000000003,-0.20900000000000016 a0.981,0.981 0 0 0 0.19200000000000023,-0.31000000000000033 a0.8450000000000006,0.8450000000000006 0 0 0 0,-0.6590000000000009 V20.695286178588866 L6.308001072123645,12.125286178588865 a0.93,0.93 0 1 0 -1.6910000000000007,0.778 l3.7190000000000003,6.8 L2.7020010721236503,17.64828617858887 a0.93,0.93 0 0 0 -1.183,0.5640000000000006 A0.919,0.919 0 0 0 2.084001072123641,19.39528617858887 l5.635,2.057 L0.5550010721236447,24.258286178588868 a0.913,0.913 0 0 0 -0.4790000000000003,0.524 a0.8850000000000008,0.8850000000000008 0 0 0 0.006000000000000012,0.7270000000000006 a0.919,0.919 0 0 0 1.223,0.4230000000000003 z" fill="#757575" opacity="1"/>
      <path id="Trazado_7730" data-name="Trazado 7730" d="M51.93600137805939,28.755285133361816 l-8.554,3.99 a0.913,0.913 0 0 0 -0.2930000000000003,0.21400000000000016 a0.8290000000000006,0.8290000000000006 0 0 0 -0.18600000000000017,0.31000000000000033 a0.8450000000000006,0.8450000000000006 0 0 0 0,0.6590000000000009 v0.062000000000000076 l4,8.571 a0.932,0.932 0 0 0 1.6910000000000007,-0.783 L44.90500137805938,34.97628513336181 l5.635,2.057 a0.924,0.924 0 0 0 0.7000000000000006,0 a0.9410000000000006,0.9410000000000006 0 0 0 0.4730000000000003,-0.524 a0.9,0.9 0 0 0 0,-0.7000000000000006 a0.913,0.913 0 0 0 -0.518,-0.4730000000000003 l-5.635,-2.057 l7.179,-2.818 a0.9,0.9 0 0 0 0.4790000000000003,-0.518 a1,1 0 0 0 0.05600000000000004,-0.31600000000000034 a0.9580000000000006,0.9580000000000006 0 0 0 -0.09000000000000014,-0.3890000000000004 a0.919,0.919 0 0 0 -1.251,-0.4790000000000003 z" fill="#757575" opacity="1"/>
      <path id="Trazado_7731" data-name="Trazado 7731" d="M25.20900062274933,52.65928502655029 l-4,-8.554 a0.9,0.9 0 0 0 -0.20900000000000016,-0.2930000000000003 a0.8740000000000007,0.8740000000000007 0 0 0 -0.31000000000000033,-0.18600000000000017 a0.8450000000000006,0.8450000000000006 0 0 0 -0.6590000000000009,0 H19.972000622749334 L11.402000622749327,47.65528502655029 a0.93,0.93 0 1 0 0.778,1.6910000000000007 l6.8,-3.7190000000000003 l-2.057,5.635 a0.9,0.9 0 0 0 0.03400000000000005,0.7330000000000007 a0.913,0.913 0 0 0 0.518,0.4730000000000003 a0.924,0.924 0 0 0 1.183,-0.5640000000000006 l2.057,-5.635 l2.818,7.179 a0.913,0.913 0 0 0 0.524,0.4790000000000003 a1,1 0 0 0 0.31000000000000033,0.05600000000000004 a0.935,0.935 0 0 0 0.3890000000000004,-0.09000000000000014 a0.924,0.924 0 0 0 0.451,-1.234 z" fill="#757575" opacity="1"/>
      <path id="Trazado_7732" data-name="Trazado 7732" d="M28.0320017747879,2.027285850524903 l3.99,8.56 a0.8900000000000008,0.8900000000000008 0 0 0 0.21400000000000016,0.2870000000000003 a0.924,0.924 0 0 0 0.31000000000000033,0.19200000000000023 a0.8450000000000006,0.8450000000000006 0 0 0 0.6590000000000009,0 h0.062000000000000076 l8.571,-4 a0.932,0.932 0 1 0 -0.783,-1.6910000000000007 l-6.8,3.68 l2.057,-5.635 a0.924,0.924 0 0 0 -1.2570000000000001,-1.127 a0.9410000000000006,0.9410000000000006 0 0 0 -0.4730000000000003,0.524 L32.5230017747879,8.457285850524904 L29.700001774787893,1.2782858505249024 A0.8950000000000008,0.8950000000000008 0 0 0 28.477001774787908,0.8042858505249022 a0.919,0.919 0 0 0 -0.4450000000000004,1.223 z" fill="#757575" opacity="1"/>
      <path id="Trazado_7733" data-name="Trazado 7733" d="M55.74600061511994,107.78428575897217 a15.068,15.068 0 0 1 -5.207,-0.8730000000000007 a7.365,7.365 0 0 1 -3.776,-3.173 a13.066,13.066 0 0 1 -1.409,-6.689 a12.913,12.913 0 0 1 1.409,-6.689 a7.427,7.427 0 0 1 3.9450000000000003,-3.2 a17.346,17.346 0 0 1 5.68,-0.8730000000000007 a21.513,21.513 0 0 1 2.992,0.2 q1.448,0.2 2.722,0.4730000000000003 v-2.688 q0,-4.04 -1.8820000000000001,-5.382 a8.758000000000001,8.758000000000001 0 0 0 -5.173,-1.3410000000000002 H48.355000615119934 v-3.3810000000000002 a25.92,25.92 0 0 1 3.8,-0.9410000000000006 a24.063,24.063 0 0 1 4.266,-0.4 a27.117,27.117 0 0 1 7.63,0.907 a7.844,7.844 0 0 1 4.6,3.3810000000000002 q1.55,2.451 1.55,7.162 v22.851 H64.48700061511994 l-1.009,-2.017 h-0.33800000000000047 a10.983,10.983 0 0 1 -2.857,1.854 a10.708,10.708 0 0 1 -4.536,0.811 zm2.688,-4.705 a5.455,5.455 0 0 0 2.254,-0.44000000000000034 a4.723,4.723 0 0 0 1.443,-0.907 V90.99628575897216 h-3.7 a5.5,5.5 0 0 0 -2.316,0.5640000000000006 a4.378,4.378 0 0 0 -1.9500000000000002,1.848 a9.073,9.073 0 0 0 0,7.3260000000000005 a4.351,4.351 0 0 0 1.9500000000000002,1.848 a5.506,5.506 0 0 0 2.316,0.518 z" fill="#757575" opacity="1"/>
      <path id="Trazado_7734" data-name="Trazado 7734" d="M79.27300125598907,69.46428594207764 V61.42328594207764 h8.064 v8.042 zm0,37.643 V73.52228594207763 h8.064 v33.609 z" fill="#757575" opacity="1"/>
      <path id="Trazado_7735" data-name="Trazado 7735" d="M96.85000229358673,107.13128417205812 V73.52228417205811 h5.7 l1.009,2.017 h0.33800000000000047 a10.706,10.706 0 0 1 2.891,-1.848 a11.586,11.586 0 0 1 4.835,-0.8400000000000006 a14.917,14.917 0 0 1 5.246,0.8730000000000007 a7.3260000000000005,7.3260000000000005 0 0 1 3.7640000000000002,3.19 a13.026,13.026 0 0 1 1.409,6.689 v23.527 h-8.053 V83.6032841720581 c0,-2.372 -0.5640000000000006,-3.979 -1.6910000000000007,-4.807 a6.086,6.086 0 0 0 -3.7,-1.24 a5.579,5.579 0 0 0 -2.22,0.4 a4.728,4.728 0 0 0 -1.476,0.9410000000000006 v28.233 z" fill="#757575" opacity="1"/>
      <path id="Trazado_7736" data-name="Trazado 7736" d="M142.90700406360625,107.7842847518921 a14.652000000000001,14.652000000000001 0 0 1 -7.365,-1.6910000000000007 a10.707,10.707 0 0 1 -4.508,-5.551 a27.69,27.69 0 0 1 -1.544,-10.217 a28.007,28.007 0 0 1 1.544,-10.217 a10.8,10.8 0 0 1 4.508,-5.545 a16.675,16.675 0 0 1 14.725,0 a10.661,10.661 0 0 1 4.536,5.545 a27.836,27.836 0 0 1 1.544,10.217 a27.836,27.836 0 0 1 -1.544,10.217 a10.707,10.707 0 0 1 -4.536,5.551 a14.651,14.651 0 0 1 -7.36,1.6910000000000007 zm0,-4.373 a3.973,3.973 0 0 0 2.7560000000000002,-1.127 a8.024,8.024 0 0 0 1.916,-3.9450000000000003 a35.5,35.5 0 0 0 0.7000000000000006,-8.025 a35.388,35.388 0 0 0 -0.7000000000000006,-8.064 a8.092,8.092 0 0 0 -1.916,-3.9450000000000003 a3.979,3.979 0 0 0 -2.7560000000000002,-1.127 a4.024,4.024 0 0 0 -2.7270000000000003,1.127 a7.8100000000000005,7.8100000000000005 0 0 0 -1.944,3.9450000000000003 a35.013,35.013 0 0 0 -0.7100000000000006,8.064 a35.107,35.107 0 0 0 0.7100000000000006,8.036 a7.687,7.687 0 0 0 1.944,3.9450000000000003 a4.018,4.018 0 0 0 2.728,1.138 z" fill="#757575" opacity="1"/>
      <path id="Trazado_7737" data-name="Trazado 7737" d="M33.01900148487091,107.78428548431395 a14.562,14.562 0 0 1 -5.207,-0.907 a7.36,7.36 0 0 1 -3.8,-3.3810000000000002 q-1.4140000000000001,-2.451 -1.4140000000000001,-7.157 v-17.1 h-3.7 v-5.072 h3.7 V66.12828548431396 h8.07 v8.064 H39.743001484870916 v3.725 a31.483,31.483 0 0 1 -3.832,0.907 a26.622,26.622 0 0 1 -4.9,0.44000000000000034 h-0.33800000000000047 v17.142 A10.143,10.143 0 0 0 31.34300148487091,100.53728548431397 a4.2940000000000005,4.2940000000000005 0 0 0 1.6910000000000007,2.017 a4.058,4.058 0 0 0 2.017,0.5640000000000006 h6.041 v3.3810000000000002 a12.771,12.771 0 0 1 -2.215,0.6000000000000006 q-1.4140000000000001,0.3000000000000003 -2.959,0.507 A22.312,22.312 0 0 1 33.01900148487091,107.78428548431395 z" fill="#757575" opacity="1"/>
      <path id="Trazado_7738" data-name="Trazado 7738" d="M81.83000214099883,138.1092840194702 v-20.58 H76.63000214099884 V115.2392840194702 h13.4 v2.2880000000000003 h-5.23 V138.1092840194702 z" fill="#757575" opacity="1"/>
      <path id="Trazado_7739" data-name="Trazado 7739" d="M98.65200265979766,138.434282371521 a6.819,6.819 0 0 1 -3.776,-1.026 a6.48,6.48 0 0 1 -2.418,-3.6 a31.16,31.16 0 0 1 0,-14.274000000000001 a6.6,6.6 0 0 1 2.418,-3.6 a7.45,7.45 0 0 1 7.563,0 a6.5,6.5 0 0 1 2.406,3.6 a31.16,31.16 0 0 1 0,14.274000000000001 a6.494,6.494 0 0 1 -2.406,3.6 a6.763,6.763 0 0 1 -3.787,1.026 zm0,-1.955 a2.936,2.936 0 0 0 1.522,-0.4450000000000004 a3.8770000000000002,3.8770000000000002 0 0 0 1.319,-1.516 a9.856,9.856 0 0 0 0.919,-2.992 a36.179,36.179 0 0 0 0,-9.7 a9.767,9.767 0 0 0 -0.919,-2.987 a3.9,3.9 0 0 0 -1.319,-1.522 a2.851,2.851 0 0 0 -3.043,0 a3.855,3.855 0 0 0 -1.319,1.522 a9.766,9.766 0 0 0 -0.919,2.987 a36.177,36.177 0 0 0 0,9.7 a9.856,9.856 0 0 0 0.919,2.992 a3.837,3.837 0 0 0 1.319,1.516 A2.936,2.936 0 0 0 98.65200265979766,136.478282371521 z" fill="#757575" opacity="1"/>
      <path id="Trazado_7740" data-name="Trazado 7740" d="M116.13299734973907,138.43428401947023 a8.019,8.019 0 0 1 -3.725,-0.7490000000000007 a4.57,4.57 0 0 1 -2.124,-2.5300000000000002 a14.02,14.02 0 0 1 -0.6880000000000009,-4.886 V115.2392840194702 h2.942 v15.029 a13.232,13.232 0 0 0 0.4230000000000003,3.793 a3.252,3.252 0 0 0 6.34,0 a13.232,13.232 0 0 0 0.4230000000000003,-3.793 V115.2392840194702 h2.942 v15.029 a14.021,14.021 0 0 1 -0.6880000000000009,4.886 a4.57,4.57 0 0 1 -2.124,2.5300000000000002 A8.008,8.008 0 0 1 116.13299734973907,138.43428401947023 z" fill="#757575" opacity="1"/>
      <path id="Trazado_7741" data-name="Trazado 7741" d="M127.24000137805939,138.1072867050171 V115.5682867050171 a15.936,15.936 0 0 1 2.5,-0.507 a24.079,24.079 0 0 1 2.7270000000000003,-0.14700000000000016 a10.07,10.07 0 0 1 4.2,0.7380000000000007 a4.457,4.457 0 0 1 2.2880000000000003,2.446 a12.616,12.616 0 0 1 0.7000000000000006,4.66 a14.972,14.972 0 0 1 -0.37200000000000033,3.64 a5.663,5.663 0 0 1 -1.093,2.2880000000000003 a4.553,4.553 0 0 1 -1.8,1.2570000000000001 l3.9450000000000003,8.165 H137.0400013780594 l-3.6,-7.5120000000000005 h-3.2800000000000002 v7.5120000000000005 zm2.925,-9.8 h2.2880000000000003 a4.029,4.029 0 0 0 3.235,-1.189 q1.014,-1.189 1.014,-4.362 a10.611,10.611 0 0 0 -0.4450000000000004,-3.466 a3.009,3.009 0 0 0 -1.3860000000000001,-1.747 a5.072,5.072 0 0 0 -2.418,-0.507 h-2.2880000000000003 z" fill="#757575" opacity="1"/>
      <path id="Trazado_7742" data-name="Trazado 7742" d="M147.82000034046172,138.434282371521 a18.077,18.077 0 0 1 -2.818,-0.20800000000000016 a16.286,16.286 0 0 1 -2.091,-0.4450000000000004 v-1.465 h4.249 q2.818,0 3.9450000000000003,-1 a3.916,3.916 0 0 0 1.127,-3.088 a3.539,3.539 0 0 0 -0.6710000000000009,-2.254 a5.336,5.336 0 0 0 -1.7360000000000002,-1.3860000000000001 c-0.7000000000000006,-0.37200000000000033 -1.46,-0.7330000000000007 -2.254,-1.082 a12.268,12.268 0 0 1 -2.254,-1.29 a5.8,5.8 0 0 1 -1.73,-2.04 a7.27,7.27 0 0 1 -0.6710000000000009,-3.3810000000000002 a5.871,5.871 0 0 1 1.522,-4.412 a6.527,6.527 0 0 1 4.689,-1.471 a19.826,19.826 0 0 1 2.818,0.2 a10.844,10.844 0 0 1 2.074,0.456 v1.471 h-4.243 a4.041,4.041 0 0 0 -2.942,0.9640000000000006 a3.742,3.742 0 0 0 -0.98,2.818 a3.9450000000000003,3.9450000000000003 0 0 0 0.6710000000000009,2.4 a5.2,5.2 0 0 0 1.73,1.471 c0.7100000000000006,0.37800000000000034 1.46,0.7490000000000007 2.254,1.127 a14.242,14.242 0 0 1 2.254,1.274 a5.573,5.573 0 0 1 1.73,1.961 a6.643,6.643 0 0 1 0.6710000000000009,3.218 a6.081,6.081 0 0 1 -1.645,4.689 Q151.87200034046174,138.473282371521 147.82000034046172,138.434282371521 z" fill="#757575" opacity="1"/>
    </g>
  </g></g></svg>