<?xml version="1.0" encoding="utf-8"?>
<!-- Generator: Adobe Illustrator 24.0.1, SVG Export Plug-In . SVG Version: 6.00 Build 0)  -->
<svg version="1.1" id="Layer_1" xmlns="http://www.w3.org/2000/svg" xmlns:xlink="http://www.w3.org/1999/xlink" x="0px" y="0px"
	 viewBox="0 0 40 40" style="enable-background:new 0 0 40 40;" xml:space="preserve">
<style type="text/css">
	.st0{fill:none;}
	.st1{fill:#FFFFFF;}
</style>
<g id="Grupo_6578" transform="translate(-979 -1675)">
	<g id="Elipse_14">
		<g id="Grupo_6576">
			<ellipse id="Elipse_7161" class="st0" cx="999.5" cy="1695" rx="19.5" ry="20"/>
		</g>
		<g id="Grupo_6577">
			<path id="Trazado_13197" class="st1" d="M999.5,1715c-11,0.3-20.2-8.4-20.5-19.5c-0.3-11,8.4-20.2,19.5-20.5
				c11-0.3,20.2,8.4,20.5,19.5c0,0.2,0,0.3,0,0.5C1019.1,1705.9,1010.4,1714.8,999.5,1715z M999.5,1677c-9.9-0.3-18.2,7.6-18.5,17.5
				c-0.3,9.9,7.6,18.2,17.5,18.5c9.9,0.3,18.2-7.6,18.5-17.5c0-0.2,0-0.3,0-0.5C1017.1,1685.2,1009.3,1677.2,999.5,1677z"/>
		</g>
	</g>
	<path id="Trazado_13198" class="st1" d="M997.3,1689.1L997.3,1689.1c0.1-0.2,0-0.3,0-0.3c0,0,0,0,0,0c0-0.1,0-0.1,0-0.2l0-0.1
		c0,0,0-0.1,0-0.2l0,0l0,0c0,0,0-0.1,0-0.1l0,0c0,0,0-0.1,0-0.1l0,0v0c0,0,0-0.1,0-0.1l0,0c0,0,0-0.1,0-0.1l0,0c0,0,0-0.1,0-0.1l0,0
		c0,0,0-0.1,0-0.1c0,0,0,0,0,0c0,0,0,0,0,0c0,0,0-0.1,0-0.1l0,0c0,0,0-0.1,0-0.1l0,0c0,0,0,0,0-0.1l0,0v0c0,0,0,0,0-0.1l0,0
		c0,0,0-0.1,0-0.1l0,0l0,0c0,0,0,0,0,0c0,0,0,0,0,0c0,0,0,0,0-0.1l0,0c0,0,0,0,0,0v0c0,0,0-0.1,0.1-0.1l0,0c0,0,0,0,0,0l0,0
		c0,0,0-0.1,0.1-0.1l0,0c0,0,0,0,0,0l0,0c0,0,0,0,0,0l0,0c0,0,0,0,0,0l0,0c0,0,0,0,0,0l0,0c0,0,0,0,0,0l0,0c0,0,0,0,0,0l0,0
		c0,0,0,0,0,0l0,0c0,0,0,0,0,0l0,0c0,0,0,0,0,0l0,0c0,0,0,0,0,0l0,0c0,0,0.1-0.1,0.1-0.1l0,0c0,0,0,0,0,0l0,0c0,0,0,0,0.1,0l0,0
		c0,0,0.1,0,0.1-0.1l0,0c0,0,0,0,0.1,0l0,0c0,0,0.1,0,0.1-0.1l0,0c0,0,0.1,0,0.1,0h0c0,0,0,0,0.1,0c0,0,0,0,0,0c0,0,0,0,0,0
		c0,0,0,0,0,0l0,0c0,0,0.1,0,0.1,0l0,0c0,0,0.1,0,0.1,0c0,0,0,0,0,0c0,0,0,0,0,0c0,0,0,0,0.1,0c0,0,0,0,0,0c0,0,0.1,0,0.1,0l0,0
		c0,0,0.1,0,0.1,0l0,0l0,0c0,0,0.1,0,0.1,0c0,0,0,0,0,0c0,0,0,0,0,0c0,0,0.1,0,0.1,0l0,0c0,0,0.1,0,0.1,0c0,0,0,0,0,0c0,0,0,0,0,0
		c0.1,0,0.1,0,0.2,0l0,0c0.1,0,0.1,0,0.2,0l0.1,0c0.1,0,0.2,0,0.3,0c0.1,0,0.2,0,0.2,0c0.2,0,0.5,0,0.7,0c0.2,0,0.4,0,0.6,0
		c0.2,0,0.4,0,0.6,0c0.1,0,0.2,0,0.2,0c0.1,0,0.2,0,0.4,0c0.1,0,0.1,0,0.2,0c0.1,0,0.1,0,0.2,0.1v2.9c-0.1,0.1-0.1,0-0.2,0
		c-0.6,0-1.2,0-1.8,0c-0.1,0-0.1,0-0.2,0l0,0l0,0c-0.1,0.1-0.2,0-0.2,0l0,0c0,0-0.1,0-0.1,0l0,0c0,0.1-0.1,0-0.1,0l0,0
		c0,0-0.1,0-0.1,0l0,0c0,0-0.1,0-0.1,0h0c0,0,0,0,0,0l0,0c0,0,0,0,0,0l0,0c0,0,0,0,0,0l0,0c0,0,0,0,0,0l0,0c0,0,0,0,0,0.1l0,0
		c0,0,0,0,0,0.1l0,0c0,0,0,0.1-0.1,0.1l0,0c0,0,0,0.1,0,0.1l0,0c0,0,0,0.1,0,0.1l0,0c0,0,0,0.1,0,0.1l0,0l0,0c0,0,0,0.1,0,0.1l0,0.1
		c0,0.2,0,0.4,0,0.6c0,0.6,0,1.2,0,1.7c0,0.1,0,0.1,0,0.2c0.1,0,0.2,0,0.2,0h3c0,0,0,0.1,0,0.1l0,0.1c0,0.1,0,0.2,0,0.3
		c0,0,0,0,0,0.1c0,0.1,0,0.2,0,0.3c0,0,0,0,0,0.1c0,0.1,0,0.2,0,0.2l0,0.1c0,0.1,0,0.2,0,0.3l0,0.1c0,0.1,0,0.2,0,0.3c0,0,0,0,0,0.1
		c0,0.1,0,0.2,0,0.3c0,0,0,0,0,0.1c0,0.1,0,0.2,0,0.2l0,0.1c0,0.1,0,0.2,0,0.3l0,0.1c0,0.1,0,0.2,0,0.3c0,0,0,0,0,0.1
		c0,0.1-0.1,0.1-0.2,0.1c-0.8,0-1.6,0-2.4,0c-0.2,0-0.2,0-0.2,0.2c0,2.6,0,5.3,0,7.9c0,0.1,0,0.2,0,0.2l0,0c-0.1,0.1-0.1,0-0.2,0
		c-1,0-2,0-2.9,0c-0.2,0-0.2,0-0.2-0.2v-7.9c0-0.3,0-0.3-0.3-0.3c-0.8,0-1.6,0-2.3,0c-0.1,0-0.2,0-0.2,0v0c0,0,0-0.1,0-0.1
		c0-1,0-2,0-3c0,0,0-0.1,0-0.1h2.6c0.1,0,0.2,0,0.2,0c0-0.1,0-0.2,0-0.2c0-0.8,0-1.7,0-2.5C997.3,1689.2,997.3,1689.1,997.3,1689.1z
		"/>
</g>
</svg>
