<?xml version="1.0" encoding="utf-8"?>
<!-- Generator: Adobe Illustrator 24.0.1, SVG Export Plug-In . SVG Version: 6.00 Build 0)  -->
<svg version="1.1" id="Layer_1" xmlns="http://www.w3.org/2000/svg" xmlns:xlink="http://www.w3.org/1999/xlink" x="0px" y="0px"
	 viewBox="0 0 40 40" style="enable-background:new 0 0 40 40;" xml:space="preserve">
<style type="text/css">
	.st0{fill:none;}
	.st1{fill:#FFFFFF;}
</style>
<g id="Grupo_6587" transform="translate(-1123 -1675)">
	<g id="Elipse_17">
		<g id="Grupo_6585">
			<circle id="Elipse_7164" class="st0" cx="1143" cy="1695" r="20"/>
		</g>
		<g id="Grupo_6586">
			<path id="Trazado_13205" class="st1" d="M1143,1715c-11,0-20-9-20-20s9-20,20-20s20,9,20,20S1154.1,1715,1143,1715z M1143,1677
				c-9.9,0-18,8.1-18,18s8.1,18,18,18s18-8.1,18-18S1153,1677,1143,1677z"/>
		</g>
	</g>
	<path id="Trazado_13206" class="st1" d="M1151,1693.5c0-0.1,0-0.1,0-0.2c0-0.3,0-0.5,0-0.8c0-0.1,0-0.1,0-0.2c0-0.2,0-0.3,0-0.5
		v-0.1c0-0.1,0-0.2,0-0.2v-0.1c0-0.1,0-0.1,0-0.2l0,0c0-0.1,0-0.1,0-0.2l0,0c0-0.1,0-0.1,0-0.2l0,0v-0.1l0,0v-0.1l0,0v-0.1l0,0v-0.1
		l0,0v-0.1l0,0v-0.1v-0.1l0,0c0,0,0,0,0-0.1l0,0v-0.1v-0.1v-0.1v-0.1l0,0l0,0c0,0,0,0,0-0.1v-0.1l0,0l0,0c0,0,0,0,0-0.1l0,0l0,0
		c0,0,0,0,0-0.1l0,0l0,0v-0.1l0,0l0,0l0,0l0,0v-0.1c0,0,0,0,0-0.1l0,0l0,0l-0.1-0.1l0,0l0,0l0,0l0,0l0,0l0,0c0,0,0,0-0.1,0l0,0l0,0
		l0,0l0,0l0,0c0,0,0,0-0.1,0c0,0-0.1,0-0.1-0.1l0,0c0,0,0,0-0.1,0l0,0l0,0c0,0,0,0-0.1,0s0,0,0,0l0,0c0,0,0,0-0.1,0l0,0l0,0l0,0l0,0
		h-0.1h-0.1h-0.1h-0.1l0,0l0,0l0,0c0,0,0,0-0.1,0s0,0,0,0h-0.1l0,0h-0.1l0,0c0,0,0,0-0.1,0c0,0,0,0-0.1,0h-0.1l0,0h-0.1l0,0h-0.1
		l0,0h-0.1c0,0,0,0-0.1,0h-0.1c0,0,0,0-0.1,0s-0.1,0-0.2,0h-0.1c-0.1,0-0.1,0-0.2,0s-0.1,0-0.2,0s-0.2,0-0.3,0c-0.1,0-0.3,0-0.4,0
		c-0.2,0-0.4,0-0.5,0h-5.2c-0.2,0-0.4,0-0.5,0s-0.3,0-0.4,0s-0.2,0-0.3,0c-0.1,0-0.1,0-0.2,0s-0.1,0-0.2,0s-0.1,0-0.1,0h-0.1h-0.1
		h-0.1h-0.1h-0.1c0,0,0,0-0.1,0h-0.1l0,0h-0.1c0,0,0,0-0.1,0s-0.1,0-0.1,0l0,0c0,0,0,0-0.1,0s0,0-0.1,0s0,0-0.1,0s0,0,0,0h-0.1l0,0
		c0,0,0,0-0.1,0l0,0h-0.1h-0.1l0,0c0,0,0,0-0.1,0l0,0c0,0,0,0-0.1,0l0,0c0,0,0,0-0.1,0h-0.1l0,0l0,0c0,0,0,0-0.1,0l0,0h-0.1l0,0
		c0,0-0.1,0-0.1,0.1l0,0l0,0l0,0c0,0,0,0-0.1,0l0,0l0,0l0,0c0,0,0,0-0.1,0l-0.1,0.1l0,0l0,0c0,0,0,0.1-0.1,0.1l0,0l0,0l0,0l0,0l0,0
		l0,0l0,0l0,0v0.1l0,0l0,0l0,0l0,0v0.1l0,0l0,0v0.1l0,0c0,0,0,0.1-0.1,0.1l0,0l0,0v0.1v0.1l0,0v0.1c0,0,0,0,0,0.1l0,0c0,0,0,0,0,0.1
		l0,0v0.1c0,0,0,0,0,0.1v0.1l0,0v0.1v0.1l0,0v0.1l0,0v0.1l0,0v0.1l0,0v0.1l0,0l0,0c0,0,0,0.1,0,0.2l0,0v0.1v0.1c0,0.1,0,0.1,0,0.2
		c0,0,0,0,0,0.1s0,0.2,0,0.2v0.1c0,0.1,0,0.3,0,0.4s0,0.1,0,0.2c-0.1,0.3,0,0.5,0,0.8c0,0.2,0,0.4,0,0.6v0.1v3.7v0.1
		c0,0.2,0,0.4,0,0.6c0,0.3,0,0.5,0,0.8c0,0.1,0,0.1,0,0.2c0.1,0.1,0,0.3,0,0.4v0.1c0,0.1,0,0.1,0,0.2v0.1c0,0.1,0,0.1,0,0.2l0,0
		c0,0,0,0.1,0,0.2l0,0v0.1l0,0v0.1l0,0v0.1v0.1l0,0v0.1v0.1l0,0v0.1l0,0c0,0,0,0,0,0.1l0,0v0.1v0.1v0.1v0.1v0.1c0,0,0,0.1,0.1,0.1
		l0,0l0,0c0,0,0,0,0,0.1v0.1c0,0,0,0,0,0.1s0,0.1,0,0.1s0,0,0,0.1l0,0c0,0,0,0.1,0.1,0.1l0,0l0,0l0,0c0,0,0,0.1,0.1,0.1l0,0l0,0l0,0
		l0,0l0,0l0,0l0,0l0,0l0.1,0.1l0,0l0,0c0,0,0,0,0.1,0l0,0l0,0l0,0l0,0l0,0c0,0,0,0,0.1,0s0,0,0,0l0,0l0,0c0,0,0,0,0.1,0l0,0l0,0
		c0,0,0,0,0.1,0l0,0l0,0h0.1c0,0,0,0,0.1,0s0,0,0,0l0,0l0,0l0,0l0,0l0,0l0,0c0,0,0,0,0.1,0l0,0l0,0l0,0c0,0,0,0,0.1,0l0,0l0,0h0.1
		l0,0c0,0,0,0,0.1,0l0,0h0.1l0,0l0,0h0.1l0,0l0,0h0.1l0,0l0,0h0.1c0,0,0,0,0.1,0h0.1c0,0,0,0,0.1,0h0.1h0.1h0.1c0,0,0,0,0.1,0
		s0.1,0,0.2,0s0.1,0,0.1,0c0.1,0,0.1,0,0.2,0s0.1,0,0.2,0s0.2,0,0.3,0c0.2,0,0.3,0,0.4,0c0.3,0,0.5,0,0.8,0h4.2c0.3,0,0.5,0,0.8,0
		c0.2,0,0.3,0,0.5,0c0.1,0,0.2,0,0.3,0c0.1,0,0.1,0,0.2,0s0.1,0,0.2,0s0.1,0,0.2,0h0.1h0.1h0.1c0,0,0,0,0.1,0h0.1c0,0,0,0,0.1,0h0.1
		l0,0l0,0h0.1c0,0,0,0,0.1,0h0.1l0,0l0,0h0.1l0,0l0,0c0,0,0,0,0.1,0s0,0,0.1,0c0,0,0,0,0.1,0l0,0l0,0h0.1h0.1l0,0l0,0c0,0,0,0,0.1,0
		s0,0,0,0l0,0l0,0c0,0,0,0,0.1,0l0,0l0,0l0,0c0,0,0,0,0.1,0l0,0l0,0c0,0,0,0,0.1,0l0,0l0,0c0,0,0,0,0.1,0c0,0,0.1,0,0.1-0.1l0,0l0,0
		l0,0h0.1l0,0l0,0c0,0,0.1,0,0.1-0.1l0,0l0,0l0,0l0,0l0,0l0,0c0,0,0.1,0,0.1-0.1l0,0l0.1-0.1l0,0l0,0l0,0l0,0l0,0c0,0,0-0.1,0.1-0.1
		l0,0l0,0l0,0l0,0l0,0c0,0,0,0,0-0.1c0,0,0-0.1,0.1-0.1l0,0c0,0,0,0,0-0.1v-0.1c0,0,0,0,0-0.1c0,0,0-0.1,0.1-0.1l0,0l0,0v-0.1
		c0,0,0,0,0-0.1l0,0c0,0,0,0,0-0.1l0,0c0,0,0,0,0-0.1v-0.1v-0.1l0,0c0,0,0,0,0-0.1l0,0v-0.1v-0.1l0,0c0,0,0,0,0-0.1l0,0v-0.1l0,0
		v-0.1l0,0v-0.1l0,0v-0.1l0,0v-0.1l0,0c0-0.1,0-0.1,0-0.2l0,0c0-0.1,0-0.1,0-0.2l0,0c0-0.1,0-0.1,0-0.2v-0.1c0-0.1,0-0.2,0-0.2v-0.1
		c0-0.2,0-0.3,0-0.5c0-0.1,0-0.1,0-0.2s0-0.2,0-0.2c0-0.3,0-0.5,0-0.8c0-0.1,0-0.1,0-0.2c0-1.1,0-2.3,0-3.4V1693.5z M1149.4,1697.3
		c0,0.7,0,1.3-0.1,2c0,0.4-0.1,0.9-0.3,1.3c-0.3,0.9-1,1.5-1.9,1.7c-0.5,0.1-0.9,0.2-1.4,0.2c-1.7,0.1-3.4,0-5.1,0
		c-0.6,0-1.1,0-1.7-0.1c-0.4,0-0.7-0.1-1.1-0.2c-1-0.3-1.7-1.1-1.9-2.1c-0.1-0.4-0.1-0.8-0.2-1.2c-0.1-1.1,0-2.2,0-3.2
		c0-0.8,0-1.6,0-2.4c0-0.6,0-1.1,0.1-1.7s0.3-1.2,0.7-1.7c0.5-0.5,1.1-0.9,1.8-1c0.3-0.1,0.7-0.1,1-0.1c1.5-0.1,3.1,0,4.6,0
		c0.6,0,1.3,0,1.9,0c0.5,0,1,0.1,1.5,0.2c0.9,0.3,1.6,1,1.8,1.9c0.1,0.4,0.2,0.7,0.2,1.1C1149.5,1693.8,1149.4,1695.6,1149.4,1697.3
		z"/>
	<path id="Trazado_13207" class="st1" d="M1142.6,1691.3c-2.4,0-4.3,1.9-4.3,4.3s1.9,4.3,4.3,4.3s4.3-1.9,4.3-4.3l0,0
		C1146.9,1693.3,1145,1691.4,1142.6,1691.3L1142.6,1691.3z M1142.6,1698.4c-1.5,0-2.8-1.3-2.7-2.8c0-1.5,1.3-2.8,2.8-2.7
		c1.5,0,2.8,1.3,2.7,2.8C1145.4,1697.2,1144.1,1698.4,1142.6,1698.4L1142.6,1698.4z"/>
	<path id="Trazado_13208" class="st1" d="M1148.1,1691.2c0,0.6-0.5,1-1,1c-0.6,0-1-0.5-1-1c0-0.6,0.5-1,1-1
		S1148.1,1690.6,1148.1,1691.2L1148.1,1691.2z"/>
</g>
</svg>
