<?xml version="1.0" encoding="utf-8"?>
<!-- Generator: Adobe Illustrator 24.0.1, SVG Export Plug-In . SVG Version: 6.00 Build 0)  -->
<svg version="1.1" id="Layer_1" xmlns="http://www.w3.org/2000/svg" xmlns:xlink="http://www.w3.org/1999/xlink" x="0px" y="0px"
	 viewBox="0 0 40 40" style="enable-background:new 0 0 40 40;" xml:space="preserve">
<style type="text/css">
	.st0{fill:none;}
	.st1{fill:#FFFFFF;}
</style>
<g id="Grupo_6584" transform="translate(-1075 -1675)">
	<g id="Elipse_16">
		<g id="Grupo_6582">
			<ellipse id="Elipse_7163" class="st0" cx="1095.5" cy="1695" rx="19.5" ry="20"/>
		</g>
		<g id="Grupo_6583">
			<path id="Trazado_13201" class="st1" d="M1095.5,1715c-11,0.3-20.2-8.4-20.5-19.5c-0.3-11,8.4-20.2,19.5-20.5
				c11-0.3,20.2,8.4,20.5,19.5c0,0.2,0,0.3,0,0.5C1115.1,1705.9,1106.4,1714.8,1095.5,1715z M1095.5,1677
				c-9.9-0.3-18.2,7.6-18.5,17.5c-0.3,9.9,7.6,18.2,17.5,18.5s18.2-7.6,18.5-17.5c0-0.2,0-0.3,0-0.5
				C1113.1,1685.2,1105.3,1677.2,1095.5,1677z"/>
		</g>
	</g>
	<path id="Trazado_13202" class="st1" d="M1097.4,1692.7C1097.4,1692.7,1097.4,1692.7,1097.4,1692.7
		C1097.4,1692.6,1097.5,1692.6,1097.4,1692.7L1097.4,1692.7c0.1-0.1,0.1-0.1,0.1-0.1l0,0c0,0,0,0,0,0c0,0,0,0,0,0c0,0,0,0,0-0.1l0,0
		c0,0,0,0,0,0l0,0c0,0,0,0,0,0l0,0c0,0,0,0,0,0l0,0c0,0,0,0,0,0l0,0c0,0,0,0,0,0l0,0c0,0,0,0,0,0l0,0c0,0,0,0,0,0l0,0c0,0,0,0,0,0
		l0,0c0,0,0,0,0.1,0c0,0,0,0,0,0c0,0,0,0,0,0l0,0c0,0,0,0,0,0l0,0c0,0,0,0,0,0v0c0,0,0.1,0,0.1-0.1l0,0c0,0,0,0,0,0l0,0
		c0,0,0.1,0,0.1,0l0,0c0,0,0,0,0.1,0c0,0,0,0,0,0c0,0,0,0,0,0l0,0c0,0,0.1,0,0.1,0l0,0c0,0,0.1,0,0.1,0l0,0c0,0,0.1,0,0.1,0l0,0
		c0,0,0.1,0,0.1,0c0,0,0,0,0,0c0,0,0,0,0.1,0c0,0,0,0,0,0c0,0,0.1,0,0.1,0c0,0,0,0,0,0c0,0,0.1,0,0.1,0c0,0,0,0,0,0c0,0,0.1,0,0.1,0
		l0.1,0c0,0,0.1,0,0.1,0l0.1,0c0,0,0.1,0,0.1,0l0.1,0c0.1,0,0.1,0,0.2,0h0.8c0.1,0,0.2,0,0.3,0l0.2,0c0,0,0.1,0,0.1,0l0.1,0
		c0,0,0.1,0,0.1,0l0.1,0c0,0,0.1,0,0.1,0l0.1,0c0,0,0.1,0,0.1,0c0,0,0,0,0,0c0,0,0.1,0,0.1,0c0,0,0,0,0,0c0,0,0.1,0,0.1,0
		c0,0,0,0,0,0c0,0,0,0,0,0c0,0,0,0,0.1,0c0,0,0,0,0,0c0,0,0,0,0.1,0c0,0,0,0,0,0l0,0c0,0,0,0,0,0l0,0c0,0,0,0,0,0c0,0,0,0,0.1,0
		c0,0,0,0,0,0c0,0,0,0,0,0c0,0,0,0,0.1,0l0,0c0,0,0,0,0,0c0,0,0,0,0,0c0,0,0,0,0.1,0l0,0c0,0,0,0,0,0h0c0,0,0.1,0,0.1,0.1l0,0
		c0,0,0,0,0,0l0,0c0,0,0,0,0,0l0,0c0,0,0,0,0,0l0,0c0,0,0,0,0,0l0,0c0,0,0,0,0,0l0,0c0,0,0,0,0,0l0,0c0,0,0,0,0,0l0,0c0,0,0,0,0,0
		l0,0c0,0,0,0,0,0l0,0c0,0,0,0,0,0l0,0c0,0,0,0,0,0h0c0,0,0,0.1,0.1,0.1l0,0c0,0,0,0,0,0l0,0c0,0,0,0,0,0.1c0,0,0,0,0,0c0,0,0,0,0,0
		l0,0c0,0,0,0.1,0,0.1l0,0c0,0,0,0,0,0.1c0,0,0,0,0,0c0,0,0,0,0,0l0,0c0,0,0,0.1,0,0.1l0,0c0,0,0,0.1,0,0.1l0,0c0,0,0,0.1,0,0.1
		c0,0,0,0,0,0c0,0,0,0.1,0,0.1l0,0c0,0,0,0.1,0,0.1c0,0,0,0,0,0c0,0,0,0.1,0,0.1c0,0,0,0,0,0c0,0,0,0.1,0,0.1c0,0,0,0,0,0
		c0,0,0,0.1,0,0.1c0,0,0,0,0,0c0,0,0,0,0,0c0,0,0,0.1,0,0.1c0,0,0,0,0,0l0,0c0,0.1,0,0.1,0,0.2c0,0,0,0,0,0c0,0.1,0,0.1,0,0.2
		c0,0,0,0,0,0c0,0.1,0,0.2,0,0.2l0,0.1c0,0.1,0,0.2,0,0.3c0,0,0,0.1,0,0.1c0,0.2,0,0.3,0,0.5c0,0.1,0,0.2,0,0.4c0,0.1,0,0.1,0,0.2
		c0,1.9,0,3.7,0,5.6c0,0.2,0,0.2-0.2,0.2c-0.9,0-1.9,0-2.8,0c-0.2,0-0.2-0.1-0.2-0.2c0-1.8,0-3.7,0-5.5c0-0.1,0-0.2,0-0.2
		c0,0,0-0.1,0-0.1c0-0.1,0-0.2,0-0.2l0-0.1c0-0.1,0-0.1,0-0.2c0,0,0,0,0,0c0,0,0-0.1,0-0.1c0,0,0,0,0,0c0,0,0,0,0,0c0,0,0-0.1,0-0.1
		l0,0c0,0,0-0.1,0-0.1c0,0,0,0,0,0c0,0,0,0,0-0.1c0,0,0,0,0,0c0,0,0,0,0-0.1c0,0,0,0,0,0c0,0,0,0,0,0l0,0c0,0,0,0,0-0.1c0,0,0,0,0,0
		c0,0,0,0,0,0c0,0,0,0,0,0l0,0c0,0,0,0,0,0l0,0c0,0,0,0,0,0l0,0c0,0,0,0,0,0l0,0c0,0,0,0,0,0l0,0c0,0,0,0,0,0l0,0c0,0,0,0,0,0
		c0,0,0,0,0,0c0,0,0,0-0.1,0l0,0c0,0,0,0,0,0l0,0c0,0,0,0,0,0l0,0c0,0-0.1,0-0.1,0l0,0h0c0,0-0.1,0-0.1,0l-0.1,0c0,0-0.1,0-0.1,0
		c-0.2,0-0.4,0-0.6,0c0,0-0.1,0-0.1,0l-0.1,0c0,0-0.1,0-0.1,0h0l0,0c0,0-0.1,0-0.1,0h0l0,0c0,0,0,0-0.1,0h0l0,0c0,0-0.1,0-0.1,0l0,0
		c0,0,0,0-0.1,0c0,0,0,0,0,0c0,0,0,0,0,0l0,0c0,0,0,0-0.1,0c0,0,0,0,0,0c0,0,0,0,0,0l0,0c0,0,0,0,0,0l0,0c0,0,0,0,0,0l0,0
		c0,0,0,0,0,0l0,0c0,0,0,0,0,0l0,0c0,0,0,0.1-0.1,0.1h0c0,0,0,0,0,0l0,0c0,0,0,0,0,0c0,0,0,0,0,0c0,0,0,0,0,0.1l0,0c0,0,0,0.1,0,0.1
		l0,0c0,0,0,0.1,0,0.1l0,0c0,0,0,0.1,0,0.1c0,0,0,0,0,0c0,0,0,0.1,0,0.1c0,0,0,0,0,0c0,0,0,0.1,0,0.1c0,0,0,0,0,0c0,0,0,0.1,0,0.1
		c0,0,0,0,0,0c0,0.1,0,0.1,0,0.2c0,0,0,0,0,0c0,0.1,0,0.2,0,0.3c0,0.1,0,0.1,0,0.2c0,0.1,0,0.1,0,0.2c0,1.7,0,3.4,0,5.1
		c0,0.2,0,0.2-0.2,0.2c-0.9,0-1.9,0-2.8,0c-0.2,0-0.2,0-0.2-0.2c0-3.3,0-6.7,0-10c0-0.1,0-0.1,0-0.2h3c0.1,0.1,0,0.2,0,0.3
		c0,0.3,0,0.6,0,0.9c0,0.1-0.1,0.1,0.1,0.2l0,0C1097.3,1692.8,1097.4,1692.8,1097.4,1692.7
		C1097.4,1692.8,1097.4,1692.8,1097.4,1692.7C1097.4,1692.7,1097.4,1692.7,1097.4,1692.7L1097.4,1692.7
		C1097.4,1692.7,1097.4,1692.7,1097.4,1692.7z"/>
	<path id="Trazado_13203" class="st1" d="M1088.9,1691.5h3.2c0.1,0.1,0,0.1,0,0.2c0,3.3,0,6.6,0,9.9c0,0.2,0,0.2-0.2,0.2
		c-0.9,0-1.9,0-2.8,0c-0.2,0-0.2,0-0.2-0.2c0-3.3,0-6.7,0-10C1088.9,1691.7,1088.9,1691.6,1088.9,1691.5z"/>
	<path id="Trazado_13204" class="st1" d="M1092.2,1687.5C1092.2,1687.5,1092.2,1687.5,1092.2,1687.5c0,0.1,0,0.1,0,0.1l0,0
		c0,0,0,0.1,0,0.1c0,0,0,0,0,0c0,0,0,0.1,0,0.1c0,0,0,0,0,0c0,0,0,0,0,0c0,0.1,0,0.1,0,0.2l0,0.1c0,0.1,0,0.3,0,0.4l0,0.1
		c0,0.1,0,0.1,0,0.2c0,0,0,0,0,0c0,0,0,0.1,0,0.1c0,0,0,0,0,0c0,0,0,0.1,0,0.1c0,0,0,0,0,0c0,0,0,0,0,0.1c0,0,0,0,0,0l0,0
		c0,0,0,0,0,0c0,0,0,0,0,0.1c0,0,0,0,0,0c0,0,0,0,0,0c0,0,0,0,0,0.1l0,0c0,0,0,0,0,0c0,0,0,0,0,0c0,0,0,0,0,0.1l0,0c0,0,0,0,0,0l0,0
		c0,0,0,0,0,0l0,0c0,0,0,0,0,0l0,0c0,0,0,0,0,0l0,0c0,0,0,0,0,0l0,0c0,0,0,0,0,0l0,0c0,0,0,0,0,0l0,0c0,0,0,0,0,0l0,0c0,0,0,0-0.1,0
		c0,0,0,0,0,0c0,0,0,0,0,0c0,0,0,0-0.1,0c0,0,0,0,0,0l0,0c0,0,0,0,0,0c0,0,0,0,0,0l0,0c0,0,0,0,0,0h0l0,0c0,0,0,0-0.1,0l-0.1,0
		c0,0-0.1,0-0.1,0l0,0c0,0-0.1,0-0.1,0l-0.1,0c-0.1,0-0.3,0-0.4,0l-0.1,0c0,0-0.1,0-0.1,0l-0.1,0c0,0,0,0-0.1,0l-0.1,0
		c0,0,0,0-0.1,0c0,0,0,0,0,0c0,0-0.1,0-0.1,0l0,0c0,0-0.1,0-0.1,0l0,0c0,0,0,0,0,0c0,0,0,0,0,0c0,0,0,0-0.1,0l0,0c0,0-0.1,0-0.1-0.1
		l0,0c0,0,0,0,0,0l0,0c0,0,0,0,0,0l0,0c0,0,0,0,0,0l0,0c0,0-0.1,0-0.1-0.1v0c0,0,0,0,0,0l0,0c0,0,0-0.1-0.1-0.1l0,0c0,0,0,0,0,0l0,0
		c0,0,0,0,0,0l0,0c0,0,0,0,0,0l0,0c0,0,0-0.1-0.1-0.1l0,0c0,0,0,0,0,0l0,0c0,0,0-0.1,0-0.1l0,0c0,0,0-0.1,0-0.1l0,0c0,0,0-0.1,0-0.1
		l0,0c0,0,0-0.1,0-0.1c0,0,0,0,0,0c0,0,0,0,0,0c0,0,0-0.1,0-0.1l0,0c0,0,0-0.1,0-0.1l0-0.1c0-0.2,0-0.3,0-0.5l0-0.1c0,0,0-0.1,0-0.1
		c0,0,0,0,0,0c0,0,0-0.1,0-0.1l0,0c0,0,0-0.1,0-0.1c0,0,0,0,0,0c0,0,0-0.1,0-0.1l0,0c0,0,0-0.1,0-0.1l0,0c0,0,0,0,0,0c0,0,0,0,0,0
		c0,0,0,0,0,0c0,0,0,0,0-0.1l0,0c0,0,0,0,0,0c0,0,0,0,0,0c0,0,0,0,0,0c0,0,0,0,0-0.1l0,0c0,0,0,0,0,0l0,0c0,0,0,0,0,0l0,0
		c0,0,0,0,0,0l0,0c0,0,0,0,0,0l0,0c0,0,0,0,0,0l0,0c0,0,0,0,0,0l0,0c0,0,0,0,0,0l0,0c0,0,0,0,0,0l0,0c0,0,0.1,0,0.1-0.1l0,0
		c0,0,0,0,0,0l0,0c0,0,0.1,0,0.1,0l0,0c0,0,0,0,0.1,0c0,0,0,0,0,0c0,0,0,0,0.1,0c0,0,0,0,0,0c0,0,0,0,0.1,0c0,0,0,0,0,0c0,0,0,0,0,0
		c0,0,0.1,0,0.1,0c0,0,0,0,0,0c0,0,0.1,0,0.1,0l0.1,0c0,0,0.1,0,0.1,0h0.5c0,0,0.1,0,0.1,0l0.1,0c0,0,0.1,0,0.1,0c0,0,0,0,0,0
		c0,0,0,0,0.1,0l0,0c0,0,0.1,0,0.1,0c0,0,0,0,0,0c0,0,0,0,0.1,0c0,0,0,0,0,0c0,0,0,0,0.1,0l0,0c0,0,0.1,0,0.1,0l0,0c0,0,0,0,0,0l0,0
		c0,0,0,0,0,0c0,0,0,0,0,0c0,0,0,0,0.1,0l0,0c0,0,0,0,0,0l0,0c0,0,0,0,0,0l0,0c0,0,0,0,0,0l0,0c0,0,0,0,0,0l0,0c0,0,0,0,0,0l0,0
		c0,0,0,0,0,0l0,0c0,0,0,0,0,0h0c0,0,0,0.1,0.1,0.1l0,0c0,0,0,0,0,0l0,0c0,0,0,0.1,0,0.1l0,0
		C1092.2,1687.3,1092.2,1687.3,1092.2,1687.5C1092.2,1687.4,1092.2,1687.4,1092.2,1687.5C1092.2,1687.4,1092.2,1687.4,1092.2,1687.5
		z"/>
</g>
</svg>
