<svg xmlns="http://www.w3.org/2000/svg" width="40" height="40" viewBox="0 0 40 40">
  <g id="Grupo_6590" data-name="Grupo 6590" transform="translate(-1171 -1676)">
    <g id="Elipse_18" data-name="Elipse 18">
      <g id="Grupo_6588" data-name="Grupo 6588">
        <circle id="Elipse_7165" data-name="Elipse 7165" cx="20" cy="20" r="20" transform="translate(1171 1676)" fill="none"/>
      </g>
      <g id="Grupo_6589" data-name="Grupo 6589">
        <path id="Trazado_13209" data-name="Trazado 13209" d="M1191,1716a20,20,0,1,1,20-20A20.023,20.023,0,0,1,1191,1716Zm0-38a18,18,0,1,0,18,18A18.021,18.021,0,0,0,1191,1678Z" fill="#fff"/>
      </g>
    </g>
    <path id="Trazado_13210" data-name="Trazado 13210" d="M1199.63,1699.8a.2.2,0,0,1-.01-.07c-.02-.05.01-.1-.02-.14v-.05c-.03-.03,0-.08-.02-.11a.076.076,0,0,1-.01-.04c-.01-.03,0-.07-.02-.09a.019.019,0,0,1,0-.03c-.03-.02-.01-.05-.03-.08v-.04c-.01-.02-.01-.05-.02-.07-.01,0-.01-.01-.01-.02-.02-.02,0-.06-.02-.08s-.01-.01-.01-.02a.073.073,0,0,0-.02-.06v-.02c-.01-.02-.01-.04-.02-.06s-.01-.01-.01-.02-.01-.04-.02-.06a.014.014,0,0,1,0-.02c-.02-.02-.01-.04-.03-.06v-.02c-.01-.02-.01-.04-.02-.06s-.02-.03-.03-.05a.014.014,0,0,1,0-.02c-.01-.02-.01-.04-.03-.06s-.01-.04-.02-.05-.01-.01-.01-.02-.01-.02-.02-.03v-.02c0-.02-.01-.02-.02-.04-.01,0-.01-.01-.01-.02s-.01-.03-.02-.05-.01-.05-.03-.06-.01-.04-.03-.05c0-.01-.01-.02-.02-.03a.014.014,0,0,1,0-.02c-.01-.01-.02-.02-.02-.03s-.01-.01-.01-.02-.01-.02-.02-.03v-.01c-.02-.01-.02-.03-.03-.05s-.01-.04-.03-.05c0-.01-.02-.02-.02-.03-.03-.03-.02-.07-.01-.11a.06.06,0,0,0,.01-.04c.02-.04,0-.08.02-.12v-.04c.03-.05,0-.12.03-.17v-.04c.03-.07-.01-.15.02-.22a.17.17,0,0,0,.01-.07c.03-.12-.01-.24.02-.35v-.54c-.03-.12.01-.24-.02-.35a.341.341,0,0,1-.01-.1c-.02-.06.01-.13-.02-.19v-.05c-.03-.05,0-.11-.03-.16v-.05c-.02-.04,0-.1-.02-.14-.01-.01-.01-.01-.01-.02-.02-.03,0-.08-.02-.11v-.05c-.03-.03,0-.08-.03-.11v-.02c-.02-.03,0-.08-.02-.11-.01-.01-.01-.01-.01-.02-.01-.03,0-.06-.02-.09v-.02c-.02-.02,0-.06-.02-.08a.031.031,0,0,1-.01-.02c-.02-.03,0-.06-.02-.09-.01,0-.01-.01,0-.02-.02-.02-.01-.06-.03-.08,0-.01-.01-.01,0-.02-.01-.02-.01-.04-.02-.06a.037.037,0,0,1-.01-.03c-.02-.02,0-.05-.02-.08-.01,0-.01-.01,0-.01-.01-.02-.01-.05-.03-.07v-.02c-.01-.01-.01-.04-.02-.06a.01.01,0,0,1-.01-.01c-.01-.02,0-.05-.02-.06v-.02c-.01-.02-.01-.05-.02-.06a.031.031,0,0,1-.01-.02c-.01-.02-.01-.05-.02-.06s-.01-.01-.01-.02a.074.074,0,0,0-.02-.06c-.01-.02-.01-.04-.02-.05a.037.037,0,0,1-.01-.03c-.01-.01-.01-.04-.02-.05s-.01-.04-.02-.06c-.01,0-.01-.01-.01-.02s-.01-.04-.03-.06-.01-.03-.02-.05a.014.014,0,0,1,0-.02c-.01-.02-.01-.04-.03-.06s-.01-.04-.02-.05-.01-.04-.03-.05c0-.01-.01-.01,0-.02-.01-.01-.01-.02-.02-.04a.01.01,0,0,1-.01-.01.052.052,0,0,0-.02-.04.035.035,0,0,1-.01-.02c-.01-.02,0-.04-.02-.06s-.01-.04-.03-.05-.01-.04-.03-.05h.01c-.02-.02-.01-.04-.03-.06s-.01-.04-.03-.05c0-.01-.01-.02-.02-.03a.014.014,0,0,1,0-.02c-.01-.01-.02-.02-.02-.03s-.01-.01-.01-.02-.01-.02-.02-.03-.01-.01-.01-.02-.01-.02-.02-.03v-.01c-.02-.01-.01-.03-.03-.05s-.01-.04-.03-.05a.077.077,0,0,0-.02-.03v-.01a.138.138,0,0,0-.03-.04c-.01-.01-.01-.04-.02-.05s-.02-.02-.02-.03-.01-.01-.01-.02-.01-.02-.02-.03-.02-.04-.03-.05-.02-.02-.02-.03a.01.01,0,0,1-.01-.01c0-.02-.01-.03-.03-.04,0-.01-.01-.02-.02-.03v-.01a.138.138,0,0,0-.03-.04c-.01-.01-.01-.02-.02-.03a.035.035,0,0,1-.01-.02c0-.01-.01-.02-.02-.03s-.01-.02-.02-.03a.01.01,0,0,1-.01-.01.052.052,0,0,0-.02-.04c-.01-.01-.02-.02-.02-.03s-.01,0-.01-.01-.01-.03-.03-.04c0-.01-.01-.02-.02-.03s-.01-.03-.03-.04-.02-.03-.03-.03-.01-.02-.02-.03-.01-.04-.03-.05c0-.01-.01-.02-.03-.03a.077.077,0,0,0-.02-.03c-.02-.01-.01-.04-.03-.04a.027.027,0,0,0-.03-.03.077.077,0,0,0-.02-.03c-.01-.01-.02-.02-.02-.03-.02-.01-.02-.04-.04-.05a.077.077,0,0,0-.02-.03c-.01-.01-.02-.01-.03-.02a.077.077,0,0,0-.02-.03c-.01-.01-.02-.02-.02-.03s-.01,0-.01-.01-.01-.03-.03-.04a.022.022,0,0,0-.02-.02l-.03-.03c0-.01-.01-.02-.02-.03l-.03-.03a.022.022,0,0,1-.02-.02v-.01c-.01,0-.02-.01-.03-.02s-.01-.03-.03-.04-.02-.03-.03-.03a.027.027,0,0,0-.03-.03.077.077,0,0,0-.02-.03c-.01-.01-.02-.02-.03-.02s-.01-.02-.02-.03l-.03-.03c-.01-.01-.01-.02-.03-.02a.077.077,0,0,0-.02-.03l-.03-.03a.022.022,0,0,0-.02-.02l-.03-.03-.03-.03a.022.022,0,0,0-.02-.02l-.03-.03c-.01-.01-.02-.02-.03-.02,0-.02-.01-.02-.02-.03s-.02-.02-.03-.02a.027.027,0,0,0-.03-.03.022.022,0,0,0-.02-.02c-.01-.03-.04-.02-.05-.04s-.02-.02-.02-.03h-.01a.022.022,0,0,1-.02-.02l-.03-.03c-.01-.01-.02-.02-.03-.02l-.03-.03c0-.01-.01-.02-.03-.02-.01-.02-.03-.01-.04-.03v-.01c-.01,0-.02-.01-.03-.02l-.03-.03c-.01-.01-.02-.01-.03-.02s-.01-.02-.03-.03-.01,0-.02-.01-.01-.01-.02-.02-.02-.01-.03-.02l-.03-.03c-.01-.01-.02-.02-.03-.02s-.02,0-.02-.01-.02-.01-.02-.02-.02-.02-.03-.02c-.01-.02-.02-.03-.04-.03a.01.01,0,0,1-.01-.01c-.01,0-.02-.01-.03-.02s-.02-.02-.03-.02q-.015-.03-.03-.03c-.01,0-.02,0-.02-.01a.022.022,0,0,1-.02-.02.052.052,0,0,0-.04-.02c-.01-.02-.03-.01-.04-.03s-.02-.02-.03-.02c-.01-.02-.04-.02-.05-.04-.01,0-.02-.01-.03-.02s-.04-.01-.05-.03-.02-.02-.03-.02c-.01-.02-.04-.01-.05-.03s-.02-.02-.03-.02c-.01-.02-.04-.02-.05-.03l-.03-.03c-.01,0-.02,0-.02-.01s-.02-.01-.03-.01c-.01-.02-.02-.03-.04-.03h-.01a.138.138,0,0,0-.04-.03h-.02c-.01-.01-.01-.02-.02-.02-.01-.02-.04-.01-.05-.03a.052.052,0,0,0-.04-.02c-.01,0-.01-.01-.02-.01s-.02-.02-.03-.02-.02,0-.02-.01-.02-.01-.03-.02-.03-.01-.05-.03-.04-.01-.05-.02a.138.138,0,0,0-.04-.03h-.01c-.02-.01-.03-.02-.04-.02s-.01,0-.02-.01-.02-.02-.03-.02-.02,0-.02-.01-.02-.01-.03-.02a.014.014,0,0,1-.02,0,.052.052,0,0,0-.04-.02c-.01,0-.01,0-.02-.01s-.02-.02-.03-.02h-.02a.052.052,0,0,0-.04-.02.01.01,0,0,1-.01-.01c-.02-.01-.04-.01-.05-.02s-.04-.01-.06-.03c-.01,0-.02,0-.02-.01s-.02-.01-.03-.01a.037.037,0,0,1-.03-.01c-.01-.01-.02-.02-.03-.02s-.01,0-.02-.01-.04,0-.05-.02a.037.037,0,0,1-.03-.01c-.01,0-.02-.01-.03-.01s-.02,0-.02-.01c-.02-.01-.04-.01-.05-.02s-.04-.01-.06-.03a.014.014,0,0,1-.02,0c-.02-.01-.04-.01-.06-.02,0-.01-.01-.01-.02-.01a.052.052,0,0,0-.04-.02h-.01c-.02-.02-.04-.01-.06-.03-.01.01-.02.01-.02,0-.02-.01-.04-.01-.06-.02s-.02,0-.02-.01c-.02-.01-.04,0-.06-.02h-.02c-.02-.02-.04-.01-.06-.03-.01.01-.01.01-.02,0s-.04-.01-.06-.02-.01,0-.02-.01-.04-.01-.06-.02a.091.091,0,0,1-.05-.01.065.065,0,0,1-.05-.02h-.02c-.02-.01-.05-.01-.06-.02a.075.075,0,0,1-.05-.01c-.02-.01-.04,0-.06-.02H1193c-.01-.01-.04-.01-.05-.02a.108.108,0,0,0-.05-.01c-.02-.01-.04-.01-.06-.02a.09.09,0,0,1-.05-.01c-.02,0-.04-.01-.06-.01a.17.17,0,0,0-.07-.01c-.02-.01-.04-.01-.06-.02s-.05-.01-.07-.01-.04-.01-.06-.02h-.07c-.03-.02-.06-.01-.09-.02a.17.17,0,0,0-.07-.01c-.04-.02-.08,0-.11-.02-.04,0-.07-.01-.1-.01s-.08,0-.11-.02h-.13c-.05-.02-.1,0-.14-.02a1.767,1.767,0,0,1-.23-.01q-.405-.015-.81,0a1.475,1.475,0,0,0-.21.01c-.04.02-.09,0-.14.01a.486.486,0,0,1-.12.01c-.05.03-.1,0-.14.02-.03,0-.05.01-.08.01-.03.02-.07,0-.11.02a.2.2,0,0,0-.07.01c-.03.01-.06,0-.08.01-.05.01-.09.05-.14.01-.01-.02-.04-.01-.05-.03a.052.052,0,0,0-.04-.02.01.01,0,0,1-.01-.01c-.01,0-.02-.01-.04-.02a.031.031,0,0,1-.02-.01.035.035,0,0,1-.02-.01c-.02-.02-.04-.02-.06-.03s-.03-.01-.05-.03-.04-.01-.05-.03-.04-.01-.05-.02-.04-.01-.06-.03h-.02c-.01-.01-.02-.02-.03-.02a.037.037,0,0,1-.03-.01c-.01-.01-.02-.02-.03-.02h-.02c-.01-.02-.04-.01-.05-.03h-.03c-.01-.01-.02-.02-.03-.02s-.01,0-.02-.01-.04,0-.05-.02a.037.037,0,0,1-.03-.01c-.01,0-.02-.01-.04-.01s-.02-.01-.04-.01-.02-.02-.03-.02h-.02c-.02-.02-.04-.02-.06-.03a.09.09,0,0,1-.05-.01c-.01,0-.02-.01-.03-.01s-.03-.01-.05-.01-.04-.01-.05-.02h-.02c-.03-.02-.06-.01-.09-.03h-.02c-.03-.02-.06,0-.08-.02a.109.109,0,0,0-.05-.01c-.02-.01-.04-.01-.06-.02a.486.486,0,0,1-.12-.01,4.721,4.721,0,0,0-1.5-.02,4.654,4.654,0,0,0-2.19.93c-.17.13-.32.28-.49.42a.022.022,0,0,1-.02.02l-.03.03c-.01.01-.01.02-.02.03l-.03.03c-.01,0-.01,0-.02.02l-.03.03c-.01,0-.01,0-.02.03a.026.026,0,0,0-.03.03c-.02.01-.01.03-.03.04h-.01c0,.01-.01.02-.02.03s-.02.02-.02.03-.02.01-.03.03-.02.01-.02.03-.01.01-.01.02a.022.022,0,0,0-.02.02l-.03.03c-.01.01-.02.01-.02.03-.02,0-.02.03-.03.04v.01c-.01.01-.02.01-.03.02a.052.052,0,0,0-.02.04c0,.01,0,.01-.01.02l-.02.02a.138.138,0,0,0-.03.04c.01.01,0,.01,0,.02s-.02.01-.02.02c-.02.01-.03.02-.03.04s0,.01-.01.01-.01.02-.02.03-.01.04-.02.05h-.01c0,.01-.01.02-.02.03s-.01.04-.03.05-.01.04-.02.05a.138.138,0,0,1-.03.04c.01.01,0,.01,0,.02s-.02.02-.02.03,0,.02-.01.02-.01.02-.02.03-.01.04-.03.05-.01.04-.02.05-.02.04-.03.06-.01.04-.03.05a.014.014,0,0,1,0,.02c-.01.02-.02.03-.02.04s0,.01-.01.02,0,.04-.02.05-.01.04-.02.05-.02.04-.03.06v.02c-.02.02-.01.04-.03.06v.02c-.01.02-.01.03-.02.05-.03.02-.01.06-.03.08a.04.04,0,0,0-.02.04.06.06,0,0,1-.01.04c-.02.02,0,.06-.02.08a.037.037,0,0,1-.01.03c-.01.02-.01.04-.02.06.01.01,0,.01,0,.02-.02.02-.01.06-.03.08.01.01.01.02,0,.02-.02.03,0,.06-.02.09v.02c-.03.03,0,.07-.03.11.01.01,0,.01,0,.02-.03.03,0,.08-.02.11a.09.09,0,0,0-.01.05c-.02.04,0,.09-.02.14v.04c-.03.07,0,.15-.03.22a.284.284,0,0,1,0,.13,1.476,1.476,0,0,0,0,.42.243.243,0,0,1,0,.12c.03.07,0,.15.03.22v.04c.02.05,0,.1.02.14a.09.09,0,0,0,.01.05c.02.03-.01.08.02.11v.02c.03.04,0,.08.03.11v.02c.02.03,0,.06.02.09.01.01.01.01,0,.02.02.03.01.06.03.09v.01c.01.02.01.04.02.06a.037.037,0,0,1,.01.03c.01.01.01.02.01.04s0,.03.01.04.01.02.01.04,0,.03.02.04,0,.06.03.08c.01.01.01.03.02.05s.01.01,0,.02c.01.02.01.04.03.06v.02c0,.01.01.02.02.03a.031.031,0,0,1,.01.02c.01.02,0,.05.02.06s.01.04.02.05.01.01.01.02a.052.052,0,0,0,.02.04.014.014,0,0,1,0,.02c.02.02.01.03.03.05s.01.05.03.06.01.04.02.05.01.04.03.05.01.02.02.03.01.01.01.02.01.02.02.03.01.01,0,.02a.139.139,0,0,0,.03.04c.01.01.01.04.03.05h-.01c.02.01.01.04.03.05s.02.02.02.03a.045.045,0,0,1,0,.05c-.02.04,0,.08-.02.12v.04c-.03.04,0,.1-.02.14a.06.06,0,0,0-.01.04c-.03.06.01.12-.02.17a.082.082,0,0,1-.01.07c-.02.07.01.15-.02.22a.171.171,0,0,1,0,.1,8.333,8.333,0,0,0,0,1,.169.169,0,0,1,0,.1c.03.07,0,.15.03.22a.164.164,0,0,1,0,.07c.03.05-.01.11.02.16,0,.02.01.03.01.05.02.04-.01.1.02.14,0,.01.01.01,0,.02.03.04,0,.1.03.14v.02c.02.03,0,.08.02.11a.06.06,0,0,0,.01.04c.01.03,0,.06.02.09v.02c.03.04,0,.08.03.11v.02c.02.03,0,.06.02.09.01,0,.01.01,0,.02.02.02.01.06.03.08v.02c.02.03,0,.07.02.09.01,0,.01.01.01.02s.01.04.02.06.01.01,0,.02c.02.03,0,.06.03.08v.02c.01.02.01.04.02.06a.031.031,0,0,1,.01.02c.01.02.01.04.02.06v.02c.01.02.01.04.02.06s.01.01.01.02.01.04.02.06.01.01.01.02,0,.04.02.06v.02c.01.02.01.04.02.06a.01.01,0,0,1,.01.01.638.638,0,0,0,.02.07c.02.01.01.03.03.05v.02c.01.02.01.04.03.06s.01.04.02.05.01.01,0,.02c.01.02.01.05.03.06s.01.04.02.05.01.01.01.02a.076.076,0,0,0,.02.04.014.014,0,0,1,0,.02.133.133,0,0,0,.03.05c.01.02.01.04.02.06s.01.04.03.05.01.04.02.06.02.03.03.05a.01.01,0,0,1,.01.01.052.052,0,0,0,.02.04v.02c0,.01.01.02.02.03s.01.01.01.02a.076.076,0,0,0,.02.04c.02.01.01.03.03.05s.01.04.02.05.02.04.03.05.01.03.03.05.01.02.02.03.01.01.01.02a.052.052,0,0,0,.02.04v.01c0,.02.02.03.03.04s.01.04.02.05.02.02.02.03.01.01.01.02.01.02.02.03.02.04.03.05.02.02.02.03.01.01.01.02.01.02.02.03.01.04.03.05l.03.03c.01.02.01.04.03.05,0,.01.01.02.02.03s.01.04.03.05c0,.01.01.02.02.03s.01.04.03.05.02.02.02.03h.01c.01.01.01.03.02.05l.03.03c.01.01.01.02.02.03s.02.03.03.04.02.02.03.03.01.02.02.03l.01.01a.052.052,0,0,0,.02.04l.03.03c.01.01.01.02.02.03s.01.03.03.04.02.03.03.03.01.02.02.03.02.02.02.03.01,0,.01.01.01.03.03.04c0,.01,0,.01.02.02s.02.02.03.03.01.02.02.03l.02.02c.01.01.01.01.01.02l.03.03c0,.02.01.03.02.03l.03.03.03.03c0,.01.01.02.02.03a.022.022,0,0,1,.02.02h.01c.01.01.01.02.02.03s.01.04.04.05a.022.022,0,0,0,.02.02.027.027,0,0,0,.03.03c0,.01,0,.01.02.02s.02.03.03.03.01.02.02.03l.03.03c.01.01.02.02.03.02s.01.02.02.03l.03.03c.01.01.02.02.03.02s.01.02.02.03.02.02.03.02c.01.02.02.02.03.03s.01.02.02.03.02.02.03.02.01.02.03.03a.021.021,0,0,0,.02.02c.01.02.04.02.05.04a.022.022,0,0,1,.02.02l.01.01a.022.022,0,0,1,.02.02c.01.01.02.02.03.02l.03.03.03.03a.022.022,0,0,0,.02.02.138.138,0,0,0,.04.03c.01,0,.01,0,.01.01s.02.01.03.02.02.01.03.02.01.02.02.03.02.02.03.02c.01.02.02.03.04.03a.01.01,0,0,1,.01.01.021.021,0,0,1,.02.02h.01l.02.02.03.03a.052.052,0,0,0,.04.02.01.01,0,0,1,.01.01c.01.01.02.01.03.02l.03.03c.01.01.02.02.03.02a.035.035,0,0,1,.02.01c.01.01.02.01.02.02.02.01.02.02.03.03a.052.052,0,0,0,.04.02c.01,0,.01,0,.02.01l.02.02.03.03c.01.01.04.01.05.03.01,0,.02.01.03.02s.04.01.05.03.02.02.03.02l.03.03h.02l.03.03c.01.01.02.02.03.02s.02,0,.02.01.01,0,.02.02.04.01.05.03h.01c.01.01.02.01.03.02s.02,0,.02.01.02.01.03.02.02.02.03.02.02,0,.02.01.02.01.03.02.02,0,.02.01.02.01.03.02a.052.052,0,0,0,.04.02h.01v.01c.01,0,.02.01.03.02s.02,0,.02.01.02.01.03.02v-.01c.01.02.04.02.05.03s.04.01.05.03.03.02.04.02h.01l.01.01c.01.01.02.02.03.02s.02,0,.02.01.02.01.03.02a.014.014,0,0,1,.02,0c.02.01.02.02.04.02a.031.031,0,0,1,.02.01c.01.01.02.01.03.02s.01,0,.02.01.02.01.03.02a.014.014,0,0,1,.02,0,.052.052,0,0,0,.04.02.031.031,0,0,1,.02.01c.01.01.02.01.03.02h.02c.01.01.02.02.03.02h.01l.01.01c.02.01.04.01.05.02s.04.01.06.03c.01,0,.01,0,.02.01s.02.01.03.01h.02l.01.01c.01.01.02.02.03.02h.02c.01.02.04.01.05.03h.03c.01.01.02.02.03.02h.01l.01.01c.02.01.04.01.05.02a.037.037,0,0,1,.03.01c.01,0,.02.01.03.01h.01l.01.01c.02.01.04.01.06.02h.01l.01.01c.02.01.04,0,.05.02a.037.037,0,0,1,.03.01c.01,0,.02.01.04.01a.06.06,0,0,0,.04.01.052.052,0,0,0,.04.02c.01,0,.02.01.04.01s.02.01.03.02a.09.09,0,0,1,.05.01c.01,0,.02.01.03.01a.09.09,0,0,0,.05.01c.01.01.04.01.05.02h.01l.02.01c.01.01.04.01.05.02a108.435,108.435,0,0,1,.1.02.037.037,0,0,0,.03.01c.02.01.04.01.06.02a.09.09,0,0,1,.05.01c.01.01.04.01.05.02h.05c.02.01.04.01.06.02s.03.01.05.01.05,0,.08.02a.09.09,0,0,1,.05.01c.02,0,.04.01.06.01a.17.17,0,0,0,.07.01c.02.01.04.01.06.02s.05.01.07.01.06,0,.09.02h.07c.03.02.06.01.09.02a.308.308,0,0,0,.1.01c.03.02.07,0,.11.02.04,0,.08.01.12.01.05.02.1-.01.14.02a1.1,1.1,0,0,1,.18,0c.09.03.18-.01.27.02h.49c.08-.03.18.01.27-.02a1.093,1.093,0,0,1,.18,0c.04-.03.09,0,.13-.02.04,0,.09-.01.13-.01.03-.02.08,0,.11-.02a.22.22,0,0,0,.08-.01c.03-.02.07,0,.11-.02h.07c.02-.02.06-.01.08-.02s.05-.01.07-.01.03-.01.05,0a.031.031,0,0,1,.02.01.022.022,0,0,1,.02.02c.02.02.04.01.05.03h.01c.01.01.02.02.03.02s.02,0,.02.01.02.01.03.02a.014.014,0,0,1,.02,0c.01.01.02.02.03.02s.02,0,.02.01c.02.01.03.01.04.02a.031.031,0,0,1,.02.01c.01,0,.02.01.03.02.01-.01.01,0,.02,0s.02.02.03.02.02,0,.02.01a.052.052,0,0,0,.04.02h.02c.01.01.02.02.03.02h.01l.01.01c.01.01.04.01.05.02a.037.037,0,0,0,.03.01c.01.01.02.01.03.02h.02c.02.02.04.01.05.03h.03c.01.01.02.02.03.02h.01l.01.01c.02.01.04,0,.06.02h.02c.02.01.04.01.06.02h.01l.01.01c.02.01.04.01.06.02h.01l.01.01c.02.01.04.01.06.02h.05c.01.01.03.01.05.02h.01l.01.01c.02.01.05.01.07.02h.04c.02.02.06,0,.08.03h.05c.02.01.04.01.06.02s.05.01.07.01.06,0,.09.02h.07c.04.02.08,0,.11.02a.615.615,0,0,0,.13.01c.05.02.11,0,.17.02h.53c.06-.03.13,0,.19-.02a.41.41,0,0,0,.11-.01c.03-.02.07,0,.11-.01a.17.17,0,0,1,.07-.01c.03-.03.08,0,.11-.02.02,0,.03-.01.05-.01.02-.02.06,0,.08-.02a.09.09,0,0,0,.05-.01c.02,0,.04-.01.06-.01a.075.075,0,0,1,.05-.01c.01-.01.03-.01.05-.02s.03-.01.05-.01.04-.01.06-.02h.02c.02-.02.04-.01.06-.02a.06.06,0,0,1,.04-.01c.02,0,.02-.01.04-.02a.06.06,0,0,0,.04-.01c.01,0,.02-.01.04-.01s.02-.01.04-.01.02-.02.03-.02.02-.01.03-.01.04-.01.05-.02l.01-.01h.02c.01,0,.02-.01.03-.01a.031.031,0,0,1,.02-.01c.02-.02.04-.01.06-.02v-.01h.02c.01,0,.02-.01.03-.02s.01-.01.02,0c.02-.02.04-.01.06-.03s.04-.01.05-.03.04-.01.05-.02h.01c.01-.02.03-.01.05-.03s.04-.01.05-.02.04-.02.05-.03.04-.01.05-.03.02-.01.03-.02.01-.01.02-.01.02-.01.03-.02.01-.01.02,0a.138.138,0,0,0,.04-.03c.01-.01.04-.01.05-.03v.01l.03-.03h.01c.02,0,.03-.01.04-.03.01,0,.01-.01.02-.02s.01-.01.02-.01a.052.052,0,0,0,.04-.02l.02-.02c.01-.01.01-.01.02-.01a.052.052,0,0,0,.04-.02c.01-.01.01-.02.02-.02l.01-.01c.01-.02.04-.01.05-.03l.02-.02c.01-.01.02-.02.03-.02a.01.01,0,0,1,.01-.01c.02,0,.03-.01.04-.03.01,0,.02-.01.03-.02s.02-.02.03-.02v-.01a.035.035,0,0,1,.02-.01.021.021,0,0,1,.02-.02c.01,0,.02-.01.03-.02l.03-.03c.01,0,.02-.01.03-.02s.01-.02.02-.03h.01c0-.01.01-.01.02-.02s.01-.02.02-.02.01-.01.02-.01a.138.138,0,0,0,.04-.03c.01,0,.02-.01.02-.03.01,0,.02-.01.03-.02l.03-.03a.022.022,0,0,0,.02-.02l.03-.03.03-.03a.022.022,0,0,0,.02-.02l.03-.03c.01-.01.02-.02.02-.03a.027.027,0,0,0,.03-.03l.03-.03c0-.01,0-.01.01-.02s.01-.01.02-.02a.022.022,0,0,1,.02-.02v-.01c.01-.01.02-.01.03-.02s.02-.02.02-.03l.03-.03c.01,0,.02-.02.02-.03a.022.022,0,0,1,.02-.02.035.035,0,0,1,.01-.02h.01c0-.01.01-.02.02-.03s.02-.02.02-.03c.02-.01.03-.02.03-.04a.01.01,0,0,1,.01-.01c0-.01.01-.02.02-.03s.02-.01.02-.03c.02-.01.01-.03.03-.04s.02-.02.03-.03a.052.052,0,0,0,.02-.04c0-.01,0-.01.01-.02l.02-.02a.052.052,0,0,0,.02-.04.01.01,0,0,1,.01-.01c.01-.01.02-.02.02-.03a.135.135,0,0,0,.03-.04v-.01c.01-.01.02-.02.02-.03.02-.01.02-.04.03-.05a.137.137,0,0,0,.03-.04c-.01-.01,0-.01,0-.02s.02-.02.02-.03c.02-.01.02-.03.03-.05s.01-.03.03-.05.01-.04.03-.05,0-.04.02-.05.01-.04.03-.05.01-.04.02-.06.01-.04.03-.05.01-.04.03-.06.01-.03.02-.05,0-.02.01-.02c.01-.02,0-.04.02-.06s.01-.04.02-.05a.037.037,0,0,1,.01-.03c.01-.01.01-.03.02-.05a.074.074,0,0,0,.02-.06c0-.01,0-.01.01-.02s.01-.04.02-.06,0-.01.01-.02.01-.04.02-.06v-.01c.02-.03,0-.06.03-.08s0-.06.02-.09c0-.01,0-.01.01-.02s0-.06.02-.08c-.01-.01,0-.02,0-.03.02-.02.01-.06.02-.08s0-.02.01-.02c.02-.03,0-.08.02-.11v-.02c.03-.04,0-.1.03-.14-.01-.01,0-.01,0-.02.03-.05-.01-.11.02-.16a.108.108,0,0,0,.01-.05c.03-.09-.01-.18.02-.27v-.49C1199.62,1699.96,1199.66,1699.88,1199.63,1699.8Zm-4.35.22a3.4,3.4,0,0,1-1.59,1.52,5.247,5.247,0,0,1-1.59.45,7.169,7.169,0,0,1-3.02-.29,4.39,4.39,0,0,1-1.55-.83,2.275,2.275,0,0,1-.76-1.22,1.383,1.383,0,0,1-.01-.7.958.958,0,0,1,.71-.75,1.074,1.074,0,0,1,.78.14,1.616,1.616,0,0,1,.43.35c.17.19.33.39.5.58a3.054,3.054,0,0,0,.66.58,2.583,2.583,0,0,0,1.51.33,2.69,2.69,0,0,0,.97-.22,1.488,1.488,0,0,0,.69-.6,1.173,1.173,0,0,0,.16-.52.86.86,0,0,0-.33-.73,2.265,2.265,0,0,0-.73-.4,11.833,11.833,0,0,0-1.41-.39,15.807,15.807,0,0,1-1.93-.56,4.269,4.269,0,0,1-1.23-.69,2.386,2.386,0,0,1-.87-1.71,3.192,3.192,0,0,1,1.84-3.22,4.414,4.414,0,0,1,1.55-.42c.22-.03.44-.03.66-.04a7.765,7.765,0,0,1,2.82.54,3.967,3.967,0,0,1,1.24.79,1.933,1.933,0,0,1,.54.83,1.046,1.046,0,0,1-.32,1.17,1.115,1.115,0,0,1-.66.27,1.259,1.259,0,0,1-.95-.27c-.23-.18-.43-.39-.64-.58a2.712,2.712,0,0,0-1.22-.64,2.943,2.943,0,0,0-1.53.07,1.332,1.332,0,0,0-.49.28,1.016,1.016,0,0,0-.33.87.616.616,0,0,0,.2.39,1.771,1.771,0,0,0,.43.28,6.437,6.437,0,0,0,1.05.34c.62.16,1.26.29,1.87.48a6.418,6.418,0,0,1,1.58.65,2.851,2.851,0,0,1,.97.92,2.3,2.3,0,0,1,.36,1.17A3.342,3.342,0,0,1,1195.28,1700.02Z" fill="#fff"/>
  </g>
</svg>
