<?xml version="1.0" encoding="utf-8"?>
<!-- Generator: Adobe Illustrator 24.0.1, SVG Export Plug-In . SVG Version: 6.00 Build 0)  -->
<svg version="1.1" id="Layer_1" xmlns="http://www.w3.org/2000/svg" xmlns:xlink="http://www.w3.org/1999/xlink" x="0px" y="0px"
	 viewBox="0 0 40 40" style="enable-background:new 0 0 40 40;" xml:space="preserve">
<style type="text/css">
	.st0{fill:none;}
	.st1{fill:#FFFFFF;}
</style>
<g id="Grupo_6581" transform="translate(-1027 -1675)">
	<g id="Elipse_15">
		<g id="Grupo_6579">
			<ellipse id="Elipse_7162" class="st0" cx="1047.5" cy="1695" rx="19.5" ry="20"/>
		</g>
		<g id="Grupo_6580">
			<path id="Trazado_13199" class="st1" d="M1047.5,1715c-11,0.3-20.2-8.4-20.5-19.5c-0.3-11,8.4-20.2,19.5-20.5
				c11-0.3,20.2,8.4,20.5,19.5c0,0.2,0,0.3,0,0.5C1067.1,1705.9,1058.4,1714.8,1047.5,1715z M1047.5,1677
				c-9.9-0.3-18.2,7.6-18.5,17.5c-0.3,9.9,7.6,18.2,17.5,18.5s18.2-7.6,18.5-17.5c0-0.2,0-0.3,0-0.5
				C1065.1,1685.2,1057.3,1677.2,1047.5,1677z"/>
		</g>
	</g>
	<path id="Trazado_13200" class="st1" d="M1045.7,1702.5l-0.1,0c0,0-0.1,0-0.2,0l-0.1,0c-0.1,0-0.1,0-0.2,0l-0.2,0
		c-0.1,0-0.2,0-0.3,0l-0.6,0c-0.2,0-0.4,0-0.5,0l-0.5,0c-0.1,0-0.2,0-0.3,0l-0.2,0c-0.1,0-0.1,0-0.2,0l-0.1,0c-0.1,0-0.1,0-0.2,0
		l-0.1,0c0,0-0.1,0-0.2,0l-0.1,0c0,0-0.1,0-0.2,0l-0.1,0c0,0-0.1,0-0.1,0l-0.1,0c0,0-0.1,0-0.1,0l-0.1,0c0,0-0.1,0-0.1,0l0,0h0
		c0,0-0.1,0-0.1,0l-0.1,0c0,0-0.1,0-0.1,0l0,0h0c0,0-0.1,0-0.1,0l0,0h0c0,0-0.1,0-0.1,0l0,0h0c0,0,0,0-0.1,0l-0.1,0c0,0-0.1,0-0.1,0
		l0,0h0c0,0-0.1,0-0.1,0l0,0h0c0,0,0,0-0.1,0c0,0,0,0,0,0c0,0-0.1,0-0.1,0l0,0c0,0-0.1,0-0.1,0l0,0h0c0,0,0,0-0.1,0c0,0,0,0,0,0
		c0,0,0,0-0.1,0l0,0c0,0-0.1,0-0.1,0l0,0c0,0-0.1,0-0.1-0.1l0,0c0,0-0.1,0-0.1,0l0,0c0,0-0.1,0-0.1,0l0,0c0,0-0.1,0-0.1-0.1l0,0
		c0,0,0,0-0.1,0c0,0,0,0,0,0l-0.1,0c0,0,0,0,0,0c0,0,0,0-0.1,0c0,0,0,0,0,0c0,0-0.1,0-0.1,0l0,0c0,0-0.1,0-0.1-0.1l0,0
		c0,0,0,0-0.1,0c0,0,0,0,0,0c0,0,0,0-0.1,0l0,0c0,0-0.1,0-0.1-0.1h0c0-0.1,0.1-0.1,0.2-0.1c0.1,0,0.3,0,0.4,0c0.2,0,0.4,0,0.5,0
		c0.1,0,0.3,0,0.4,0c0.1,0,0.2,0,0.3,0c0.1,0,0.1,0,0.2,0c0.1,0,0.1,0,0.2,0l0.1,0c0,0,0.1,0,0.2,0l0.1,0c0,0,0.1,0,0.1,0l0.1,0
		c0,0,0.1,0,0.1,0l0.1,0c0,0,0.1,0,0.1,0c0,0,0,0,0,0c0,0,0.1,0,0.1,0l0.1,0c0,0,0,0,0.1,0l0.1,0c0,0,0,0,0.1,0c0,0,0,0,0,0
		c0,0,0.1,0,0.1,0c0,0,0,0,0,0c0,0,0.1,0,0.1,0l0.1,0c0,0,0,0,0.1,0c0,0,0,0,0,0c0,0,0,0,0.1,0c0,0,0,0,0,0c0,0,0.1,0,0.1,0l0,0
		c0,0,0.1,0,0.1,0l0,0c0,0,0.1,0,0.1,0l0,0c0,0,0.1,0,0.1-0.1l0,0c0,0,0.1,0,0.1-0.1l0,0c0,0,0,0,0.1,0c0,0,0,0,0,0c0,0,0,0,0,0
		c0,0,0,0,0.1,0c0,0,0,0,0,0c0,0,0,0,0.1,0l0,0c0,0,0.1,0,0.1-0.1l0,0c0,0,0,0,0.1,0c0,0,0,0,0,0c0,0,0,0,0.1,0l0,0c0,0,0,0,0.1,0
		c0,0,0,0,0,0c0,0,0,0,0,0l0.1,0l0,0c0,0,0,0,0.1,0c0,0,0,0,0,0c0,0,0,0,0,0c0,0,0,0,0.1,0l0,0c0,0,0,0,0.1,0c0,0,0,0,0,0
		c0,0,0,0,0,0l0,0c0,0,0,0,0.1,0l0,0c0,0,0,0,0,0c0,0,0,0,0,0c0,0-0.1,0-0.1,0c-0.1,0-0.1,0-0.2,0l-0.1,0c0,0-0.1,0-0.2,0l-0.1,0
		c0,0-0.1,0-0.1,0l-0.1,0c0,0,0,0-0.1,0l-0.1,0c0,0,0,0-0.1,0l0,0c0,0-0.1,0-0.1,0l0,0h0c0,0,0,0-0.1,0c0,0,0,0,0,0l-0.1,0
		c0,0,0,0,0,0l-0.1,0c0,0,0,0,0,0c0,0,0,0-0.1,0c0,0,0,0,0,0c0,0-0.1,0-0.1,0l0,0c0,0-0.1,0-0.1-0.1h0c0,0,0,0-0.1,0l0,0
		c0,0-0.1,0-0.1-0.1h0c0,0,0,0-0.1,0l0,0c0,0,0,0-0.1,0l0,0c0,0-0.1,0-0.1-0.1l0,0c0,0,0,0-0.1,0l0,0c0,0,0,0-0.1,0l0,0
		c0,0,0,0-0.1,0l0,0c0,0,0,0,0,0l0,0c0,0,0,0,0,0l0,0c0,0,0,0,0,0h0c0,0,0,0,0,0l0,0c0,0,0,0,0,0l0,0c0,0,0,0,0-0.1l0,0
		c0,0,0,0,0-0.1l0,0c0,0,0,0,0-0.1v0c0,0,0,0-0.1-0.1c0,0,0,0,0,0c0,0,0,0,0,0l0,0c0,0,0,0,0-0.1l0,0c0,0,0-0.1-0.1-0.1v0
		c0,0,0,0,0-0.1l0,0c0,0,0-0.1-0.1-0.1l0,0c0,0,0,0,0-0.1c0,0,0,0,0,0c0,0,0,0,0-0.1l0,0c0,0,0-0.1-0.1-0.1l0,0c0,0,0-0.1-0.1-0.1
		l0,0c0,0,0-0.1,0-0.1c0,0,0,0,0,0c0,0,0,0,0-0.1c0,0,0,0,0,0c0,0,0,0,0,0c0,0,0-0.1,0-0.1c0,0,0,0,0,0c0,0,0-0.1,0-0.1h0
		c0.1,0,0.1,0,0.2,0c0.1,0,0.1,0,0.2,0c0.2,0,0.4,0,0.6,0c0.1,0,0.2,0,0.2,0c0,0,0.1,0,0.2,0l0.1,0c0,0,0.1,0,0,0c0,0-0.1,0-0.1,0
		l0,0h0c0,0-0.1,0-0.1,0l-0.1,0c0,0-0.1,0-0.1,0l0,0h0c0,0-0.1,0-0.1,0l0,0h0c0,0,0,0-0.1,0c0,0,0,0,0,0c0,0,0,0-0.1,0c0,0,0,0,0,0
		c0,0,0,0-0.1,0c0,0,0,0,0,0c0,0,0,0-0.1,0c0,0,0,0,0,0c0,0-0.1,0-0.1,0l0,0c0,0-0.1,0-0.1-0.1l0,0c0,0,0,0-0.1,0l0,0
		c0,0-0.1,0-0.1-0.1l0,0c0,0,0,0-0.1,0l0,0c0,0,0,0,0,0c0,0,0,0,0,0c0,0-0.1,0-0.1-0.1l0,0c0,0,0,0-0.1,0l0,0c0,0,0,0-0.1,0l0,0
		c0,0,0,0,0,0l0,0c0,0,0,0,0,0l0,0c0,0,0,0,0,0l0,0c0,0,0,0,0,0l0,0c0,0,0,0,0,0l0,0c0,0,0,0,0,0l0,0c0,0,0,0,0,0l0,0c0,0,0,0,0-0.1
		l0,0c0,0,0,0,0-0.1l0,0c0,0,0,0,0-0.1l0,0c0,0,0-0.1-0.1-0.1v0c0,0,0,0,0-0.1l0,0c0,0,0,0,0-0.1l0,0c0,0,0-0.1-0.1-0.1l0,0
		c0,0,0,0,0-0.1c0,0,0,0,0,0c0,0,0,0,0-0.1l0,0c0,0,0-0.1-0.1-0.1l0,0c0,0,0-0.1,0-0.1l0,0c0,0,0,0,0-0.1c0,0,0,0,0,0c0,0,0,0,0,0
		c0,0,0-0.1,0-0.1l0,0c0,0,0-0.1,0-0.1l0,0c0,0,0-0.1,0-0.1c0,0,0,0,0,0c0,0,0,0,0,0c0,0,0-0.1,0-0.1c0,0,0,0,0,0c0,0,0,0,0,0
		c0,0,0-0.1,0-0.2l0,0c0,0,0-0.1,0-0.2c0,0,0,0,0,0c0-0.1,0-0.1,0-0.2l0-0.1c0-0.2-0.1-0.3,0.1-0.5l0,0c0,0,0.1,0,0.1,0.1l0,0
		c0,0,0.1,0,0.1,0l0,0c0,0,0.1,0,0.1,0c0,0,0,0,0,0c0,0,0,0,0,0c0,0,0,0,0.1,0c0,0,0,0,0,0c0,0,0.1,0,0.1,0c0,0,0,0,0,0
		c0,0,0.1,0,0.1,0c0,0,0,0,0,0c0,0,0.1,0,0.1,0l0.1,0c0,0,0.1,0,0.2,0l0.1,0c0.1,0,0.1,0,0.2,0c0,0,0.1,0,0.2,0c0,0,0,0,0,0s0,0,0,0
		l0,0c0,0,0,0,0,0c0,0,0,0,0,0c0,0-0.1,0-0.1-0.1h0c0,0,0,0-0.1,0l0,0c0,0,0,0-0.1,0l0,0c0,0,0,0,0,0l0,0c0,0,0,0,0,0l0,0
		c0,0-0.1,0-0.1-0.1l0,0c0,0-0.1,0-0.1-0.1l0,0c0,0-0.1,0-0.1-0.1c0,0,0,0,0,0c0,0,0,0,0,0l0,0c0,0,0,0,0,0l0,0c0,0,0,0,0-0.1l0,0
		c0,0,0,0,0-0.1l0,0c0,0,0,0,0-0.1l0,0c0,0,0-0.1-0.1-0.1l0,0c0,0,0,0,0-0.1l0,0c0,0,0,0,0-0.1c0,0,0,0,0,0c0,0,0,0,0,0
		c0,0,0,0,0-0.1l0,0c0,0,0-0.1-0.1-0.1l0,0c0,0,0,0,0-0.1c0,0,0,0,0,0c0,0,0,0,0-0.1l0,0c0,0,0-0.1-0.1-0.1l0,0c0,0,0-0.1-0.1-0.1
		c0,0,0,0,0,0c0,0,0,0,0-0.1c0,0,0,0,0,0c0,0,0-0.1,0-0.1l0,0c0,0,0-0.1,0-0.1c0,0,0,0,0,0c0,0,0,0,0,0c0,0,0-0.1,0-0.1l0,0
		c0,0,0-0.1,0-0.2c0,0,0,0,0,0c0,0,0,0,0,0c0-0.1,0-0.1,0-0.2l0-0.1c-0.1-0.1,0-0.2,0-0.4c0-0.1,0-0.3,0-0.4c0.1-0.1,0-0.2,0-0.4
		l0-0.1c0-0.1,0-0.1,0-0.2l0-0.1c0,0,0-0.1,0-0.1l0,0c0,0,0-0.1,0-0.2l0,0c0,0,0-0.1,0.1-0.1l0,0c0,0,0-0.1,0-0.1c0,0,0,0,0,0
		c0,0,0,0,0-0.1c0,0,0,0,0,0c0,0,0-0.1,0.1-0.1l0,0c0,0,0-0.1,0.1-0.1l0,0l0-0.1c0,0,0.1,0,0.1,0c0,0,0,0,0,0.1l0,0c0,0,0,0,0,0.1
		l0,0c0,0,0,0,0,0.1l0,0c0,0,0,0,0.1,0.1l0,0c0,0,0.1,0,0.1,0.1c0,0,0,0,0,0c0,0,0,0,0,0l0,0c0,0,0,0,0,0l0,0c0,0,0,0,0,0l0,0
		c0,0,0,0,0,0.1l0,0c0,0,0,0,0,0.1l0,0c0,0,0,0,0.1,0.1l0,0c0,0,0,0,0.1,0.1l0,0c0,0,0,0,0.1,0.1l0,0c0,0,0,0,0.1,0.1l0,0
		c0,0,0,0,0.1,0.1l0,0c0,0,0,0,0.1,0.1l0,0c0,0,0,0,0.1,0.1l0,0c0,0,0,0,0.1,0.1l0,0c0,0,0,0,0.1,0.1l0,0c0,0,0,0,0.1,0l0,0
		c0,0,0,0,0,0l0,0c0,0,0,0,0,0l0,0c0,0,0,0,0,0c0,0,0,0,0,0c0,0,0.1,0,0.1,0.1l0,0c0,0,0,0,0.1,0.1l0,0c0,0,0,0,0.1,0.1l0,0
		c0,0,0,0,0.1,0l0,0c0,0,0,0,0.1,0l0,0c0,0,0,0,0,0c0,0,0,0,0,0c0,0,0.1,0,0.1,0.1h0c0,0,0,0,0.1,0l0,0c0,0,0,0,0.1,0l0,0
		c0,0,0,0,0,0c0,0,0,0,0,0c0,0,0.1,0,0.1,0l0,0c0,0,0,0,0.1,0l0,0c0,0,0,0,0,0c0,0,0,0,0,0c0,0,0.1,0,0.1,0l0,0c0,0,0,0,0.1,0l0,0
		c0,0,0.1,0,0.1,0.1h0c0,0,0,0,0.1,0l0,0c0,0,0,0,0,0c0,0,0,0,0,0c0,0,0,0,0.1,0l0,0c0,0,0,0,0,0c0,0,0,0,0,0c0,0,0,0,0.1,0l0,0
		c0,0,0.1,0,0.1,0.1l0,0l0.1,0c0,0,0,0,0,0c0,0,0.1,0,0.1,0l0,0c0,0,0,0,0,0c0,0,0,0,0,0l0.1,0c0,0,0,0,0,0c0,0,0,0,0.1,0l0,0
		c0,0,0.1,0,0.1,0.1l0,0c0,0,0.1,0,0.1,0.1l0,0c0,0,0,0,0.1,0c0,0,0,0,0,0l0.1,0c0,0,0,0,0,0c0,0,0,0,0.1,0c0,0,0,0,0,0
		c0,0,0,0,0.1,0c0,0,0,0,0,0c0,0,0,0,0.1,0c0,0,0,0,0,0c0,0,0,0,0.1,0l0,0c0,0,0.1,0,0.1,0l0,0c0,0,0.1,0,0.1,0c0,0,0,0,0,0
		c0,0,0,0,0,0c0,0,0,0,0.1,0c0,0,0,0,0,0c0,0,0,0,0.1,0l0.1,0c0,0,0.1,0,0.1,0c0,0,0,0,0,0c0,0,0.1,0,0.1,0c0,0,0,0,0,0c0,0,0,0,0,0
		c0,0,0,0,0.1,0l0,0c0,0,0.1,0,0.1,0c0,0,0,0,0,0c0,0,0.1,0,0.1,0c0,0,0,0,0,0c0,0,0.1,0,0.1,0c0,0,0,0,0,0c0,0,0.1,0,0.1,0l0.1,0
		c0,0,0,0,0.1,0l0.1,0c0,0,0.1,0,0.1,0l0.1,0c0,0,0.1,0,0.1,0l0.1,0c0,0,0.1,0,0.1,0l0.1,0c0,0,0.1,0,0.2,0l0.1,0c0,0,0.1,0,0.2,0
		l0.1,0c0,0,0.1,0,0.2,0c0.1,0,0.1,0,0.2,0c0.1,0,0.1,0,0.2,0c0.1,0,0.2,0,0.2,0c0.1,0,0.2,0,0.3,0h0.1c0,0,0-0.1,0-0.1l0-0.1
		c0-0.1,0-0.2,0-0.3c0,0,0-0.1,0-0.1c0-0.2,0-0.3,0-0.5c0-0.1,0-0.1,0-0.2c0-0.1,0-0.2,0-0.3c0,0,0,0,0,0c0-0.1,0-0.1,0-0.2
		c0,0,0,0,0,0c0,0,0-0.1,0-0.1c0,0,0,0,0,0c0,0,0-0.1,0.1-0.2l0,0c0,0,0-0.1,0-0.1c0,0,0,0,0,0c0,0,0-0.1,0-0.1l0,0c0,0,0-0.1,0-0.1
		l0,0c0,0,0-0.1,0-0.1l0,0c0,0,0-0.1,0.1-0.1l0,0c0,0,0-0.1,0.1-0.1l0,0c0,0,0-0.1,0.1-0.1l0,0c0,0,0,0,0-0.1l0,0c0,0,0-0.1,0.1-0.1
		v0c0,0,0,0,0-0.1l0,0c0,0,0,0,0,0c0,0,0,0,0,0c0,0,0-0.1,0.1-0.1l0,0c0,0,0,0,0-0.1l0,0c0,0,0,0,0-0.1v0c0,0,0,0,0,0l0,0
		c0,0,0-0.1,0.1-0.1l0,0c0,0,0,0,0.1-0.1l0,0c0,0,0,0,0.1-0.1l0,0c0,0,0,0,0.1-0.1l0,0c0,0,0,0,0.1-0.1l0,0c0,0,0-0.1,0.1-0.1
		c0,0,0,0,0,0c0,0,0,0,0,0l0,0c0,0,0,0,0.1,0l0,0c0,0,0,0,0.1,0l0,0c0,0,0,0,0.1,0c0,0,0,0,0,0c0,0,0,0,0,0l0,0c0,0,0,0,0.1,0l0,0
		c0,0,0.1,0,0.1-0.1l0,0c0,0,0,0,0.1,0l0,0c0,0,0.1,0,0.1-0.1l0,0c0,0,0,0,0.1,0c0,0,0,0,0,0c0,0,0,0,0,0c0,0,0,0,0.1,0c0,0,0,0,0,0
		c0,0,0,0,0.1,0c0,0,0,0,0,0c0,0,0,0,0.1,0c0,0,0,0,0,0c0,0,0,0,0,0c0,0,0.1,0,0.1,0l0,0c0,0,0,0,0.1,0c0,0,0,0,0,0c0,0,0.1,0,0.1,0
		l0.1,0c0,0,0.1,0,0.1,0l0,0c0,0,0.1,0,0.2,0l0.1,0c0.1,0,0.1,0,0.2,0l0.2,0c0.2,0,0.4,0,0.5,0l0.3,0c0.1,0,0.1,0,0.2,0l0.1,0
		c0,0,0.1,0,0.2,0c0,0,0,0,0,0c0,0,0.1,0,0.1,0l0.1,0c0,0,0,0,0.1,0l0.1,0c0,0,0,0,0.1,0c0,0,0,0,0,0c0,0,0.1,0,0.1,0l0,0
		c0,0,0.1,0,0.1,0c0,0,0,0,0,0c0,0,0,0,0.1,0c0,0,0,0,0,0c0,0,0.1,0,0.1,0l0,0c0,0,0.1,0,0.1,0.1l0,0c0,0,0,0,0.1,0c0,0,0,0,0,0
		c0,0,0,0,0.1,0l0,0c0,0,0.1,0,0.1,0.1l0,0c0,0,0,0,0.1,0l0,0c0,0,0,0,0,0c0,0,0,0,0,0c0,0,0.1,0,0.1,0.1h0c0,0,0,0,0.1,0l0,0
		c0,0,0,0,0.1,0l0,0c0,0,0,0,0,0l0,0c0,0,0,0,0,0l0,0c0,0,0.1,0,0.1,0.1l0,0c0,0,0,0,0.1,0.1l0,0c0,0,0.1,0,0.1,0.1l0,0
		c0.1,0,0.1,0,0.2,0l0.1,0c0,0,0.1,0,0.1,0l0.1,0c0,0,0.1,0,0.1,0c0,0,0,0,0,0c0,0,0.1,0,0.1,0l0.1,0c0,0,0,0,0.1,0l0.1,0
		c0,0,0,0,0.1,0l0.1,0c0,0,0,0,0.1,0c0,0,0,0,0,0c0,0,0.1,0,0.1,0c0,0,0,0,0,0c0,0,0,0,0.1,0c0,0,0,0,0,0c0,0,0,0,0,0
		c0,0,0.1,0,0.1,0l0,0l0.1,0c0,0,0,0,0,0c0,0,0,0,0.1,0c0,0,0,0,0,0c0,0,0,0,0.1,0c0,0,0,0,0,0c0,0,0,0,0.1,0c0,0,0,0,0,0
		c0,0,0,0,0.1,0c0,0,0,0,0,0c0,0,0,0,0.1,0c0,0,0,0,0,0l0.1,0c0,0,0,0,0,0c0,0,0,0,0,0l0,0c0.1,0,0.1,0.1,0,0.1l0,0c0,0,0,0.1,0,0.1
		c0,0,0,0,0,0c0,0,0,0.1,0,0.1l0,0c0,0,0,0.1-0.1,0.1l0,0c0,0,0,0.1-0.1,0.1l0,0c0,0,0,0.1-0.1,0.1v0c0,0,0,0,0,0.1c0,0,0,0,0,0
		c0,0,0,0,0,0c0,0,0,0.1,0,0.1l0,0c0,0,0,0.1-0.1,0.1l0,0c0,0,0,0,0,0.1l0,0c0,0,0,0,0,0c0,0,0,0,0,0c0,0,0,0.1-0.1,0.1l0,0
		c0,0,0,0,0,0.1l0,0c0,0,0,0,0,0.1l0,0c0,0,0,0,0,0c0,0,0,0,0,0c0,0,0,0.1-0.1,0.1l0,0c0,0,0,0-0.1,0.1l0,0c0,0,0,0-0.1,0.1l0,0
		c0,0,0,0-0.1,0.1l0,0c0,0,0,0-0.1,0.1v0c0,0,0,0-0.1,0.1h0c0,0,0,0-0.1,0.1l0,0c0,0-0.1,0-0.1,0.1l0,0c0,0,0,0,0,0l0,0
		c0,0,0,0-0.1,0l0,0c0,0,0,0-0.1,0c0,0,0,0,0,0c0,0,0,0,0,0l0,0c0,0,0,0-0.1,0l0,0c0,0,0,0,0,0.1l0.1,0c0.1,0,0.1,0,0.2,0l0.1,0
		c0,0,0.1,0,0.1,0l0.1,0c0,0,0.1,0,0.1,0l0,0c0,0,0.1,0,0.1,0l0.1,0c0,0,0.1,0,0.1,0c0,0,0,0,0,0c0,0,0.1,0,0.1,0c0,0,0,0,0,0
		c0,0,0.1,0,0.1,0c0,0,0,0,0,0c0,0,0.1,0,0.1,0c0,0,0,0,0,0c0,0,0.1,0,0.1,0l0,0c0,0,0.1,0,0.1,0c0,0,0,0,0,0c0,0,0,0,0.1,0
		c0,0,0,0,0,0c0,0,0,0,0,0c0,0,0,0,0.1,0c0,0,0,0,0,0l0,0c0,0,0,0,0,0.1l0,0c0,0,0,0.1-0.1,0.1l0,0c0,0,0,0,0,0.1l0,0c0,0,0,0,0,0.1
		v0c0,0,0,0.1-0.1,0.1l0,0c0,0,0,0,0,0.1l0,0c0,0,0,0,0,0.1l0,0c0,0,0,0.1-0.1,0.1l0,0c0,0,0,0-0.1,0.1l0,0c0,0,0,0,0,0.1l0,0
		c0,0,0,0,0,0.1l0,0c0,0,0,0,0,0v0c0,0,0,0,0,0l0,0c0,0,0,0.1-0.1,0.1l0,0c0,0,0,0-0.1,0.1l0,0c0,0,0,0-0.1,0.1l0,0c0,0,0,0-0.1,0.1
		l0,0c0,0,0,0-0.1,0.1l0,0c0,0,0,0-0.1,0.1v0c0,0,0,0-0.1,0.1l0,0c0,0,0,0-0.1,0.1h0c0,0,0,0-0.1,0.1v0c0,0,0,0-0.1,0.1l0,0
		c0,0,0,0-0.1,0.1c0,0,0,0,0,0c0,0,0,0,0,0l0,0c0,0,0,0,0,0l0,0c0,0,0,0-0.1,0c0,0,0,0-0.1,0l0,0c0,0,0,0-0.1,0.1l0,0
		c0,0,0,0-0.1,0.1c0,0,0,0,0,0c0,0,0,0,0,0l0,0c0,0,0,0-0.1,0l0,0c0,0,0,0-0.1,0l0,0c0,0-0.1,0-0.1,0.1l0,0c0,0.2,0,0.5,0,0.7
		c0,0.1,0,0.2,0,0.3c0,0.1,0,0.2,0,0.2c-0.1,0.1,0,0.3,0,0.4c0,0,0,0.1,0,0.1c0,0.1,0,0.2,0,0.3l0,0.1c0,0.1,0,0.1,0,0.2l0,0.1
		c0,0.1,0,0.1,0,0.2c0,0,0,0,0,0l0,0c0,0,0,0.1,0,0.2c0,0,0,0,0,0c-0.1,0.1,0,0.1,0,0.2c0,0,0,0,0,0l0,0c0,0.1,0,0.1,0,0.2
		c0,0,0,0,0,0c0,0,0,0,0,0c0,0,0,0.1,0,0.1c0,0,0,0,0,0c0,0,0,0.1,0,0.2c0,0,0,0,0,0c0,0,0,0,0,0c0,0,0,0.1,0,0.1c0,0,0,0,0,0
		c0,0,0,0.1,0,0.1c0,0,0,0,0,0c0,0,0,0.1,0,0.1c0,0,0,0,0,0c0,0,0,0.1,0,0.1c0,0,0,0,0,0c0,0,0,0,0,0c0,0,0,0.1,0,0.1l0,0
		c0,0,0,0.1,0,0.1c0,0,0,0,0,0c0,0,0,0.1,0,0.1l0,0c0,0,0,0.1,0,0.1c0,0,0,0,0,0c0,0,0,0.1,0,0.1l0,0c0,0,0,0.1,0,0.1l0,0
		c0,0,0,0.1,0,0.1c0,0,0,0,0,0c0,0,0,0,0,0c0,0,0,0,0,0.1c0,0,0,0,0,0c0,0,0,0,0,0.1c0,0,0,0,0,0c0,0,0,0.1-0.1,0.1l0,0
		c0,0,0,0.1-0.1,0.1l0,0c0,0,0,0,0,0.1c0,0,0,0,0,0c0,0,0,0,0,0.1c0,0,0,0,0,0c0,0,0,0,0,0.1c0,0,0,0,0,0c0,0,0,0,0,0.1l0,0
		c0,0,0,0.1-0.1,0.1l0,0c0,0,0,0.1-0.1,0.1l0,0c0,0,0,0,0,0.1c0,0,0,0,0,0c0,0,0,0,0,0.1l0,0c0,0,0,0.1-0.1,0.1l0,0c0,0,0,0,0,0.1
		c0,0,0,0,0,0c0,0,0,0,0,0.1l0,0c0,0,0,0.1-0.1,0.1v0c0,0,0,0,0,0.1l0,0c0,0,0,0.1-0.1,0.1h0c0,0,0,0,0,0.1l0,0c0,0,0,0.1-0.1,0.1v0
		c0,0,0,0,0,0.1l0,0c0,0,0,0,0,0c0,0,0,0,0,0c0,0,0,0.1,0,0.1l0,0c0,0,0,0,0,0.1l0,0c0,0,0,0.1-0.1,0.1l0,0c0,0,0,0,0,0.1l0,0
		c0,0,0,0,0,0.1l0,0c0,0,0,0.1-0.1,0.1l0,0c0,0,0,0-0.1,0.1l0,0c0,0,0,0,0,0.1l0,0c0,0,0,0,0,0.1l0,0c0,0,0,0,0,0c0,0,0,0,0,0
		c0,0,0,0.1-0.1,0.1v0c0,0,0,0-0.1,0.1l0,0c0,0,0,0,0,0.1l0,0c0,0,0,0,0,0.1l0,0c0,0,0,0,0,0v0c0,0,0,0,0,0l0,0c0,0,0,0,0,0
		c0,0,0,0,0,0c0,0,0,0.1-0.1,0.1l0,0c0,0,0,0-0.1,0.1l0,0c0,0,0,0-0.1,0.1l0,0c0,0,0,0-0.1,0.1l0,0c0,0,0,0-0.1,0.1l0,0
		c0,0,0,0-0.1,0.1l0,0c0,0,0,0-0.1,0.1l0,0c0,0,0,0-0.1,0.1l0,0c0,0,0,0-0.1,0.1l0,0c0,0,0,0-0.1,0.1l0,0c0,0,0,0-0.1,0.1l0,0
		c0,0,0,0.1-0.1,0.1c0,0,0,0,0,0c0,0,0,0,0,0l0,0c0,0,0,0,0,0l0,0c0,0,0,0,0,0l0,0c0,0,0,0-0.1,0l0,0c0,0,0,0-0.1,0l0,0
		c0,0,0,0-0.1,0.1l0,0c0,0,0,0-0.1,0.1c0,0,0,0,0,0c0,0,0,0,0,0l0,0c0,0,0,0-0.1,0l0,0c0,0,0,0-0.1,0l0,0c0,0,0,0-0.1,0.1
		c0,0,0,0,0,0c0,0,0,0,0,0l0,0c0,0,0,0-0.1,0l0,0c0,0,0,0-0.1,0c0,0,0,0,0,0c0,0,0,0,0,0l0,0c0,0,0,0-0.1,0l0,0c0,0,0,0-0.1,0
		c0,0,0,0,0,0c0,0,0,0,0,0l0,0c0,0,0,0-0.1,0c0,0,0,0,0,0c0,0,0,0,0,0c0,0,0,0-0.1,0c0,0,0,0,0,0c0,0,0,0,0,0l0,0c0,0,0,0-0.1,0
		c0,0,0,0,0,0c0,0,0,0-0.1,0l0,0c0,0-0.1,0-0.1,0.1l0,0c0,0,0,0-0.1,0c0,0,0,0,0,0c0,0,0,0-0.1,0l0,0c0,0-0.1,0-0.1,0.1l0,0
		c0,0,0,0-0.1,0h0l0,0c0,0,0,0-0.1,0c0,0,0,0,0,0c0,0,0,0-0.1,0c0,0,0,0,0,0c0,0,0,0-0.1,0c0,0,0,0,0,0l-0.1,0c0,0,0,0,0,0l-0.1,0
		c0,0,0,0,0,0c0,0,0,0-0.1,0c0,0,0,0,0,0c0,0,0,0-0.1,0h0l0,0c0,0-0.1,0-0.1,0l0,0c0,0-0.1,0-0.1,0l0,0c0,0,0,0-0.1,0h0l0,0
		c0,0-0.1,0-0.1,0l-0.1,0c0,0,0,0-0.1,0h0l0,0c0,0-0.1,0-0.1,0h0l0,0c0,0-0.1,0-0.1,0l-0.1,0c0,0,0,0-0.1,0l-0.1,0c0,0,0,0-0.1,0
		l-0.1,0c0,0-0.1,0-0.1,0h0l0,0c0,0-0.1,0-0.1,0l-0.1,0c0,0-0.1,0-0.1,0h0l0,0c0,0-0.1,0-0.2,0h0l0,0c0,0-0.1,0-0.2,0l-0.1,0
		c0,0-0.1,0-0.1,0L1045.7,1702.5C1045.8,1702.5,1045.7,1702.5,1045.7,1702.5z"/>
</g>
</svg>
