<?xml version="1.0" encoding="utf-8"?>
<!-- Generator: Adobe Illustrator 27.0.0, SVG Export Plug-In . SVG Version: 6.00 Build 0)  -->
<svg version="1.1" id="Layer_1" xmlns="http://www.w3.org/2000/svg" xmlns:xlink="http://www.w3.org/1999/xlink" x="0px" y="0px"
	 viewBox="0 0 512 512" style="enable-background:new 0 0 512 512;" xml:space="preserve">
<style type="text/css">
	.st0{fill-rule:evenodd;clip-rule:evenodd;}
	.st1{fill-rule:evenodd;clip-rule:evenodd;fill:#FFFFFF;}
</style>
<g id="XMLID_16_">
	<path id="XMLID_22_" class="st0" d="M440.2,512H71.8C32.3,512,0,479.7,0,440.2V71.8C0,32.3,32.3,0,71.8,0h368.4
		C479.7,0,512,32.3,512,71.8v368.4C512,479.7,479.7,512,440.2,512z"/>
	<g id="XMLID_189_">
		<path id="XMLID_73_" class="st1" d="M104,249.5c70.4-29.5,155.5-71.5,229.3-99.9c68.1-25,67-18.2,56.8,49.9
			c-7.9,54.5-17,109-26.1,163.4c-3.4,26.1-17,39.7-45.4,23.8L230,324.4c-12.5-10.2-9.1-18.2,1.1-28.4l81.7-77.2
			c21.6-21.6,11.4-29.5-13.6-12.5l-112.4,76c-15.9,11.4-32.9,11.4-51.1,5.7l-38.6-13.6C72.2,265.4,91.5,255.2,104,249.5L104,249.5z"
			/>
	</g>
</g>
</svg>
