<svg xmlns="http://www.w3.org/2000/svg" width="97.5" height="58.175" viewBox="0 0 97.5 58.175">
  <defs>
    <style>
      .cls-1 {
        fill: #faa91f;
      }

      .cls-2 {
        fill: #ed2027;
      }

      .cls-3 {
        fill: #ef4032;
      }

      .cls-4 {
        fill: #fcb23a;
      }

      .cls-5 {
        fill: #fdba55;
      }

      .cls-6 {
        fill: #ef4333;
      }

      .cls-7 {
        fill: #fec46f;
      }

      .cls-8 {
        fill: #fcb646;
      }

      .cls-9 {
        fill: #fabda7;
      }

      .cls-10 {
        fill: #f37054;
      }

      .cls-11 {
        fill: #ffe8c6;
      }

      .cls-12 {
        fill: #ffe5c1;
      }

      .cls-13 {
        fill: #ffd08c;
      }

      .cls-14 {
        fill: #ffe4be;
      }

      .cls-15 {
        fill: #feca7d;
      }

      .cls-16 {
        fill: #f79a7e;
      }

      .cls-17 {
        fill: #fff;
      }

      .cls-18 {
        fill: #fffdf8;
      }

      .cls-19 {
        fill: #fbae30;
      }

      .cls-20 {
        fill: #f79653;
      }

      .cls-21 {
        fill: #faa754;
      }

      .cls-22 {
        fill: #fbaf46;
      }

      .cls-23 {
        fill: #faa753;
      }

      .cls-24 {
        fill: #f9a056;
      }

      .cls-25 {
        fill: #fbaf3c;
      }

      .cls-26 {
        fill: #fbac4f;
      }

      .cls-27 {
        fill: #f89c4d;
      }

      .cls-28 {
        fill: #ffcd7a;
      }

      .cls-29 {
        fill: #fba920;
      }

      .cls-30 {
        fill: #fbaa20;
      }

      .cls-31 {
        fill: #ef3947;
      }

      .cls-32 {
        fill: #fbab23;
      }

      .cls-33 {
        fill: #fbaa1f;
      }

      .cls-34 {
        fill: #fbb048;
      }

      .cls-35 {
        fill: #f9a057;
      }

      .cls-36 {
        fill: #fbac4a;
      }

      .cls-37 {
        fill: #fffefd;
      }

      .cls-38 {
        fill: #fffcf8;
      }

      .cls-39 {
        fill: #fbab25;
      }

      .cls-40 {
        fill: #fcb02f;
      }

      .cls-41 {
        fill: #fff7ec;
      }
    </style>
  </defs>
  <g id="Artboard_246_copy_3" data-name="Artboard 246 copy 3" transform="translate(-13.75 -19.5)">
    <path id="Trazado_7749" data-name="Trazado 7749" class="cls-1" d="M81.79,19.52h.84a2,2,0,0,0,.6,0H84a22.21,22.21,0,0,1,6.47,1A29.45,29.45,0,0,1,110.1,39.9a23.791,23.791,0,0,1,1,4.59,16.807,16.807,0,0,0,.14,1.88V47a.61.61,0,0,0,0,.46V50.1c-.08.13,0,.27,0,.4v.35a21.2,21.2,0,0,1-1.06,6.27,29,29,0,0,1-4.44,8.78,28.23,28.23,0,0,1-2.46,2.89,29.591,29.591,0,0,1-4.39,3.75,29,29,0,0,1-9.67,4.4,22.57,22.57,0,0,1-5.11.72c-1.84,0-3.67.06-5.51-.06a23.33,23.33,0,0,1-4.95-1,29.4,29.4,0,0,1-8.5-4.09c-.83-.58-1.63-1.21-2.4-1.86a.7.7,0,0,1-.22-.26c-.07-.24.1-.37.25-.5a9.46,9.46,0,0,0,.8-.75c.06-.07.17-.12.14-.24a.65.65,0,0,0-.41-.06H61a.68.68,0,0,1-.44-.25c-.34-.33-.63-.7-.94-1-.12-.15-.27-.32-.1-.54A.94.94,0,0,1,60,67h4.79a1.83,1.83,0,0,0,.77-.15,5.38,5.38,0,0,0,.9-1.07c.12-.15.06-.24-.12-.25a2.381,2.381,0,0,0-.38,0H58.62a1.13,1.13,0,0,1-1.1-.6c-.16-.29-.38-.56-.56-.85-.28-.47-.16-.69.37-.71H67.3c.56,0,1-.12,1.16-.67,0-.08.09-.15.13-.23.19-.37.19-.38-.24-.38H56.27a.66.66,0,0,1-.62-.37,8.27,8.27,0,0,1-.54-1.17c-.14-.38,0-.57.41-.6H69c1,0,.84.06,1.18-.79.06-.18.18-.34.11-.54a.94.94,0,0,0-.69-.15H55a1.12,1.12,0,0,1-.6-.07,2.23,2.23,0,0,1-.54-1.66c.14-.23.38-.17.58-.17H70.21A1.89,1.89,0,0,0,71,56.4a2.42,2.42,0,0,0,.38-1.17c0-.13-.09-.16-.2-.17H67.85a.74.74,0,0,1-.54-.12.33.33,0,0,1-.09-.28,7.681,7.681,0,0,1,.27-1.43.36.36,0,0,1,.15-.21.79.79,0,0,1,.4-.1h3.25c.23,0,.33.17.42.34a4.63,4.63,0,0,0,3.66,2.4,9.79,9.79,0,0,0,3.24-.19.49.49,0,0,0,.45-.43c.12-.6.21-1.2.34-1.79.07-.28-.06-.28-.26-.21a6.21,6.21,0,0,1-2.3.42,2.87,2.87,0,0,1-2.89-2.87A5.48,5.48,0,0,1,75,46.94a3.81,3.81,0,0,1,3.67-1.44,6.71,6.71,0,0,1,1.69.45c.32.14.37.11.43-.22.1-.52.19-1,.29-1.57s0-.48-.37-.59A10.43,10.43,0,0,0,78,43.11a6.65,6.65,0,0,0-5.31,2.5c-.12.15-.21.36-.47.31a.51.51,0,0,1-.13-.41.71.71,0,0,0-.05-.38.28.28,0,0,0-.17-.15,1.9,1.9,0,0,0-.71-.09h-17a4,4,0,0,1-.6,0,.23.23,0,0,1-.2-.27A.56.56,0,0,0,53,44a.89.89,0,0,1,.24-1,2.09,2.09,0,0,1,.61,0H70.76a1.4,1.4,0,0,0,.7-.11h.06a1.74,1.74,0,0,0-.37-1.34,1.78,1.78,0,0,0-.75-.11H54.3a1,1,0,0,1-.62-.09,2,2,0,0,1,.52-1.79,3.09,3.09,0,0,1,.61,0H69.87a1.37,1.37,0,0,0,.66-.1h.06a2,2,0,0,0-.59-1.4,1.77,1.77,0,0,0-.72-.09H55.43a1,1,0,0,1-.59-.07.18.18,0,0,1-.08-.16,2.38,2.38,0,0,1,.83-1.65,5.419,5.419,0,0,1,.57,0H68.5a.944.944,0,0,0,.64-.15,4.16,4.16,0,0,0-.62-1.29c-.11-.19-.32-.18-.51-.18H57.25c-.25,0-.54.08-.69-.19s.06-.48.18-.69.33-.48.46-.74a.92.92,0,0,1,.93-.52h8.25c.19,0,.48.1.57-.07s-.16-.37-.29-.54A2.18,2.18,0,0,0,66.1,31a1.92,1.92,0,0,0-.82-.14H59.5a1,1,0,0,1-.52-.06.26.26,0,0,1,0-.37,7.21,7.21,0,0,1,1.2-1.38.36.36,0,0,1,.24-.09h3.45a.7.7,0,0,0,.47-.08c0-.19-.12-.27-.22-.37-.41-.44-.86-.84-1.31-1.25-.15-.13-.34-.27-.26-.53a15.83,15.83,0,0,1,2.38-2,29.5,29.5,0,0,1,12.08-5,23,23,0,0,1,3-.23,1.42,1.42,0,0,0,.46,0h.07a1.46,1.46,0,0,0,.55,0A3.14,3.14,0,0,0,81.79,19.52Z"/>
    <path id="Trazado_7750" data-name="Trazado 7750" class="cls-2" d="M60.28,29.1a13.48,13.48,0,0,0-1.34,1.58c.05.26.25.13.36.13h6.55a.82.82,0,0,1,.41,0l1.1,1.52a.59.59,0,0,1-.42.07h-8.9a.62.62,0,0,0-.63.36c-.23.41-.49.8-.74,1.19-.13.2-.07.28.15.27H68.08a.64.64,0,0,1,.68.39c.21.45.46.88.69,1.31q.09.16-.09.18a1.931,1.931,0,0,1-.34,0H56a.74.74,0,0,0-.44,0,8.931,8.931,0,0,0-.7,1.58c0,.08,0,.11.1.12H70.3l.6,1.55c-.12.14-.28.07-.42.07H54.16a7.84,7.84,0,0,0-.46,1.59c0,.08,0,.11.11.11H71.44L71.81,43c-.13.12-.29.06-.43.06H53.25a3.86,3.86,0,0,0-.16.9c-.11.18-.3.16-.48.16h-1.4c-.61,0-.62,0-.75.61-.24,1.18-.5,2.35-.72,3.53-.31,1.62-.62,3.23-.87,4.86a2,2,0,0,0,1.93,2.54,7.3,7.3,0,0,0,2.2-.19.4.4,0,0,0,.33-.33.42.42,0,0,1,.26-.35,11.49,11.49,0,0,1,2.27,0,.86.86,0,0,1,.47.14,7.18,7.18,0,0,0,4.27.76c.51-.05,1-.08,1.54-.18.34-.06.65-.14.75-.53a.35.35,0,0,1,.13-.14,1.57,1.57,0,0,1,1.11,0,.31.31,0,0,1,.13.3c0,.33.16.37.42.37h1.9c.29,0,.48-.07.54-.39a.32.32,0,0,1,.24-.26H71.2c.47,0,.47,0,.36.45l-.33,1.24c-.14.1-.3,0-.45,0H54.28c-.12,0-.39-.16-.35.19a7,7,0,0,0,.46,1.45c.11.18.29.1.45.1H70.19c.14,0,.33-.12.42.11-.16.39-.33.77-.46,1.17a.57.57,0,0,1-.65.45H55.38c-.21,0-.28.06-.18.27.2.4.39.8.56,1.21a.51.51,0,0,0,.55.34H69.07a13.269,13.269,0,0,1-.82,1.5c-.11.18-.29.12-.45.12H57.26c-.1,0-.25-.06-.31.06s.06.2.12.29c.22.36.47.7.68,1.06a.77.77,0,0,0,.76.41H67c-.4.64-.84,1.14-1.24,1.67a.72.72,0,0,1-.41,0H59.83c-.11,0-.31-.14-.35.12a13.341,13.341,0,0,0,1.42,1.58,21.888,21.888,0,0,0,2.43,0h.57c.07,0,.17,0,.13.11l-1.49,1.43a.56.56,0,0,1-.25.4,29.16,29.16,0,0,1-11.43,6.06,23.729,23.729,0,0,1-4.18.8c-.87.07-1.74.1-2.62.1-1.54,0-3.09,0-4.63-.11a24.13,24.13,0,0,1-4.61-.92A29.25,29.25,0,0,1,13.91,52.47a21.45,21.45,0,0,1-.14-2.53,44.81,44.81,0,0,1,.11-4.78,24.69,24.69,0,0,1,1-5.1,29.05,29.05,0,0,1,5.4-10,29.51,29.51,0,0,1,8.44-7A30.2,30.2,0,0,1,37,20a22,22,0,0,1,3.8-.43h.64a.19.19,0,0,0,.23,0h.45a1.67,1.67,0,0,0,.77,0h.45a2,2,0,0,0,.6,0,1.482,1.482,0,0,0,.47,0h.15c.15.08.31,0,.46,0a23.68,23.68,0,0,1,8,1.53,29,29,0,0,1,8.81,5c.26.21.61.37.68.77.71.7,1.46,1.35,2.12,2.09,0,.22-.22.11-.33.11H60.69A1,1,0,0,0,60.28,29.1Z"/>
    <path id="Trazado_7751" data-name="Trazado 7751" class="cls-3" d="M42.89,19.52a.9.9,0,0,1-.77,0Z"/>
    <path id="Trazado_7752" data-name="Trazado 7752" class="cls-4" d="M81.79,19.52c-.25.14-.51.05-.77.07v-.05h0Z"/>
    <path id="Trazado_7753" data-name="Trazado 7753" class="cls-5" d="M83.24,19.58c-.21,0-.42.07-.61-.06h.6S83.25,19.58,83.24,19.58Z"/>
    <path id="Trazado_7754" data-name="Trazado 7754" class="cls-6" d="M44,19.58c-.21,0-.42.07-.62-.06H44Z"/>
    <path id="Trazado_7755" data-name="Trazado 7755" class="cls-7" d="M81,19.52v.07c-.17,0-.37.08-.53-.07Z"/>
    <path id="Trazado_7756" data-name="Trazado 7756" class="cls-8" d="M111.25,47.44a.36.36,0,0,1,0-.46Z"/>
    <path id="Trazado_7757" data-name="Trazado 7757" class="cls-9" d="M45,19.52v.06c-.16,0-.32.06-.46-.06Z"/>
    <path id="Trazado_7758" data-name="Trazado 7758" class="cls-10" d="M44,19.58v-.06h.46C44.28,19.66,44.11,19.56,44,19.58Z"/>
    <path id="Trazado_7759" data-name="Trazado 7759" class="cls-11" d="M80,19.58v-.06h.46A.662.662,0,0,1,80,19.58Z"/>
    <path id="Trazado_7760" data-name="Trazado 7760" class="cls-12" d="M84,19.52v.06h-.38c-.05,0-.06,0,0-.06Z"/>
    <path id="Trazado_7761" data-name="Trazado 7761" class="cls-13" d="M83.62,19.52v.06h-.38v-.06Z"/>
    <path id="Trazado_7762" data-name="Trazado 7762" class="cls-14" d="M111.25,50.86h-.07v-.38c0-.06,0-.06.06,0Z"/>
    <path id="Trazado_7763" data-name="Trazado 7763" class="cls-15" d="M111.25,50.48h-.06a.844.844,0,0,1,.06-.39Z"/>
    <path id="Trazado_7764" data-name="Trazado 7764" class="cls-16" d="M41.67,19.52c-.08.09-.16.11-.23,0Z"/>
    <path id="Trazado_7765" data-name="Trazado 7765" class="cls-17" d="M103.81,46.71c.2-1.09.41-2.1.58-3.12,0-.27.14-.35.42-.35h2.36c.25,0,.37,0,.3.34q-1.12,5.88-2.21,11.75c-.05.25-.13.34-.38.33h-2.32c-.29,0-.34-.07-.3-.33a1.4,1.4,0,0,0,0-.55,4.06,4.06,0,0,1-2.5,1,3.65,3.65,0,0,1-4-3.09,6.64,6.64,0,0,1,2.43-6.45,4,4,0,0,1,5.36.29Z"/>
    <path id="Trazado_7766" data-name="Trazado 7766" class="cls-17" d="M86.58,54.67A4.39,4.39,0,0,1,83,55.82a2.66,2.66,0,0,1-2.51-3.32,3.5,3.5,0,0,1,2.64-2.92,9,9,0,0,1,3.72-.36c.31,0,.4-.08.43-.35a.89.89,0,0,0-.88-1.12,10.1,10.1,0,0,0-2.69,0,9.38,9.38,0,0,0-1.72.35c.14-.73.28-1.42.42-2.1a.23.23,0,0,1,.2-.2,10.48,10.48,0,0,1,5.47-.28,2.74,2.74,0,0,1,2.25,2.62,7.62,7.62,0,0,1-.24,1.77c-.28,1.77-.59,3.54-.88,5.31,0,.28-.11.44-.46.42h-2c-.25,0-.35,0-.3-.31A6.425,6.425,0,0,0,86.58,54.67Z"/>
    <path id="Trazado_7767" data-name="Trazado 7767" class="cls-17" d="M72.21,45.88a7.32,7.32,0,0,1,2.84-2.33,7.74,7.74,0,0,1,5.24-.26c.34.09.8.08,1,.34s-.06.65-.11,1-.18.92-.24,1.38c0,.29-.11.36-.4.21a5.5,5.5,0,0,0-2.14-.58,3.74,3.74,0,0,0-3.8,2.26,5.26,5.26,0,0,0-.43,3.22,2.62,2.62,0,0,0,2.48,2.18,6,6,0,0,0,2.49-.42l.52-.19c-.18.93-.36,1.81-.53,2.7a.17.17,0,0,1-.16.17,9.38,9.38,0,0,1-4.59,0,4.6,4.6,0,0,1-3-2.59c-.21-.08-.26-.27-.31-.45a3.44,3.44,0,0,1-.21-1.15s0-.08,0-.13a4,4,0,0,1-.08-1,1.9,1.9,0,0,0,.09-.67A3.7,3.7,0,0,1,71,48.35a7.2,7.2,0,0,1,.79-2.05C71.9,46.13,72,45.93,72.21,45.88Z"/>
    <path id="Trazado_7768" data-name="Trazado 7768" class="cls-17" d="M53.56,54.84v.07c0,.63-.42.73-.89.81a6.92,6.92,0,0,1-2.08.12,2.08,2.08,0,0,1-1.86-2.58c.45-3,1.08-5.9,1.67-8.83.07-.32.2-.42.53-.41h2.2c.45,0,.44,0,.35.51a2,2,0,0,0,0,.26.61.61,0,0,1,.07.1c0,.5,0,.5.52.5.89,0,.94.07.8,1-.07.39-.14.77-.19,1.16a.7.7,0,0,1-.76.69c-1,0-1,0-1.15,1s-.41,2.11-.6,3.16c-.11.6.06.82.67.88h.34c.81-.06.88,0,.71.8C53.75,54.31,53.79,54.62,53.56,54.84Z"/>
    <path id="Trazado_7769" data-name="Trazado 7769" class="cls-2" d="M53.1,53.35a1.22,1.22,0,0,1-.6,0c-.54-.12-.7-.39-.6-.93.27-1.37.54-2.73.78-4.09,0-.26.14-.31.36-.3s.71,0,1.07,0c.15,0,.25,0,.28-.21.1-.69.2-1.37.33-2.06,0-.19,0-.21-.2-.21h-1c-.34,0-.36-.06-.25-.32s0-.28.11-.4a.93.93,0,0,1,.37,0H71.72c.13,0,.28-.06.4,0v.21c.07.12,0,.27.06.39v.41A8.53,8.53,0,0,0,71,49.57a.32.32,0,0,1-.27.11H68.65c-.2-.1-.15-.27-.08-.42a1.48,1.48,0,0,1,1.32-.94.44.44,0,0,0,.48-.41,8.07,8.07,0,0,1,.71-2c.12-.24,0-.31-.2-.31a2.23,2.23,0,0,0-1.51.7c-.18.16-.34.34-.51.5s-.16.15-.27.09a.26.26,0,0,1-.13-.26,3.471,3.471,0,0,1,.11-.63c0-.21,0-.32-.25-.32H66.34c-.33,0-.34.25-.38.47-.18,1-.37,1.94-.55,2.91,0,.23,0,.49-.33.6a4.58,4.58,0,0,1-1,0c-.24-.15-.21-.39-.2-.61a3.29,3.29,0,0,0-.31-1.55,3.51,3.51,0,0,0-3.12-2,5.82,5.82,0,0,0-1.56,0,5,5,0,0,0-3.53,2.58,7.28,7.28,0,0,0-.54,1.17.71.71,0,0,1-.23.38,7.72,7.72,0,0,1-1.27.06c-.21,0-.45,0-.41.34v.49a.75.75,0,0,0,.05.55.38.38,0,0,0,.11.11,1.39,1.39,0,0,0,.7.1c.21,0,.43-.06.62.09a4.15,4.15,0,0,1,.23,1.71c-.24.22-.52.15-.8.13a1,1,0,0,0-.72.14Z"/>
    <path id="Trazado_7770" data-name="Trazado 7770" class="cls-17" d="M65.12,49.58c.26-1,.41-2,.6-3s.18-1,1.2-1h1.52c.22,0,.36,0,.27.3s-.12.67-.2,1.11c.8-1,1.61-1.72,2.94-1.47a8.35,8.35,0,0,0-1,2.34.61.61,0,0,0,0,.18c0,.31-.11.49-.53.43-.62-.08-1.09.35-1.37,1.13a.88.88,0,0,1,0,.17c-.13.53-.31,1.06-.45,1.59a.49.49,0,0,1,0,.12c-.06.4-.16.79-.23,1.19a.78.78,0,0,1-.22.43,15.069,15.069,0,0,0-.32,1.78.249.249,0,0,1-.07.17c-.16.66-.16.66-.85.66H64.32c-.26,0-.34-.07-.27-.32a1.15,1.15,0,0,0,.06-.52.76.76,0,0,1,0-.59A10.15,10.15,0,0,1,64.37,53a9,9,0,0,1,.32-1.63.491.491,0,0,1,0-.12A7.411,7.411,0,0,1,65,49.67Z"/>
    <path id="Trazado_7771" data-name="Trazado 7771" class="cls-17" d="M94.34,46.82a4.94,4.94,0,0,1,.85-.86,2.3,2.3,0,0,1,1.89-.48c.06.08,0,.14,0,.2a8.65,8.65,0,0,0-.94,2.51c0,.19-.08.3-.34.25a1.29,1.29,0,0,0-1.4.82,9.111,9.111,0,0,0-.77,2.49c-.24,1.2-.46,2.41-.68,3.62,0,.22-.12.32-.37.31H90c-.24,0-.29,0-.25-.3.61-3.16,1.2-6.33,1.79-9.5,0-.24.13-.34.39-.33h2.21c.28,0,.32.1.26.34s-.09.52-.14.78C94.24,46.74,94.19,46.83,94.34,46.82Z"/>
    <path id="Trazado_7772" data-name="Trazado 7772" class="cls-2" d="M67.66,53.07A9.759,9.759,0,0,1,68,51.38a.54.54,0,0,1,.39-.1h2.18a.47.47,0,0,1,.39.12,8.37,8.37,0,0,0,.42,1.6,11.1,11.1,0,0,1-1.63,0Z"/>
    <path id="Trazado_7773" data-name="Trazado 7773" class="cls-18" d="M109.43,54.72a1.38,1.38,0,1,1-1.36-1.4,1.38,1.38,0,0,1,1.36,1.4Z"/>
    <path id="Trazado_7774" data-name="Trazado 7774" class="cls-19" d="M72.12,44.87H53.4v-.06H71.61C71.78,44.78,72,44.72,72.12,44.87Z"/>
    <path id="Trazado_7775" data-name="Trazado 7775" class="cls-20" d="M53.25,43.11c.13-.15.31-.08.46-.08h18.1c-.14.17-.33.1-.5.1H53.25Z"/>
    <path id="Trazado_7776" data-name="Trazado 7776" class="cls-21" d="M71.43,41.36H54c-.11,0-.35.17-.34-.14.15.13.34.07.51.07H70.93C71.1,41.28,71.29,41.21,71.43,41.36Z"/>
    <path id="Trazado_7777" data-name="Trazado 7777" class="cls-22" d="M53.93,56.8c-.09-.11-.13-.21.07-.23H71.21c-.15.14-.34.08-.51.08H54.42C54.25,56.65,54,56.54,53.93,56.8Z"/>
    <path id="Trazado_7778" data-name="Trazado 7778" class="cls-22" d="M54.16,39.61c.13-.15.31-.08.46-.08H70.9c-.13.18-.33.11-.49.11H54.16Z"/>
    <path id="Trazado_7779" data-name="Trazado 7779" class="cls-23" d="M70.61,58.47c-.14-.14-.31-.07-.47-.07H54.83c-.15,0-.37.12-.44-.14a1,1,0,0,0,.55.07H70.22C70.34,58.33,70.58,58.16,70.61,58.47Z"/>
    <path id="Trazado_7780" data-name="Trazado 7780" class="cls-24" d="M70.3,37.94H55.15c-.09,0-.35.18-.32-.15.15.14.34.08.51.08H69.79C70,37.86,70.15,37.79,70.3,37.94Z"/>
    <path id="Trazado_7781" data-name="Trazado 7781" class="cls-25" d="M55.53,36.19c.13-.16.3-.08.46-.08H69.06c.13,0,.35.12.39-.15.11.14,0,.21-.1.22H55.53Z"/>
    <path id="Trazado_7782" data-name="Trazado 7782" class="cls-19" d="M66.26,30.85H59.15c-.08,0-.33.13-.21-.17.14.15.31.09.47.09h6.37C65.94,30.78,66.12,30.73,66.26,30.85Z"/>
    <path id="Trazado_7783" data-name="Trazado 7783" class="cls-26" d="M59.48,67.16s-.15-.11,0-.16a1,1,0,0,1,.3,0h6c-.13.12-.29.08-.44.08h-5.4C59.79,67.07,59.61,67,59.48,67.16Z"/>
    <path id="Trazado_7784" data-name="Trazado 7784" class="cls-20" d="M60.28,29.1a.63.63,0,0,1,.44-.07h3.54c.13,0,.28.07.39-.07.08.25-.13.15-.21.15H60.28Z"/>
    <path id="Trazado_7785" data-name="Trazado 7785" class="cls-26" d="M64,68.89c-.09-.13-.23-.07-.35-.07H61.3a.7.7,0,0,1-.4-.08h2.89C63.88,68.75,64.07,68.64,64,68.89Z"/>
    <path id="Trazado_7786" data-name="Trazado 7786" class="cls-27" d="M72.19,45.47a.59.59,0,0,1-.06-.39C72.23,45.2,72.19,45.34,72.19,45.47Z"/>
    <path id="Trazado_7787" data-name="Trazado 7787" class="cls-28" d="M94.34,46.82s-.07.15-.11.11,0-.18,0-.26Z"/>
    <path id="Trazado_7788" data-name="Trazado 7788" class="cls-17" d="M28,46.77q-1.8,4.27-3.59,8.56a.45.45,0,0,1-.52.34H22.52c-.29,0-.39-.06-.4-.37-.06-2.87-.15-5.75-.23-8.63a.17.17,0,0,0-.06-.12l-.39,2q-.69,3.45-1.37,6.92c0,.19-.12.24-.3.24H17.33c-.25,0-.26-.1-.22-.29q1.18-6,2.35-11.91c0-.17.1-.23.27-.23h4c.25,0,.25.12.25.3,0,1.66.08,3.32.11,5v2.18c.2-.09.2-.23.24-.34.89-2.26,1.79-4.51,2.67-6.77a.46.46,0,0,1,.51-.36h4.15c.29,0,.33.09.28.34q-1,5.18-2,10.35c-.09.47-.19.94-.26,1.42,0,.23-.11.34-.38.33H26.78c-.24,0-.31,0-.26-.31.53-2.76,1-5.52,1.55-8.28v-.22C28.07,46.85,28.09,46.73,28,46.77Z"/>
    <path id="Trazado_7789" data-name="Trazado 7789" class="cls-17" d="M32.42,48.12c.14-.74.28-1.43.42-2.13,0-.1.09-.13.18-.15a10.38,10.38,0,0,1,5.33-.33c1.89.45,2.65,1.72,2.31,3.66s-.7,4.11-1,6.17c0,.23-.09.33-.34.32H37.19c-.26,0-.31-.08-.26-.3a1.49,1.49,0,0,0,0-.64,4.37,4.37,0,0,1-1.75,1,4.57,4.57,0,0,1-2.11.1,2.63,2.63,0,0,1-2.16-3.11,3.51,3.51,0,0,1,2.68-3.1,9.36,9.36,0,0,1,3.72-.36c.33,0,.39-.1.41-.36,0-.71-.21-1-.94-1.11a11.74,11.74,0,0,0-4.36.34Z"/>
    <path id="Trazado_7790" data-name="Trazado 7790" class="cls-17" d="M54.6,53.06a8.51,8.51,0,0,1-.24-1.67.41.41,0,0,1-.07-.11,2.68,2.68,0,0,1,.15-1.58.44.44,0,0,1,.14-.13,5.8,5.8,0,0,1,3.08-3.83,5.18,5.18,0,0,1,4.37,0,3.5,3.5,0,0,1,2,3.47c0,.13,0,.25,0,.38a.41.41,0,0,1,.07.11,5.34,5.34,0,0,1-.29,1.68.26.26,0,0,1-.07.11.81.81,0,0,1-.64.16H58.2c-.63,0-.73.17-.47.75a1.33,1.33,0,0,0,.46.54,1.74,1.74,0,0,0,1.22.43,9.31,9.31,0,0,0,2.83-.2,1.74,1.74,0,0,0,.56-.21c.2,0,.39-.12.58,0a.22.22,0,0,1,.09.16,3.61,3.61,0,0,1-.41,1.73c-.06.69-.6.75-1.12.83a10.33,10.33,0,0,1-4.46-.1,6.35,6.35,0,0,1-1.61-.74,2.31,2.31,0,0,1-1.27-1.78Z"/>
    <path id="Trazado_7791" data-name="Trazado 7791" class="cls-17" d="M42.94,55.8a18.471,18.471,0,0,1-2.39-.22c-.28,0-.37-.15-.3-.45.12-.53.2-1.07.29-1.61,0-.23.09-.32.38-.25a8.42,8.42,0,0,0,3.31.26,3.15,3.15,0,0,0,.44-.11.76.76,0,0,0,.54-.63.73.73,0,0,0-.38-.7,8.37,8.37,0,0,0-1.08-.54l-.59-.26a2.7,2.7,0,0,1-1.77-2.74,3,3,0,0,1,2.17-2.86,8,8,0,0,1,3-.36c.63,0,1.26.1,1.89.14.3,0,.37.14.31.43q-.16.83-.27,1.65c0,.23-.12.29-.35.27a20.13,20.13,0,0,0-2.2-.08,2.25,2.25,0,0,0-.81.16.63.63,0,0,0-.46.55.66.66,0,0,0,.31.68,6.07,6.07,0,0,0,.89.43c.26.11.52.2.77.32a2.64,2.64,0,0,1,1.67,2.65,2.91,2.91,0,0,1-1.83,2.82,7,7,0,0,1-3,.45Z"/>
    <path id="Trazado_7792" data-name="Trazado 7792" class="cls-29" d="M54.6,53.06a4.92,4.92,0,0,0,1.27,1.78,16.189,16.189,0,0,1-2.31,0,5.06,5.06,0,0,1,.17-1.22c0-.25,0-.36-.26-.28a1.5,1.5,0,0,1-.37,0c-.05-.21,0-.3.25-.29Z"/>
    <path id="Trazado_7793" data-name="Trazado 7793" class="cls-30" d="M63.06,54.85a10.109,10.109,0,0,1,.26-1.44V53a1.15,1.15,0,0,1,1.11.07,11,11,0,0,1-.36,1.78,4.7,4.7,0,0,1-1.01,0Z"/>
    <path id="Trazado_7794" data-name="Trazado 7794" class="cls-31" d="M28,46.77l.08-.22c.1.12,0,.21,0,.3Z"/>
    <path id="Trazado_7795" data-name="Trazado 7795" class="cls-32" d="M106.67,66.58a1.37,1.37,0,1,1,.369.987,1.38,1.38,0,0,1-.369-.987Z"/>
    <path id="Trazado_7796" data-name="Trazado 7796" class="cls-33" d="M103,50.05a3.75,3.75,0,0,1-.67,2.25,2.17,2.17,0,0,1-1.53,1,1.45,1.45,0,0,1-1.73-1.12,4,4,0,0,1,.56-3.31,2.07,2.07,0,0,1,1.51-.94c1.09-.12,1.76.48,1.86,1.66Z"/>
    <path id="Trazado_7797" data-name="Trazado 7797" class="cls-33" d="M86,51.1c.94,0,1,.07.75.87A2.18,2.18,0,0,1,85,53.65,1.19,1.19,0,0,1,83.52,53a1.28,1.28,0,0,1,.72-1.51A4.33,4.33,0,0,1,86,51.1Z"/>
    <path id="Trazado_7798" data-name="Trazado 7798" class="cls-33" d="M68,51.32a6.94,6.94,0,0,1,.48-1.67,21.309,21.309,0,0,1,2.26,0c.13,0,.2,0,.19.18a1.55,1.55,0,0,1,0,.48v1a9.739,9.739,0,0,1-1.62,0A7.39,7.39,0,0,1,68,51.32Z"/>
    <path id="Trazado_7799" data-name="Trazado 7799" class="cls-34" d="M70.91,50.27c0-.63,0-.63-.68-.62H68.49l.06-.08H71A2.05,2.05,0,0,1,70.91,50.27Z"/>
    <path id="Trazado_7800" data-name="Trazado 7800" class="cls-24" d="M68,51.32h3v.08H68A.06.06,0,0,1,68,51.32Z"/>
    <path id="Trazado_7801" data-name="Trazado 7801" class="cls-33" d="M54.55,49.65a10.291,10.291,0,0,0-.19,1.67,5.38,5.38,0,0,1-1.5,0V51.2c-.1-.21,0-.43-.07-.63V50c-.07-.43-.07-.44.34-.43a7.58,7.58,0,0,1,1.42.08Z"/>
    <path id="Trazado_7802" data-name="Trazado 7802" class="cls-22" d="M54.55,49.65H53.19c-.45,0-.45.09-.41.4-.12-.45-.11-.47.34-.47h1.46Z"/>
    <path id="Trazado_7803" data-name="Trazado 7803" class="cls-35" d="M52.86,51.31h1.5v.07H53.2C53.09,51.39,53,51.45,52.86,51.31Z"/>
    <path id="Trazado_7804" data-name="Trazado 7804" class="cls-22" d="M64.06,49.65v-.08h1.06v.06A.92.92,0,0,1,64.06,49.65Z"/>
    <path id="Trazado_7805" data-name="Trazado 7805" class="cls-36" d="M52.79,50.56c.13.2.05.42.07.63a1.23,1.23,0,0,1-.07-.63Z"/>
    <path id="Trazado_7806" data-name="Trazado 7806" class="cls-2" d="M64.48,53.07A5.18,5.18,0,0,1,63.37,53c-.18-.06-.34.08-.52.08a21.48,21.48,0,0,1-4.09.13,1.56,1.56,0,0,1-.63-.14,1.37,1.37,0,0,1-.7-1.21c0-.28,0-.4.37-.4h5.51c.15,0,.31.05.43-.09a1.17,1.17,0,0,1,1.06,0Z"/>
    <path id="Trazado_7807" data-name="Trazado 7807" class="cls-30" d="M64.06,49.65h1.06a11.86,11.86,0,0,1-.32,1.68,3.09,3.09,0,0,1-1,0Z"/>
    <path id="Trazado_7808" data-name="Trazado 7808" class="cls-24" d="M63.75,51.32h1v.08H63.69Z"/>
    <path id="Trazado_7809" data-name="Trazado 7809" class="cls-30" d="M109.2,54.69a1.15,1.15,0,1,1-1.14-1.15,1.17,1.17,0,0,1,1.14,1.15Z"/>
    <path id="Trazado_7810" data-name="Trazado 7810" class="cls-2" d="M36.44,51.1c.94,0,.88,0,.66.84a2.1,2.1,0,0,1-1.76,1.71A1.24,1.24,0,0,1,33.91,53a1.28,1.28,0,0,1,.71-1.52,4.36,4.36,0,0,1,1.82-.38Z"/>
    <path id="Trazado_7811" data-name="Trazado 7811" class="cls-2" d="M57.77,49.41a2,2,0,0,1,2.56-1.71,1.39,1.39,0,0,1,.83,1.58.16.16,0,0,1-.19.13Z"/>
    <path id="Trazado_7812" data-name="Trazado 7812" class="cls-30" d="M58.13,53.07h4.72a7.1,7.1,0,0,1-4.08.3,1.32,1.32,0,0,1-.64-.3Z"/>
    <path id="Trazado_7813" data-name="Trazado 7813" class="cls-37" d="M106.9,66.56a1.15,1.15,0,1,1,1.15,1.15A1.15,1.15,0,0,1,106.9,66.56Z"/>
    <path id="Trazado_7814" data-name="Trazado 7814" class="cls-38" d="M108.66,55.42c-.2.1-.28,0-.36-.13a2,2,0,0,0-.23-.34.28.28,0,0,0-.31-.11c-.13,0-.07.17-.08.26a1.769,1.769,0,0,0,0,.23c0,.07,0,.12-.11.13s-.12-.06-.13-.14V54.14a.28.28,0,0,1,0-.1,1.4,1.4,0,0,1,.81,0,.35.35,0,0,1,.31.38c0,.06,0,.15,0,.17-.42.27-.1.48,0,.71Z"/>
    <path id="Trazado_7815" data-name="Trazado 7815" class="cls-39" d="M108.65,67.32a.23.23,0,0,1-.33-.12,4.133,4.133,0,0,0-.22-.35.29.29,0,0,0-.34-.12c-.13,0-.06.17-.08.26v.19c0,.08,0,.16-.11.17s-.12-.07-.12-.15V66.02a.23.23,0,0,1,0-.14,1.41,1.41,0,0,1,1,.12c.21.25.14.46-.12.63s0,.14,0,.21a1.66,1.66,0,0,1,.32.48Z"/>
    <path id="Trazado_7816" data-name="Trazado 7816" class="cls-40" d="M108,54.63c-.22,0-.31,0-.31-.22s.09-.24.25-.23.4,0,.41.22S108.08,54.6,108,54.63Z"/>
    <path id="Trazado_7817" data-name="Trazado 7817" class="cls-41" d="M108,66.07c.18,0,.37,0,.36.2s-.25.23-.43.25-.21-.1-.21-.26S107.85,66.08,108,66.07Z"/>
  </g>
</svg>
