<svg xmlns="http://www.w3.org/2000/svg" width="1024" height="1024" viewBox="0 0 1024 1024">
  <defs>
    <style>
      .cls-1 {
        fill: none;
      }

      .cls-2 {
        fill: #00bcd4;
        fill-rule: evenodd;
      }
    </style>
  </defs>
  <g id="Group_33" data-name="Group 33" transform="translate(-1925 -3127)">
    <rect id="Rectangle_9" data-name="Rectangle 9" class="cls-1" width="1024" height="1024" transform="translate(1925 3127)"/>
    <g id="Group_24" data-name="Group 24" transform="translate(1931 3133)">
      <rect id="Rectangle_4" data-name="Rectangle 4" class="cls-1" width="1012" height="1012"/>
      <g id="Group_19" data-name="Group 19">
        <path id="Path_13" data-name="Path 13" class="cls-2" d="M265.54,153.528c-47.836,0-83.855,36.306-83.855,83.855s36.018,97.831,83.855,97.831c47.594,0,83.855-50.282,83.855-97.831S313.134,153.528,265.54,153.528Zm237.589,852.524c277.305,0,503.129-226.082,503.129-503.129S780.434-.206,503.129-.206,0,225.877,0,502.923c0,200.871,123.029,381.144,293.492,461.2V391.117a55.506,55.506,0,0,1,55.9-55.9h0c6.556,0,8.148-1.941,13.976,0,43.708-79.572,126.483-139.758,223.613-139.758,142.052,0,265.54,123.621,265.54,265.54S729.036,712.56,586.984,712.56c-73.819,0-134.82-34.122-181.685-83.855V992.076C437.594,998.626,468.891,1006.052,503.129,1006.052Z" transform="translate(0 0.206)"/>
        <path id="Path_14" data-name="Path 14" class="cls-2" d="M1954.244,1255.992c-82.32,0-139.762,71.5-139.762,153.733,0,82.5,57.442,139.76,139.762,139.76s153.734-57.259,153.734-139.76C2107.979,1327.5,2036.566,1255.992,1954.244,1255.992Z" transform="translate(-1367.255 -948.525)"/>
      </g>
    </g>
  </g>
</svg>
