<svg xmlns="http://www.w3.org/2000/svg" width="63.33" height="79.38" viewBox="0 0 63.33 79.38">
  <defs>
    <style>
      .cls-1 {
        fill: #0b9447;
      }

      .cls-2 {
        fill: #0e9647;
      }

      .cls-3 {
        fill: #0158a1;
      }
    </style>
  </defs>
  <g id="Artboard_246_copy_2" data-name="Artboard 246 copy 2" transform="translate(-30.55 -8.91)">
    <path id="Trazado_7743" data-name="Trazado 7743" class="cls-1" d="M30.55,78.1c1.25-1.1,2.52-2.1,3.76-3.19,2.5-2.19,5-4.4,7.6-6.71V73H82.53V37.5h2V78.25a5.11,5.11,0,0,1-5.11,5.24H42v4.8L39.37,86l-8.2-7.22a4.38,4.38,0,0,0-.62-.4Zm33.16,1.56h5a1.41,1.41,0,0,0,1.42-1.35,1.37,1.37,0,0,0-1.21-1.45h-5.2Zm-1.06-2.82H57.49a1.26,1.26,0,0,0-1.24,1.23,1.29,1.29,0,0,0,1.08,1.54c1.77.07,3.54,0,5.32,0Z"/>
    <path id="Trazado_7744" data-name="Trazado 7744" class="cls-2" d="M93.85,19l-8.54,7.5L82.49,29V24.26H43.85V56.91H41.76V19.07a5.24,5.24,0,0,1,5.36-5.4c11.45.08,22.9,0,34.35,0h.92V8.91h.15c2.66,2.36,5.32,4.73,8,7.08,1.09,1,2.22,1.9,3.34,2.84ZM63.21,17.52H57.79c-.92,0-1.45.44-1.53,1.2a1.42,1.42,0,0,0,1.57,1.65H68.36c1.09,0,1.75-.53,1.76-1.41s-.62-1.44-1.72-1.45Z"/>
    <path id="Trazado_7745" data-name="Trazado 7745" class="cls-3" d="M69.37,37.83,52.44,53.6c-1.94-3.4-1.67-9.17,1.85-13.08a12.19,12.19,0,0,1,15.08-2.69Z"/>
    <path id="Trazado_7746" data-name="Trazado 7746" class="cls-3" d="M70.79,46.16,57.18,59.07a11.65,11.65,0,0,1-3.86-3.74c1.11-1.29,2.08-2.54,3.19-3.65,1.76-1.78,3.62-3.47,5.44-5.19a1.15,1.15,0,0,1,.65-.32C65.26,46.15,67.91,46.16,70.79,46.16Z"/>
    <path id="Trazado_7747" data-name="Trazado 7747" class="cls-3" d="M75.06,52.66a12.07,12.07,0,0,1-16.17,7.25c.62-.67,1.25-1.39,1.92-2,1.66-1.64,3.34-3.25,5-4.86a1,1,0,0,1,.57-.32C69.27,52.65,72.16,52.66,75.06,52.66Z"/>
  </g>
</svg>
