<svg xmlns="http://www.w3.org/2000/svg" viewBox="0 0 48.3 44.44"><defs><style>.cls-1{fill:#50545c;}</style></defs><g id="Capa_2" data-name="Capa 2"><g id="Capa_1-2" data-name="Capa 1"><path class="cls-1" d="M24.24,19.68H13.67a3.39,3.39,0,0,1-3.53-3.49q0-6.24,0-12.47A3.8,3.8,0,0,1,13.88,0H34.61a3.74,3.74,0,0,1,3.73,3.71V16a3.43,3.43,0,0,1-3.65,3.67ZM37,7.49H11.39c0,2.88-.05,5.72,0,8.56,0,1.62,1,2.37,2.61,2.37H34.87A2.08,2.08,0,0,0,37,16.29C37.08,13.37,37,10.45,37,7.49Zm0-3.26a2.53,2.53,0,0,0-2.5-3H13.94A2.62,2.62,0,0,0,11.45,3.5c-.11.76-.11.76.66.76H36.37C36.58,4.26,36.79,4.24,37,4.23Z" transform="translate(0 0)"/><path class="cls-1" d="M7.85,23.45l-3.37,7.7H3.39L0,23.45H1.19L4,29.78l2.79-6.33Z" transform="translate(0 0)"/><path class="cls-1" d="M8.83,23.45h1.1v7.7H8.83Z" transform="translate(0 0)"/><path class="cls-1" d="M17.39,31.15l-1.66-2.36-.48,0H13.34v2.34h-1.1v-7.7h3a3.55,3.55,0,0,1,2.35.72,2.42,2.42,0,0,1,.86,2A2.57,2.57,0,0,1,18,27.65a2.5,2.5,0,0,1-1.26.92l1.83,2.58Zm-.58-3.73a1.78,1.78,0,0,0,0-2.57,2.54,2.54,0,0,0-1.6-.44H13.34v3.46h1.87A2.48,2.48,0,0,0,16.81,27.42Z" transform="translate(0 0)"/><path class="cls-1" d="M21.66,24.41H19v-1h6.37v1H22.75v6.74H21.66Z" transform="translate(0 0)"/><path class="cls-1" d="M27.24,30.36a3.45,3.45,0,0,1-.86-2.53V23.45h1.1v4.34c0,1.65.72,2.47,2.17,2.47a2.06,2.06,0,0,0,1.61-.61,2.65,2.65,0,0,0,.56-1.86V23.45h1.07v4.38A3.5,3.5,0,0,1,32,30.37a3.21,3.21,0,0,1-2.4.87A3.17,3.17,0,0,1,27.24,30.36Z" transform="translate(0 0)"/><path class="cls-1" d="M39.88,29.23H35.79L35,31.15H33.81l3.49-7.7h1.09l3.5,7.7H40.73Zm-.38-.88-1.66-3.78-1.66,3.78Z" transform="translate(0 0)"/><path class="cls-1" d="M43,23.45h1.1V30.2H48.3v.95H43Z" transform="translate(0 0)"/><path class="cls-1" d="M10.27,43.93a3.71,3.71,0,0,1-1.45-1.41,4.11,4.11,0,0,1,0-4,3.78,3.78,0,0,1,1.46-1.4,4.29,4.29,0,0,1,2.09-.52,4.41,4.41,0,0,1,1.65.31,3.48,3.48,0,0,1,1.28.89l-.72.7a2.87,2.87,0,0,0-2.17-.92,3.13,3.13,0,0,0-1.55.39A2.82,2.82,0,0,0,9.78,39a3.12,3.12,0,0,0,0,3,2.78,2.78,0,0,0,1.08,1.07,3.23,3.23,0,0,0,1.55.38,2.9,2.9,0,0,0,2.17-.92l.72.69a3.35,3.35,0,0,1-1.29.9,4.22,4.22,0,0,1-1.65.31A4.28,4.28,0,0,1,10.27,43.93Z" transform="translate(0 0)"/><path class="cls-1" d="M21.59,42.43H17.5l-.85,1.92H15.52L19,36.65h1.09l3.5,7.7H22.43Zm-.39-.88-1.66-3.78-1.66,3.78Z" transform="translate(0 0)"/><path class="cls-1" d="M29.88,44.35,28.22,42l-.48,0H25.83v2.34h-1.1v-7.7h3a3.55,3.55,0,0,1,2.35.72,2.43,2.43,0,0,1,.86,2,2.57,2.57,0,0,1-.44,1.51,2.5,2.5,0,0,1-1.26.92l1.83,2.58Zm-.58-3.73a1.78,1.78,0,0,0,0-2.57,2.54,2.54,0,0,0-1.6-.44H25.83v3.46H27.7A2.42,2.42,0,0,0,29.3,40.62Z" transform="translate(0 0)"/><path class="cls-1" d="M32.73,36.65H36a4.58,4.58,0,0,1,2.16.49,3.52,3.52,0,0,1,1.47,1.36,4.13,4.13,0,0,1,0,4,3.58,3.58,0,0,1-1.47,1.36,4.7,4.7,0,0,1-2.16.48H32.73Zm3.18,6.75A3.57,3.57,0,0,0,37.55,43a2.59,2.59,0,0,0,1.1-1,3.19,3.19,0,0,0,0-3,2.65,2.65,0,0,0-1.1-1,3.57,3.57,0,0,0-1.64-.36H33.83V43.4Z" transform="translate(0 0)"/></g></g></svg>