<svg xmlns="http://www.w3.org/2000/svg" width="108.452" height="33.2" viewBox="0 0 108.452 33.2">
  <defs>
    <style>
      .cls-1 {
        fill: #0158a1;
      }

      .cls-2 {
        fill: #faa71b;
      }

      .cls-3 {
        fill: #e3ab5d;
      }

      .cls-4 {
        fill: #b3906b;
      }
    </style>
  </defs>
  <g id="Artboard_246_copy_4" data-name="Artboard 246 copy 4" transform="translate(-8.068 -33.98)">
    <path id="Trazado_7819" data-name="Trazado 7819" class="cls-1" d="M29.32,51.94c.11.39.17.79.26,1.19l.66,3.22v.13a1.54,1.54,0,0,0,.09-.19q4.2-10.74,8.41-21.48c.11-.3,0-.25.36-.25h8.8a.65.65,0,0,1,.24,0,.325.325,0,0,1-.08.26L41.88,49.2q-3.72,8.64-7.42,17.28a.34.34,0,0,1-.37.24H25.42a1.339,1.339,0,0,0-.2,0c-.12,0-.17,0-.21-.15-.16-.61-.33-1.21-.5-1.82q-3-10.56-5.9-21.13c-.44-1.59-.89-3.19-1.33-4.79v-.07c0-.07.23.05.32.1a30.47,30.47,0,0,1,4.73,3.32,26.4,26.4,0,0,1,2.16,2.07,24.51,24.51,0,0,1,3.86,5.44c.33.63.63,1.26.9,1.92a.43.43,0,0,0,0,.11.42.42,0,0,0,0,.1h0A.14.14,0,0,0,29.32,51.94Z"/>
    <path id="Trazado_7820" data-name="Trazado 7820" class="cls-1" d="M85.59,55.93a7,7,0,0,0-1-3.56A9.21,9.21,0,0,0,82.43,50a16.19,16.19,0,0,0-3-1.92c-.9-.47-1.84-.88-2.74-1.35A15.681,15.681,0,0,1,74.6,45.5a4.54,4.54,0,0,1-.83-.75,1.86,1.86,0,0,1,0-2.5,3.51,3.51,0,0,1,1.31-.94,6.67,6.67,0,0,1,2.37-.55,16.32,16.32,0,0,1,3.42.11,15.58,15.58,0,0,1,4.61,1.36l.17.08a.22.22,0,0,0,.06-.14c.06-.37.12-.73.19-1.09.19-1.15.39-2.3.58-3.44l.36-2.11c0-.18,0-.19-.14-.25a22.24,22.24,0,0,0-3.69-1c-.88-.15-1.77-.23-2.67-.3H77.22a20.5,20.5,0,0,0-3.66.57,16,16,0,0,0-4.65,2A10.87,10.87,0,0,0,66,39.17,8.92,8.92,0,0,0,64.19,44a6.94,6.94,0,0,0,1.36,4.86A10.23,10.23,0,0,0,67,50.38a17.44,17.44,0,0,0,3.67,2.4c.75.38,1.5.72,2.25,1.09a14.52,14.52,0,0,1,2,1.17,5.64,5.64,0,0,1,.86.76,2.33,2.33,0,0,1,0,3.17,4.2,4.2,0,0,1-1.38.93,8.26,8.26,0,0,1-3.06.6,24.921,24.921,0,0,1-2.73-.11,16.81,16.81,0,0,1-3.84-.86c-1-.34-1.9-.73-2.83-1.15-.16-.08-.17-.08-.2.1-.38,2.26-.77,4.51-1.16,6.77,0,.26,0,.27.21.37A24.92,24.92,0,0,0,66.86,67c.66.08,1.32.12,2,.18h3l1-.08a22.61,22.61,0,0,0,3.37-.58,15.71,15.71,0,0,0,4.55-1.91,10.68,10.68,0,0,0,3.25-3.17A9.62,9.62,0,0,0,85.59,55.93Z"/>
    <path id="Trazado_7821" data-name="Trazado 7821" class="cls-1" d="M116.48,66.54h0a3.78,3.78,0,0,0-.08-.6c-.24-1.05-.47-2.11-.7-3.16-.63-2.87-1.27-5.74-1.9-8.61s-1.31-5.89-2-8.83l-2.3-10.4c-.08-.39-.09-.39-.5-.39h-6.29a10.67,10.67,0,0,0-1.13,0,4.49,4.49,0,0,0-2.31.85,5,5,0,0,0-1.44,2l-2,4.59q-1.22,2.72-2.41,5.45l-2.19,5c-.81,1.82-1.61,3.63-2.41,5.45-.69,1.55-1.38,3.11-2.06,4.66-.58,1.32-1.17,2.63-1.74,4-.12.27-.09.33.21.33h8.64c.32,0,.37,0,.47-.3L96,62.25a.34.34,0,0,1,.37-.25H107c.27,0,.27,0,.33.27.33,1.4.63,2.82.94,4.23.07.29.09.31.37.31h7.62a.35.35,0,0,0,.26-.06v-.08h0ZM98.57,55.32c1.55-4,3.12-8,4.67-12l2.61,12Z"/>
    <path id="Trazado_7822" data-name="Trazado 7822" class="cls-1" d="M60.24,34.53H51.89c-.12,0-.17,0-.19.15-.07.46-.15.93-.23,1.39l-.63,3.71-.63,3.7-.63,3.69c-.19,1.14-.39,2.28-.58,3.41s-.42,2.48-.64,3.72-.39,2.29-.58,3.44l-.63,3.67-.63,3.69c-.09.54-.18,1.08-.28,1.65h8.6c.18,0,.18,0,.21-.18.26-1.55.52-3.09.79-4.64.3-1.73.6-3.47.89-5.2.27-1.58.53-3.15.8-4.72l.72-4.21c.23-1.31.45-2.63.67-3.95.26-1.48.51-3,.76-4.44l.69-4c.05-.28.09-.57.14-.85a.64.64,0,0,0-.27-.03Z"/>
    <path id="Trazado_7823" data-name="Trazado 7823" class="cls-2" d="M29.2,51.66A25.68,25.68,0,0,0,28,49.13a25.57,25.57,0,0,0-5.41-6.66,29.23,29.23,0,0,0-5.1-3.61.63.63,0,0,0-.2-.1,9.84,9.84,0,0,0-.9-.5A37.39,37.39,0,0,0,8.8,35.39l-.65-.16c-.06,0-.09,0-.08-.12s.05-.31.08-.47.05-.12.13-.11h13.9a6.45,6.45,0,0,1,1.63.21,3.27,3.27,0,0,1,2.54,2.69q.81,3.84,1.6,7.69c.43,2.09.87,4.18,1.3,6.27v.13C29.25,51.56,29.28,51.63,29.2,51.66Z"/>
    <path id="Trazado_7824" data-name="Trazado 7824" class="cls-3" d="M29.2,51.66v-.14a.38.38,0,0,1,.05.21H29.2Z"/>
    <path id="Trazado_7825" data-name="Trazado 7825" class="cls-3" d="M29.28,51.87a.07.07,0,0,1,0-.09h0a.22.22,0,0,1,0,.14A.078.078,0,0,0,29.28,51.87Z"/>
    <path id="Trazado_7826" data-name="Trazado 7826" class="cls-4" d="M29.28,51.87h0v.07a.1.1,0,0,1,0-.07Z"/>
    <path id="Trazado_7827" data-name="Trazado 7827" class="cls-4" d="M29.27,51.75v.09a.13.13,0,0,1,0-.1Z"/>
  </g>
</svg>
